<svg xmlns="http://www.w3.org/2000/svg" width="1600" height="1200" viewBox="0 0 1600 1200">
<rect width="100%" height="100%" fill="#10243a"/>
<rect x="332.134" y="60.312" width="270.870" height="221.621" fill="#ac9c82" stroke="none" stroke-width="1" opacity="0.72"/>
<rect x="676.877" y="60.312" width="147.747" height="123.123" fill="#ac9c82" stroke="none" stroke-width="1" opacity="0.72"/>
<rect x="282.885" y="84.937" width="49.249" height="73.874" fill="#ac9c82" stroke="none" stroke-width="1" opacity="0.72"/>
<rect x="603.004" y="84.937" width="73.874" height="98.498" fill="#ac9c82" stroke="none" stroke-width="1" opacity="0.72"/>
<rect x="824.625" y="84.937" width="123.123" height="123.123" fill="#ac9c82" stroke="none" stroke-width="1" opacity="0.72"/>
<rect x="947.747" y="109.561" width="24.625" height="49.249" fill="#ac9c82" stroke="none" stroke-width="1" opacity="0.72"/>
<rect x="307.509" y="158.810" width="24.625" height="344.743" fill="#ac9c82" stroke="none" stroke-width="1" opacity="0.72"/>
<rect x="701.502" y="183.435" width="123.123" height="24.625" fill="#ac9c82" stroke="none" stroke-width="1" opacity="0.72"/>
<rect x="701.502" y="208.059" width="73.874" height="24.625" fill="#ac9c82" stroke="none" stroke-width="1" opacity="0.72"/>
<rect x="849.249" y="208.059" width="98.498" height="24.625" fill="#ac9c82" stroke="none" stroke-width="1" opacity="0.72"/>
<rect x="972.372" y="208.059" width="73.874" height="270.870" fill="#ac9c82" stroke="none" stroke-width="1" opacity="0.72"/>
<rect x="701.502" y="232.684" width="49.249" height="49.249" fill="#ac9c82" stroke="none" stroke-width="1" opacity="0.72"/>
<rect x="873.874" y="232.684" width="98.498" height="73.874" fill="#ac9c82" stroke="none" stroke-width="1" opacity="0.72"/>
<rect x="332.134" y="281.933" width="172.372" height="221.621" fill="#ac9c82" stroke="none" stroke-width="1" opacity="0.72"/>
<rect x="553.755" y="281.933" width="49.249" height="24.625" fill="#ac9c82" stroke="none" stroke-width="1" opacity="0.72"/>
<rect x="726.126" y="281.933" width="24.625" height="689.487" fill="#ac9c82" stroke="none" stroke-width="1" opacity="0.72"/>
<rect x="701.502" y="306.558" width="24.625" height="664.862" fill="#ac9c82" stroke="none" stroke-width="1" opacity="0.72"/>
<rect x="898.498" y="306.558" width="73.874" height="123.123" fill="#ac9c82" stroke="none" stroke-width="1" opacity="0.72"/>
<rect x="504.506" y="331.182" width="24.625" height="172.372" fill="#ac9c82" stroke="none" stroke-width="1" opacity="0.72"/>
<rect x="873.874" y="331.182" width="24.625" height="123.123" fill="#ac9c82" stroke="none" stroke-width="1" opacity="0.72"/>
<rect x="1169.368" y="355.807" width="98.498" height="763.361" fill="#ac9c82" stroke="none" stroke-width="1" opacity="0.72"/>
<rect x="652.253" y="380.431" width="49.249" height="98.498" fill="#ac9c82" stroke="none" stroke-width="1" opacity="0.72"/>
<rect x="750.751" y="380.431" width="24.625" height="566.364" fill="#ac9c82" stroke="none" stroke-width="1" opacity="0.72"/>
<rect x="849.249" y="380.431" width="24.625" height="73.874" fill="#ac9c82" stroke="none" stroke-width="1" opacity="0.72"/>
<rect x="1095.494" y="380.431" width="73.874" height="270.870" fill="#ac9c82" stroke="none" stroke-width="1" opacity="0.72"/>
<rect x="775.375" y="405.056" width="73.874" height="73.874" fill="#ac9c82" stroke="none" stroke-width="1" opacity="0.72"/>
<rect x="1267.866" y="405.056" width="49.249" height="172.372" fill="#ac9c82" stroke="none" stroke-width="1" opacity="0.72"/>
<rect x="898.498" y="429.680" width="49.249" height="24.625" fill="#ac9c82" stroke="none" stroke-width="1" opacity="0.72"/>
<rect x="676.877" y="478.929" width="24.625" height="24.625" fill="#ac9c82" stroke="none" stroke-width="1" opacity="0.72"/>
<rect x="775.375" y="478.929" width="49.249" height="270.870" fill="#ac9c82" stroke="none" stroke-width="1" opacity="0.72"/>
<rect x="972.372" y="478.929" width="49.249" height="147.747" fill="#ac9c82" stroke="none" stroke-width="1" opacity="0.72"/>
<rect x="356.758" y="503.554" width="147.747" height="24.625" fill="#ac9c82" stroke="none" stroke-width="1" opacity="0.72"/>
<rect x="1021.621" y="503.554" width="24.625" height="147.747" fill="#ac9c82" stroke="none" stroke-width="1" opacity="0.72"/>
<rect x="1070.870" y="503.554" width="24.625" height="147.747" fill="#ac9c82" stroke="none" stroke-width="1" opacity="0.72"/>
<rect x="406.007" y="528.178" width="49.249" height="147.747" fill="#ac9c82" stroke="none" stroke-width="1" opacity="0.72"/>
<rect x="1046.245" y="528.178" width="24.625" height="98.498" fill="#ac9c82" stroke="none" stroke-width="1" opacity="0.72"/>
<rect x="282.885" y="577.428" width="123.123" height="98.498" fill="#ac9c82" stroke="none" stroke-width="1" opacity="0.72"/>
<rect x="455.257" y="577.428" width="123.123" height="73.874" fill="#ac9c82" stroke="none" stroke-width="1" opacity="0.72"/>
<rect x="1267.866" y="577.428" width="24.625" height="24.625" fill="#ac9c82" stroke="none" stroke-width="1" opacity="0.72"/>
<rect x="578.379" y="602.052" width="24.625" height="123.123" fill="#ac9c82" stroke="none" stroke-width="1" opacity="0.72"/>
<rect x="996.996" y="626.677" width="24.625" height="24.625" fill="#ac9c82" stroke="none" stroke-width="1" opacity="0.72"/>
<rect x="455.257" y="651.301" width="49.249" height="24.625" fill="#ac9c82" stroke="none" stroke-width="1" opacity="0.72"/>
<rect x="529.130" y="651.301" width="49.249" height="73.874" fill="#ac9c82" stroke="none" stroke-width="1" opacity="0.72"/>
<rect x="603.004" y="651.301" width="98.498" height="73.874" fill="#ac9c82" stroke="none" stroke-width="1" opacity="0.72"/>
<rect x="824.625" y="651.301" width="24.625" height="98.498" fill="#ac9c82" stroke="none" stroke-width="1" opacity="0.72"/>
<rect x="307.509" y="675.926" width="123.123" height="24.625" fill="#ac9c82" stroke="none" stroke-width="1" opacity="0.72"/>
<rect x="849.249" y="675.926" width="123.123" height="73.874" fill="#ac9c82" stroke="none" stroke-width="1" opacity="0.72"/>
<rect x="307.509" y="700.550" width="49.249" height="443.242" fill="#ac9c82" stroke="none" stroke-width="1" opacity="0.72"/>
<rect x="972.372" y="700.550" width="24.625" height="344.743" fill="#ac9c82" stroke="none" stroke-width="1" opacity="0.72"/>
<rect x="406.007" y="725.175" width="49.249" height="344.743" fill="#ac9c82" stroke="none" stroke-width="1" opacity="0.72"/>
<rect x="1144.743" y="725.175" width="24.625" height="49.249" fill="#ac9c82" stroke="none" stroke-width="1" opacity="0.72"/>
<rect x="775.375" y="749.799" width="24.625" height="49.249" fill="#ac9c82" stroke="none" stroke-width="1" opacity="0.72"/>
<rect x="898.498" y="749.799" width="73.874" height="270.870" fill="#ac9c82" stroke="none" stroke-width="1" opacity="0.72"/>
<rect x="282.885" y="774.424" width="24.625" height="196.996" fill="#ac9c82" stroke="none" stroke-width="1" opacity="0.72"/>
<rect x="356.758" y="774.424" width="49.249" height="295.494" fill="#ac9c82" stroke="none" stroke-width="1" opacity="0.72"/>
<rect x="455.257" y="774.424" width="24.625" height="295.494" fill="#ac9c82" stroke="none" stroke-width="1" opacity="0.72"/>
<rect x="676.877" y="774.424" width="24.625" height="221.621" fill="#ac9c82" stroke="none" stroke-width="1" opacity="0.72"/>
<rect x="1267.866" y="774.424" width="24.625" height="147.747" fill="#ac9c82" stroke="none" stroke-width="1" opacity="0.72"/>
<rect x="479.881" y="799.048" width="24.625" height="270.870" fill="#ac9c82" stroke="none" stroke-width="1" opacity="0.72"/>
<rect x="775.375" y="823.673" width="73.874" height="98.498" fill="#ac9c82" stroke="none" stroke-width="1" opacity="0.72"/>
<rect x="504.506" y="848.297" width="172.372" height="147.747" fill="#ac9c82" stroke="none" stroke-width="1" opacity="0.72"/>
<rect x="849.249" y="848.297" width="49.249" height="147.747" fill="#ac9c82" stroke="none" stroke-width="1" opacity="0.72"/>
<rect x="996.996" y="848.297" width="172.372" height="196.996" fill="#ac9c82" stroke="none" stroke-width="1" opacity="0.72"/>
<rect x="1292.491" y="848.297" width="24.625" height="49.249" fill="#ac9c82" stroke="none" stroke-width="1" opacity="0.72"/>
<rect x="529.130" y="996.045" width="123.123" height="24.625" fill="#ac9c82" stroke="none" stroke-width="1" opacity="0.72"/>
<rect x="923.123" y="1020.669" width="49.249" height="24.625" fill="#ac9c82" stroke="none" stroke-width="1" opacity="0.72"/>
<rect x="1095.494" y="1045.294" width="73.874" height="73.874" fill="#ac9c82" stroke="none" stroke-width="1" opacity="0.72"/>
<rect x="356.758" y="1069.918" width="24.625" height="49.249" fill="#ac9c82" stroke="none" stroke-width="1" opacity="0.72"/>
<rect x="849.249" y="667.717" width="123.123" height="8.208" fill="#ae9774" stroke="none" stroke-width="1" opacity="0.9"/>
<rect x="775.375" y="396.848" width="73.874" height="8.208" fill="#ae9774" stroke="none" stroke-width="1" opacity="0.9"/>
<rect x="1267.866" y="396.848" width="49.249" height="8.208" fill="#ae9774" stroke="none" stroke-width="1" opacity="0.9"/>
<rect x="282.885" y="569.219" width="123.123" height="8.208" fill="#ae9774" stroke="none" stroke-width="1" opacity="0.9"/>
<rect x="455.257" y="569.219" width="123.123" height="8.208" fill="#ae9774" stroke="none" stroke-width="1" opacity="0.9"/>
<rect x="504.506" y="840.089" width="172.372" height="8.208" fill="#ae9774" stroke="none" stroke-width="1" opacity="0.9"/>
<rect x="849.249" y="840.089" width="49.249" height="8.208" fill="#ae9774" stroke="none" stroke-width="1" opacity="0.9"/>
<rect x="996.996" y="840.089" width="172.372" height="8.208" fill="#ae9774" stroke="none" stroke-width="1" opacity="0.9"/>
<rect x="1292.491" y="840.089" width="24.625" height="8.208" fill="#ae9774" stroke="none" stroke-width="1" opacity="0.9"/>
<rect x="1169.368" y="347.599" width="98.498" height="8.208" fill="#ae9774" stroke="none" stroke-width="1" opacity="0.9"/>
<rect x="332.134" y="52.104" width="270.870" height="8.208" fill="#ae9774" stroke="none" stroke-width="1" opacity="0.9"/>
<rect x="676.877" y="52.104" width="147.747" height="8.208" fill="#ae9774" stroke="none" stroke-width="1" opacity="0.9"/>
<rect x="1021.621" y="495.346" width="24.625" height="8.208" fill="#ae9774" stroke="none" stroke-width="1" opacity="0.9"/>
<rect x="1070.870" y="495.346" width="24.625" height="8.208" fill="#ae9774" stroke="none" stroke-width="1" opacity="0.9"/>
<rect x="603.004" y="643.093" width="98.498" height="8.208" fill="#ae9774" stroke="none" stroke-width="1" opacity="0.9"/>
<rect x="824.625" y="643.093" width="24.625" height="8.208" fill="#ae9774" stroke="none" stroke-width="1" opacity="0.9"/>
<rect x="652.253" y="372.223" width="49.249" height="8.208" fill="#ae9774" stroke="none" stroke-width="1" opacity="0.9"/>
<rect x="750.751" y="372.223" width="24.625" height="8.208" fill="#ae9774" stroke="none" stroke-width="1" opacity="0.9"/>
<rect x="849.249" y="372.223" width="24.625" height="8.208" fill="#ae9774" stroke="none" stroke-width="1" opacity="0.9"/>
<rect x="1095.494" y="372.223" width="73.874" height="8.208" fill="#ae9774" stroke="none" stroke-width="1" opacity="0.9"/>
<rect x="282.885" y="766.216" width="24.625" height="8.208" fill="#ae9774" stroke="none" stroke-width="1" opacity="0.9"/>
<rect x="356.758" y="766.216" width="49.249" height="8.208" fill="#ae9774" stroke="none" stroke-width="1" opacity="0.9"/>
<rect x="455.257" y="766.216" width="24.625" height="8.208" fill="#ae9774" stroke="none" stroke-width="1" opacity="0.9"/>
<rect x="676.877" y="766.216" width="24.625" height="8.208" fill="#ae9774" stroke="none" stroke-width="1" opacity="0.9"/>
<rect x="1267.866" y="766.216" width="24.625" height="8.208" fill="#ae9774" stroke="none" stroke-width="1" opacity="0.9"/>
<rect x="282.885" y="76.729" width="49.249" height="8.208" fill="#ae9774" stroke="none" stroke-width="1" opacity="0.9"/>
<rect x="603.004" y="76.729" width="73.874" height="8.208" fill="#ae9774" stroke="none" stroke-width="1" opacity="0.9"/>
<rect x="824.625" y="76.729" width="123.123" height="8.208" fill="#ae9774" stroke="none" stroke-width="1" opacity="0.9"/>
<rect x="775.375" y="815.465" width="73.874" height="8.208" fill="#ae9774" stroke="none" stroke-width="1" opacity="0.9"/>
<rect x="972.372" y="199.851" width="73.874" height="8.208" fill="#ae9774" stroke="none" stroke-width="1" opacity="0.9"/>
<rect x="701.502" y="298.349" width="24.625" height="8.208" fill="#ae9774" stroke="none" stroke-width="1" opacity="0.9"/>
<rect x="504.506" y="322.974" width="24.625" height="8.208" fill="#ae9774" stroke="none" stroke-width="1" opacity="0.9"/>
<rect x="873.874" y="322.974" width="24.625" height="8.208" fill="#ae9774" stroke="none" stroke-width="1" opacity="0.9"/>
<rect x="479.881" y="790.840" width="24.625" height="8.208" fill="#ae9774" stroke="none" stroke-width="1" opacity="0.9"/>
<rect x="1046.245" y="519.970" width="24.625" height="8.208" fill="#ae9774" stroke="none" stroke-width="1" opacity="0.9"/>
<rect x="947.747" y="224.476" width="24.625" height="8.208" fill="#ae9774" stroke="none" stroke-width="1" opacity="0.9"/>
<rect x="947.747" y="101.353" width="24.625" height="8.208" fill="#ae9774" stroke="none" stroke-width="1" opacity="0.9"/>
<rect x="578.379" y="593.844" width="24.625" height="8.208" fill="#ae9774" stroke="none" stroke-width="1" opacity="0.9"/>
<rect x="406.007" y="716.967" width="49.249" height="8.208" fill="#ae9774" stroke="none" stroke-width="1" opacity="0.9"/>
<rect x="1144.743" y="716.967" width="24.625" height="8.208" fill="#ae9774" stroke="none" stroke-width="1" opacity="0.9"/>
<rect x="972.372" y="692.342" width="24.625" height="8.208" fill="#ae9774" stroke="none" stroke-width="1" opacity="0.9"/>
<rect x="504.506" y="651.301" width="24.625" height="8.208" fill="#ae9774" stroke="none" stroke-width="1" opacity="0.9"/>
<rect x="996.996" y="651.301" width="49.249" height="8.208" fill="#ae9774" stroke="none" stroke-width="1" opacity="0.9"/>
<rect x="1070.870" y="651.301" width="98.498" height="8.208" fill="#ae9774" stroke="none" stroke-width="1" opacity="0.9"/>
<rect x="652.253" y="478.929" width="24.625" height="8.208" fill="#ae9774" stroke="none" stroke-width="1" opacity="0.9"/>
<rect x="824.625" y="478.929" width="24.625" height="8.208" fill="#ae9774" stroke="none" stroke-width="1" opacity="0.9"/>
<rect x="1021.621" y="478.929" width="24.625" height="8.208" fill="#ae9774" stroke="none" stroke-width="1" opacity="0.9"/>
<rect x="356.758" y="1119.167" width="24.625" height="8.208" fill="#ae9774" stroke="none" stroke-width="1" opacity="0.9"/>
<rect x="1095.494" y="1119.167" width="172.372" height="8.208" fill="#ae9774" stroke="none" stroke-width="1" opacity="0.9"/>
<rect x="529.130" y="1020.669" width="123.123" height="8.208" fill="#ae9774" stroke="none" stroke-width="1" opacity="0.9"/>
<rect x="898.498" y="1020.669" width="24.625" height="8.208" fill="#ae9774" stroke="none" stroke-width="1" opacity="0.9"/>
<rect x="923.123" y="1045.294" width="172.372" height="8.208" fill="#ae9774" stroke="none" stroke-width="1" opacity="0.9"/>
<rect x="750.751" y="232.684" width="24.625" height="8.208" fill="#ae9774" stroke="none" stroke-width="1" opacity="0.9"/>
<rect x="849.249" y="232.684" width="24.625" height="8.208" fill="#ae9774" stroke="none" stroke-width="1" opacity="0.9"/>
<rect x="356.758" y="528.178" width="49.249" height="8.208" fill="#ae9774" stroke="none" stroke-width="1" opacity="0.9"/>
<rect x="455.257" y="528.178" width="49.249" height="8.208" fill="#ae9774" stroke="none" stroke-width="1" opacity="0.9"/>
<rect x="553.755" y="306.558" width="49.249" height="8.208" fill="#ae9774" stroke="none" stroke-width="1" opacity="0.9"/>
<rect x="873.874" y="306.558" width="24.625" height="8.208" fill="#ae9774" stroke="none" stroke-width="1" opacity="0.9"/>
<rect x="282.885" y="675.926" width="24.625" height="8.208" fill="#ae9774" stroke="none" stroke-width="1" opacity="0.9"/>
<rect x="430.632" y="675.926" width="73.874" height="8.208" fill="#ae9774" stroke="none" stroke-width="1" opacity="0.9"/>
<rect x="529.130" y="725.175" width="172.372" height="8.208" fill="#ae9774" stroke="none" stroke-width="1" opacity="0.9"/>
<rect x="282.885" y="158.810" width="24.625" height="8.208" fill="#ae9774" stroke="none" stroke-width="1" opacity="0.9"/>
<rect x="947.747" y="158.810" width="24.625" height="8.208" fill="#ae9774" stroke="none" stroke-width="1" opacity="0.9"/>
<rect x="849.249" y="454.305" width="98.498" height="8.208" fill="#ae9774" stroke="none" stroke-width="1" opacity="0.9"/>
<rect x="307.509" y="1143.792" width="49.249" height="8.208" fill="#ae9774" stroke="none" stroke-width="1" opacity="0.9"/>
<rect x="307.509" y="503.554" width="49.249" height="8.208" fill="#ae9774" stroke="none" stroke-width="1" opacity="0.9"/>
<rect x="504.506" y="503.554" width="24.625" height="8.208" fill="#ae9774" stroke="none" stroke-width="1" opacity="0.9"/>
<rect x="676.877" y="503.554" width="24.625" height="8.208" fill="#ae9774" stroke="none" stroke-width="1" opacity="0.9"/>
<rect x="1267.866" y="602.052" width="24.625" height="8.208" fill="#ae9774" stroke="none" stroke-width="1" opacity="0.9"/>
<rect x="775.375" y="922.171" width="73.874" height="8.208" fill="#ae9774" stroke="none" stroke-width="1" opacity="0.9"/>
<rect x="1267.866" y="922.171" width="24.625" height="8.208" fill="#ae9774" stroke="none" stroke-width="1" opacity="0.9"/>
<rect x="603.004" y="183.435" width="98.498" height="8.208" fill="#ae9774" stroke="none" stroke-width="1" opacity="0.9"/>
<rect x="381.383" y="1069.918" width="123.123" height="8.208" fill="#ae9774" stroke="none" stroke-width="1" opacity="0.9"/>
<rect x="504.506" y="996.045" width="24.625" height="8.208" fill="#ae9774" stroke="none" stroke-width="1" opacity="0.9"/>
<rect x="652.253" y="996.045" width="49.249" height="8.208" fill="#ae9774" stroke="none" stroke-width="1" opacity="0.9"/>
<rect x="849.249" y="996.045" width="49.249" height="8.208" fill="#ae9774" stroke="none" stroke-width="1" opacity="0.9"/>
<rect x="282.885" y="971.420" width="24.625" height="8.208" fill="#ae9774" stroke="none" stroke-width="1" opacity="0.9"/>
<rect x="701.502" y="971.420" width="49.249" height="8.208" fill="#ae9774" stroke="none" stroke-width="1" opacity="0.9"/>
<rect x="972.372" y="626.677" width="24.625" height="8.208" fill="#ae9774" stroke="none" stroke-width="1" opacity="0.9"/>
<rect x="1046.245" y="626.677" width="24.625" height="8.208" fill="#ae9774" stroke="none" stroke-width="1" opacity="0.9"/>
<rect x="356.758" y="700.550" width="73.874" height="8.208" fill="#ae9774" stroke="none" stroke-width="1" opacity="0.9"/>
<rect x="504.506" y="281.933" width="49.249" height="8.208" fill="#ae9774" stroke="none" stroke-width="1" opacity="0.9"/>
<rect x="701.502" y="281.933" width="24.625" height="8.208" fill="#ae9774" stroke="none" stroke-width="1" opacity="0.9"/>
<rect x="750.751" y="946.796" width="24.625" height="8.208" fill="#ae9774" stroke="none" stroke-width="1" opacity="0.9"/>
<rect x="800.000" y="749.799" width="98.498" height="8.208" fill="#ae9774" stroke="none" stroke-width="1" opacity="0.9"/>
<rect x="1292.491" y="577.428" width="24.625" height="8.208" fill="#ae9774" stroke="none" stroke-width="1" opacity="0.9"/>
<rect x="775.375" y="208.059" width="73.874" height="8.208" fill="#ae9774" stroke="none" stroke-width="1" opacity="0.9"/>
<rect x="1144.743" y="774.424" width="24.625" height="8.208" fill="#ae9774" stroke="none" stroke-width="1" opacity="0.9"/>
<rect x="775.375" y="799.048" width="24.625" height="8.208" fill="#ae9774" stroke="none" stroke-width="1" opacity="0.9"/>
<rect x="947.747" y="429.680" width="24.625" height="8.208" fill="#ae9774" stroke="none" stroke-width="1" opacity="0.9"/>
<rect x="1292.491" y="897.546" width="24.625" height="8.208" fill="#ae9774" stroke="none" stroke-width="1" opacity="0.9"/>
<rect x="274.677" y="84.937" width="8.208" height="73.874" fill="#ae9774" stroke="none" stroke-width="1" opacity="0.9"/>
<rect x="274.677" y="577.428" width="8.208" height="98.498" fill="#ae9774" stroke="none" stroke-width="1" opacity="0.9"/>
<rect x="274.677" y="774.424" width="8.208" height="196.996" fill="#ae9774" stroke="none" stroke-width="1" opacity="0.9"/>
<rect x="644.045" y="380.431" width="8.208" height="98.498" fill="#ae9774" stroke="none" stroke-width="1" opacity="0.9"/>
<rect x="1087.286" y="380.431" width="8.208" height="123.123" fill="#ae9774" stroke="none" stroke-width="1" opacity="0.9"/>
<rect x="1087.286" y="1045.294" width="8.208" height="73.874" fill="#ae9774" stroke="none" stroke-width="1" opacity="0.9"/>
<rect x="890.290" y="306.558" width="8.208" height="24.625" fill="#ae9774" stroke="none" stroke-width="1" opacity="0.9"/>
<rect x="890.290" y="749.799" width="8.208" height="98.498" fill="#ae9774" stroke="none" stroke-width="1" opacity="0.9"/>
<rect x="890.290" y="996.045" width="8.208" height="24.625" fill="#ae9774" stroke="none" stroke-width="1" opacity="0.9"/>
<rect x="914.914" y="1020.669" width="8.208" height="24.625" fill="#ae9774" stroke="none" stroke-width="1" opacity="0.9"/>
<rect x="841.041" y="208.059" width="8.208" height="24.625" fill="#ae9774" stroke="none" stroke-width="1" opacity="0.9"/>
<rect x="841.041" y="380.431" width="8.208" height="24.625" fill="#ae9774" stroke="none" stroke-width="1" opacity="0.9"/>
<rect x="841.041" y="922.171" width="8.208" height="73.874" fill="#ae9774" stroke="none" stroke-width="1" opacity="0.9"/>
<rect x="348.550" y="503.554" width="8.208" height="24.625" fill="#ae9774" stroke="none" stroke-width="1" opacity="0.9"/>
<rect x="545.546" y="281.933" width="8.208" height="24.625" fill="#ae9774" stroke="none" stroke-width="1" opacity="0.9"/>
<rect x="520.922" y="651.301" width="8.208" height="73.874" fill="#ae9774" stroke="none" stroke-width="1" opacity="0.9"/>
<rect x="520.922" y="996.045" width="8.208" height="24.625" fill="#ae9774" stroke="none" stroke-width="1" opacity="0.9"/>
<rect x="299.301" y="158.810" width="8.208" height="344.743" fill="#ae9774" stroke="none" stroke-width="1" opacity="0.9"/>
<rect x="299.301" y="675.926" width="8.208" height="98.498" fill="#ae9774" stroke="none" stroke-width="1" opacity="0.9"/>
<rect x="299.301" y="971.420" width="8.208" height="172.372" fill="#ae9774" stroke="none" stroke-width="1" opacity="0.9"/>
<rect x="1161.160" y="355.807" width="8.208" height="24.625" fill="#ae9774" stroke="none" stroke-width="1" opacity="0.9"/>
<rect x="1161.160" y="651.301" width="8.208" height="73.874" fill="#ae9774" stroke="none" stroke-width="1" opacity="0.9"/>
<rect x="1161.160" y="774.424" width="8.208" height="73.874" fill="#ae9774" stroke="none" stroke-width="1" opacity="0.9"/>
<rect x="964.164" y="208.059" width="8.208" height="24.625" fill="#ae9774" stroke="none" stroke-width="1" opacity="0.9"/>
<rect x="964.164" y="429.680" width="8.208" height="196.996" fill="#ae9774" stroke="none" stroke-width="1" opacity="0.9"/>
<rect x="693.294" y="183.435" width="8.208" height="98.498" fill="#ae9774" stroke="none" stroke-width="1" opacity="0.9"/>
<rect x="693.294" y="306.558" width="8.208" height="73.874" fill="#ae9774" stroke="none" stroke-width="1" opacity="0.9"/>
<rect x="693.294" y="503.554" width="8.208" height="147.747" fill="#ae9774" stroke="none" stroke-width="1" opacity="0.9"/>
<rect x="693.294" y="725.175" width="8.208" height="49.249" fill="#ae9774" stroke="none" stroke-width="1" opacity="0.9"/>
<rect x="668.669" y="60.312" width="8.208" height="24.625" fill="#ae9774" stroke="none" stroke-width="1" opacity="0.9"/>
<rect x="668.669" y="478.929" width="8.208" height="24.625" fill="#ae9774" stroke="none" stroke-width="1" opacity="0.9"/>
<rect x="668.669" y="774.424" width="8.208" height="73.874" fill="#ae9774" stroke="none" stroke-width="1" opacity="0.9"/>
<rect x="865.665" y="232.684" width="8.208" height="73.874" fill="#ae9774" stroke="none" stroke-width="1" opacity="0.9"/>
<rect x="865.665" y="331.182" width="8.208" height="49.249" fill="#ae9774" stroke="none" stroke-width="1" opacity="0.9"/>
<rect x="397.799" y="528.178" width="8.208" height="49.249" fill="#ae9774" stroke="none" stroke-width="1" opacity="0.9"/>
<rect x="397.799" y="725.175" width="8.208" height="49.249" fill="#ae9774" stroke="none" stroke-width="1" opacity="0.9"/>
<rect x="717.918" y="281.933" width="8.208" height="24.625" fill="#ae9774" stroke="none" stroke-width="1" opacity="0.9"/>
<rect x="988.788" y="626.677" width="8.208" height="24.625" fill="#ae9774" stroke="none" stroke-width="1" opacity="0.9"/>
<rect x="1062.662" y="503.554" width="8.208" height="24.625" fill="#ae9774" stroke="none" stroke-width="1" opacity="0.9"/>
<rect x="1062.662" y="626.677" width="8.208" height="24.625" fill="#ae9774" stroke="none" stroke-width="1" opacity="0.9"/>
<rect x="323.926" y="60.312" width="8.208" height="24.625" fill="#ae9774" stroke="none" stroke-width="1" opacity="0.9"/>
<rect x="1136.535" y="725.175" width="8.208" height="49.249" fill="#ae9774" stroke="none" stroke-width="1" opacity="0.9"/>
<rect x="603.004" y="60.312" width="8.208" height="24.625" fill="#ae9774" stroke="none" stroke-width="1" opacity="0.9"/>
<rect x="603.004" y="183.435" width="8.208" height="123.123" fill="#ae9774" stroke="none" stroke-width="1" opacity="0.9"/>
<rect x="603.004" y="602.052" width="8.208" height="49.249" fill="#ae9774" stroke="none" stroke-width="1" opacity="0.9"/>
<rect x="1046.245" y="208.059" width="8.208" height="270.870" fill="#ae9774" stroke="none" stroke-width="1" opacity="0.9"/>
<rect x="1046.245" y="503.554" width="8.208" height="24.625" fill="#ae9774" stroke="none" stroke-width="1" opacity="0.9"/>
<rect x="1046.245" y="626.677" width="8.208" height="24.625" fill="#ae9774" stroke="none" stroke-width="1" opacity="0.9"/>
<rect x="1317.115" y="405.056" width="8.208" height="172.372" fill="#ae9774" stroke="none" stroke-width="1" opacity="0.9"/>
<rect x="1317.115" y="848.297" width="8.208" height="49.249" fill="#ae9774" stroke="none" stroke-width="1" opacity="0.9"/>
<rect x="652.253" y="996.045" width="8.208" height="24.625" fill="#ae9774" stroke="none" stroke-width="1" opacity="0.9"/>
<rect x="750.751" y="232.684" width="8.208" height="147.747" fill="#ae9774" stroke="none" stroke-width="1" opacity="0.9"/>
<rect x="750.751" y="946.796" width="8.208" height="24.625" fill="#ae9774" stroke="none" stroke-width="1" opacity="0.9"/>
<rect x="775.375" y="208.059" width="8.208" height="24.625" fill="#ae9774" stroke="none" stroke-width="1" opacity="0.9"/>
<rect x="775.375" y="380.431" width="8.208" height="24.625" fill="#ae9774" stroke="none" stroke-width="1" opacity="0.9"/>
<rect x="775.375" y="799.048" width="8.208" height="24.625" fill="#ae9774" stroke="none" stroke-width="1" opacity="0.9"/>
<rect x="775.375" y="922.171" width="8.208" height="24.625" fill="#ae9774" stroke="none" stroke-width="1" opacity="0.9"/>
<rect x="479.881" y="774.424" width="8.208" height="24.625" fill="#ae9774" stroke="none" stroke-width="1" opacity="0.9"/>
<rect x="849.249" y="454.305" width="8.208" height="24.625" fill="#ae9774" stroke="none" stroke-width="1" opacity="0.9"/>
<rect x="849.249" y="651.301" width="8.208" height="24.625" fill="#ae9774" stroke="none" stroke-width="1" opacity="0.9"/>
<rect x="849.249" y="823.673" width="8.208" height="24.625" fill="#ae9774" stroke="none" stroke-width="1" opacity="0.9"/>
<rect x="1292.491" y="577.428" width="8.208" height="24.625" fill="#ae9774" stroke="none" stroke-width="1" opacity="0.9"/>
<rect x="1292.491" y="774.424" width="8.208" height="73.874" fill="#ae9774" stroke="none" stroke-width="1" opacity="0.9"/>
<rect x="1292.491" y="897.546" width="8.208" height="24.625" fill="#ae9774" stroke="none" stroke-width="1" opacity="0.9"/>
<rect x="824.625" y="60.312" width="8.208" height="24.625" fill="#ae9774" stroke="none" stroke-width="1" opacity="0.9"/>
<rect x="824.625" y="478.929" width="8.208" height="172.372" fill="#ae9774" stroke="none" stroke-width="1" opacity="0.9"/>
<rect x="455.257" y="528.178" width="8.208" height="49.249" fill="#ae9774" stroke="none" stroke-width="1" opacity="0.9"/>
<rect x="455.257" y="725.175" width="8.208" height="49.249" fill="#ae9774" stroke="none" stroke-width="1" opacity="0.9"/>
<rect x="947.747" y="84.937" width="8.208" height="24.625" fill="#ae9774" stroke="none" stroke-width="1" opacity="0.9"/>
<rect x="947.747" y="158.810" width="8.208" height="73.874" fill="#ae9774" stroke="none" stroke-width="1" opacity="0.9"/>
<rect x="947.747" y="429.680" width="8.208" height="24.625" fill="#ae9774" stroke="none" stroke-width="1" opacity="0.9"/>
<rect x="356.758" y="700.550" width="8.208" height="73.874" fill="#ae9774" stroke="none" stroke-width="1" opacity="0.9"/>
<rect x="356.758" y="1119.167" width="8.208" height="24.625" fill="#ae9774" stroke="none" stroke-width="1" opacity="0.9"/>
<rect x="1267.866" y="355.807" width="8.208" height="49.249" fill="#ae9774" stroke="none" stroke-width="1" opacity="0.9"/>
<rect x="1267.866" y="602.052" width="8.208" height="172.372" fill="#ae9774" stroke="none" stroke-width="1" opacity="0.9"/>
<rect x="1267.866" y="922.171" width="8.208" height="196.996" fill="#ae9774" stroke="none" stroke-width="1" opacity="0.9"/>
<rect x="996.996" y="700.550" width="8.208" height="147.747" fill="#ae9774" stroke="none" stroke-width="1" opacity="0.9"/>
<rect x="800.000" y="749.799" width="8.208" height="49.249" fill="#ae9774" stroke="none" stroke-width="1" opacity="0.9"/>
<rect x="504.506" y="281.933" width="8.208" height="49.249" fill="#ae9774" stroke="none" stroke-width="1" opacity="0.9"/>
<rect x="504.506" y="503.554" width="8.208" height="24.625" fill="#ae9774" stroke="none" stroke-width="1" opacity="0.9"/>
<rect x="504.506" y="651.301" width="8.208" height="24.625" fill="#ae9774" stroke="none" stroke-width="1" opacity="0.9"/>
<rect x="504.506" y="799.048" width="8.208" height="49.249" fill="#ae9774" stroke="none" stroke-width="1" opacity="0.9"/>
<rect x="504.506" y="996.045" width="8.208" height="73.874" fill="#ae9774" stroke="none" stroke-width="1" opacity="0.9"/>
<rect x="529.130" y="331.182" width="8.208" height="172.372" fill="#ae9774" stroke="none" stroke-width="1" opacity="0.9"/>
<rect x="381.383" y="1069.918" width="8.208" height="49.249" fill="#ae9774" stroke="none" stroke-width="1" opacity="0.9"/>
<rect x="430.632" y="675.926" width="8.208" height="24.625" fill="#ae9774" stroke="none" stroke-width="1" opacity="0.9"/>
<rect x="972.372" y="109.561" width="8.208" height="49.249" fill="#ae9774" stroke="none" stroke-width="1" opacity="0.9"/>
<rect x="972.372" y="675.926" width="8.208" height="24.625" fill="#ae9774" stroke="none" stroke-width="1" opacity="0.9"/>
<rect x="578.379" y="577.428" width="8.208" height="24.625" fill="#ae9774" stroke="none" stroke-width="1" opacity="0.9"/>
<rect x="1021.621" y="478.929" width="8.208" height="24.625" fill="#ae9774" stroke="none" stroke-width="1" opacity="0.9"/>
<rect x="701.502" y="971.420" width="8.208" height="24.625" fill="#ae9774" stroke="none" stroke-width="1" opacity="0.9"/>
<rect x="270.572" y="150.602" width="4.104" height="16.416" fill="#ae9774" stroke="none" stroke-width="1" opacity="0.9"/>
<rect x="274.677" y="167.019" width="16.416" height="4.104" fill="#ae9774" stroke="none" stroke-width="1" opacity="0.9"/>
<rect x="964.164" y="167.019" width="16.416" height="4.104" fill="#ae9774" stroke="none" stroke-width="1" opacity="0.9"/>
<rect x="319.822" y="52.104" width="4.104" height="16.416" fill="#ae9774" stroke="none" stroke-width="1" opacity="0.9"/>
<rect x="323.926" y="48.000" width="16.416" height="4.104" fill="#ae9774" stroke="none" stroke-width="1" opacity="0.9"/>
<rect x="668.669" y="48.000" width="16.416" height="4.104" fill="#ae9774" stroke="none" stroke-width="1" opacity="0.9"/>
<rect x="816.416" y="48.000" width="16.416" height="4.104" fill="#ae9774" stroke="none" stroke-width="1" opacity="0.9"/>
<rect x="438.840" y="692.342" width="4.104" height="16.416" fill="#ae9774" stroke="none" stroke-width="1" opacity="0.9"/>
<rect x="422.424" y="708.758" width="16.416" height="4.104" fill="#ae9774" stroke="none" stroke-width="1" opacity="0.9"/>
<rect x="537.338" y="495.346" width="4.104" height="16.416" fill="#ae9774" stroke="none" stroke-width="1" opacity="0.9"/>
<rect x="520.922" y="511.762" width="16.416" height="4.104" fill="#ae9774" stroke="none" stroke-width="1" opacity="0.9"/>
<rect x="668.669" y="511.762" width="16.416" height="4.104" fill="#ae9774" stroke="none" stroke-width="1" opacity="0.9"/>
<rect x="664.565" y="52.104" width="4.104" height="16.416" fill="#ae9774" stroke="none" stroke-width="1" opacity="0.9"/>
<rect x="664.565" y="495.346" width="4.104" height="16.416" fill="#ae9774" stroke="none" stroke-width="1" opacity="0.9"/>
<rect x="783.584" y="938.587" width="4.104" height="16.416" fill="#ae9774" stroke="none" stroke-width="1" opacity="0.9"/>
<rect x="767.167" y="955.004" width="16.416" height="4.104" fill="#ae9774" stroke="none" stroke-width="1" opacity="0.9"/>
<rect x="832.833" y="52.104" width="4.104" height="16.416" fill="#ae9774" stroke="none" stroke-width="1" opacity="0.9"/>
<rect x="861.561" y="298.349" width="4.104" height="16.416" fill="#ae9774" stroke="none" stroke-width="1" opacity="0.9"/>
<rect x="865.665" y="314.766" width="16.416" height="4.104" fill="#ae9774" stroke="none" stroke-width="1" opacity="0.9"/>
<rect x="910.810" y="1037.086" width="4.104" height="16.416" fill="#ae9774" stroke="none" stroke-width="1" opacity="0.9"/>
<rect x="914.914" y="1053.502" width="16.416" height="4.104" fill="#ae9774" stroke="none" stroke-width="1" opacity="0.9"/>
<rect x="980.580" y="101.353" width="4.104" height="16.416" fill="#ae9774" stroke="none" stroke-width="1" opacity="0.9"/>
<rect x="980.580" y="150.602" width="4.104" height="16.416" fill="#ae9774" stroke="none" stroke-width="1" opacity="0.9"/>
<rect x="964.164" y="97.249" width="16.416" height="4.104" fill="#ae9774" stroke="none" stroke-width="1" opacity="0.9"/>
<rect x="960.059" y="199.851" width="4.104" height="16.416" fill="#ae9774" stroke="none" stroke-width="1" opacity="0.9"/>
<rect x="964.164" y="195.747" width="16.416" height="4.104" fill="#ae9774" stroke="none" stroke-width="1" opacity="0.9"/>
<rect x="1058.558" y="495.346" width="4.104" height="16.416" fill="#ae9774" stroke="none" stroke-width="1" opacity="0.9"/>
<rect x="1058.558" y="643.093" width="4.104" height="16.416" fill="#ae9774" stroke="none" stroke-width="1" opacity="0.9"/>
<rect x="1062.662" y="491.242" width="16.416" height="4.104" fill="#ae9774" stroke="none" stroke-width="1" opacity="0.9"/>
<rect x="1062.662" y="659.509" width="16.416" height="4.104" fill="#ae9774" stroke="none" stroke-width="1" opacity="0.9"/>
<rect x="1157.056" y="347.599" width="4.104" height="16.416" fill="#ae9774" stroke="none" stroke-width="1" opacity="0.9"/>
<rect x="1161.160" y="343.494" width="16.416" height="4.104" fill="#ae9774" stroke="none" stroke-width="1" opacity="0.9"/>
<rect x="1259.658" y="343.494" width="16.416" height="4.104" fill="#ae9774" stroke="none" stroke-width="1" opacity="0.9"/>
<rect x="1276.074" y="347.599" width="4.104" height="16.416" fill="#ae9774" stroke="none" stroke-width="1" opacity="0.9"/>
<rect x="1325.323" y="396.848" width="4.104" height="16.416" fill="#ae9774" stroke="none" stroke-width="1" opacity="0.9"/>
<rect x="1325.323" y="840.089" width="4.104" height="16.416" fill="#ae9774" stroke="none" stroke-width="1" opacity="0.9"/>
<rect x="1325.323" y="889.338" width="4.104" height="16.416" fill="#ae9774" stroke="none" stroke-width="1" opacity="0.9"/>
<rect x="1308.907" y="392.743" width="16.416" height="4.104" fill="#ae9774" stroke="none" stroke-width="1" opacity="0.9"/>
<rect x="1308.907" y="835.985" width="16.416" height="4.104" fill="#ae9774" stroke="none" stroke-width="1" opacity="0.9"/>
<rect x="1308.907" y="905.755" width="16.416" height="4.104" fill="#ae9774" stroke="none" stroke-width="1" opacity="0.9"/>
<rect x="1124.223" y="930.379" width="45.145" height="73.874" fill="none" stroke="#e04b3f" stroke-width="2" opacity="1.0"/>
<text x="1128.223" y="944.379" fill="#e04b3f" font-family="monospace" font-size="13">A</text>
<rect x="406.007" y="971.420" width="98.498" height="94.394" fill="none" stroke="#e04b3f" stroke-width="2" opacity="1.0"/>
<text x="410.007" y="985.420" fill="#e04b3f" font-family="monospace" font-size="13">B</text>
<circle cx="635.836" cy="136.238" r="5" fill="#f28c28" stroke="#111" stroke-width="1"/>
<circle cx="635.836" cy="111.613" r="5" fill="#f28c28" stroke="#111" stroke-width="1"/>
<circle cx="660.461" cy="95.197" r="5" fill="#f28c28" stroke="#111" stroke-width="1"/>
<circle cx="660.461" cy="119.822" r="5" fill="#f28c28" stroke="#111" stroke-width="1"/>
<circle cx="611.212" cy="132.134" r="5" fill="#f28c28" stroke="#111" stroke-width="1"/>
<circle cx="611.212" cy="107.509" r="5" fill="#f28c28" stroke="#111" stroke-width="1"/>
<circle cx="586.587" cy="130.082" r="5" fill="#f28c28" stroke="#111" stroke-width="1"/>
<circle cx="586.587" cy="154.706" r="5" fill="#f28c28" stroke="#111" stroke-width="1"/>
<circle cx="683.033" cy="95.197" r="5" fill="#f28c28" stroke="#111" stroke-width="1"/>
<circle cx="683.033" cy="119.822" r="5" fill="#f28c28" stroke="#111" stroke-width="1"/>
<circle cx="707.658" cy="95.197" r="5" fill="#f28c28" stroke="#111" stroke-width="1"/>
<circle cx="707.658" cy="119.822" r="5" fill="#f28c28" stroke="#111" stroke-width="1"/>
<circle cx="707.658" cy="142.394" r="5" fill="#f28c28" stroke="#111" stroke-width="1"/>
<circle cx="683.033" cy="142.394" r="5" fill="#f28c28" stroke="#111" stroke-width="1"/>
<circle cx="660.461" cy="142.394" r="5" fill="#f28c28" stroke="#111" stroke-width="1"/>
<circle cx="730.230" cy="158.810" r="5" fill="#f28c28" stroke="#111" stroke-width="1"/>
<circle cx="730.230" cy="136.238" r="5" fill="#f28c28" stroke="#111" stroke-width="1"/>
<circle cx="730.230" cy="111.613" r="5" fill="#f28c28" stroke="#111" stroke-width="1"/>
<circle cx="730.230" cy="86.989" r="5" fill="#f28c28" stroke="#111" stroke-width="1"/>
<circle cx="582.483" cy="97.249" r="5" fill="#f28c28" stroke="#111" stroke-width="1"/>
<circle cx="964.164" cy="963.212" r="5" fill="#3d8bff" stroke="#111" stroke-width="1"/>
<circle cx="939.539" cy="963.212" r="5" fill="#3d8bff" stroke="#111" stroke-width="1"/>
<circle cx="914.914" cy="963.212" r="5" fill="#3d8bff" stroke="#111" stroke-width="1"/>
<circle cx="890.290" cy="963.212" r="5" fill="#3d8bff" stroke="#111" stroke-width="1"/>
<circle cx="890.290" cy="942.691" r="5" fill="#3d8bff" stroke="#111" stroke-width="1"/>
<circle cx="914.914" cy="942.691" r="5" fill="#3d8bff" stroke="#111" stroke-width="1"/>
<circle cx="939.539" cy="942.691" r="5" fill="#3d8bff" stroke="#111" stroke-width="1"/>
<circle cx="964.164" cy="942.691" r="5" fill="#3d8bff" stroke="#111" stroke-width="1"/>
<circle cx="964.164" cy="922.171" r="5" fill="#3d8bff" stroke="#111" stroke-width="1"/>
<circle cx="939.539" cy="922.171" r="5" fill="#3d8bff" stroke="#111" stroke-width="1"/>
<circle cx="914.914" cy="922.171" r="5" fill="#3d8bff" stroke="#111" stroke-width="1"/>
<circle cx="890.290" cy="922.171" r="5" fill="#3d8bff" stroke="#111" stroke-width="1"/>
<circle cx="890.290" cy="881.130" r="5" fill="#3d8bff" stroke="#111" stroke-width="1"/>
<circle cx="914.914" cy="881.130" r="5" fill="#3d8bff" stroke="#111" stroke-width="1"/>
<circle cx="939.539" cy="881.130" r="5" fill="#3d8bff" stroke="#111" stroke-width="1"/>
<circle cx="964.164" cy="881.130" r="5" fill="#3d8bff" stroke="#111" stroke-width="1"/>
<circle cx="890.290" cy="901.651" r="5" fill="#3d8bff" stroke="#111" stroke-width="1"/>
<circle cx="914.914" cy="901.651" r="5" fill="#3d8bff" stroke="#111" stroke-width="1"/>
<circle cx="939.539" cy="901.651" r="5" fill="#3d8bff" stroke="#111" stroke-width="1"/>
<circle cx="964.164" cy="901.651" r="5" fill="#3d8bff" stroke="#111" stroke-width="1"/>
<circle cx="635.836" cy="136.238" r="8" fill="none" stroke="#111111" stroke-width="2"/>
<g font-family="monospace" font-size="13">
<rect x="16" y="13" width="12" height="12" fill="#8ba0b4"/>
<text x="34" y="24" fill="#eef3f8">floor</text>
<rect x="16" y="33" width="12" height="12" fill="#0d6b54"/>
<text x="34" y="44" fill="#eef3f8">wall</text>
<rect x="16" y="53" width="12" height="12" fill="#2f8f4e"/>
<text x="34" y="64" fill="#eef3f8">crate</text>
<rect x="16" y="73" width="12" height="12" fill="#41a064"/>
<text x="34" y="84" fill="#eef3f8">pillar</text>
<rect x="16" y="93" width="12" height="12" fill="#f28c28"/>
<text x="34" y="104" fill="#eef3f8">T</text>
<rect x="16" y="113" width="12" height="12" fill="#3d8bff"/>
<text x="34" y="124" fill="#eef3f8">CT</text>
</g>
</svg>
