<svg xmlns="http://www.w3.org/2000/svg" width="1600" height="1200" viewBox="0 0 1600 1200">
<rect width="100%" height="100%" fill="#10243a"/>
<rect x="337.719" y="60.165" width="267.636" height="218.975" fill="#ac9c82" stroke="none" stroke-width="1" opacity="0.72"/>
<rect x="678.347" y="60.165" width="145.983" height="121.653" fill="#ac9c82" stroke="none" stroke-width="1" opacity="0.72"/>
<rect x="289.058" y="84.496" width="48.661" height="72.992" fill="#ac9c82" stroke="none" stroke-width="1" opacity="0.72"/>
<rect x="605.355" y="84.496" width="72.992" height="97.322" fill="#ac9c82" stroke="none" stroke-width="1" opacity="0.72"/>
<rect x="824.331" y="84.496" width="121.653" height="121.653" fill="#ac9c82" stroke="none" stroke-width="1" opacity="0.72"/>
<rect x="945.983" y="108.826" width="24.331" height="48.661" fill="#ac9c82" stroke="none" stroke-width="1" opacity="0.72"/>
<rect x="313.388" y="157.488" width="24.331" height="340.628" fill="#ac9c82" stroke="none" stroke-width="1" opacity="0.72"/>
<rect x="702.678" y="181.818" width="121.653" height="24.331" fill="#ac9c82" stroke="none" stroke-width="1" opacity="0.72"/>
<rect x="702.678" y="206.149" width="72.992" height="24.331" fill="#ac9c82" stroke="none" stroke-width="1" opacity="0.72"/>
<rect x="848.661" y="206.149" width="97.322" height="24.331" fill="#ac9c82" stroke="none" stroke-width="1" opacity="0.72"/>
<rect x="970.314" y="206.149" width="72.992" height="267.636" fill="#ac9c82" stroke="none" stroke-width="1" opacity="0.72"/>
<rect x="702.678" y="230.479" width="48.661" height="48.661" fill="#ac9c82" stroke="none" stroke-width="1" opacity="0.72"/>
<rect x="872.992" y="230.479" width="97.322" height="72.992" fill="#ac9c82" stroke="none" stroke-width="1" opacity="0.72"/>
<rect x="337.719" y="279.140" width="170.314" height="218.975" fill="#ac9c82" stroke="none" stroke-width="1" opacity="0.72"/>
<rect x="556.694" y="279.140" width="48.661" height="24.331" fill="#ac9c82" stroke="none" stroke-width="1" opacity="0.72"/>
<rect x="727.008" y="279.140" width="24.331" height="681.256" fill="#ac9c82" stroke="none" stroke-width="1" opacity="0.72"/>
<rect x="702.678" y="303.471" width="24.331" height="656.926" fill="#ac9c82" stroke="none" stroke-width="1" opacity="0.72"/>
<rect x="897.322" y="303.471" width="72.992" height="121.653" fill="#ac9c82" stroke="none" stroke-width="1" opacity="0.72"/>
<rect x="508.033" y="327.802" width="24.331" height="170.314" fill="#ac9c82" stroke="none" stroke-width="1" opacity="0.72"/>
<rect x="872.992" y="327.802" width="24.331" height="121.653" fill="#ac9c82" stroke="none" stroke-width="1" opacity="0.72"/>
<rect x="1164.959" y="352.132" width="97.322" height="754.248" fill="#ac9c82" stroke="none" stroke-width="1" opacity="0.72"/>
<rect x="654.017" y="376.463" width="48.661" height="97.322" fill="#ac9c82" stroke="none" stroke-width="1" opacity="0.72"/>
<rect x="751.339" y="376.463" width="24.331" height="559.603" fill="#ac9c82" stroke="none" stroke-width="1" opacity="0.72"/>
<rect x="848.661" y="376.463" width="24.331" height="72.992" fill="#ac9c82" stroke="none" stroke-width="1" opacity="0.72"/>
<rect x="1091.967" y="376.463" width="72.992" height="267.636" fill="#ac9c82" stroke="none" stroke-width="1" opacity="0.72"/>
<rect x="775.669" y="400.793" width="72.992" height="72.992" fill="#ac9c82" stroke="none" stroke-width="1" opacity="0.72"/>
<rect x="1262.281" y="400.793" width="48.661" height="170.314" fill="#ac9c82" stroke="none" stroke-width="1" opacity="0.72"/>
<rect x="897.322" y="425.124" width="48.661" height="24.331" fill="#ac9c82" stroke="none" stroke-width="1" opacity="0.72"/>
<rect x="678.347" y="473.785" width="24.331" height="24.331" fill="#ac9c82" stroke="none" stroke-width="1" opacity="0.72"/>
<rect x="775.669" y="473.785" width="48.661" height="267.636" fill="#ac9c82" stroke="none" stroke-width="1" opacity="0.72"/>
<rect x="970.314" y="473.785" width="48.661" height="145.983" fill="#ac9c82" stroke="none" stroke-width="1" opacity="0.72"/>
<rect x="362.050" y="498.116" width="145.983" height="24.331" fill="#ac9c82" stroke="none" stroke-width="1" opacity="0.72"/>
<rect x="1018.975" y="498.116" width="24.331" height="145.983" fill="#ac9c82" stroke="none" stroke-width="1" opacity="0.72"/>
<rect x="1067.636" y="498.116" width="24.331" height="145.983" fill="#ac9c82" stroke="none" stroke-width="1" opacity="0.72"/>
<rect x="410.711" y="522.446" width="48.661" height="145.983" fill="#ac9c82" stroke="none" stroke-width="1" opacity="0.72"/>
<rect x="1043.306" y="522.446" width="24.331" height="97.322" fill="#ac9c82" stroke="none" stroke-width="1" opacity="0.72"/>
<rect x="289.058" y="571.107" width="121.653" height="97.322" fill="#ac9c82" stroke="none" stroke-width="1" opacity="0.72"/>
<rect x="459.372" y="571.107" width="121.653" height="72.992" fill="#ac9c82" stroke="none" stroke-width="1" opacity="0.72"/>
<rect x="1262.281" y="571.107" width="24.331" height="24.331" fill="#ac9c82" stroke="none" stroke-width="1" opacity="0.72"/>
<rect x="581.025" y="595.438" width="24.331" height="121.653" fill="#ac9c82" stroke="none" stroke-width="1" opacity="0.72"/>
<rect x="994.645" y="619.769" width="24.331" height="24.331" fill="#ac9c82" stroke="none" stroke-width="1" opacity="0.72"/>
<rect x="459.372" y="644.099" width="48.661" height="24.331" fill="#ac9c82" stroke="none" stroke-width="1" opacity="0.72"/>
<rect x="532.364" y="644.099" width="48.661" height="72.992" fill="#ac9c82" stroke="none" stroke-width="1" opacity="0.72"/>
<rect x="605.355" y="644.099" width="97.322" height="72.992" fill="#ac9c82" stroke="none" stroke-width="1" opacity="0.72"/>
<rect x="824.331" y="644.099" width="24.331" height="97.322" fill="#ac9c82" stroke="none" stroke-width="1" opacity="0.72"/>
<rect x="313.388" y="668.430" width="121.653" height="24.331" fill="#ac9c82" stroke="none" stroke-width="1" opacity="0.72"/>
<rect x="848.661" y="668.430" width="121.653" height="72.992" fill="#ac9c82" stroke="none" stroke-width="1" opacity="0.72"/>
<rect x="313.388" y="692.760" width="48.661" height="437.950" fill="#ac9c82" stroke="none" stroke-width="1" opacity="0.72"/>
<rect x="970.314" y="692.760" width="24.331" height="340.628" fill="#ac9c82" stroke="none" stroke-width="1" opacity="0.72"/>
<rect x="410.711" y="717.091" width="48.661" height="340.628" fill="#ac9c82" stroke="none" stroke-width="1" opacity="0.72"/>
<rect x="1140.628" y="717.091" width="24.331" height="48.661" fill="#ac9c82" stroke="none" stroke-width="1" opacity="0.72"/>
<rect x="775.669" y="741.421" width="24.331" height="48.661" fill="#ac9c82" stroke="none" stroke-width="1" opacity="0.72"/>
<rect x="897.322" y="741.421" width="72.992" height="267.636" fill="#ac9c82" stroke="none" stroke-width="1" opacity="0.72"/>
<rect x="289.058" y="765.752" width="24.331" height="194.645" fill="#ac9c82" stroke="none" stroke-width="1" opacity="0.72"/>
<rect x="362.050" y="765.752" width="48.661" height="291.967" fill="#ac9c82" stroke="none" stroke-width="1" opacity="0.72"/>
<rect x="459.372" y="765.752" width="24.331" height="291.967" fill="#ac9c82" stroke="none" stroke-width="1" opacity="0.72"/>
<rect x="678.347" y="765.752" width="24.331" height="218.975" fill="#ac9c82" stroke="none" stroke-width="1" opacity="0.72"/>
<rect x="1262.281" y="765.752" width="24.331" height="145.983" fill="#ac9c82" stroke="none" stroke-width="1" opacity="0.72"/>
<rect x="483.702" y="790.083" width="24.331" height="267.636" fill="#ac9c82" stroke="none" stroke-width="1" opacity="0.72"/>
<rect x="775.669" y="814.413" width="72.992" height="97.322" fill="#ac9c82" stroke="none" stroke-width="1" opacity="0.72"/>
<rect x="508.033" y="838.744" width="170.314" height="145.983" fill="#ac9c82" stroke="none" stroke-width="1" opacity="0.72"/>
<rect x="848.661" y="838.744" width="48.661" height="145.983" fill="#ac9c82" stroke="none" stroke-width="1" opacity="0.72"/>
<rect x="994.645" y="838.744" width="170.314" height="194.645" fill="#ac9c82" stroke="none" stroke-width="1" opacity="0.72"/>
<rect x="1286.612" y="838.744" width="24.331" height="48.661" fill="#ac9c82" stroke="none" stroke-width="1" opacity="0.72"/>
<rect x="532.364" y="984.727" width="121.653" height="24.331" fill="#ac9c82" stroke="none" stroke-width="1" opacity="0.72"/>
<rect x="921.653" y="1009.058" width="48.661" height="24.331" fill="#ac9c82" stroke="none" stroke-width="1" opacity="0.72"/>
<rect x="1091.967" y="1033.388" width="72.992" height="72.992" fill="#ac9c82" stroke="none" stroke-width="1" opacity="0.72"/>
<rect x="362.050" y="1057.719" width="24.331" height="48.661" fill="#ac9c82" stroke="none" stroke-width="1" opacity="0.72"/>
<rect x="848.661" y="660.320" width="121.653" height="8.110" fill="#ae9774" stroke="none" stroke-width="1" opacity="0.9"/>
<rect x="775.669" y="392.683" width="72.992" height="8.110" fill="#ae9774" stroke="none" stroke-width="1" opacity="0.9"/>
<rect x="1262.281" y="392.683" width="48.661" height="8.110" fill="#ae9774" stroke="none" stroke-width="1" opacity="0.9"/>
<rect x="289.058" y="562.997" width="121.653" height="8.110" fill="#ae9774" stroke="none" stroke-width="1" opacity="0.9"/>
<rect x="459.372" y="562.997" width="121.653" height="8.110" fill="#ae9774" stroke="none" stroke-width="1" opacity="0.9"/>
<rect x="508.033" y="830.634" width="170.314" height="8.110" fill="#ae9774" stroke="none" stroke-width="1" opacity="0.9"/>
<rect x="848.661" y="830.634" width="48.661" height="8.110" fill="#ae9774" stroke="none" stroke-width="1" opacity="0.9"/>
<rect x="994.645" y="830.634" width="170.314" height="8.110" fill="#ae9774" stroke="none" stroke-width="1" opacity="0.9"/>
<rect x="1286.612" y="830.634" width="24.331" height="8.110" fill="#ae9774" stroke="none" stroke-width="1" opacity="0.9"/>
<rect x="1164.959" y="344.022" width="97.322" height="8.110" fill="#ae9774" stroke="none" stroke-width="1" opacity="0.9"/>
<rect x="337.719" y="52.055" width="267.636" height="8.110" fill="#ae9774" stroke="none" stroke-width="1" opacity="0.9"/>
<rect x="678.347" y="52.055" width="145.983" height="8.110" fill="#ae9774" stroke="none" stroke-width="1" opacity="0.9"/>
<rect x="1018.975" y="490.006" width="24.331" height="8.110" fill="#ae9774" stroke="none" stroke-width="1" opacity="0.9"/>
<rect x="1067.636" y="490.006" width="24.331" height="8.110" fill="#ae9774" stroke="none" stroke-width="1" opacity="0.9"/>
<rect x="605.355" y="635.989" width="97.322" height="8.110" fill="#ae9774" stroke="none" stroke-width="1" opacity="0.9"/>
<rect x="824.331" y="635.989" width="24.331" height="8.110" fill="#ae9774" stroke="none" stroke-width="1" opacity="0.9"/>
<rect x="654.017" y="368.353" width="48.661" height="8.110" fill="#ae9774" stroke="none" stroke-width="1" opacity="0.9"/>
<rect x="751.339" y="368.353" width="24.331" height="8.110" fill="#ae9774" stroke="none" stroke-width="1" opacity="0.9"/>
<rect x="848.661" y="368.353" width="24.331" height="8.110" fill="#ae9774" stroke="none" stroke-width="1" opacity="0.9"/>
<rect x="1091.967" y="368.353" width="72.992" height="8.110" fill="#ae9774" stroke="none" stroke-width="1" opacity="0.9"/>
<rect x="289.058" y="757.642" width="24.331" height="8.110" fill="#ae9774" stroke="none" stroke-width="1" opacity="0.9"/>
<rect x="362.050" y="757.642" width="48.661" height="8.110" fill="#ae9774" stroke="none" stroke-width="1" opacity="0.9"/>
<rect x="459.372" y="757.642" width="24.331" height="8.110" fill="#ae9774" stroke="none" stroke-width="1" opacity="0.9"/>
<rect x="678.347" y="757.642" width="24.331" height="8.110" fill="#ae9774" stroke="none" stroke-width="1" opacity="0.9"/>
<rect x="1262.281" y="757.642" width="24.331" height="8.110" fill="#ae9774" stroke="none" stroke-width="1" opacity="0.9"/>
<rect x="289.058" y="76.386" width="48.661" height="8.110" fill="#ae9774" stroke="none" stroke-width="1" opacity="0.9"/>
<rect x="605.355" y="76.386" width="72.992" height="8.110" fill="#ae9774" stroke="none" stroke-width="1" opacity="0.9"/>
<rect x="824.331" y="76.386" width="121.653" height="8.110" fill="#ae9774" stroke="none" stroke-width="1" opacity="0.9"/>
<rect x="775.669" y="806.303" width="72.992" height="8.110" fill="#ae9774" stroke="none" stroke-width="1" opacity="0.9"/>
<rect x="970.314" y="198.039" width="72.992" height="8.110" fill="#ae9774" stroke="none" stroke-width="1" opacity="0.9"/>
<rect x="702.678" y="295.361" width="24.331" height="8.110" fill="#ae9774" stroke="none" stroke-width="1" opacity="0.9"/>
<rect x="508.033" y="319.691" width="24.331" height="8.110" fill="#ae9774" stroke="none" stroke-width="1" opacity="0.9"/>
<rect x="872.992" y="319.691" width="24.331" height="8.110" fill="#ae9774" stroke="none" stroke-width="1" opacity="0.9"/>
<rect x="483.702" y="781.972" width="24.331" height="8.110" fill="#ae9774" stroke="none" stroke-width="1" opacity="0.9"/>
<rect x="1043.306" y="514.336" width="24.331" height="8.110" fill="#ae9774" stroke="none" stroke-width="1" opacity="0.9"/>
<rect x="945.983" y="222.369" width="24.331" height="8.110" fill="#ae9774" stroke="none" stroke-width="1" opacity="0.9"/>
<rect x="945.983" y="100.716" width="24.331" height="8.110" fill="#ae9774" stroke="none" stroke-width="1" opacity="0.9"/>
<rect x="581.025" y="587.328" width="24.331" height="8.110" fill="#ae9774" stroke="none" stroke-width="1" opacity="0.9"/>
<rect x="410.711" y="708.981" width="48.661" height="8.110" fill="#ae9774" stroke="none" stroke-width="1" opacity="0.9"/>
<rect x="1140.628" y="708.981" width="24.331" height="8.110" fill="#ae9774" stroke="none" stroke-width="1" opacity="0.9"/>
<rect x="970.314" y="684.650" width="24.331" height="8.110" fill="#ae9774" stroke="none" stroke-width="1" opacity="0.9"/>
<rect x="508.033" y="644.099" width="24.331" height="8.110" fill="#ae9774" stroke="none" stroke-width="1" opacity="0.9"/>
<rect x="994.645" y="644.099" width="48.661" height="8.110" fill="#ae9774" stroke="none" stroke-width="1" opacity="0.9"/>
<rect x="1067.636" y="644.099" width="97.322" height="8.110" fill="#ae9774" stroke="none" stroke-width="1" opacity="0.9"/>
<rect x="654.017" y="473.785" width="24.331" height="8.110" fill="#ae9774" stroke="none" stroke-width="1" opacity="0.9"/>
<rect x="824.331" y="473.785" width="24.331" height="8.110" fill="#ae9774" stroke="none" stroke-width="1" opacity="0.9"/>
<rect x="1018.975" y="473.785" width="24.331" height="8.110" fill="#ae9774" stroke="none" stroke-width="1" opacity="0.9"/>
<rect x="362.050" y="1106.380" width="24.331" height="8.110" fill="#ae9774" stroke="none" stroke-width="1" opacity="0.9"/>
<rect x="1091.967" y="1106.380" width="170.314" height="8.110" fill="#ae9774" stroke="none" stroke-width="1" opacity="0.9"/>
<rect x="532.364" y="1009.058" width="121.653" height="8.110" fill="#ae9774" stroke="none" stroke-width="1" opacity="0.9"/>
<rect x="897.322" y="1009.058" width="24.331" height="8.110" fill="#ae9774" stroke="none" stroke-width="1" opacity="0.9"/>
<rect x="921.653" y="1033.388" width="170.314" height="8.110" fill="#ae9774" stroke="none" stroke-width="1" opacity="0.9"/>
<rect x="751.339" y="230.479" width="24.331" height="8.110" fill="#ae9774" stroke="none" stroke-width="1" opacity="0.9"/>
<rect x="848.661" y="230.479" width="24.331" height="8.110" fill="#ae9774" stroke="none" stroke-width="1" opacity="0.9"/>
<rect x="362.050" y="522.446" width="48.661" height="8.110" fill="#ae9774" stroke="none" stroke-width="1" opacity="0.9"/>
<rect x="459.372" y="522.446" width="48.661" height="8.110" fill="#ae9774" stroke="none" stroke-width="1" opacity="0.9"/>
<rect x="556.694" y="303.471" width="48.661" height="8.110" fill="#ae9774" stroke="none" stroke-width="1" opacity="0.9"/>
<rect x="872.992" y="303.471" width="24.331" height="8.110" fill="#ae9774" stroke="none" stroke-width="1" opacity="0.9"/>
<rect x="289.058" y="668.430" width="24.331" height="8.110" fill="#ae9774" stroke="none" stroke-width="1" opacity="0.9"/>
<rect x="435.041" y="668.430" width="72.992" height="8.110" fill="#ae9774" stroke="none" stroke-width="1" opacity="0.9"/>
<rect x="532.364" y="717.091" width="170.314" height="8.110" fill="#ae9774" stroke="none" stroke-width="1" opacity="0.9"/>
<rect x="289.058" y="157.488" width="24.331" height="8.110" fill="#ae9774" stroke="none" stroke-width="1" opacity="0.9"/>
<rect x="945.983" y="157.488" width="24.331" height="8.110" fill="#ae9774" stroke="none" stroke-width="1" opacity="0.9"/>
<rect x="848.661" y="449.455" width="97.322" height="8.110" fill="#ae9774" stroke="none" stroke-width="1" opacity="0.9"/>
<rect x="313.388" y="1130.711" width="48.661" height="8.110" fill="#ae9774" stroke="none" stroke-width="1" opacity="0.9"/>
<rect x="313.388" y="498.116" width="48.661" height="8.110" fill="#ae9774" stroke="none" stroke-width="1" opacity="0.9"/>
<rect x="508.033" y="498.116" width="24.331" height="8.110" fill="#ae9774" stroke="none" stroke-width="1" opacity="0.9"/>
<rect x="678.347" y="498.116" width="24.331" height="8.110" fill="#ae9774" stroke="none" stroke-width="1" opacity="0.9"/>
<rect x="1262.281" y="595.438" width="24.331" height="8.110" fill="#ae9774" stroke="none" stroke-width="1" opacity="0.9"/>
<rect x="775.669" y="911.736" width="72.992" height="8.110" fill="#ae9774" stroke="none" stroke-width="1" opacity="0.9"/>
<rect x="1262.281" y="911.736" width="24.331" height="8.110" fill="#ae9774" stroke="none" stroke-width="1" opacity="0.9"/>
<rect x="605.355" y="181.818" width="97.322" height="8.110" fill="#ae9774" stroke="none" stroke-width="1" opacity="0.9"/>
<rect x="386.380" y="1057.719" width="121.653" height="8.110" fill="#ae9774" stroke="none" stroke-width="1" opacity="0.9"/>
<rect x="508.033" y="984.727" width="24.331" height="8.110" fill="#ae9774" stroke="none" stroke-width="1" opacity="0.9"/>
<rect x="654.017" y="984.727" width="48.661" height="8.110" fill="#ae9774" stroke="none" stroke-width="1" opacity="0.9"/>
<rect x="848.661" y="984.727" width="48.661" height="8.110" fill="#ae9774" stroke="none" stroke-width="1" opacity="0.9"/>
<rect x="289.058" y="960.397" width="24.331" height="8.110" fill="#ae9774" stroke="none" stroke-width="1" opacity="0.9"/>
<rect x="702.678" y="960.397" width="48.661" height="8.110" fill="#ae9774" stroke="none" stroke-width="1" opacity="0.9"/>
<rect x="970.314" y="619.769" width="24.331" height="8.110" fill="#ae9774" stroke="none" stroke-width="1" opacity="0.9"/>
<rect x="1043.306" y="619.769" width="24.331" height="8.110" fill="#ae9774" stroke="none" stroke-width="1" opacity="0.9"/>
<rect x="362.050" y="692.760" width="72.992" height="8.110" fill="#ae9774" stroke="none" stroke-width="1" opacity="0.9"/>
<rect x="508.033" y="279.140" width="48.661" height="8.110" fill="#ae9774" stroke="none" stroke-width="1" opacity="0.9"/>
<rect x="702.678" y="279.140" width="24.331" height="8.110" fill="#ae9774" stroke="none" stroke-width="1" opacity="0.9"/>
<rect x="751.339" y="936.066" width="24.331" height="8.110" fill="#ae9774" stroke="none" stroke-width="1" opacity="0.9"/>
<rect x="800.000" y="741.421" width="97.322" height="8.110" fill="#ae9774" stroke="none" stroke-width="1" opacity="0.9"/>
<rect x="1286.612" y="571.107" width="24.331" height="8.110" fill="#ae9774" stroke="none" stroke-width="1" opacity="0.9"/>
<rect x="775.669" y="206.149" width="72.992" height="8.110" fill="#ae9774" stroke="none" stroke-width="1" opacity="0.9"/>
<rect x="1140.628" y="765.752" width="24.331" height="8.110" fill="#ae9774" stroke="none" stroke-width="1" opacity="0.9"/>
<rect x="775.669" y="790.083" width="24.331" height="8.110" fill="#ae9774" stroke="none" stroke-width="1" opacity="0.9"/>
<rect x="945.983" y="425.124" width="24.331" height="8.110" fill="#ae9774" stroke="none" stroke-width="1" opacity="0.9"/>
<rect x="1286.612" y="887.405" width="24.331" height="8.110" fill="#ae9774" stroke="none" stroke-width="1" opacity="0.9"/>
<rect x="280.948" y="84.496" width="8.110" height="72.992" fill="#ae9774" stroke="none" stroke-width="1" opacity="0.9"/>
<rect x="280.948" y="571.107" width="8.110" height="97.322" fill="#ae9774" stroke="none" stroke-width="1" opacity="0.9"/>
<rect x="280.948" y="765.752" width="8.110" height="194.645" fill="#ae9774" stroke="none" stroke-width="1" opacity="0.9"/>
<rect x="645.906" y="376.463" width="8.110" height="97.322" fill="#ae9774" stroke="none" stroke-width="1" opacity="0.9"/>
<rect x="1083.857" y="376.463" width="8.110" height="121.653" fill="#ae9774" stroke="none" stroke-width="1" opacity="0.9"/>
<rect x="1083.857" y="1033.388" width="8.110" height="72.992" fill="#ae9774" stroke="none" stroke-width="1" opacity="0.9"/>
<rect x="889.212" y="303.471" width="8.110" height="24.331" fill="#ae9774" stroke="none" stroke-width="1" opacity="0.9"/>
<rect x="889.212" y="741.421" width="8.110" height="97.322" fill="#ae9774" stroke="none" stroke-width="1" opacity="0.9"/>
<rect x="889.212" y="984.727" width="8.110" height="24.331" fill="#ae9774" stroke="none" stroke-width="1" opacity="0.9"/>
<rect x="913.543" y="1009.058" width="8.110" height="24.331" fill="#ae9774" stroke="none" stroke-width="1" opacity="0.9"/>
<rect x="840.551" y="206.149" width="8.110" height="24.331" fill="#ae9774" stroke="none" stroke-width="1" opacity="0.9"/>
<rect x="840.551" y="376.463" width="8.110" height="24.331" fill="#ae9774" stroke="none" stroke-width="1" opacity="0.9"/>
<rect x="840.551" y="911.736" width="8.110" height="72.992" fill="#ae9774" stroke="none" stroke-width="1" opacity="0.9"/>
<rect x="353.939" y="498.116" width="8.110" height="24.331" fill="#ae9774" stroke="none" stroke-width="1" opacity="0.9"/>
<rect x="548.584" y="279.140" width="8.110" height="24.331" fill="#ae9774" stroke="none" stroke-width="1" opacity="0.9"/>
<rect x="524.253" y="644.099" width="8.110" height="72.992" fill="#ae9774" stroke="none" stroke-width="1" opacity="0.9"/>
<rect x="524.253" y="984.727" width="8.110" height="24.331" fill="#ae9774" stroke="none" stroke-width="1" opacity="0.9"/>
<rect x="305.278" y="157.488" width="8.110" height="340.628" fill="#ae9774" stroke="none" stroke-width="1" opacity="0.9"/>
<rect x="305.278" y="668.430" width="8.110" height="97.322" fill="#ae9774" stroke="none" stroke-width="1" opacity="0.9"/>
<rect x="305.278" y="960.397" width="8.110" height="170.314" fill="#ae9774" stroke="none" stroke-width="1" opacity="0.9"/>
<rect x="1156.848" y="352.132" width="8.110" height="24.331" fill="#ae9774" stroke="none" stroke-width="1" opacity="0.9"/>
<rect x="1156.848" y="644.099" width="8.110" height="72.992" fill="#ae9774" stroke="none" stroke-width="1" opacity="0.9"/>
<rect x="1156.848" y="765.752" width="8.110" height="72.992" fill="#ae9774" stroke="none" stroke-width="1" opacity="0.9"/>
<rect x="962.204" y="206.149" width="8.110" height="24.331" fill="#ae9774" stroke="none" stroke-width="1" opacity="0.9"/>
<rect x="962.204" y="425.124" width="8.110" height="194.645" fill="#ae9774" stroke="none" stroke-width="1" opacity="0.9"/>
<rect x="694.567" y="181.818" width="8.110" height="97.322" fill="#ae9774" stroke="none" stroke-width="1" opacity="0.9"/>
<rect x="694.567" y="303.471" width="8.110" height="72.992" fill="#ae9774" stroke="none" stroke-width="1" opacity="0.9"/>
<rect x="694.567" y="498.116" width="8.110" height="145.983" fill="#ae9774" stroke="none" stroke-width="1" opacity="0.9"/>
<rect x="694.567" y="717.091" width="8.110" height="48.661" fill="#ae9774" stroke="none" stroke-width="1" opacity="0.9"/>
<rect x="670.237" y="60.165" width="8.110" height="24.331" fill="#ae9774" stroke="none" stroke-width="1" opacity="0.9"/>
<rect x="670.237" y="473.785" width="8.110" height="24.331" fill="#ae9774" stroke="none" stroke-width="1" opacity="0.9"/>
<rect x="670.237" y="765.752" width="8.110" height="72.992" fill="#ae9774" stroke="none" stroke-width="1" opacity="0.9"/>
<rect x="864.882" y="230.479" width="8.110" height="72.992" fill="#ae9774" stroke="none" stroke-width="1" opacity="0.9"/>
<rect x="864.882" y="327.802" width="8.110" height="48.661" fill="#ae9774" stroke="none" stroke-width="1" opacity="0.9"/>
<rect x="402.601" y="522.446" width="8.110" height="48.661" fill="#ae9774" stroke="none" stroke-width="1" opacity="0.9"/>
<rect x="402.601" y="717.091" width="8.110" height="48.661" fill="#ae9774" stroke="none" stroke-width="1" opacity="0.9"/>
<rect x="718.898" y="279.140" width="8.110" height="24.331" fill="#ae9774" stroke="none" stroke-width="1" opacity="0.9"/>
<rect x="986.534" y="619.769" width="8.110" height="24.331" fill="#ae9774" stroke="none" stroke-width="1" opacity="0.9"/>
<rect x="1059.526" y="498.116" width="8.110" height="24.331" fill="#ae9774" stroke="none" stroke-width="1" opacity="0.9"/>
<rect x="1059.526" y="619.769" width="8.110" height="24.331" fill="#ae9774" stroke="none" stroke-width="1" opacity="0.9"/>
<rect x="329.609" y="60.165" width="8.110" height="24.331" fill="#ae9774" stroke="none" stroke-width="1" opacity="0.9"/>
<rect x="1132.518" y="717.091" width="8.110" height="48.661" fill="#ae9774" stroke="none" stroke-width="1" opacity="0.9"/>
<rect x="605.355" y="60.165" width="8.110" height="24.331" fill="#ae9774" stroke="none" stroke-width="1" opacity="0.9"/>
<rect x="605.355" y="181.818" width="8.110" height="121.653" fill="#ae9774" stroke="none" stroke-width="1" opacity="0.9"/>
<rect x="605.355" y="595.438" width="8.110" height="48.661" fill="#ae9774" stroke="none" stroke-width="1" opacity="0.9"/>
<rect x="1043.306" y="206.149" width="8.110" height="267.636" fill="#ae9774" stroke="none" stroke-width="1" opacity="0.9"/>
<rect x="1043.306" y="498.116" width="8.110" height="24.331" fill="#ae9774" stroke="none" stroke-width="1" opacity="0.9"/>
<rect x="1043.306" y="619.769" width="8.110" height="24.331" fill="#ae9774" stroke="none" stroke-width="1" opacity="0.9"/>
<rect x="1310.942" y="400.793" width="8.110" height="170.314" fill="#ae9774" stroke="none" stroke-width="1" opacity="0.9"/>
<rect x="1310.942" y="838.744" width="8.110" height="48.661" fill="#ae9774" stroke="none" stroke-width="1" opacity="0.9"/>
<rect x="654.017" y="984.727" width="8.110" height="24.331" fill="#ae9774" stroke="none" stroke-width="1" opacity="0.9"/>
<rect x="751.339" y="230.479" width="8.110" height="145.983" fill="#ae9774" stroke="none" stroke-width="1" opacity="0.9"/>
<rect x="751.339" y="936.066" width="8.110" height="24.331" fill="#ae9774" stroke="none" stroke-width="1" opacity="0.9"/>
<rect x="775.669" y="206.149" width="8.110" height="24.331" fill="#ae9774" stroke="none" stroke-width="1" opacity="0.9"/>
<rect x="775.669" y="376.463" width="8.110" height="24.331" fill="#ae9774" stroke="none" stroke-width="1" opacity="0.9"/>
<rect x="775.669" y="790.083" width="8.110" height="24.331" fill="#ae9774" stroke="none" stroke-width="1" opacity="0.9"/>
<rect x="775.669" y="911.736" width="8.110" height="24.331" fill="#ae9774" stroke="none" stroke-width="1" opacity="0.9"/>
<rect x="483.702" y="765.752" width="8.110" height="24.331" fill="#ae9774" stroke="none" stroke-width="1" opacity="0.9"/>
<rect x="848.661" y="449.455" width="8.110" height="24.331" fill="#ae9774" stroke="none" stroke-width="1" opacity="0.9"/>
<rect x="848.661" y="644.099" width="8.110" height="24.331" fill="#ae9774" stroke="none" stroke-width="1" opacity="0.9"/>
<rect x="848.661" y="814.413" width="8.110" height="24.331" fill="#ae9774" stroke="none" stroke-width="1" opacity="0.9"/>
<rect x="1286.612" y="571.107" width="8.110" height="24.331" fill="#ae9774" stroke="none" stroke-width="1" opacity="0.9"/>
<rect x="1286.612" y="765.752" width="8.110" height="72.992" fill="#ae9774" stroke="none" stroke-width="1" opacity="0.9"/>
<rect x="1286.612" y="887.405" width="8.110" height="24.331" fill="#ae9774" stroke="none" stroke-width="1" opacity="0.9"/>
<rect x="824.331" y="60.165" width="8.110" height="24.331" fill="#ae9774" stroke="none" stroke-width="1" opacity="0.9"/>
<rect x="824.331" y="473.785" width="8.110" height="170.314" fill="#ae9774" stroke="none" stroke-width="1" opacity="0.9"/>
<rect x="459.372" y="522.446" width="8.110" height="48.661" fill="#ae9774" stroke="none" stroke-width="1" opacity="0.9"/>
<rect x="459.372" y="717.091" width="8.110" height="48.661" fill="#ae9774" stroke="none" stroke-width="1" opacity="0.9"/>
<rect x="945.983" y="84.496" width="8.110" height="24.331" fill="#ae9774" stroke="none" stroke-width="1" opacity="0.9"/>
<rect x="945.983" y="157.488" width="8.110" height="72.992" fill="#ae9774" stroke="none" stroke-width="1" opacity="0.9"/>
<rect x="945.983" y="425.124" width="8.110" height="24.331" fill="#ae9774" stroke="none" stroke-width="1" opacity="0.9"/>
<rect x="362.050" y="692.760" width="8.110" height="72.992" fill="#ae9774" stroke="none" stroke-width="1" opacity="0.9"/>
<rect x="362.050" y="1106.380" width="8.110" height="24.331" fill="#ae9774" stroke="none" stroke-width="1" opacity="0.9"/>
<rect x="1262.281" y="352.132" width="8.110" height="48.661" fill="#ae9774" stroke="none" stroke-width="1" opacity="0.9"/>
<rect x="1262.281" y="595.438" width="8.110" height="170.314" fill="#ae9774" stroke="none" stroke-width="1" opacity="0.9"/>
<rect x="1262.281" y="911.736" width="8.110" height="194.645" fill="#ae9774" stroke="none" stroke-width="1" opacity="0.9"/>
<rect x="994.645" y="692.760" width="8.110" height="145.983" fill="#ae9774" stroke="none" stroke-width="1" opacity="0.9"/>
<rect x="800.000" y="741.421" width="8.110" height="48.661" fill="#ae9774" stroke="none" stroke-width="1" opacity="0.9"/>
<rect x="508.033" y="279.140" width="8.110" height="48.661" fill="#ae9774" stroke="none" stroke-width="1" opacity="0.9"/>
<rect x="508.033" y="498.116" width="8.110" height="24.331" fill="#ae9774" stroke="none" stroke-width="1" opacity="0.9"/>
<rect x="508.033" y="644.099" width="8.110" height="24.331" fill="#ae9774" stroke="none" stroke-width="1" opacity="0.9"/>
<rect x="508.033" y="790.083" width="8.110" height="48.661" fill="#ae9774" stroke="none" stroke-width="1" opacity="0.9"/>
<rect x="508.033" y="984.727" width="8.110" height="72.992" fill="#ae9774" stroke="none" stroke-width="1" opacity="0.9"/>
<rect x="532.364" y="327.802" width="8.110" height="170.314" fill="#ae9774" stroke="none" stroke-width="1" opacity="0.9"/>
<rect x="386.380" y="1057.719" width="8.110" height="48.661" fill="#ae9774" stroke="none" stroke-width="1" opacity="0.9"/>
<rect x="435.041" y="668.430" width="8.110" height="24.331" fill="#ae9774" stroke="none" stroke-width="1" opacity="0.9"/>
<rect x="970.314" y="108.826" width="8.110" height="48.661" fill="#ae9774" stroke="none" stroke-width="1" opacity="0.9"/>
<rect x="970.314" y="668.430" width="8.110" height="24.331" fill="#ae9774" stroke="none" stroke-width="1" opacity="0.9"/>
<rect x="581.025" y="571.107" width="8.110" height="24.331" fill="#ae9774" stroke="none" stroke-width="1" opacity="0.9"/>
<rect x="1018.975" y="473.785" width="8.110" height="24.331" fill="#ae9774" stroke="none" stroke-width="1" opacity="0.9"/>
<rect x="702.678" y="960.397" width="8.110" height="24.331" fill="#ae9774" stroke="none" stroke-width="1" opacity="0.9"/>
<rect x="276.893" y="149.377" width="4.055" height="16.220" fill="#ae9774" stroke="none" stroke-width="1" opacity="0.9"/>
<rect x="280.948" y="165.598" width="16.220" height="4.055" fill="#ae9774" stroke="none" stroke-width="1" opacity="0.9"/>
<rect x="962.204" y="165.598" width="16.220" height="4.055" fill="#ae9774" stroke="none" stroke-width="1" opacity="0.9"/>
<rect x="325.554" y="52.055" width="4.055" height="16.220" fill="#ae9774" stroke="none" stroke-width="1" opacity="0.9"/>
<rect x="329.609" y="48.000" width="16.220" height="4.055" fill="#ae9774" stroke="none" stroke-width="1" opacity="0.9"/>
<rect x="670.237" y="48.000" width="16.220" height="4.055" fill="#ae9774" stroke="none" stroke-width="1" opacity="0.9"/>
<rect x="816.220" y="48.000" width="16.220" height="4.055" fill="#ae9774" stroke="none" stroke-width="1" opacity="0.9"/>
<rect x="443.152" y="684.650" width="4.055" height="16.220" fill="#ae9774" stroke="none" stroke-width="1" opacity="0.9"/>
<rect x="426.931" y="700.871" width="16.220" height="4.055" fill="#ae9774" stroke="none" stroke-width="1" opacity="0.9"/>
<rect x="540.474" y="490.006" width="4.055" height="16.220" fill="#ae9774" stroke="none" stroke-width="1" opacity="0.9"/>
<rect x="524.253" y="506.226" width="16.220" height="4.055" fill="#ae9774" stroke="none" stroke-width="1" opacity="0.9"/>
<rect x="670.237" y="506.226" width="16.220" height="4.055" fill="#ae9774" stroke="none" stroke-width="1" opacity="0.9"/>
<rect x="666.182" y="52.055" width="4.055" height="16.220" fill="#ae9774" stroke="none" stroke-width="1" opacity="0.9"/>
<rect x="666.182" y="490.006" width="4.055" height="16.220" fill="#ae9774" stroke="none" stroke-width="1" opacity="0.9"/>
<rect x="783.780" y="927.956" width="4.055" height="16.220" fill="#ae9774" stroke="none" stroke-width="1" opacity="0.9"/>
<rect x="767.559" y="944.176" width="16.220" height="4.055" fill="#ae9774" stroke="none" stroke-width="1" opacity="0.9"/>
<rect x="832.441" y="52.055" width="4.055" height="16.220" fill="#ae9774" stroke="none" stroke-width="1" opacity="0.9"/>
<rect x="860.826" y="295.361" width="4.055" height="16.220" fill="#ae9774" stroke="none" stroke-width="1" opacity="0.9"/>
<rect x="864.882" y="311.581" width="16.220" height="4.055" fill="#ae9774" stroke="none" stroke-width="1" opacity="0.9"/>
<rect x="909.488" y="1025.278" width="4.055" height="16.220" fill="#ae9774" stroke="none" stroke-width="1" opacity="0.9"/>
<rect x="913.543" y="1041.499" width="16.220" height="4.055" fill="#ae9774" stroke="none" stroke-width="1" opacity="0.9"/>
<rect x="978.424" y="100.716" width="4.055" height="16.220" fill="#ae9774" stroke="none" stroke-width="1" opacity="0.9"/>
<rect x="978.424" y="149.377" width="4.055" height="16.220" fill="#ae9774" stroke="none" stroke-width="1" opacity="0.9"/>
<rect x="962.204" y="96.661" width="16.220" height="4.055" fill="#ae9774" stroke="none" stroke-width="1" opacity="0.9"/>
<rect x="958.149" y="198.039" width="4.055" height="16.220" fill="#ae9774" stroke="none" stroke-width="1" opacity="0.9"/>
<rect x="962.204" y="193.983" width="16.220" height="4.055" fill="#ae9774" stroke="none" stroke-width="1" opacity="0.9"/>
<rect x="1055.471" y="490.006" width="4.055" height="16.220" fill="#ae9774" stroke="none" stroke-width="1" opacity="0.9"/>
<rect x="1055.471" y="635.989" width="4.055" height="16.220" fill="#ae9774" stroke="none" stroke-width="1" opacity="0.9"/>
<rect x="1059.526" y="485.950" width="16.220" height="4.055" fill="#ae9774" stroke="none" stroke-width="1" opacity="0.9"/>
<rect x="1059.526" y="652.209" width="16.220" height="4.055" fill="#ae9774" stroke="none" stroke-width="1" opacity="0.9"/>
<rect x="1152.793" y="344.022" width="4.055" height="16.220" fill="#ae9774" stroke="none" stroke-width="1" opacity="0.9"/>
<rect x="1156.848" y="339.967" width="16.220" height="4.055" fill="#ae9774" stroke="none" stroke-width="1" opacity="0.9"/>
<rect x="1254.171" y="339.967" width="16.220" height="4.055" fill="#ae9774" stroke="none" stroke-width="1" opacity="0.9"/>
<rect x="1270.391" y="344.022" width="4.055" height="16.220" fill="#ae9774" stroke="none" stroke-width="1" opacity="0.9"/>
<rect x="1319.052" y="392.683" width="4.055" height="16.220" fill="#ae9774" stroke="none" stroke-width="1" opacity="0.9"/>
<rect x="1319.052" y="830.634" width="4.055" height="16.220" fill="#ae9774" stroke="none" stroke-width="1" opacity="0.9"/>
<rect x="1319.052" y="879.295" width="4.055" height="16.220" fill="#ae9774" stroke="none" stroke-width="1" opacity="0.9"/>
<rect x="1302.832" y="388.628" width="16.220" height="4.055" fill="#ae9774" stroke="none" stroke-width="1" opacity="0.9"/>
<rect x="1302.832" y="826.579" width="16.220" height="4.055" fill="#ae9774" stroke="none" stroke-width="1" opacity="0.9"/>
<rect x="1302.832" y="895.515" width="16.220" height="4.055" fill="#ae9774" stroke="none" stroke-width="1" opacity="0.9"/>
<rect x="1085.059" y="406.154" width="22.257" height="22.257" fill="#8d6039" stroke="none" stroke-width="1" opacity="0.9"/>
<rect x="1097.407" y="414.294" width="9.689" height="9.689" fill="#8d6039" stroke="none" stroke-width="1" opacity="0.9"/>
<rect x="1094.033" y="396.922" width="25.744" height="25.744" fill="#8d6039" stroke="none" stroke-width="1" opacity="0.9"/>
<rect x="711.848" y="319.421" width="22.549" height="22.549" fill="#8d6039" stroke="none" stroke-width="1" opacity="0.9"/>
<rect x="720.653" y="334.766" width="12.126" height="12.126" fill="#8d6039" stroke="none" stroke-width="1" opacity="0.9"/>
<rect x="713.831" y="317.452" width="21.068" height="21.068" fill="#8d6039" stroke="none" stroke-width="1" opacity="0.9"/>
<rect x="711.958" y="254.674" width="21.012" height="21.012" fill="#8d6039" stroke="none" stroke-width="1" opacity="0.9"/>
<rect x="724.222" y="264.553" width="10.863" height="10.863" fill="#8d6039" stroke="none" stroke-width="1" opacity="0.9"/>
<rect x="716.168" y="246.169" width="25.159" height="25.159" fill="#8d6039" stroke="none" stroke-width="1" opacity="0.9"/>
<rect x="424.170" y="256.771" width="9.406" height="9.406" fill="#8d6039" stroke="none" stroke-width="1" opacity="0.9"/>
<rect x="892.526" y="279.319" width="11.684" height="11.684" fill="#8d6039" stroke="none" stroke-width="1" opacity="0.9"/>
<rect x="1013.399" y="1016.154" width="18.248" height="18.248" fill="#8d6039" stroke="none" stroke-width="1" opacity="0.9"/>
<rect x="996.672" y="1016.154" width="18.248" height="18.248" fill="#8d6039" stroke="none" stroke-width="1" opacity="0.9"/>
<rect x="881.841" y="304.585" width="23.195" height="23.195" fill="#8d6039" stroke="none" stroke-width="1" opacity="0.9"/>
<rect x="887.887" y="288.474" width="11.103" height="14.865" fill="#8d6039" stroke="none" stroke-width="1" opacity="0.9"/>
<rect x="717.884" y="278.127" width="18.248" height="18.248" fill="#8d6039" stroke="none" stroke-width="1" opacity="0.9"/>
<rect x="717.884" y="294.347" width="18.248" height="18.248" fill="#8d6039" stroke="none" stroke-width="1" opacity="0.9"/>
<rect x="717.884" y="290.292" width="18.248" height="18.248" fill="#8d6039" stroke="none" stroke-width="1" opacity="0.9"/>
<rect x="811.152" y="829.620" width="18.248" height="18.248" fill="#8d6039" stroke="none" stroke-width="1" opacity="0.9"/>
<rect x="794.931" y="890.446" width="18.248" height="18.248" fill="#8d6039" stroke="none" stroke-width="1" opacity="0.9"/>
<rect x="1013.906" y="914.777" width="18.248" height="18.248" fill="#8d6039" stroke="none" stroke-width="1" opacity="0.9"/>
<rect x="985.089" y="916.373" width="21.139" height="21.139" fill="#8d6039" stroke="none" stroke-width="1" opacity="0.9"/>
<rect x="1103.118" y="943.163" width="18.248" height="18.248" fill="#8d6039" stroke="none" stroke-width="1" opacity="0.9"/>
<rect x="1103.095" y="959.360" width="22.349" height="22.349" fill="#8d6039" stroke="none" stroke-width="1" opacity="0.9"/>
<rect x="1076.760" y="622.810" width="14.193" height="10.138" fill="#8d6039" stroke="none" stroke-width="1" opacity="0.9"/>
<rect x="1050.402" y="610.645" width="18.248" height="18.248" fill="#8d6039" stroke="none" stroke-width="1" opacity="0.9"/>
<rect x="1022.017" y="480.882" width="18.248" height="18.248" fill="#8d6039" stroke="none" stroke-width="1" opacity="0.9"/>
<rect x="401.838" y="253.432" width="14.704" height="10.867" fill="#8d6039" stroke="none" stroke-width="1" opacity="0.9"/>
<rect x="470.523" y="298.402" width="18.248" height="18.248" fill="#8d6039" stroke="none" stroke-width="1" opacity="0.9"/>
<rect x="468.970" y="323.206" width="19.328" height="19.328" fill="#8d6039" stroke="none" stroke-width="1" opacity="0.9"/>
<rect x="525.267" y="639.030" width="14.193" height="10.138" fill="#8d6039" stroke="none" stroke-width="1" opacity="0.9"/>
<rect x="506.006" y="638.523" width="14.193" height="10.138" fill="#8d6039" stroke="none" stroke-width="1" opacity="0.9"/>
<rect x="381.311" y="922.887" width="18.248" height="18.248" fill="#8d6039" stroke="none" stroke-width="1" opacity="0.9"/>
<rect x="348.871" y="1101.311" width="18.248" height="18.248" fill="#8d6039" stroke="none" stroke-width="1" opacity="0.9"/>
<rect x="344.815" y="1129.697" width="18.248" height="18.248" fill="#8d6039" stroke="none" stroke-width="1" opacity="0.9"/>
<rect x="316.430" y="1133.752" width="18.248" height="18.248" fill="#8d6039" stroke="none" stroke-width="1" opacity="0.9"/>
<rect x="320.485" y="1046.567" width="14.193" height="10.138" fill="#8d6039" stroke="none" stroke-width="1" opacity="0.9"/>
<rect x="312.375" y="1113.477" width="18.248" height="18.248" fill="#8d6039" stroke="none" stroke-width="1" opacity="0.9"/>
<rect x="425.917" y="963.438" width="18.248" height="18.248" fill="#8d6039" stroke="none" stroke-width="1" opacity="0.9"/>
<rect x="438.677" y="1018.814" width="17.058" height="14.956" fill="#8d6039" stroke="none" stroke-width="1" opacity="0.9"/>
<rect x="1285.598" y="570.094" width="18.248" height="18.248" fill="#8d6039" stroke="none" stroke-width="1" opacity="0.9"/>
<rect x="377.256" y="780.959" width="18.248" height="18.248" fill="#8d6039" stroke="none" stroke-width="1" opacity="0.9"/>
<rect x="560.749" y="849.895" width="18.248" height="18.248" fill="#8d6039" stroke="none" stroke-width="1" opacity="0.9"/>
<rect x="622.953" y="940.065" width="13.465" height="16.333" fill="#8d6039" stroke="none" stroke-width="1" opacity="0.9"/>
<rect x="622.590" y="961.410" width="14.193" height="10.138" fill="#8d6039" stroke="none" stroke-width="1" opacity="0.9"/>
<rect x="601.300" y="955.328" width="14.193" height="10.138" fill="#8d6039" stroke="none" stroke-width="1" opacity="0.9"/>
<rect x="959.163" y="829.620" width="14.193" height="10.138" fill="#8d6039" stroke="none" stroke-width="1" opacity="0.9"/>
<rect x="955.107" y="671.471" width="18.248" height="18.248" fill="#8d6039" stroke="none" stroke-width="1" opacity="0.9"/>
<rect x="628.436" y="661.098" width="18.719" height="18.719" fill="#8d6039" stroke="none" stroke-width="1" opacity="0.9"/>
<rect x="543.385" y="700.687" width="14.453" height="10.506" fill="#8d6039" stroke="none" stroke-width="1" opacity="0.9"/>
<rect x="563.977" y="698.278" width="11.792" height="15.323" fill="#8d6039" stroke="none" stroke-width="1" opacity="0.9"/>
<rect x="762.490" y="679.581" width="18.248" height="18.248" fill="#8d6039" stroke="none" stroke-width="1" opacity="0.9"/>
<rect x="319.348" y="951.185" width="10.384" height="14.368" fill="#8d6039" stroke="none" stroke-width="1" opacity="0.9"/>
<rect x="401.499" y="274.962" width="14.368" height="10.384" fill="#8d6039" stroke="none" stroke-width="1" opacity="0.9"/>
<rect x="422.952" y="271.408" width="12.014" height="15.466" fill="#8d6039" stroke="none" stroke-width="1" opacity="0.9"/>
<rect x="1120.353" y="919.846" width="44.606" height="72.992" fill="none" stroke="#e04b3f" stroke-width="2" opacity="1.0"/>
<text x="1124.353" y="933.846" fill="#e04b3f" font-family="monospace" font-size="13">A</text>
<rect x="410.711" y="960.397" width="97.322" height="93.267" fill="none" stroke="#e04b3f" stroke-width="2" opacity="1.0"/>
<text x="414.711" y="974.397" fill="#e04b3f" font-family="monospace" font-size="13">B</text>
<circle cx="637.796" cy="135.185" r="5" fill="#f28c28" stroke="#111" stroke-width="1"/>
<circle cx="637.796" cy="110.854" r="5" fill="#f28c28" stroke="#111" stroke-width="1"/>
<circle cx="662.127" cy="94.634" r="5" fill="#f28c28" stroke="#111" stroke-width="1"/>
<circle cx="662.127" cy="118.964" r="5" fill="#f28c28" stroke="#111" stroke-width="1"/>
<circle cx="613.466" cy="131.129" r="5" fill="#f28c28" stroke="#111" stroke-width="1"/>
<circle cx="613.466" cy="106.799" r="5" fill="#f28c28" stroke="#111" stroke-width="1"/>
<circle cx="589.135" cy="129.102" r="5" fill="#f28c28" stroke="#111" stroke-width="1"/>
<circle cx="589.135" cy="153.433" r="5" fill="#f28c28" stroke="#111" stroke-width="1"/>
<circle cx="684.430" cy="94.634" r="5" fill="#f28c28" stroke="#111" stroke-width="1"/>
<circle cx="684.430" cy="118.964" r="5" fill="#f28c28" stroke="#111" stroke-width="1"/>
<circle cx="708.760" cy="94.634" r="5" fill="#f28c28" stroke="#111" stroke-width="1"/>
<circle cx="708.760" cy="118.964" r="5" fill="#f28c28" stroke="#111" stroke-width="1"/>
<circle cx="708.760" cy="141.267" r="5" fill="#f28c28" stroke="#111" stroke-width="1"/>
<circle cx="684.430" cy="141.267" r="5" fill="#f28c28" stroke="#111" stroke-width="1"/>
<circle cx="662.127" cy="141.267" r="5" fill="#f28c28" stroke="#111" stroke-width="1"/>
<circle cx="731.063" cy="157.488" r="5" fill="#f28c28" stroke="#111" stroke-width="1"/>
<circle cx="731.063" cy="135.185" r="5" fill="#f28c28" stroke="#111" stroke-width="1"/>
<circle cx="731.063" cy="110.854" r="5" fill="#f28c28" stroke="#111" stroke-width="1"/>
<circle cx="731.063" cy="86.523" r="5" fill="#f28c28" stroke="#111" stroke-width="1"/>
<circle cx="585.080" cy="96.661" r="5" fill="#f28c28" stroke="#111" stroke-width="1"/>
<circle cx="962.204" cy="952.287" r="5" fill="#3d8bff" stroke="#111" stroke-width="1"/>
<circle cx="937.873" cy="952.287" r="5" fill="#3d8bff" stroke="#111" stroke-width="1"/>
<circle cx="913.543" cy="952.287" r="5" fill="#3d8bff" stroke="#111" stroke-width="1"/>
<circle cx="889.212" cy="952.287" r="5" fill="#3d8bff" stroke="#111" stroke-width="1"/>
<circle cx="889.212" cy="932.011" r="5" fill="#3d8bff" stroke="#111" stroke-width="1"/>
<circle cx="913.543" cy="932.011" r="5" fill="#3d8bff" stroke="#111" stroke-width="1"/>
<circle cx="937.873" cy="932.011" r="5" fill="#3d8bff" stroke="#111" stroke-width="1"/>
<circle cx="962.204" cy="932.011" r="5" fill="#3d8bff" stroke="#111" stroke-width="1"/>
<circle cx="962.204" cy="911.736" r="5" fill="#3d8bff" stroke="#111" stroke-width="1"/>
<circle cx="937.873" cy="911.736" r="5" fill="#3d8bff" stroke="#111" stroke-width="1"/>
<circle cx="913.543" cy="911.736" r="5" fill="#3d8bff" stroke="#111" stroke-width="1"/>
<circle cx="889.212" cy="911.736" r="5" fill="#3d8bff" stroke="#111" stroke-width="1"/>
<circle cx="889.212" cy="871.185" r="5" fill="#3d8bff" stroke="#111" stroke-width="1"/>
<circle cx="913.543" cy="871.185" r="5" fill="#3d8bff" stroke="#111" stroke-width="1"/>
<circle cx="937.873" cy="871.185" r="5" fill="#3d8bff" stroke="#111" stroke-width="1"/>
<circle cx="962.204" cy="871.185" r="5" fill="#3d8bff" stroke="#111" stroke-width="1"/>
<circle cx="889.212" cy="891.460" r="5" fill="#3d8bff" stroke="#111" stroke-width="1"/>
<circle cx="913.543" cy="891.460" r="5" fill="#3d8bff" stroke="#111" stroke-width="1"/>
<circle cx="937.873" cy="891.460" r="5" fill="#3d8bff" stroke="#111" stroke-width="1"/>
<circle cx="962.204" cy="891.460" r="5" fill="#3d8bff" stroke="#111" stroke-width="1"/>
<circle cx="637.796" cy="135.185" r="8" fill="none" stroke="#111111" stroke-width="2"/>
<g font-family="monospace" font-size="13">
<rect x="16" y="13" width="12" height="12" fill="#8ba0b4"/>
<text x="34" y="24" fill="#eef3f8">floor</text>
<rect x="16" y="33" width="12" height="12" fill="#0d6b54"/>
<text x="34" y="44" fill="#eef3f8">wall</text>
<rect x="16" y="53" width="12" height="12" fill="#2f8f4e"/>
<text x="34" y="64" fill="#eef3f8">crate</text>
<rect x="16" y="73" width="12" height="12" fill="#41a064"/>
<text x="34" y="84" fill="#eef3f8">pillar</text>
<rect x="16" y="93" width="12" height="12" fill="#f28c28"/>
<text x="34" y="104" fill="#eef3f8">T</text>
<rect x="16" y="113" width="12" height="12" fill="#3d8bff"/>
<text x="34" y="124" fill="#eef3f8">CT</text>
</g>
</svg>
