<svg xmlns="http://www.w3.org/2000/svg" width="1600" height="1200" viewBox="0 0 1600 1200">
<rect width="100%" height="100%" fill="#10243a"/>
<rect x="272.716" y="56.239" width="593.194" height="98.866" fill="#ac9c82" stroke="none" stroke-width="1" opacity="0.72"/>
<rect x="865.910" y="89.194" width="131.821" height="65.910" fill="#ac9c82" stroke="none" stroke-width="1" opacity="0.72"/>
<rect x="305.672" y="155.104" width="329.552" height="131.821" fill="#ac9c82" stroke="none" stroke-width="1" opacity="0.72"/>
<rect x="734.090" y="155.104" width="230.687" height="65.910" fill="#ac9c82" stroke="none" stroke-width="1" opacity="0.72"/>
<rect x="997.731" y="188.060" width="65.910" height="461.373" fill="#ac9c82" stroke="none" stroke-width="1" opacity="0.72"/>
<rect x="734.090" y="221.015" width="32.955" height="725.015" fill="#ac9c82" stroke="none" stroke-width="1" opacity="0.72"/>
<rect x="898.866" y="221.015" width="98.866" height="197.731" fill="#ac9c82" stroke="none" stroke-width="1" opacity="0.72"/>
<rect x="338.627" y="286.925" width="197.731" height="230.687" fill="#ac9c82" stroke="none" stroke-width="1" opacity="0.72"/>
<rect x="536.358" y="352.836" width="32.955" height="98.866" fill="#ac9c82" stroke="none" stroke-width="1" opacity="0.72"/>
<rect x="668.179" y="352.836" width="65.910" height="131.821" fill="#ac9c82" stroke="none" stroke-width="1" opacity="0.72"/>
<rect x="767.045" y="352.836" width="32.955" height="593.194" fill="#ac9c82" stroke="none" stroke-width="1" opacity="0.72"/>
<rect x="865.910" y="352.836" width="32.955" height="98.866" fill="#ac9c82" stroke="none" stroke-width="1" opacity="0.72"/>
<rect x="1129.552" y="352.836" width="164.776" height="296.597" fill="#ac9c82" stroke="none" stroke-width="1" opacity="0.72"/>
<rect x="305.672" y="385.791" width="32.955" height="98.866" fill="#ac9c82" stroke="none" stroke-width="1" opacity="0.72"/>
<rect x="800.000" y="385.791" width="65.910" height="98.866" fill="#ac9c82" stroke="none" stroke-width="1" opacity="0.72"/>
<rect x="1096.597" y="385.791" width="32.955" height="263.642" fill="#ac9c82" stroke="none" stroke-width="1" opacity="0.72"/>
<rect x="1294.328" y="385.791" width="32.955" height="230.687" fill="#ac9c82" stroke="none" stroke-width="1" opacity="0.72"/>
<rect x="898.866" y="418.746" width="65.910" height="32.955" fill="#ac9c82" stroke="none" stroke-width="1" opacity="0.72"/>
<rect x="701.134" y="484.657" width="32.955" height="32.955" fill="#ac9c82" stroke="none" stroke-width="1" opacity="0.72"/>
<rect x="800.000" y="484.657" width="32.955" height="263.642" fill="#ac9c82" stroke="none" stroke-width="1" opacity="0.72"/>
<rect x="404.537" y="517.612" width="65.910" height="164.776" fill="#ac9c82" stroke="none" stroke-width="1" opacity="0.72"/>
<rect x="1063.642" y="517.612" width="32.955" height="98.866" fill="#ac9c82" stroke="none" stroke-width="1" opacity="0.72"/>
<rect x="371.582" y="550.567" width="32.955" height="131.821" fill="#ac9c82" stroke="none" stroke-width="1" opacity="0.72"/>
<rect x="701.134" y="550.567" width="32.955" height="65.910" fill="#ac9c82" stroke="none" stroke-width="1" opacity="0.72"/>
<rect x="272.716" y="583.522" width="98.866" height="65.910" fill="#ac9c82" stroke="none" stroke-width="1" opacity="0.72"/>
<rect x="470.448" y="583.522" width="131.821" height="65.910" fill="#ac9c82" stroke="none" stroke-width="1" opacity="0.72"/>
<rect x="832.955" y="616.478" width="32.955" height="131.821" fill="#ac9c82" stroke="none" stroke-width="1" opacity="0.72"/>
<rect x="338.627" y="649.433" width="32.955" height="494.328" fill="#ac9c82" stroke="none" stroke-width="1" opacity="0.72"/>
<rect x="536.358" y="649.433" width="197.731" height="65.910" fill="#ac9c82" stroke="none" stroke-width="1" opacity="0.72"/>
<rect x="865.910" y="649.433" width="131.821" height="98.866" fill="#ac9c82" stroke="none" stroke-width="1" opacity="0.72"/>
<rect x="1162.507" y="649.433" width="131.821" height="461.373" fill="#ac9c82" stroke="none" stroke-width="1" opacity="0.72"/>
<rect x="404.537" y="715.343" width="65.910" height="362.507" fill="#ac9c82" stroke="none" stroke-width="1" opacity="0.72"/>
<rect x="470.448" y="748.299" width="32.955" height="329.552" fill="#ac9c82" stroke="none" stroke-width="1" opacity="0.72"/>
<rect x="701.134" y="748.299" width="32.955" height="230.687" fill="#ac9c82" stroke="none" stroke-width="1" opacity="0.72"/>
<rect x="931.821" y="748.299" width="65.910" height="296.597" fill="#ac9c82" stroke="none" stroke-width="1" opacity="0.72"/>
<rect x="305.672" y="781.254" width="32.955" height="362.507" fill="#ac9c82" stroke="none" stroke-width="1" opacity="0.72"/>
<rect x="371.582" y="781.254" width="32.955" height="329.552" fill="#ac9c82" stroke="none" stroke-width="1" opacity="0.72"/>
<rect x="503.403" y="781.254" width="32.955" height="263.642" fill="#ac9c82" stroke="none" stroke-width="1" opacity="0.72"/>
<rect x="1294.328" y="781.254" width="32.955" height="131.821" fill="#ac9c82" stroke="none" stroke-width="1" opacity="0.72"/>
<rect x="800.000" y="814.209" width="98.866" height="98.866" fill="#ac9c82" stroke="none" stroke-width="1" opacity="0.72"/>
<rect x="1096.597" y="814.209" width="65.910" height="230.687" fill="#ac9c82" stroke="none" stroke-width="1" opacity="0.72"/>
<rect x="536.358" y="847.164" width="164.776" height="131.821" fill="#ac9c82" stroke="none" stroke-width="1" opacity="0.72"/>
<rect x="898.866" y="847.164" width="32.955" height="131.821" fill="#ac9c82" stroke="none" stroke-width="1" opacity="0.72"/>
<rect x="997.731" y="847.164" width="98.866" height="197.731" fill="#ac9c82" stroke="none" stroke-width="1" opacity="0.72"/>
<rect x="865.910" y="913.075" width="32.955" height="65.910" fill="#ac9c82" stroke="none" stroke-width="1" opacity="0.72"/>
<rect x="536.358" y="978.985" width="131.821" height="32.955" fill="#ac9c82" stroke="none" stroke-width="1" opacity="0.72"/>
<rect x="1129.552" y="1044.896" width="32.955" height="65.910" fill="#ac9c82" stroke="none" stroke-width="1" opacity="0.72"/>
<rect x="470.448" y="740.060" width="32.955" height="8.239" fill="#ae9774" stroke="none" stroke-width="1" opacity="0.9"/>
<rect x="701.134" y="740.060" width="32.955" height="8.239" fill="#ae9774" stroke="none" stroke-width="1" opacity="0.9"/>
<rect x="272.716" y="48.000" width="593.194" height="8.239" fill="#ae9774" stroke="none" stroke-width="1" opacity="0.9"/>
<rect x="602.269" y="641.194" width="131.821" height="8.239" fill="#ae9774" stroke="none" stroke-width="1" opacity="0.9"/>
<rect x="865.910" y="641.194" width="131.821" height="8.239" fill="#ae9774" stroke="none" stroke-width="1" opacity="0.9"/>
<rect x="272.716" y="575.284" width="98.866" height="8.239" fill="#ae9774" stroke="none" stroke-width="1" opacity="0.9"/>
<rect x="470.448" y="575.284" width="131.821" height="8.239" fill="#ae9774" stroke="none" stroke-width="1" opacity="0.9"/>
<rect x="536.358" y="344.597" width="32.955" height="8.239" fill="#ae9774" stroke="none" stroke-width="1" opacity="0.9"/>
<rect x="668.179" y="344.597" width="65.910" height="8.239" fill="#ae9774" stroke="none" stroke-width="1" opacity="0.9"/>
<rect x="767.045" y="344.597" width="32.955" height="8.239" fill="#ae9774" stroke="none" stroke-width="1" opacity="0.9"/>
<rect x="865.910" y="344.597" width="32.955" height="8.239" fill="#ae9774" stroke="none" stroke-width="1" opacity="0.9"/>
<rect x="1129.552" y="344.597" width="164.776" height="8.239" fill="#ae9774" stroke="none" stroke-width="1" opacity="0.9"/>
<rect x="305.672" y="377.552" width="32.955" height="8.239" fill="#ae9774" stroke="none" stroke-width="1" opacity="0.9"/>
<rect x="800.000" y="377.552" width="65.910" height="8.239" fill="#ae9774" stroke="none" stroke-width="1" opacity="0.9"/>
<rect x="1096.597" y="377.552" width="32.955" height="8.239" fill="#ae9774" stroke="none" stroke-width="1" opacity="0.9"/>
<rect x="1294.328" y="377.552" width="32.955" height="8.239" fill="#ae9774" stroke="none" stroke-width="1" opacity="0.9"/>
<rect x="800.000" y="805.970" width="98.866" height="8.239" fill="#ae9774" stroke="none" stroke-width="1" opacity="0.9"/>
<rect x="1096.597" y="805.970" width="65.910" height="8.239" fill="#ae9774" stroke="none" stroke-width="1" opacity="0.9"/>
<rect x="536.358" y="838.925" width="164.776" height="8.239" fill="#ae9774" stroke="none" stroke-width="1" opacity="0.9"/>
<rect x="898.866" y="838.925" width="32.955" height="8.239" fill="#ae9774" stroke="none" stroke-width="1" opacity="0.9"/>
<rect x="997.731" y="838.925" width="98.866" height="8.239" fill="#ae9774" stroke="none" stroke-width="1" opacity="0.9"/>
<rect x="865.910" y="80.955" width="131.821" height="8.239" fill="#ae9774" stroke="none" stroke-width="1" opacity="0.9"/>
<rect x="832.955" y="608.239" width="32.955" height="8.239" fill="#ae9774" stroke="none" stroke-width="1" opacity="0.9"/>
<rect x="404.537" y="707.104" width="65.910" height="8.239" fill="#ae9774" stroke="none" stroke-width="1" opacity="0.9"/>
<rect x="305.672" y="773.015" width="32.955" height="8.239" fill="#ae9774" stroke="none" stroke-width="1" opacity="0.9"/>
<rect x="371.582" y="773.015" width="32.955" height="8.239" fill="#ae9774" stroke="none" stroke-width="1" opacity="0.9"/>
<rect x="503.403" y="773.015" width="32.955" height="8.239" fill="#ae9774" stroke="none" stroke-width="1" opacity="0.9"/>
<rect x="1294.328" y="773.015" width="32.955" height="8.239" fill="#ae9774" stroke="none" stroke-width="1" opacity="0.9"/>
<rect x="997.731" y="179.821" width="65.910" height="8.239" fill="#ae9774" stroke="none" stroke-width="1" opacity="0.9"/>
<rect x="371.582" y="542.328" width="32.955" height="8.239" fill="#ae9774" stroke="none" stroke-width="1" opacity="0.9"/>
<rect x="701.134" y="542.328" width="32.955" height="8.239" fill="#ae9774" stroke="none" stroke-width="1" opacity="0.9"/>
<rect x="964.776" y="212.776" width="32.955" height="8.239" fill="#ae9774" stroke="none" stroke-width="1" opacity="0.9"/>
<rect x="1063.642" y="509.373" width="32.955" height="8.239" fill="#ae9774" stroke="none" stroke-width="1" opacity="0.9"/>
<rect x="305.672" y="1143.761" width="65.910" height="8.239" fill="#ae9774" stroke="none" stroke-width="1" opacity="0.9"/>
<rect x="404.537" y="1077.851" width="98.866" height="8.239" fill="#ae9774" stroke="none" stroke-width="1" opacity="0.9"/>
<rect x="767.045" y="221.015" width="131.821" height="8.239" fill="#ae9774" stroke="none" stroke-width="1" opacity="0.9"/>
<rect x="272.716" y="649.433" width="65.910" height="8.239" fill="#ae9774" stroke="none" stroke-width="1" opacity="0.9"/>
<rect x="470.448" y="649.433" width="65.910" height="8.239" fill="#ae9774" stroke="none" stroke-width="1" opacity="0.9"/>
<rect x="997.731" y="649.433" width="65.910" height="8.239" fill="#ae9774" stroke="none" stroke-width="1" opacity="0.9"/>
<rect x="1096.597" y="649.433" width="65.910" height="8.239" fill="#ae9774" stroke="none" stroke-width="1" opacity="0.9"/>
<rect x="371.582" y="1110.806" width="32.955" height="8.239" fill="#ae9774" stroke="none" stroke-width="1" opacity="0.9"/>
<rect x="1129.552" y="1110.806" width="164.776" height="8.239" fill="#ae9774" stroke="none" stroke-width="1" opacity="0.9"/>
<rect x="536.358" y="715.343" width="197.731" height="8.239" fill="#ae9774" stroke="none" stroke-width="1" opacity="0.9"/>
<rect x="503.403" y="1044.896" width="32.955" height="8.239" fill="#ae9774" stroke="none" stroke-width="1" opacity="0.9"/>
<rect x="931.821" y="1044.896" width="197.731" height="8.239" fill="#ae9774" stroke="none" stroke-width="1" opacity="0.9"/>
<rect x="338.627" y="517.612" width="65.910" height="8.239" fill="#ae9774" stroke="none" stroke-width="1" opacity="0.9"/>
<rect x="470.448" y="517.612" width="65.910" height="8.239" fill="#ae9774" stroke="none" stroke-width="1" opacity="0.9"/>
<rect x="701.134" y="517.612" width="32.955" height="8.239" fill="#ae9774" stroke="none" stroke-width="1" opacity="0.9"/>
<rect x="668.179" y="978.985" width="65.910" height="8.239" fill="#ae9774" stroke="none" stroke-width="1" opacity="0.9"/>
<rect x="865.910" y="978.985" width="65.910" height="8.239" fill="#ae9774" stroke="none" stroke-width="1" opacity="0.9"/>
<rect x="305.672" y="484.657" width="32.955" height="8.239" fill="#ae9774" stroke="none" stroke-width="1" opacity="0.9"/>
<rect x="668.179" y="484.657" width="32.955" height="8.239" fill="#ae9774" stroke="none" stroke-width="1" opacity="0.9"/>
<rect x="832.955" y="484.657" width="32.955" height="8.239" fill="#ae9774" stroke="none" stroke-width="1" opacity="0.9"/>
<rect x="536.358" y="1011.940" width="131.821" height="8.239" fill="#ae9774" stroke="none" stroke-width="1" opacity="0.9"/>
<rect x="536.358" y="451.701" width="32.955" height="8.239" fill="#ae9774" stroke="none" stroke-width="1" opacity="0.9"/>
<rect x="865.910" y="451.701" width="98.866" height="8.239" fill="#ae9774" stroke="none" stroke-width="1" opacity="0.9"/>
<rect x="371.582" y="682.388" width="98.866" height="8.239" fill="#ae9774" stroke="none" stroke-width="1" opacity="0.9"/>
<rect x="305.672" y="286.925" width="32.955" height="8.239" fill="#ae9774" stroke="none" stroke-width="1" opacity="0.9"/>
<rect x="536.358" y="286.925" width="98.866" height="8.239" fill="#ae9774" stroke="none" stroke-width="1" opacity="0.9"/>
<rect x="701.134" y="616.478" width="32.955" height="8.239" fill="#ae9774" stroke="none" stroke-width="1" opacity="0.9"/>
<rect x="1063.642" y="616.478" width="32.955" height="8.239" fill="#ae9774" stroke="none" stroke-width="1" opacity="0.9"/>
<rect x="1294.328" y="616.478" width="32.955" height="8.239" fill="#ae9774" stroke="none" stroke-width="1" opacity="0.9"/>
<rect x="800.000" y="913.075" width="65.910" height="8.239" fill="#ae9774" stroke="none" stroke-width="1" opacity="0.9"/>
<rect x="1294.328" y="913.075" width="32.955" height="8.239" fill="#ae9774" stroke="none" stroke-width="1" opacity="0.9"/>
<rect x="272.716" y="155.104" width="32.955" height="8.239" fill="#ae9774" stroke="none" stroke-width="1" opacity="0.9"/>
<rect x="635.224" y="155.104" width="98.866" height="8.239" fill="#ae9774" stroke="none" stroke-width="1" opacity="0.9"/>
<rect x="964.776" y="155.104" width="32.955" height="8.239" fill="#ae9774" stroke="none" stroke-width="1" opacity="0.9"/>
<rect x="800.000" y="748.299" width="131.821" height="8.239" fill="#ae9774" stroke="none" stroke-width="1" opacity="0.9"/>
<rect x="964.776" y="418.746" width="32.955" height="8.239" fill="#ae9774" stroke="none" stroke-width="1" opacity="0.9"/>
<rect x="734.090" y="946.030" width="65.910" height="8.239" fill="#ae9774" stroke="none" stroke-width="1" opacity="0.9"/>
<rect x="264.478" y="56.239" width="8.239" height="98.866" fill="#ae9774" stroke="none" stroke-width="1" opacity="0.9"/>
<rect x="264.478" y="583.522" width="8.239" height="65.910" fill="#ae9774" stroke="none" stroke-width="1" opacity="0.9"/>
<rect x="1088.358" y="385.791" width="8.239" height="131.821" fill="#ae9774" stroke="none" stroke-width="1" opacity="0.9"/>
<rect x="1088.358" y="616.478" width="8.239" height="32.955" fill="#ae9774" stroke="none" stroke-width="1" opacity="0.9"/>
<rect x="1088.358" y="814.209" width="8.239" height="32.955" fill="#ae9774" stroke="none" stroke-width="1" opacity="0.9"/>
<rect x="330.388" y="286.925" width="8.239" height="98.866" fill="#ae9774" stroke="none" stroke-width="1" opacity="0.9"/>
<rect x="330.388" y="484.657" width="8.239" height="32.955" fill="#ae9774" stroke="none" stroke-width="1" opacity="0.9"/>
<rect x="330.388" y="649.433" width="8.239" height="131.821" fill="#ae9774" stroke="none" stroke-width="1" opacity="0.9"/>
<rect x="725.851" y="155.104" width="8.239" height="197.731" fill="#ae9774" stroke="none" stroke-width="1" opacity="0.9"/>
<rect x="725.851" y="517.612" width="8.239" height="32.955" fill="#ae9774" stroke="none" stroke-width="1" opacity="0.9"/>
<rect x="725.851" y="616.478" width="8.239" height="32.955" fill="#ae9774" stroke="none" stroke-width="1" opacity="0.9"/>
<rect x="725.851" y="715.343" width="8.239" height="32.955" fill="#ae9774" stroke="none" stroke-width="1" opacity="0.9"/>
<rect x="297.433" y="155.104" width="8.239" height="131.821" fill="#ae9774" stroke="none" stroke-width="1" opacity="0.9"/>
<rect x="297.433" y="385.791" width="8.239" height="98.866" fill="#ae9774" stroke="none" stroke-width="1" opacity="0.9"/>
<rect x="297.433" y="781.254" width="8.239" height="362.507" fill="#ae9774" stroke="none" stroke-width="1" opacity="0.9"/>
<rect x="692.896" y="484.657" width="8.239" height="32.955" fill="#ae9774" stroke="none" stroke-width="1" opacity="0.9"/>
<rect x="692.896" y="550.567" width="8.239" height="65.910" fill="#ae9774" stroke="none" stroke-width="1" opacity="0.9"/>
<rect x="692.896" y="748.299" width="8.239" height="98.866" fill="#ae9774" stroke="none" stroke-width="1" opacity="0.9"/>
<rect x="923.582" y="748.299" width="8.239" height="98.866" fill="#ae9774" stroke="none" stroke-width="1" opacity="0.9"/>
<rect x="923.582" y="978.985" width="8.239" height="65.910" fill="#ae9774" stroke="none" stroke-width="1" opacity="0.9"/>
<rect x="528.119" y="649.433" width="8.239" height="65.910" fill="#ae9774" stroke="none" stroke-width="1" opacity="0.9"/>
<rect x="1154.269" y="649.433" width="8.239" height="164.776" fill="#ae9774" stroke="none" stroke-width="1" opacity="0.9"/>
<rect x="396.299" y="517.612" width="8.239" height="32.955" fill="#ae9774" stroke="none" stroke-width="1" opacity="0.9"/>
<rect x="396.299" y="715.343" width="8.239" height="65.910" fill="#ae9774" stroke="none" stroke-width="1" opacity="0.9"/>
<rect x="659.940" y="352.836" width="8.239" height="131.821" fill="#ae9774" stroke="none" stroke-width="1" opacity="0.9"/>
<rect x="1121.313" y="352.836" width="8.239" height="32.955" fill="#ae9774" stroke="none" stroke-width="1" opacity="0.9"/>
<rect x="1121.313" y="1044.896" width="8.239" height="65.910" fill="#ae9774" stroke="none" stroke-width="1" opacity="0.9"/>
<rect x="857.672" y="352.836" width="8.239" height="32.955" fill="#ae9774" stroke="none" stroke-width="1" opacity="0.9"/>
<rect x="857.672" y="913.075" width="8.239" height="65.910" fill="#ae9774" stroke="none" stroke-width="1" opacity="0.9"/>
<rect x="989.493" y="188.060" width="8.239" height="32.955" fill="#ae9774" stroke="none" stroke-width="1" opacity="0.9"/>
<rect x="989.493" y="418.746" width="8.239" height="230.687" fill="#ae9774" stroke="none" stroke-width="1" opacity="0.9"/>
<rect x="890.627" y="221.015" width="8.239" height="131.821" fill="#ae9774" stroke="none" stroke-width="1" opacity="0.9"/>
<rect x="363.343" y="550.567" width="8.239" height="32.955" fill="#ae9774" stroke="none" stroke-width="1" opacity="0.9"/>
<rect x="503.403" y="748.299" width="8.239" height="32.955" fill="#ae9774" stroke="none" stroke-width="1" opacity="0.9"/>
<rect x="503.403" y="1044.896" width="8.239" height="32.955" fill="#ae9774" stroke="none" stroke-width="1" opacity="0.9"/>
<rect x="371.582" y="682.388" width="8.239" height="98.866" fill="#ae9774" stroke="none" stroke-width="1" opacity="0.9"/>
<rect x="371.582" y="1110.806" width="8.239" height="32.955" fill="#ae9774" stroke="none" stroke-width="1" opacity="0.9"/>
<rect x="536.358" y="286.925" width="8.239" height="65.910" fill="#ae9774" stroke="none" stroke-width="1" opacity="0.9"/>
<rect x="536.358" y="451.701" width="8.239" height="65.910" fill="#ae9774" stroke="none" stroke-width="1" opacity="0.9"/>
<rect x="536.358" y="781.254" width="8.239" height="65.910" fill="#ae9774" stroke="none" stroke-width="1" opacity="0.9"/>
<rect x="536.358" y="1011.940" width="8.239" height="32.955" fill="#ae9774" stroke="none" stroke-width="1" opacity="0.9"/>
<rect x="997.731" y="89.194" width="8.239" height="65.910" fill="#ae9774" stroke="none" stroke-width="1" opacity="0.9"/>
<rect x="997.731" y="649.433" width="8.239" height="197.731" fill="#ae9774" stroke="none" stroke-width="1" opacity="0.9"/>
<rect x="635.224" y="155.104" width="8.239" height="131.821" fill="#ae9774" stroke="none" stroke-width="1" opacity="0.9"/>
<rect x="767.045" y="221.015" width="8.239" height="131.821" fill="#ae9774" stroke="none" stroke-width="1" opacity="0.9"/>
<rect x="734.090" y="946.030" width="8.239" height="32.955" fill="#ae9774" stroke="none" stroke-width="1" opacity="0.9"/>
<rect x="602.269" y="583.522" width="8.239" height="65.910" fill="#ae9774" stroke="none" stroke-width="1" opacity="0.9"/>
<rect x="832.955" y="484.657" width="8.239" height="131.821" fill="#ae9774" stroke="none" stroke-width="1" opacity="0.9"/>
<rect x="470.448" y="517.612" width="8.239" height="65.910" fill="#ae9774" stroke="none" stroke-width="1" opacity="0.9"/>
<rect x="470.448" y="649.433" width="8.239" height="32.955" fill="#ae9774" stroke="none" stroke-width="1" opacity="0.9"/>
<rect x="470.448" y="715.343" width="8.239" height="32.955" fill="#ae9774" stroke="none" stroke-width="1" opacity="0.9"/>
<rect x="964.776" y="155.104" width="8.239" height="65.910" fill="#ae9774" stroke="none" stroke-width="1" opacity="0.9"/>
<rect x="964.776" y="418.746" width="8.239" height="32.955" fill="#ae9774" stroke="none" stroke-width="1" opacity="0.9"/>
<rect x="800.000" y="352.836" width="8.239" height="32.955" fill="#ae9774" stroke="none" stroke-width="1" opacity="0.9"/>
<rect x="800.000" y="748.299" width="8.239" height="65.910" fill="#ae9774" stroke="none" stroke-width="1" opacity="0.9"/>
<rect x="800.000" y="913.075" width="8.239" height="32.955" fill="#ae9774" stroke="none" stroke-width="1" opacity="0.9"/>
<rect x="569.313" y="352.836" width="8.239" height="98.866" fill="#ae9774" stroke="none" stroke-width="1" opacity="0.9"/>
<rect x="1327.284" y="385.791" width="8.239" height="230.687" fill="#ae9774" stroke="none" stroke-width="1" opacity="0.9"/>
<rect x="1327.284" y="781.254" width="8.239" height="131.821" fill="#ae9774" stroke="none" stroke-width="1" opacity="0.9"/>
<rect x="668.179" y="978.985" width="8.239" height="32.955" fill="#ae9774" stroke="none" stroke-width="1" opacity="0.9"/>
<rect x="1063.642" y="188.060" width="8.239" height="329.552" fill="#ae9774" stroke="none" stroke-width="1" opacity="0.9"/>
<rect x="1063.642" y="616.478" width="8.239" height="32.955" fill="#ae9774" stroke="none" stroke-width="1" opacity="0.9"/>
<rect x="865.910" y="56.239" width="8.239" height="32.955" fill="#ae9774" stroke="none" stroke-width="1" opacity="0.9"/>
<rect x="865.910" y="451.701" width="8.239" height="32.955" fill="#ae9774" stroke="none" stroke-width="1" opacity="0.9"/>
<rect x="865.910" y="616.478" width="8.239" height="32.955" fill="#ae9774" stroke="none" stroke-width="1" opacity="0.9"/>
<rect x="1294.328" y="352.836" width="8.239" height="32.955" fill="#ae9774" stroke="none" stroke-width="1" opacity="0.9"/>
<rect x="1294.328" y="616.478" width="8.239" height="164.776" fill="#ae9774" stroke="none" stroke-width="1" opacity="0.9"/>
<rect x="1294.328" y="913.075" width="8.239" height="197.731" fill="#ae9774" stroke="none" stroke-width="1" opacity="0.9"/>
<rect x="404.537" y="1077.851" width="8.239" height="32.955" fill="#ae9774" stroke="none" stroke-width="1" opacity="0.9"/>
<rect x="898.866" y="814.209" width="8.239" height="32.955" fill="#ae9774" stroke="none" stroke-width="1" opacity="0.9"/>
<rect x="1141.910" y="921.313" width="45.313" height="74.149" fill="none" stroke="#e04b3f" stroke-width="2" opacity="1.0"/>
<text x="1145.910" y="935.313" fill="#e04b3f" font-family="monospace" font-size="13">A</text>
<rect x="421.015" y="962.507" width="98.866" height="94.746" fill="none" stroke="#e04b3f" stroke-width="2" opacity="1.0"/>
<text x="425.015" y="976.507" fill="#e04b3f" font-family="monospace" font-size="13">B</text>
<circle cx="651.701" cy="124.209" r="5" fill="#f28c28" stroke="#111" stroke-width="1"/>
<circle cx="651.701" cy="99.493" r="5" fill="#f28c28" stroke="#111" stroke-width="1"/>
<circle cx="676.418" cy="83.015" r="5" fill="#f28c28" stroke="#111" stroke-width="1"/>
<circle cx="676.418" cy="107.731" r="5" fill="#f28c28" stroke="#111" stroke-width="1"/>
<circle cx="626.985" cy="120.090" r="5" fill="#f28c28" stroke="#111" stroke-width="1"/>
<circle cx="626.985" cy="95.373" r="5" fill="#f28c28" stroke="#111" stroke-width="1"/>
<circle cx="602.269" cy="118.030" r="5" fill="#f28c28" stroke="#111" stroke-width="1"/>
<circle cx="602.269" cy="142.746" r="5" fill="#f28c28" stroke="#111" stroke-width="1"/>
<circle cx="699.075" cy="83.015" r="5" fill="#f28c28" stroke="#111" stroke-width="1"/>
<circle cx="699.075" cy="107.731" r="5" fill="#f28c28" stroke="#111" stroke-width="1"/>
<circle cx="723.791" cy="83.015" r="5" fill="#f28c28" stroke="#111" stroke-width="1"/>
<circle cx="723.791" cy="107.731" r="5" fill="#f28c28" stroke="#111" stroke-width="1"/>
<circle cx="723.791" cy="130.388" r="5" fill="#f28c28" stroke="#111" stroke-width="1"/>
<circle cx="699.075" cy="130.388" r="5" fill="#f28c28" stroke="#111" stroke-width="1"/>
<circle cx="676.418" cy="130.388" r="5" fill="#f28c28" stroke="#111" stroke-width="1"/>
<circle cx="746.448" cy="146.866" r="5" fill="#f28c28" stroke="#111" stroke-width="1"/>
<circle cx="746.448" cy="124.209" r="5" fill="#f28c28" stroke="#111" stroke-width="1"/>
<circle cx="746.448" cy="99.493" r="5" fill="#f28c28" stroke="#111" stroke-width="1"/>
<circle cx="746.448" cy="74.776" r="5" fill="#f28c28" stroke="#111" stroke-width="1"/>
<circle cx="598.149" cy="85.075" r="5" fill="#f28c28" stroke="#111" stroke-width="1"/>
<circle cx="981.254" cy="954.269" r="5" fill="#3d8bff" stroke="#111" stroke-width="1"/>
<circle cx="956.537" cy="954.269" r="5" fill="#3d8bff" stroke="#111" stroke-width="1"/>
<circle cx="931.821" cy="954.269" r="5" fill="#3d8bff" stroke="#111" stroke-width="1"/>
<circle cx="907.104" cy="954.269" r="5" fill="#3d8bff" stroke="#111" stroke-width="1"/>
<circle cx="907.104" cy="933.672" r="5" fill="#3d8bff" stroke="#111" stroke-width="1"/>
<circle cx="931.821" cy="933.672" r="5" fill="#3d8bff" stroke="#111" stroke-width="1"/>
<circle cx="956.537" cy="933.672" r="5" fill="#3d8bff" stroke="#111" stroke-width="1"/>
<circle cx="981.254" cy="933.672" r="5" fill="#3d8bff" stroke="#111" stroke-width="1"/>
<circle cx="981.254" cy="913.075" r="5" fill="#3d8bff" stroke="#111" stroke-width="1"/>
<circle cx="956.537" cy="913.075" r="5" fill="#3d8bff" stroke="#111" stroke-width="1"/>
<circle cx="931.821" cy="913.075" r="5" fill="#3d8bff" stroke="#111" stroke-width="1"/>
<circle cx="907.104" cy="913.075" r="5" fill="#3d8bff" stroke="#111" stroke-width="1"/>
<circle cx="907.104" cy="871.881" r="5" fill="#3d8bff" stroke="#111" stroke-width="1"/>
<circle cx="931.821" cy="871.881" r="5" fill="#3d8bff" stroke="#111" stroke-width="1"/>
<circle cx="956.537" cy="871.881" r="5" fill="#3d8bff" stroke="#111" stroke-width="1"/>
<circle cx="981.254" cy="871.881" r="5" fill="#3d8bff" stroke="#111" stroke-width="1"/>
<circle cx="907.104" cy="892.478" r="5" fill="#3d8bff" stroke="#111" stroke-width="1"/>
<circle cx="931.821" cy="892.478" r="5" fill="#3d8bff" stroke="#111" stroke-width="1"/>
<circle cx="956.537" cy="892.478" r="5" fill="#3d8bff" stroke="#111" stroke-width="1"/>
<circle cx="981.254" cy="892.478" r="5" fill="#3d8bff" stroke="#111" stroke-width="1"/>
<circle cx="651.701" cy="124.209" r="8" fill="none" stroke="#111111" stroke-width="2"/>
<g font-family="monospace" font-size="13">
<rect x="16" y="13" width="12" height="12" fill="#8ba0b4"/>
<text x="34" y="24" fill="#eef3f8">floor</text>
<rect x="16" y="33" width="12" height="12" fill="#0d6b54"/>
<text x="34" y="44" fill="#eef3f8">wall</text>
<rect x="16" y="53" width="12" height="12" fill="#2f8f4e"/>
<text x="34" y="64" fill="#eef3f8">crate</text>
<rect x="16" y="73" width="12" height="12" fill="#41a064"/>
<text x="34" y="84" fill="#eef3f8">pillar</text>
<rect x="16" y="93" width="12" height="12" fill="#f28c28"/>
<text x="34" y="104" fill="#eef3f8">T</text>
<rect x="16" y="113" width="12" height="12" fill="#3d8bff"/>
<text x="34" y="124" fill="#eef3f8">CT</text>
</g>
</svg>
