<svg xmlns="http://www.w3.org/2000/svg" width="1600" height="1200" viewBox="0 0 1600 1200">
<rect width="100%" height="100%" fill="#10243a"/>
<rect x="631.593" y="57.356" width="74.847" height="149.695" fill="#a59379" stroke="none" stroke-width="1" opacity="0.72"/>
<rect x="556.746" y="94.780" width="74.847" height="112.271" fill="#a59379" stroke="none" stroke-width="1" opacity="0.72"/>
<rect x="706.441" y="94.780" width="112.271" height="673.627" fill="#a59379" stroke="none" stroke-width="1" opacity="0.72"/>
<rect x="481.898" y="132.203" width="74.847" height="523.932" fill="#a59379" stroke="none" stroke-width="1" opacity="0.72"/>
<rect x="818.712" y="132.203" width="486.508" height="149.695" fill="#a59379" stroke="none" stroke-width="1" opacity="0.72"/>
<rect x="444.475" y="169.627" width="37.424" height="935.593" fill="#a59379" stroke="none" stroke-width="1" opacity="0.72"/>
<rect x="556.746" y="207.051" width="37.424" height="37.424" fill="#a59379" stroke="none" stroke-width="1" opacity="0.72"/>
<rect x="369.627" y="244.475" width="74.847" height="112.271" fill="#a59379" stroke="none" stroke-width="1" opacity="0.72"/>
<rect x="818.712" y="281.898" width="224.542" height="149.695" fill="#a59379" stroke="none" stroke-width="1" opacity="0.72"/>
<rect x="1230.373" y="281.898" width="74.847" height="74.847" fill="#a59379" stroke="none" stroke-width="1" opacity="0.72"/>
<rect x="1043.254" y="319.322" width="149.695" height="112.271" fill="#a59379" stroke="none" stroke-width="1" opacity="0.72"/>
<rect x="556.746" y="356.746" width="37.424" height="37.424" fill="#a59379" stroke="none" stroke-width="1" opacity="0.72"/>
<rect x="1230.373" y="356.746" width="37.424" height="187.119" fill="#a59379" stroke="none" stroke-width="1" opacity="0.72"/>
<rect x="594.169" y="394.169" width="112.271" height="74.847" fill="#a59379" stroke="none" stroke-width="1" opacity="0.72"/>
<rect x="1267.797" y="394.169" width="112.271" height="636.203" fill="#a59379" stroke="none" stroke-width="1" opacity="0.72"/>
<rect x="818.712" y="431.593" width="37.424" height="37.424" fill="#a59379" stroke="none" stroke-width="1" opacity="0.72"/>
<rect x="1118.102" y="431.593" width="74.847" height="74.847" fill="#a59379" stroke="none" stroke-width="1" opacity="0.72"/>
<rect x="556.746" y="469.017" width="112.271" height="112.271" fill="#a59379" stroke="none" stroke-width="1" opacity="0.72"/>
<rect x="1192.949" y="469.017" width="37.424" height="74.847" fill="#a59379" stroke="none" stroke-width="1" opacity="0.72"/>
<rect x="1155.525" y="506.441" width="37.424" height="37.424" fill="#a59379" stroke="none" stroke-width="1" opacity="0.72"/>
<rect x="856.136" y="543.864" width="261.966" height="224.542" fill="#a59379" stroke="none" stroke-width="1" opacity="0.72"/>
<rect x="594.169" y="581.288" width="112.271" height="149.695" fill="#a59379" stroke="none" stroke-width="1" opacity="0.72"/>
<rect x="818.712" y="581.288" width="37.424" height="187.119" fill="#a59379" stroke="none" stroke-width="1" opacity="0.72"/>
<rect x="257.356" y="618.712" width="187.119" height="112.271" fill="#a59379" stroke="none" stroke-width="1" opacity="0.72"/>
<rect x="481.898" y="656.136" width="37.424" height="449.085" fill="#a59379" stroke="none" stroke-width="1" opacity="0.72"/>
<rect x="1118.102" y="656.136" width="37.424" height="74.847" fill="#a59379" stroke="none" stroke-width="1" opacity="0.72"/>
<rect x="257.356" y="730.983" width="74.847" height="374.237" fill="#a59379" stroke="none" stroke-width="1" opacity="0.72"/>
<rect x="369.627" y="730.983" width="74.847" height="374.237" fill="#a59379" stroke="none" stroke-width="1" opacity="0.72"/>
<rect x="631.593" y="730.983" width="74.847" height="336.814" fill="#a59379" stroke="none" stroke-width="1" opacity="0.72"/>
<rect x="1380.068" y="730.983" width="37.424" height="149.695" fill="#a59379" stroke="none" stroke-width="1" opacity="0.72"/>
<rect x="332.203" y="768.407" width="37.424" height="336.814" fill="#a59379" stroke="none" stroke-width="1" opacity="0.72"/>
<rect x="706.441" y="768.407" width="74.847" height="261.966" fill="#a59379" stroke="none" stroke-width="1" opacity="0.72"/>
<rect x="1005.831" y="768.407" width="112.271" height="336.814" fill="#a59379" stroke="none" stroke-width="1" opacity="0.72"/>
<rect x="182.508" y="843.254" width="74.847" height="187.119" fill="#a59379" stroke="none" stroke-width="1" opacity="0.72"/>
<rect x="519.322" y="843.254" width="112.271" height="261.966" fill="#a59379" stroke="none" stroke-width="1" opacity="0.72"/>
<rect x="781.288" y="918.102" width="149.695" height="112.271" fill="#a59379" stroke="none" stroke-width="1" opacity="0.72"/>
<rect x="1230.373" y="918.102" width="37.424" height="149.695" fill="#a59379" stroke="none" stroke-width="1" opacity="0.72"/>
<rect x="1118.102" y="955.525" width="112.271" height="112.271" fill="#a59379" stroke="none" stroke-width="1" opacity="0.72"/>
<rect x="818.712" y="1030.373" width="187.119" height="74.847" fill="#a59379" stroke="none" stroke-width="1" opacity="0.72"/>
<rect x="1267.797" y="1030.373" width="37.424" height="37.424" fill="#a59379" stroke="none" stroke-width="1" opacity="0.72"/>
<rect x="631.593" y="1067.797" width="37.424" height="37.424" fill="#a59379" stroke="none" stroke-width="1" opacity="0.72"/>
<rect x="1118.102" y="1067.797" width="74.847" height="74.847" fill="#a59379" stroke="none" stroke-width="1" opacity="0.72"/>
<rect x="818.712" y="1105.220" width="112.271" height="37.424" fill="#a59379" stroke="none" stroke-width="1" opacity="0.72"/>
<rect x="1080.678" y="1105.220" width="37.424" height="37.424" fill="#a59379" stroke="none" stroke-width="1" opacity="0.72"/>
<rect x="930.983" y="1021.017" width="74.847" height="9.356" fill="#aa9273" stroke="none" stroke-width="1" opacity="0.9"/>
<rect x="556.746" y="459.661" width="37.424" height="9.356" fill="#aa9273" stroke="none" stroke-width="1" opacity="0.9"/>
<rect x="1192.949" y="459.661" width="37.424" height="9.356" fill="#aa9273" stroke="none" stroke-width="1" opacity="0.9"/>
<rect x="481.898" y="122.847" width="74.847" height="9.356" fill="#aa9273" stroke="none" stroke-width="1" opacity="0.9"/>
<rect x="818.712" y="122.847" width="486.508" height="9.356" fill="#aa9273" stroke="none" stroke-width="1" opacity="0.9"/>
<rect x="669.017" y="571.932" width="37.424" height="9.356" fill="#aa9273" stroke="none" stroke-width="1" opacity="0.9"/>
<rect x="818.712" y="571.932" width="37.424" height="9.356" fill="#aa9273" stroke="none" stroke-width="1" opacity="0.9"/>
<rect x="781.288" y="908.746" width="149.695" height="9.356" fill="#aa9273" stroke="none" stroke-width="1" opacity="0.9"/>
<rect x="1230.373" y="908.746" width="37.424" height="9.356" fill="#aa9273" stroke="none" stroke-width="1" opacity="0.9"/>
<rect x="556.746" y="85.424" width="74.847" height="9.356" fill="#aa9273" stroke="none" stroke-width="1" opacity="0.9"/>
<rect x="706.441" y="85.424" width="112.271" height="9.356" fill="#aa9273" stroke="none" stroke-width="1" opacity="0.9"/>
<rect x="1043.254" y="309.966" width="149.695" height="9.356" fill="#aa9273" stroke="none" stroke-width="1" opacity="0.9"/>
<rect x="257.356" y="609.356" width="187.119" height="9.356" fill="#aa9273" stroke="none" stroke-width="1" opacity="0.9"/>
<rect x="594.169" y="384.814" width="112.271" height="9.356" fill="#aa9273" stroke="none" stroke-width="1" opacity="0.9"/>
<rect x="1267.797" y="384.814" width="112.271" height="9.356" fill="#aa9273" stroke="none" stroke-width="1" opacity="0.9"/>
<rect x="332.203" y="759.051" width="37.424" height="9.356" fill="#aa9273" stroke="none" stroke-width="1" opacity="0.9"/>
<rect x="1118.102" y="946.169" width="112.271" height="9.356" fill="#aa9273" stroke="none" stroke-width="1" opacity="0.9"/>
<rect x="631.593" y="48.000" width="74.847" height="9.356" fill="#aa9273" stroke="none" stroke-width="1" opacity="0.9"/>
<rect x="182.508" y="833.898" width="74.847" height="9.356" fill="#aa9273" stroke="none" stroke-width="1" opacity="0.9"/>
<rect x="519.322" y="833.898" width="112.271" height="9.356" fill="#aa9273" stroke="none" stroke-width="1" opacity="0.9"/>
<rect x="856.136" y="534.508" width="261.966" height="9.356" fill="#aa9273" stroke="none" stroke-width="1" opacity="0.9"/>
<rect x="1118.102" y="646.780" width="37.424" height="9.356" fill="#aa9273" stroke="none" stroke-width="1" opacity="0.9"/>
<rect x="1380.068" y="721.627" width="37.424" height="9.356" fill="#aa9273" stroke="none" stroke-width="1" opacity="0.9"/>
<rect x="556.746" y="347.390" width="37.424" height="9.356" fill="#aa9273" stroke="none" stroke-width="1" opacity="0.9"/>
<rect x="369.627" y="235.119" width="74.847" height="9.356" fill="#aa9273" stroke="none" stroke-width="1" opacity="0.9"/>
<rect x="444.475" y="160.271" width="37.424" height="9.356" fill="#aa9273" stroke="none" stroke-width="1" opacity="0.9"/>
<rect x="1043.254" y="281.898" width="187.119" height="9.356" fill="#aa9273" stroke="none" stroke-width="1" opacity="0.9"/>
<rect x="369.627" y="356.746" width="74.847" height="9.356" fill="#aa9273" stroke="none" stroke-width="1" opacity="0.9"/>
<rect x="1267.797" y="356.746" width="37.424" height="9.356" fill="#aa9273" stroke="none" stroke-width="1" opacity="0.9"/>
<rect x="1380.068" y="880.678" width="37.424" height="9.356" fill="#aa9273" stroke="none" stroke-width="1" opacity="0.9"/>
<rect x="669.017" y="1067.797" width="37.424" height="9.356" fill="#aa9273" stroke="none" stroke-width="1" opacity="0.9"/>
<rect x="1192.949" y="1067.797" width="112.271" height="9.356" fill="#aa9273" stroke="none" stroke-width="1" opacity="0.9"/>
<rect x="669.017" y="469.017" width="37.424" height="9.356" fill="#aa9273" stroke="none" stroke-width="1" opacity="0.9"/>
<rect x="818.712" y="469.017" width="37.424" height="9.356" fill="#aa9273" stroke="none" stroke-width="1" opacity="0.9"/>
<rect x="519.322" y="656.136" width="37.424" height="9.356" fill="#aa9273" stroke="none" stroke-width="1" opacity="0.9"/>
<rect x="818.712" y="1142.644" width="112.271" height="9.356" fill="#aa9273" stroke="none" stroke-width="1" opacity="0.9"/>
<rect x="1080.678" y="1142.644" width="112.271" height="9.356" fill="#aa9273" stroke="none" stroke-width="1" opacity="0.9"/>
<rect x="594.169" y="207.051" width="112.271" height="9.356" fill="#aa9273" stroke="none" stroke-width="1" opacity="0.9"/>
<rect x="781.288" y="768.407" width="224.542" height="9.356" fill="#aa9273" stroke="none" stroke-width="1" opacity="0.9"/>
<rect x="257.356" y="1105.220" width="411.661" height="9.356" fill="#aa9273" stroke="none" stroke-width="1" opacity="0.9"/>
<rect x="930.983" y="1105.220" width="149.695" height="9.356" fill="#aa9273" stroke="none" stroke-width="1" opacity="0.9"/>
<rect x="1155.525" y="543.864" width="112.271" height="9.356" fill="#aa9273" stroke="none" stroke-width="1" opacity="0.9"/>
<rect x="332.203" y="730.983" width="37.424" height="9.356" fill="#aa9273" stroke="none" stroke-width="1" opacity="0.9"/>
<rect x="594.169" y="730.983" width="37.424" height="9.356" fill="#aa9273" stroke="none" stroke-width="1" opacity="0.9"/>
<rect x="1118.102" y="730.983" width="37.424" height="9.356" fill="#aa9273" stroke="none" stroke-width="1" opacity="0.9"/>
<rect x="856.136" y="431.593" width="261.966" height="9.356" fill="#aa9273" stroke="none" stroke-width="1" opacity="0.9"/>
<rect x="182.508" y="1030.373" width="74.847" height="9.356" fill="#aa9273" stroke="none" stroke-width="1" opacity="0.9"/>
<rect x="706.441" y="1030.373" width="112.271" height="9.356" fill="#aa9273" stroke="none" stroke-width="1" opacity="0.9"/>
<rect x="1305.220" y="1030.373" width="74.847" height="9.356" fill="#aa9273" stroke="none" stroke-width="1" opacity="0.9"/>
<rect x="556.746" y="244.475" width="37.424" height="9.356" fill="#aa9273" stroke="none" stroke-width="1" opacity="0.9"/>
<rect x="556.746" y="581.288" width="37.424" height="9.356" fill="#aa9273" stroke="none" stroke-width="1" opacity="0.9"/>
<rect x="1118.102" y="506.441" width="37.424" height="9.356" fill="#aa9273" stroke="none" stroke-width="1" opacity="0.9"/>
<rect x="556.746" y="394.169" width="37.424" height="9.356" fill="#aa9273" stroke="none" stroke-width="1" opacity="0.9"/>
<rect x="1258.441" y="543.864" width="9.356" height="374.237" fill="#aa9273" stroke="none" stroke-width="1" opacity="0.9"/>
<rect x="697.085" y="207.051" width="9.356" height="187.119" fill="#aa9273" stroke="none" stroke-width="1" opacity="0.9"/>
<rect x="697.085" y="469.017" width="9.356" height="112.271" fill="#aa9273" stroke="none" stroke-width="1" opacity="0.9"/>
<rect x="248.000" y="618.712" width="9.356" height="224.542" fill="#aa9273" stroke="none" stroke-width="1" opacity="0.9"/>
<rect x="248.000" y="1030.373" width="9.356" height="74.847" fill="#aa9273" stroke="none" stroke-width="1" opacity="0.9"/>
<rect x="1221.017" y="281.898" width="9.356" height="187.119" fill="#aa9273" stroke="none" stroke-width="1" opacity="0.9"/>
<rect x="1221.017" y="918.102" width="9.356" height="37.424" fill="#aa9273" stroke="none" stroke-width="1" opacity="0.9"/>
<rect x="809.356" y="1030.373" width="9.356" height="112.271" fill="#aa9273" stroke="none" stroke-width="1" opacity="0.9"/>
<rect x="547.390" y="94.780" width="9.356" height="37.424" fill="#aa9273" stroke="none" stroke-width="1" opacity="0.9"/>
<rect x="360.271" y="244.475" width="9.356" height="112.271" fill="#aa9273" stroke="none" stroke-width="1" opacity="0.9"/>
<rect x="360.271" y="730.983" width="9.356" height="37.424" fill="#aa9273" stroke="none" stroke-width="1" opacity="0.9"/>
<rect x="622.237" y="57.356" width="9.356" height="37.424" fill="#aa9273" stroke="none" stroke-width="1" opacity="0.9"/>
<rect x="622.237" y="730.983" width="9.356" height="112.271" fill="#aa9273" stroke="none" stroke-width="1" opacity="0.9"/>
<rect x="173.153" y="843.254" width="9.356" height="187.119" fill="#aa9273" stroke="none" stroke-width="1" opacity="0.9"/>
<rect x="584.814" y="394.169" width="9.356" height="74.847" fill="#aa9273" stroke="none" stroke-width="1" opacity="0.9"/>
<rect x="584.814" y="581.288" width="9.356" height="149.695" fill="#aa9273" stroke="none" stroke-width="1" opacity="0.9"/>
<rect x="435.119" y="169.627" width="9.356" height="74.847" fill="#aa9273" stroke="none" stroke-width="1" opacity="0.9"/>
<rect x="435.119" y="356.746" width="9.356" height="261.966" fill="#aa9273" stroke="none" stroke-width="1" opacity="0.9"/>
<rect x="472.542" y="132.203" width="9.356" height="37.424" fill="#aa9273" stroke="none" stroke-width="1" opacity="0.9"/>
<rect x="996.475" y="768.407" width="9.356" height="261.966" fill="#aa9273" stroke="none" stroke-width="1" opacity="0.9"/>
<rect x="846.780" y="543.864" width="9.356" height="37.424" fill="#aa9273" stroke="none" stroke-width="1" opacity="0.9"/>
<rect x="1108.746" y="431.593" width="9.356" height="74.847" fill="#aa9273" stroke="none" stroke-width="1" opacity="0.9"/>
<rect x="1071.322" y="1105.220" width="9.356" height="37.424" fill="#aa9273" stroke="none" stroke-width="1" opacity="0.9"/>
<rect x="1146.169" y="506.441" width="9.356" height="37.424" fill="#aa9273" stroke="none" stroke-width="1" opacity="0.9"/>
<rect x="1305.220" y="132.203" width="9.356" height="224.542" fill="#aa9273" stroke="none" stroke-width="1" opacity="0.9"/>
<rect x="1305.220" y="1030.373" width="9.356" height="37.424" fill="#aa9273" stroke="none" stroke-width="1" opacity="0.9"/>
<rect x="1417.492" y="730.983" width="9.356" height="149.695" fill="#aa9273" stroke="none" stroke-width="1" opacity="0.9"/>
<rect x="706.441" y="57.356" width="9.356" height="37.424" fill="#aa9273" stroke="none" stroke-width="1" opacity="0.9"/>
<rect x="706.441" y="1030.373" width="9.356" height="37.424" fill="#aa9273" stroke="none" stroke-width="1" opacity="0.9"/>
<rect x="1118.102" y="543.864" width="9.356" height="112.271" fill="#aa9273" stroke="none" stroke-width="1" opacity="0.9"/>
<rect x="1118.102" y="730.983" width="9.356" height="224.542" fill="#aa9273" stroke="none" stroke-width="1" opacity="0.9"/>
<rect x="856.136" y="431.593" width="9.356" height="37.424" fill="#aa9273" stroke="none" stroke-width="1" opacity="0.9"/>
<rect x="556.746" y="244.475" width="9.356" height="112.271" fill="#aa9273" stroke="none" stroke-width="1" opacity="0.9"/>
<rect x="556.746" y="394.169" width="9.356" height="74.847" fill="#aa9273" stroke="none" stroke-width="1" opacity="0.9"/>
<rect x="556.746" y="581.288" width="9.356" height="74.847" fill="#aa9273" stroke="none" stroke-width="1" opacity="0.9"/>
<rect x="818.712" y="94.780" width="9.356" height="37.424" fill="#aa9273" stroke="none" stroke-width="1" opacity="0.9"/>
<rect x="818.712" y="469.017" width="9.356" height="112.271" fill="#aa9273" stroke="none" stroke-width="1" opacity="0.9"/>
<rect x="1380.068" y="394.169" width="9.356" height="336.814" fill="#aa9273" stroke="none" stroke-width="1" opacity="0.9"/>
<rect x="1380.068" y="880.678" width="9.356" height="149.695" fill="#aa9273" stroke="none" stroke-width="1" opacity="0.9"/>
<rect x="519.322" y="656.136" width="9.356" height="187.119" fill="#aa9273" stroke="none" stroke-width="1" opacity="0.9"/>
<rect x="1192.949" y="319.322" width="9.356" height="149.695" fill="#aa9273" stroke="none" stroke-width="1" opacity="0.9"/>
<rect x="1192.949" y="1067.797" width="9.356" height="74.847" fill="#aa9273" stroke="none" stroke-width="1" opacity="0.9"/>
<rect x="781.288" y="768.407" width="9.356" height="149.695" fill="#aa9273" stroke="none" stroke-width="1" opacity="0.9"/>
<rect x="930.983" y="918.102" width="9.356" height="112.271" fill="#aa9273" stroke="none" stroke-width="1" opacity="0.9"/>
<rect x="930.983" y="1105.220" width="9.356" height="37.424" fill="#aa9273" stroke="none" stroke-width="1" opacity="0.9"/>
<rect x="1155.525" y="656.136" width="9.356" height="74.847" fill="#aa9273" stroke="none" stroke-width="1" opacity="0.9"/>
<rect x="1043.254" y="281.898" width="9.356" height="37.424" fill="#aa9273" stroke="none" stroke-width="1" opacity="0.9"/>
<rect x="1267.797" y="356.746" width="9.356" height="37.424" fill="#aa9273" stroke="none" stroke-width="1" opacity="0.9"/>
<rect x="594.169" y="207.051" width="9.356" height="37.424" fill="#aa9273" stroke="none" stroke-width="1" opacity="0.9"/>
<rect x="594.169" y="356.746" width="9.356" height="37.424" fill="#aa9273" stroke="none" stroke-width="1" opacity="0.9"/>
<rect x="669.017" y="469.017" width="9.356" height="112.271" fill="#aa9273" stroke="none" stroke-width="1" opacity="0.9"/>
<rect x="669.017" y="1067.797" width="9.356" height="37.424" fill="#aa9273" stroke="none" stroke-width="1" opacity="0.9"/>
<rect x="332.203" y="730.983" width="9.356" height="37.424" fill="#aa9273" stroke="none" stroke-width="1" opacity="0.9"/>
<rect x="788.305" y="162.610" width="102.914" height="93.560" fill="none" stroke="#e04b3f" stroke-width="2" opacity="1.0"/>
<text x="792.305" y="176.610" fill="#e04b3f" font-family="monospace" font-size="13">A</text>
<rect x="320.508" y="864.305" width="98.237" height="107.593" fill="none" stroke="#e04b3f" stroke-width="2" opacity="1.0"/>
<text x="324.508" y="878.305" fill="#e04b3f" font-family="monospace" font-size="13">B</text>
<circle cx="1370.712" cy="754.373" r="5" fill="#f28c28" stroke="#111" stroke-width="1"/>
<circle cx="1370.712" cy="782.441" r="5" fill="#f28c28" stroke="#111" stroke-width="1"/>
<circle cx="1370.712" cy="810.508" r="5" fill="#f28c28" stroke="#111" stroke-width="1"/>
<circle cx="1370.712" cy="838.576" r="5" fill="#f28c28" stroke="#111" stroke-width="1"/>
<circle cx="1347.322" cy="740.339" r="5" fill="#f28c28" stroke="#111" stroke-width="1"/>
<circle cx="1347.322" cy="768.407" r="5" fill="#f28c28" stroke="#111" stroke-width="1"/>
<circle cx="1347.322" cy="796.475" r="5" fill="#f28c28" stroke="#111" stroke-width="1"/>
<circle cx="1347.322" cy="824.542" r="5" fill="#f28c28" stroke="#111" stroke-width="1"/>
<circle cx="1347.322" cy="852.610" r="5" fill="#f28c28" stroke="#111" stroke-width="1"/>
<circle cx="1323.932" cy="838.576" r="5" fill="#f28c28" stroke="#111" stroke-width="1"/>
<circle cx="1323.932" cy="809.631" r="5" fill="#f28c28" stroke="#111" stroke-width="1"/>
<circle cx="1323.932" cy="781.564" r="5" fill="#f28c28" stroke="#111" stroke-width="1"/>
<circle cx="1323.932" cy="753.496" r="5" fill="#f28c28" stroke="#111" stroke-width="1"/>
<circle cx="1300.542" cy="768.407" r="5" fill="#f28c28" stroke="#111" stroke-width="1"/>
<circle cx="1300.542" cy="796.475" r="5" fill="#f28c28" stroke="#111" stroke-width="1"/>
<circle cx="1300.542" cy="824.542" r="5" fill="#f28c28" stroke="#111" stroke-width="1"/>
<circle cx="1300.542" cy="852.610" r="5" fill="#f28c28" stroke="#111" stroke-width="1"/>
<circle cx="449.153" cy="265.525" r="5" fill="#3d8bff" stroke="#111" stroke-width="1"/>
<circle cx="377.229" cy="311.720" r="5" fill="#3d8bff" stroke="#111" stroke-width="1"/>
<circle cx="377.229" cy="264.941" r="5" fill="#3d8bff" stroke="#111" stroke-width="1"/>
<circle cx="449.153" cy="316.983" r="5" fill="#3d8bff" stroke="#111" stroke-width="1"/>
<circle cx="412.314" cy="312.305" r="5" fill="#3d8bff" stroke="#111" stroke-width="1"/>
<circle cx="412.314" cy="265.525" r="5" fill="#3d8bff" stroke="#111" stroke-width="1"/>
<circle cx="395.941" cy="288.331" r="5" fill="#3d8bff" stroke="#111" stroke-width="1"/>
<circle cx="491.254" cy="237.458" r="5" fill="#3d8bff" stroke="#111" stroke-width="1"/>
<circle cx="498.271" cy="291.254" r="5" fill="#3d8bff" stroke="#111" stroke-width="1"/>
<circle cx="433.364" cy="288.915" r="5" fill="#3d8bff" stroke="#111" stroke-width="1"/>
<circle cx="465.525" cy="288.915" r="5" fill="#3d8bff" stroke="#111" stroke-width="1"/>
<circle cx="484.237" cy="316.983" r="5" fill="#3d8bff" stroke="#111" stroke-width="1"/>
<circle cx="484.237" cy="265.525" r="5" fill="#3d8bff" stroke="#111" stroke-width="1"/>
<circle cx="514.644" cy="267.864" r="5" fill="#3d8bff" stroke="#111" stroke-width="1"/>
<circle cx="1370.712" cy="754.373" r="8" fill="none" stroke="#111111" stroke-width="2"/>
<g font-family="monospace" font-size="13">
<rect x="16" y="13" width="12" height="12" fill="#8ba0b4"/>
<text x="34" y="24" fill="#eef3f8">floor</text>
<rect x="16" y="33" width="12" height="12" fill="#0d6b54"/>
<text x="34" y="44" fill="#eef3f8">wall</text>
<rect x="16" y="53" width="12" height="12" fill="#2f8f4e"/>
<text x="34" y="64" fill="#eef3f8">crate</text>
<rect x="16" y="73" width="12" height="12" fill="#41a064"/>
<text x="34" y="84" fill="#eef3f8">pillar</text>
<rect x="16" y="93" width="12" height="12" fill="#f28c28"/>
<text x="34" y="104" fill="#eef3f8">T</text>
<rect x="16" y="113" width="12" height="12" fill="#3d8bff"/>
<text x="34" y="124" fill="#eef3f8">CT</text>
</g>
</svg>
