<svg xmlns="http://www.w3.org/2000/svg" width="1600" height="1200" viewBox="0 0 1600 1200">
<rect width="100%" height="100%" fill="#10243a"/>
<rect x="685.793" y="57.517" width="28.552" height="142.759" fill="#a59379" stroke="none" stroke-width="1" opacity="0.72"/>
<rect x="571.586" y="86.069" width="114.207" height="114.207" fill="#a59379" stroke="none" stroke-width="1" opacity="0.72"/>
<rect x="714.345" y="86.069" width="85.655" height="142.759" fill="#a59379" stroke="none" stroke-width="1" opacity="0.72"/>
<rect x="514.483" y="114.621" width="57.103" height="142.759" fill="#a59379" stroke="none" stroke-width="1" opacity="0.72"/>
<rect x="800.000" y="114.621" width="28.552" height="456.828" fill="#a59379" stroke="none" stroke-width="1" opacity="0.72"/>
<rect x="857.103" y="114.621" width="85.655" height="314.069" fill="#a59379" stroke="none" stroke-width="1" opacity="0.72"/>
<rect x="485.931" y="143.172" width="28.552" height="571.034" fill="#a59379" stroke="none" stroke-width="1" opacity="0.72"/>
<rect x="828.552" y="143.172" width="28.552" height="285.517" fill="#a59379" stroke="none" stroke-width="1" opacity="0.72"/>
<rect x="971.310" y="143.172" width="342.621" height="57.103" fill="#a59379" stroke="none" stroke-width="1" opacity="0.72"/>
<rect x="457.379" y="171.724" width="28.552" height="542.483" fill="#a59379" stroke="none" stroke-width="1" opacity="0.72"/>
<rect x="942.759" y="200.276" width="342.621" height="85.655" fill="#a59379" stroke="none" stroke-width="1" opacity="0.72"/>
<rect x="343.172" y="228.828" width="114.207" height="114.207" fill="#a59379" stroke="none" stroke-width="1" opacity="0.72"/>
<rect x="714.345" y="228.828" width="57.103" height="828.000" fill="#a59379" stroke="none" stroke-width="1" opacity="0.72"/>
<rect x="514.483" y="257.379" width="28.552" height="399.724" fill="#a59379" stroke="none" stroke-width="1" opacity="0.72"/>
<rect x="771.448" y="257.379" width="28.552" height="513.931" fill="#a59379" stroke="none" stroke-width="1" opacity="0.72"/>
<rect x="942.759" y="285.931" width="85.655" height="28.552" fill="#a59379" stroke="none" stroke-width="1" opacity="0.72"/>
<rect x="1228.276" y="285.931" width="57.103" height="171.310" fill="#a59379" stroke="none" stroke-width="1" opacity="0.72"/>
<rect x="942.759" y="314.483" width="57.103" height="142.759" fill="#a59379" stroke="none" stroke-width="1" opacity="0.72"/>
<rect x="428.828" y="343.034" width="28.552" height="28.552" fill="#a59379" stroke="none" stroke-width="1" opacity="0.72"/>
<rect x="999.862" y="343.034" width="199.862" height="114.207" fill="#a59379" stroke="none" stroke-width="1" opacity="0.72"/>
<rect x="543.034" y="371.586" width="28.552" height="28.552" fill="#a59379" stroke="none" stroke-width="1" opacity="0.72"/>
<rect x="685.793" y="371.586" width="28.552" height="114.207" fill="#a59379" stroke="none" stroke-width="1" opacity="0.72"/>
<rect x="571.586" y="400.138" width="114.207" height="85.655" fill="#a59379" stroke="none" stroke-width="1" opacity="0.72"/>
<rect x="1285.379" y="400.138" width="114.207" height="57.103" fill="#a59379" stroke="none" stroke-width="1" opacity="0.72"/>
<rect x="914.207" y="428.690" width="28.552" height="28.552" fill="#a59379" stroke="none" stroke-width="1" opacity="0.72"/>
<rect x="1114.069" y="457.241" width="85.655" height="28.552" fill="#a59379" stroke="none" stroke-width="1" opacity="0.72"/>
<rect x="1342.483" y="457.241" width="57.103" height="571.034" fill="#a59379" stroke="none" stroke-width="1" opacity="0.72"/>
<rect x="543.034" y="485.793" width="114.207" height="114.207" fill="#a59379" stroke="none" stroke-width="1" opacity="0.72"/>
<rect x="1142.621" y="485.793" width="199.862" height="28.552" fill="#a59379" stroke="none" stroke-width="1" opacity="0.72"/>
<rect x="1171.172" y="514.345" width="171.310" height="57.103" fill="#a59379" stroke="none" stroke-width="1" opacity="0.72"/>
<rect x="857.103" y="571.448" width="285.517" height="199.862" fill="#a59379" stroke="none" stroke-width="1" opacity="0.72"/>
<rect x="1285.379" y="571.448" width="57.103" height="456.828" fill="#a59379" stroke="none" stroke-width="1" opacity="0.72"/>
<rect x="543.034" y="600.000" width="28.552" height="28.552" fill="#a59379" stroke="none" stroke-width="1" opacity="0.72"/>
<rect x="600.138" y="600.000" width="114.207" height="142.759" fill="#a59379" stroke="none" stroke-width="1" opacity="0.72"/>
<rect x="800.000" y="600.000" width="57.103" height="171.310" fill="#a59379" stroke="none" stroke-width="1" opacity="0.72"/>
<rect x="257.517" y="628.552" width="57.103" height="485.379" fill="#a59379" stroke="none" stroke-width="1" opacity="0.72"/>
<rect x="371.724" y="628.552" width="85.655" height="85.655" fill="#a59379" stroke="none" stroke-width="1" opacity="0.72"/>
<rect x="571.586" y="628.552" width="28.552" height="85.655" fill="#a59379" stroke="none" stroke-width="1" opacity="0.72"/>
<rect x="314.621" y="657.103" width="57.103" height="57.103" fill="#a59379" stroke="none" stroke-width="1" opacity="0.72"/>
<rect x="343.172" y="714.207" width="85.655" height="28.552" fill="#a59379" stroke="none" stroke-width="1" opacity="0.72"/>
<rect x="371.724" y="742.759" width="57.103" height="371.172" fill="#a59379" stroke="none" stroke-width="1" opacity="0.72"/>
<rect x="657.241" y="742.759" width="57.103" height="314.069" fill="#a59379" stroke="none" stroke-width="1" opacity="0.72"/>
<rect x="228.966" y="771.310" width="28.552" height="57.103" fill="#a59379" stroke="none" stroke-width="1" opacity="0.72"/>
<rect x="314.621" y="771.310" width="57.103" height="342.621" fill="#a59379" stroke="none" stroke-width="1" opacity="0.72"/>
<rect x="428.828" y="771.310" width="85.655" height="371.172" fill="#a59379" stroke="none" stroke-width="1" opacity="0.72"/>
<rect x="999.862" y="771.310" width="142.759" height="57.103" fill="#a59379" stroke="none" stroke-width="1" opacity="0.72"/>
<rect x="1256.828" y="771.310" width="28.552" height="57.103" fill="#a59379" stroke="none" stroke-width="1" opacity="0.72"/>
<rect x="1399.586" y="771.310" width="28.552" height="57.103" fill="#a59379" stroke="none" stroke-width="1" opacity="0.72"/>
<rect x="628.690" y="799.862" width="28.552" height="57.103" fill="#a59379" stroke="none" stroke-width="1" opacity="0.72"/>
<rect x="999.862" y="828.414" width="114.207" height="114.207" fill="#a59379" stroke="none" stroke-width="1" opacity="0.72"/>
<rect x="514.483" y="856.966" width="28.552" height="256.966" fill="#a59379" stroke="none" stroke-width="1" opacity="0.72"/>
<rect x="171.862" y="885.517" width="85.655" height="142.759" fill="#a59379" stroke="none" stroke-width="1" opacity="0.72"/>
<rect x="543.034" y="885.517" width="114.207" height="228.414" fill="#a59379" stroke="none" stroke-width="1" opacity="0.72"/>
<rect x="1256.828" y="914.069" width="28.552" height="171.310" fill="#a59379" stroke="none" stroke-width="1" opacity="0.72"/>
<rect x="771.448" y="942.621" width="171.310" height="114.207" fill="#a59379" stroke="none" stroke-width="1" opacity="0.72"/>
<rect x="1028.414" y="942.621" width="85.655" height="199.862" fill="#a59379" stroke="none" stroke-width="1" opacity="0.72"/>
<rect x="1114.069" y="971.172" width="142.759" height="114.207" fill="#a59379" stroke="none" stroke-width="1" opacity="0.72"/>
<rect x="999.862" y="1028.276" width="28.552" height="114.207" fill="#a59379" stroke="none" stroke-width="1" opacity="0.72"/>
<rect x="1285.379" y="1028.276" width="28.552" height="57.103" fill="#a59379" stroke="none" stroke-width="1" opacity="0.72"/>
<rect x="657.241" y="1056.828" width="28.552" height="57.103" fill="#a59379" stroke="none" stroke-width="1" opacity="0.72"/>
<rect x="828.552" y="1056.828" width="171.310" height="85.655" fill="#a59379" stroke="none" stroke-width="1" opacity="0.72"/>
<rect x="1114.069" y="1085.379" width="57.103" height="57.103" fill="#a59379" stroke="none" stroke-width="1" opacity="0.72"/>
<rect x="543.034" y="476.276" width="28.552" height="9.517" fill="#aa9273" stroke="none" stroke-width="1" opacity="0.9"/>
<rect x="1199.724" y="476.276" width="142.759" height="9.517" fill="#aa9273" stroke="none" stroke-width="1" opacity="0.9"/>
<rect x="485.931" y="133.655" width="28.552" height="9.517" fill="#aa9273" stroke="none" stroke-width="1" opacity="0.9"/>
<rect x="828.552" y="133.655" width="28.552" height="9.517" fill="#aa9273" stroke="none" stroke-width="1" opacity="0.9"/>
<rect x="971.310" y="133.655" width="342.621" height="9.517" fill="#aa9273" stroke="none" stroke-width="1" opacity="0.9"/>
<rect x="228.966" y="761.793" width="28.552" height="9.517" fill="#aa9273" stroke="none" stroke-width="1" opacity="0.9"/>
<rect x="314.621" y="761.793" width="57.103" height="9.517" fill="#aa9273" stroke="none" stroke-width="1" opacity="0.9"/>
<rect x="428.828" y="761.793" width="85.655" height="9.517" fill="#aa9273" stroke="none" stroke-width="1" opacity="0.9"/>
<rect x="1256.828" y="761.793" width="28.552" height="9.517" fill="#aa9273" stroke="none" stroke-width="1" opacity="0.9"/>
<rect x="1399.586" y="761.793" width="28.552" height="9.517" fill="#aa9273" stroke="none" stroke-width="1" opacity="0.9"/>
<rect x="771.448" y="933.103" width="171.310" height="9.517" fill="#aa9273" stroke="none" stroke-width="1" opacity="0.9"/>
<rect x="1114.069" y="961.655" width="142.759" height="9.517" fill="#aa9273" stroke="none" stroke-width="1" opacity="0.9"/>
<rect x="514.483" y="105.103" width="57.103" height="9.517" fill="#aa9273" stroke="none" stroke-width="1" opacity="0.9"/>
<rect x="800.000" y="105.103" width="28.552" height="9.517" fill="#aa9273" stroke="none" stroke-width="1" opacity="0.9"/>
<rect x="857.103" y="105.103" width="85.655" height="9.517" fill="#aa9273" stroke="none" stroke-width="1" opacity="0.9"/>
<rect x="543.034" y="362.069" width="28.552" height="9.517" fill="#aa9273" stroke="none" stroke-width="1" opacity="0.9"/>
<rect x="685.793" y="362.069" width="28.552" height="9.517" fill="#aa9273" stroke="none" stroke-width="1" opacity="0.9"/>
<rect x="257.517" y="619.034" width="57.103" height="9.517" fill="#aa9273" stroke="none" stroke-width="1" opacity="0.9"/>
<rect x="371.724" y="619.034" width="85.655" height="9.517" fill="#aa9273" stroke="none" stroke-width="1" opacity="0.9"/>
<rect x="571.586" y="619.034" width="28.552" height="9.517" fill="#aa9273" stroke="none" stroke-width="1" opacity="0.9"/>
<rect x="571.586" y="76.552" width="114.207" height="9.517" fill="#aa9273" stroke="none" stroke-width="1" opacity="0.9"/>
<rect x="714.345" y="76.552" width="85.655" height="9.517" fill="#aa9273" stroke="none" stroke-width="1" opacity="0.9"/>
<rect x="314.621" y="647.586" width="57.103" height="9.517" fill="#aa9273" stroke="none" stroke-width="1" opacity="0.9"/>
<rect x="514.483" y="847.448" width="28.552" height="9.517" fill="#aa9273" stroke="none" stroke-width="1" opacity="0.9"/>
<rect x="628.690" y="790.345" width="28.552" height="9.517" fill="#aa9273" stroke="none" stroke-width="1" opacity="0.9"/>
<rect x="857.103" y="561.931" width="285.517" height="9.517" fill="#aa9273" stroke="none" stroke-width="1" opacity="0.9"/>
<rect x="999.862" y="333.517" width="199.862" height="9.517" fill="#aa9273" stroke="none" stroke-width="1" opacity="0.9"/>
<rect x="571.586" y="390.621" width="114.207" height="9.517" fill="#aa9273" stroke="none" stroke-width="1" opacity="0.9"/>
<rect x="1285.379" y="390.621" width="114.207" height="9.517" fill="#aa9273" stroke="none" stroke-width="1" opacity="0.9"/>
<rect x="657.241" y="590.483" width="57.103" height="9.517" fill="#aa9273" stroke="none" stroke-width="1" opacity="0.9"/>
<rect x="800.000" y="590.483" width="57.103" height="9.517" fill="#aa9273" stroke="none" stroke-width="1" opacity="0.9"/>
<rect x="171.862" y="876.000" width="85.655" height="9.517" fill="#aa9273" stroke="none" stroke-width="1" opacity="0.9"/>
<rect x="543.034" y="876.000" width="114.207" height="9.517" fill="#aa9273" stroke="none" stroke-width="1" opacity="0.9"/>
<rect x="1256.828" y="904.552" width="28.552" height="9.517" fill="#aa9273" stroke="none" stroke-width="1" opacity="0.9"/>
<rect x="343.172" y="219.310" width="114.207" height="9.517" fill="#aa9273" stroke="none" stroke-width="1" opacity="0.9"/>
<rect x="942.759" y="190.759" width="28.552" height="9.517" fill="#aa9273" stroke="none" stroke-width="1" opacity="0.9"/>
<rect x="685.793" y="48.000" width="28.552" height="9.517" fill="#aa9273" stroke="none" stroke-width="1" opacity="0.9"/>
<rect x="942.759" y="1047.310" width="57.103" height="9.517" fill="#aa9273" stroke="none" stroke-width="1" opacity="0.9"/>
<rect x="457.379" y="162.207" width="28.552" height="9.517" fill="#aa9273" stroke="none" stroke-width="1" opacity="0.9"/>
<rect x="999.862" y="1018.759" width="28.552" height="9.517" fill="#aa9273" stroke="none" stroke-width="1" opacity="0.9"/>
<rect x="771.448" y="247.862" width="28.552" height="9.517" fill="#aa9273" stroke="none" stroke-width="1" opacity="0.9"/>
<rect x="343.172" y="343.034" width="85.655" height="9.517" fill="#aa9273" stroke="none" stroke-width="1" opacity="0.9"/>
<rect x="314.621" y="714.207" width="28.552" height="9.517" fill="#aa9273" stroke="none" stroke-width="1" opacity="0.9"/>
<rect x="428.828" y="714.207" width="85.655" height="9.517" fill="#aa9273" stroke="none" stroke-width="1" opacity="0.9"/>
<rect x="571.586" y="714.207" width="28.552" height="9.517" fill="#aa9273" stroke="none" stroke-width="1" opacity="0.9"/>
<rect x="771.448" y="771.310" width="228.414" height="9.517" fill="#aa9273" stroke="none" stroke-width="1" opacity="0.9"/>
<rect x="257.517" y="1113.931" width="171.310" height="9.517" fill="#aa9273" stroke="none" stroke-width="1" opacity="0.9"/>
<rect x="514.483" y="1113.931" width="171.310" height="9.517" fill="#aa9273" stroke="none" stroke-width="1" opacity="0.9"/>
<rect x="657.241" y="485.793" width="57.103" height="9.517" fill="#aa9273" stroke="none" stroke-width="1" opacity="0.9"/>
<rect x="1114.069" y="485.793" width="28.552" height="9.517" fill="#aa9273" stroke="none" stroke-width="1" opacity="0.9"/>
<rect x="428.828" y="371.586" width="28.552" height="9.517" fill="#aa9273" stroke="none" stroke-width="1" opacity="0.9"/>
<rect x="428.828" y="1142.483" width="85.655" height="9.517" fill="#aa9273" stroke="none" stroke-width="1" opacity="0.9"/>
<rect x="828.552" y="1142.483" width="342.621" height="9.517" fill="#aa9273" stroke="none" stroke-width="1" opacity="0.9"/>
<rect x="171.862" y="1028.276" width="85.655" height="9.517" fill="#aa9273" stroke="none" stroke-width="1" opacity="0.9"/>
<rect x="1313.931" y="1028.276" width="85.655" height="9.517" fill="#aa9273" stroke="none" stroke-width="1" opacity="0.9"/>
<rect x="228.966" y="828.414" width="28.552" height="9.517" fill="#aa9273" stroke="none" stroke-width="1" opacity="0.9"/>
<rect x="1114.069" y="828.414" width="28.552" height="9.517" fill="#aa9273" stroke="none" stroke-width="1" opacity="0.9"/>
<rect x="1256.828" y="828.414" width="28.552" height="9.517" fill="#aa9273" stroke="none" stroke-width="1" opacity="0.9"/>
<rect x="1399.586" y="828.414" width="28.552" height="9.517" fill="#aa9273" stroke="none" stroke-width="1" opacity="0.9"/>
<rect x="1028.414" y="285.931" width="199.862" height="9.517" fill="#aa9273" stroke="none" stroke-width="1" opacity="0.9"/>
<rect x="543.034" y="400.138" width="28.552" height="9.517" fill="#aa9273" stroke="none" stroke-width="1" opacity="0.9"/>
<rect x="800.000" y="571.448" width="28.552" height="9.517" fill="#aa9273" stroke="none" stroke-width="1" opacity="0.9"/>
<rect x="1171.172" y="571.448" width="114.207" height="9.517" fill="#aa9273" stroke="none" stroke-width="1" opacity="0.9"/>
<rect x="1171.172" y="1085.379" width="142.759" height="9.517" fill="#aa9273" stroke="none" stroke-width="1" opacity="0.9"/>
<rect x="571.586" y="200.276" width="142.759" height="9.517" fill="#aa9273" stroke="none" stroke-width="1" opacity="0.9"/>
<rect x="1285.379" y="200.276" width="28.552" height="9.517" fill="#aa9273" stroke="none" stroke-width="1" opacity="0.9"/>
<rect x="543.034" y="257.379" width="28.552" height="9.517" fill="#aa9273" stroke="none" stroke-width="1" opacity="0.9"/>
<rect x="828.552" y="428.690" width="85.655" height="9.517" fill="#aa9273" stroke="none" stroke-width="1" opacity="0.9"/>
<rect x="628.690" y="856.966" width="28.552" height="9.517" fill="#aa9273" stroke="none" stroke-width="1" opacity="0.9"/>
<rect x="914.207" y="457.241" width="199.862" height="9.517" fill="#aa9273" stroke="none" stroke-width="1" opacity="0.9"/>
<rect x="1228.276" y="457.241" width="114.207" height="9.517" fill="#aa9273" stroke="none" stroke-width="1" opacity="0.9"/>
<rect x="685.793" y="1056.828" width="142.759" height="9.517" fill="#aa9273" stroke="none" stroke-width="1" opacity="0.9"/>
<rect x="343.172" y="742.759" width="28.552" height="9.517" fill="#aa9273" stroke="none" stroke-width="1" opacity="0.9"/>
<rect x="600.138" y="742.759" width="57.103" height="9.517" fill="#aa9273" stroke="none" stroke-width="1" opacity="0.9"/>
<rect x="771.448" y="228.828" width="28.552" height="9.517" fill="#aa9273" stroke="none" stroke-width="1" opacity="0.9"/>
<rect x="543.034" y="628.552" width="28.552" height="9.517" fill="#aa9273" stroke="none" stroke-width="1" opacity="0.9"/>
<rect x="999.862" y="314.483" width="28.552" height="9.517" fill="#aa9273" stroke="none" stroke-width="1" opacity="0.9"/>
<rect x="514.483" y="657.103" width="28.552" height="9.517" fill="#aa9273" stroke="none" stroke-width="1" opacity="0.9"/>
<rect x="1142.621" y="514.345" width="28.552" height="9.517" fill="#aa9273" stroke="none" stroke-width="1" opacity="0.9"/>
<rect x="999.862" y="942.621" width="28.552" height="9.517" fill="#aa9273" stroke="none" stroke-width="1" opacity="0.9"/>
<rect x="571.586" y="600.000" width="28.552" height="9.517" fill="#aa9273" stroke="none" stroke-width="1" opacity="0.9"/>
<rect x="562.069" y="86.069" width="9.517" height="28.552" fill="#aa9273" stroke="none" stroke-width="1" opacity="0.9"/>
<rect x="562.069" y="400.138" width="9.517" height="85.655" fill="#aa9273" stroke="none" stroke-width="1" opacity="0.9"/>
<rect x="562.069" y="628.552" width="9.517" height="85.655" fill="#aa9273" stroke="none" stroke-width="1" opacity="0.9"/>
<rect x="333.655" y="228.828" width="9.517" height="114.207" fill="#aa9273" stroke="none" stroke-width="1" opacity="0.9"/>
<rect x="333.655" y="714.207" width="9.517" height="28.552" fill="#aa9273" stroke="none" stroke-width="1" opacity="0.9"/>
<rect x="1275.862" y="571.448" width="9.517" height="199.862" fill="#aa9273" stroke="none" stroke-width="1" opacity="0.9"/>
<rect x="1275.862" y="828.414" width="9.517" height="85.655" fill="#aa9273" stroke="none" stroke-width="1" opacity="0.9"/>
<rect x="419.310" y="343.034" width="9.517" height="28.552" fill="#aa9273" stroke="none" stroke-width="1" opacity="0.9"/>
<rect x="419.310" y="1113.931" width="9.517" height="28.552" fill="#aa9273" stroke="none" stroke-width="1" opacity="0.9"/>
<rect x="447.862" y="171.724" width="9.517" height="57.103" fill="#aa9273" stroke="none" stroke-width="1" opacity="0.9"/>
<rect x="447.862" y="371.586" width="9.517" height="256.966" fill="#aa9273" stroke="none" stroke-width="1" opacity="0.9"/>
<rect x="219.448" y="771.310" width="9.517" height="57.103" fill="#aa9273" stroke="none" stroke-width="1" opacity="0.9"/>
<rect x="1161.655" y="514.345" width="9.517" height="57.103" fill="#aa9273" stroke="none" stroke-width="1" opacity="0.9"/>
<rect x="619.172" y="799.862" width="9.517" height="57.103" fill="#aa9273" stroke="none" stroke-width="1" opacity="0.9"/>
<rect x="1247.310" y="771.310" width="9.517" height="57.103" fill="#aa9273" stroke="none" stroke-width="1" opacity="0.9"/>
<rect x="1247.310" y="914.069" width="9.517" height="57.103" fill="#aa9273" stroke="none" stroke-width="1" opacity="0.9"/>
<rect x="162.345" y="885.517" width="9.517" height="142.759" fill="#aa9273" stroke="none" stroke-width="1" opacity="0.9"/>
<rect x="961.793" y="143.172" width="9.517" height="57.103" fill="#aa9273" stroke="none" stroke-width="1" opacity="0.9"/>
<rect x="1018.897" y="942.621" width="9.517" height="85.655" fill="#aa9273" stroke="none" stroke-width="1" opacity="0.9"/>
<rect x="819.034" y="1056.828" width="9.517" height="85.655" fill="#aa9273" stroke="none" stroke-width="1" opacity="0.9"/>
<rect x="847.586" y="114.621" width="9.517" height="28.552" fill="#aa9273" stroke="none" stroke-width="1" opacity="0.9"/>
<rect x="847.586" y="571.448" width="9.517" height="28.552" fill="#aa9273" stroke="none" stroke-width="1" opacity="0.9"/>
<rect x="704.828" y="200.276" width="9.517" height="171.310" fill="#aa9273" stroke="none" stroke-width="1" opacity="0.9"/>
<rect x="704.828" y="485.793" width="9.517" height="114.207" fill="#aa9273" stroke="none" stroke-width="1" opacity="0.9"/>
<rect x="362.207" y="628.552" width="9.517" height="28.552" fill="#aa9273" stroke="none" stroke-width="1" opacity="0.9"/>
<rect x="362.207" y="742.759" width="9.517" height="28.552" fill="#aa9273" stroke="none" stroke-width="1" opacity="0.9"/>
<rect x="248.000" y="628.552" width="9.517" height="142.759" fill="#aa9273" stroke="none" stroke-width="1" opacity="0.9"/>
<rect x="248.000" y="828.414" width="9.517" height="57.103" fill="#aa9273" stroke="none" stroke-width="1" opacity="0.9"/>
<rect x="248.000" y="1028.276" width="9.517" height="85.655" fill="#aa9273" stroke="none" stroke-width="1" opacity="0.9"/>
<rect x="590.621" y="600.000" width="9.517" height="28.552" fill="#aa9273" stroke="none" stroke-width="1" opacity="0.9"/>
<rect x="590.621" y="714.207" width="9.517" height="28.552" fill="#aa9273" stroke="none" stroke-width="1" opacity="0.9"/>
<rect x="476.414" y="143.172" width="9.517" height="28.552" fill="#aa9273" stroke="none" stroke-width="1" opacity="0.9"/>
<rect x="1218.759" y="285.931" width="9.517" height="171.310" fill="#aa9273" stroke="none" stroke-width="1" opacity="0.9"/>
<rect x="990.345" y="771.310" width="9.517" height="171.310" fill="#aa9273" stroke="none" stroke-width="1" opacity="0.9"/>
<rect x="990.345" y="1028.276" width="9.517" height="28.552" fill="#aa9273" stroke="none" stroke-width="1" opacity="0.9"/>
<rect x="676.276" y="57.517" width="9.517" height="28.552" fill="#aa9273" stroke="none" stroke-width="1" opacity="0.9"/>
<rect x="676.276" y="371.586" width="9.517" height="28.552" fill="#aa9273" stroke="none" stroke-width="1" opacity="0.9"/>
<rect x="904.690" y="428.690" width="9.517" height="28.552" fill="#aa9273" stroke="none" stroke-width="1" opacity="0.9"/>
<rect x="790.483" y="228.828" width="9.517" height="28.552" fill="#aa9273" stroke="none" stroke-width="1" opacity="0.9"/>
<rect x="647.724" y="742.759" width="9.517" height="57.103" fill="#aa9273" stroke="none" stroke-width="1" opacity="0.9"/>
<rect x="647.724" y="856.966" width="9.517" height="28.552" fill="#aa9273" stroke="none" stroke-width="1" opacity="0.9"/>
<rect x="504.966" y="114.621" width="9.517" height="28.552" fill="#aa9273" stroke="none" stroke-width="1" opacity="0.9"/>
<rect x="1104.552" y="457.241" width="9.517" height="28.552" fill="#aa9273" stroke="none" stroke-width="1" opacity="0.9"/>
<rect x="1133.103" y="485.793" width="9.517" height="28.552" fill="#aa9273" stroke="none" stroke-width="1" opacity="0.9"/>
<rect x="1332.966" y="457.241" width="9.517" height="28.552" fill="#aa9273" stroke="none" stroke-width="1" opacity="0.9"/>
<rect x="771.448" y="228.828" width="9.517" height="28.552" fill="#aa9273" stroke="none" stroke-width="1" opacity="0.9"/>
<rect x="771.448" y="771.310" width="9.517" height="171.310" fill="#aa9273" stroke="none" stroke-width="1" opacity="0.9"/>
<rect x="1114.069" y="828.414" width="9.517" height="142.759" fill="#aa9273" stroke="none" stroke-width="1" opacity="0.9"/>
<rect x="1428.138" y="771.310" width="9.517" height="57.103" fill="#aa9273" stroke="none" stroke-width="1" opacity="0.9"/>
<rect x="657.241" y="485.793" width="9.517" height="114.207" fill="#aa9273" stroke="none" stroke-width="1" opacity="0.9"/>
<rect x="1399.586" y="400.138" width="9.517" height="371.172" fill="#aa9273" stroke="none" stroke-width="1" opacity="0.9"/>
<rect x="1399.586" y="828.414" width="9.517" height="199.862" fill="#aa9273" stroke="none" stroke-width="1" opacity="0.9"/>
<rect x="571.586" y="200.276" width="9.517" height="57.103" fill="#aa9273" stroke="none" stroke-width="1" opacity="0.9"/>
<rect x="571.586" y="371.586" width="9.517" height="28.552" fill="#aa9273" stroke="none" stroke-width="1" opacity="0.9"/>
<rect x="571.586" y="600.000" width="9.517" height="28.552" fill="#aa9273" stroke="none" stroke-width="1" opacity="0.9"/>
<rect x="314.621" y="628.552" width="9.517" height="28.552" fill="#aa9273" stroke="none" stroke-width="1" opacity="0.9"/>
<rect x="314.621" y="714.207" width="9.517" height="57.103" fill="#aa9273" stroke="none" stroke-width="1" opacity="0.9"/>
<rect x="800.000" y="86.069" width="9.517" height="28.552" fill="#aa9273" stroke="none" stroke-width="1" opacity="0.9"/>
<rect x="800.000" y="571.448" width="9.517" height="28.552" fill="#aa9273" stroke="none" stroke-width="1" opacity="0.9"/>
<rect x="543.034" y="257.379" width="9.517" height="114.207" fill="#aa9273" stroke="none" stroke-width="1" opacity="0.9"/>
<rect x="543.034" y="400.138" width="9.517" height="85.655" fill="#aa9273" stroke="none" stroke-width="1" opacity="0.9"/>
<rect x="543.034" y="628.552" width="9.517" height="28.552" fill="#aa9273" stroke="none" stroke-width="1" opacity="0.9"/>
<rect x="543.034" y="856.966" width="9.517" height="28.552" fill="#aa9273" stroke="none" stroke-width="1" opacity="0.9"/>
<rect x="1199.724" y="343.034" width="9.517" height="142.759" fill="#aa9273" stroke="none" stroke-width="1" opacity="0.9"/>
<rect x="999.862" y="314.483" width="9.517" height="28.552" fill="#aa9273" stroke="none" stroke-width="1" opacity="0.9"/>
<rect x="1313.931" y="143.172" width="9.517" height="57.103" fill="#aa9273" stroke="none" stroke-width="1" opacity="0.9"/>
<rect x="1313.931" y="1028.276" width="9.517" height="57.103" fill="#aa9273" stroke="none" stroke-width="1" opacity="0.9"/>
<rect x="942.759" y="114.621" width="9.517" height="85.655" fill="#aa9273" stroke="none" stroke-width="1" opacity="0.9"/>
<rect x="942.759" y="942.621" width="9.517" height="114.207" fill="#aa9273" stroke="none" stroke-width="1" opacity="0.9"/>
<rect x="514.483" y="657.103" width="9.517" height="57.103" fill="#aa9273" stroke="none" stroke-width="1" opacity="0.9"/>
<rect x="514.483" y="771.310" width="9.517" height="85.655" fill="#aa9273" stroke="none" stroke-width="1" opacity="0.9"/>
<rect x="514.483" y="1113.931" width="9.517" height="28.552" fill="#aa9273" stroke="none" stroke-width="1" opacity="0.9"/>
<rect x="1171.172" y="1085.379" width="9.517" height="57.103" fill="#aa9273" stroke="none" stroke-width="1" opacity="0.9"/>
<rect x="1285.379" y="200.276" width="9.517" height="199.862" fill="#aa9273" stroke="none" stroke-width="1" opacity="0.9"/>
<rect x="828.552" y="114.621" width="9.517" height="28.552" fill="#aa9273" stroke="none" stroke-width="1" opacity="0.9"/>
<rect x="828.552" y="428.690" width="9.517" height="142.759" fill="#aa9273" stroke="none" stroke-width="1" opacity="0.9"/>
<rect x="1142.621" y="571.448" width="9.517" height="256.966" fill="#aa9273" stroke="none" stroke-width="1" opacity="0.9"/>
<rect x="685.793" y="1056.828" width="9.517" height="57.103" fill="#aa9273" stroke="none" stroke-width="1" opacity="0.9"/>
<rect x="714.345" y="57.517" width="9.517" height="28.552" fill="#aa9273" stroke="none" stroke-width="1" opacity="0.9"/>
<rect x="1028.414" y="285.931" width="9.517" height="28.552" fill="#aa9273" stroke="none" stroke-width="1" opacity="0.9"/>
<rect x="428.828" y="714.207" width="9.517" height="57.103" fill="#aa9273" stroke="none" stroke-width="1" opacity="0.9"/>
<rect x="243.241" y="1104.414" width="4.759" height="19.034" fill="#aa9273" stroke="none" stroke-width="1" opacity="0.9"/>
<rect x="248.000" y="1123.448" width="19.034" height="4.759" fill="#aa9273" stroke="none" stroke-width="1" opacity="0.9"/>
<rect x="414.552" y="362.069" width="4.759" height="19.034" fill="#aa9273" stroke="none" stroke-width="1" opacity="0.9"/>
<rect x="419.310" y="381.103" width="19.034" height="4.759" fill="#aa9273" stroke="none" stroke-width="1" opacity="0.9"/>
<rect x="471.655" y="133.655" width="4.759" height="19.034" fill="#aa9273" stroke="none" stroke-width="1" opacity="0.9"/>
<rect x="476.414" y="128.897" width="19.034" height="4.759" fill="#aa9273" stroke="none" stroke-width="1" opacity="0.9"/>
<rect x="552.552" y="647.586" width="4.759" height="19.034" fill="#aa9273" stroke="none" stroke-width="1" opacity="0.9"/>
<rect x="533.517" y="666.621" width="19.034" height="4.759" fill="#aa9273" stroke="none" stroke-width="1" opacity="0.9"/>
<rect x="952.276" y="933.103" width="4.759" height="19.034" fill="#aa9273" stroke="none" stroke-width="1" opacity="0.9"/>
<rect x="933.241" y="928.345" width="19.034" height="4.759" fill="#aa9273" stroke="none" stroke-width="1" opacity="0.9"/>
<rect x="985.586" y="933.103" width="4.759" height="19.034" fill="#aa9273" stroke="none" stroke-width="1" opacity="0.9"/>
<rect x="990.345" y="952.138" width="19.034" height="4.759" fill="#aa9273" stroke="none" stroke-width="1" opacity="0.9"/>
<rect x="1099.793" y="476.276" width="4.759" height="19.034" fill="#aa9273" stroke="none" stroke-width="1" opacity="0.9"/>
<rect x="1104.552" y="495.310" width="19.034" height="4.759" fill="#aa9273" stroke="none" stroke-width="1" opacity="0.9"/>
<rect x="788.103" y="164.586" width="104.688" height="95.174" fill="none" stroke="#e04b3f" stroke-width="2" opacity="1.0"/>
<text x="792.103" y="178.586" fill="#e04b3f" font-family="monospace" font-size="13">A</text>
<rect x="312.241" y="878.379" width="99.931" height="109.448" fill="none" stroke="#e04b3f" stroke-width="2" opacity="1.0"/>
<text x="316.241" y="892.379" fill="#e04b3f" font-family="monospace" font-size="13">B</text>
<circle cx="1380.552" cy="766.552" r="5" fill="#f28c28" stroke="#111" stroke-width="1"/>
<circle cx="1380.552" cy="795.103" r="5" fill="#f28c28" stroke="#111" stroke-width="1"/>
<circle cx="1380.552" cy="823.655" r="5" fill="#f28c28" stroke="#111" stroke-width="1"/>
<circle cx="1380.552" cy="852.207" r="5" fill="#f28c28" stroke="#111" stroke-width="1"/>
<circle cx="1356.759" cy="752.276" r="5" fill="#f28c28" stroke="#111" stroke-width="1"/>
<circle cx="1356.759" cy="780.828" r="5" fill="#f28c28" stroke="#111" stroke-width="1"/>
<circle cx="1356.759" cy="809.379" r="5" fill="#f28c28" stroke="#111" stroke-width="1"/>
<circle cx="1356.759" cy="837.931" r="5" fill="#f28c28" stroke="#111" stroke-width="1"/>
<circle cx="1356.759" cy="866.483" r="5" fill="#f28c28" stroke="#111" stroke-width="1"/>
<circle cx="1332.966" cy="852.207" r="5" fill="#f28c28" stroke="#111" stroke-width="1"/>
<circle cx="1332.966" cy="822.763" r="5" fill="#f28c28" stroke="#111" stroke-width="1"/>
<circle cx="1332.966" cy="794.211" r="5" fill="#f28c28" stroke="#111" stroke-width="1"/>
<circle cx="1332.966" cy="765.659" r="5" fill="#f28c28" stroke="#111" stroke-width="1"/>
<circle cx="1309.172" cy="780.828" r="5" fill="#f28c28" stroke="#111" stroke-width="1"/>
<circle cx="1309.172" cy="809.379" r="5" fill="#f28c28" stroke="#111" stroke-width="1"/>
<circle cx="1309.172" cy="837.931" r="5" fill="#f28c28" stroke="#111" stroke-width="1"/>
<circle cx="1309.172" cy="866.483" r="5" fill="#f28c28" stroke="#111" stroke-width="1"/>
<circle cx="443.103" cy="269.276" r="5" fill="#3d8bff" stroke="#111" stroke-width="1"/>
<circle cx="369.940" cy="316.267" r="5" fill="#3d8bff" stroke="#111" stroke-width="1"/>
<circle cx="369.940" cy="268.681" r="5" fill="#3d8bff" stroke="#111" stroke-width="1"/>
<circle cx="443.103" cy="321.621" r="5" fill="#3d8bff" stroke="#111" stroke-width="1"/>
<circle cx="405.629" cy="316.862" r="5" fill="#3d8bff" stroke="#111" stroke-width="1"/>
<circle cx="405.629" cy="269.276" r="5" fill="#3d8bff" stroke="#111" stroke-width="1"/>
<circle cx="388.974" cy="292.474" r="5" fill="#3d8bff" stroke="#111" stroke-width="1"/>
<circle cx="485.931" cy="240.724" r="5" fill="#3d8bff" stroke="#111" stroke-width="1"/>
<circle cx="493.069" cy="295.448" r="5" fill="#3d8bff" stroke="#111" stroke-width="1"/>
<circle cx="427.043" cy="293.069" r="5" fill="#3d8bff" stroke="#111" stroke-width="1"/>
<circle cx="459.759" cy="293.069" r="5" fill="#3d8bff" stroke="#111" stroke-width="1"/>
<circle cx="478.793" cy="321.621" r="5" fill="#3d8bff" stroke="#111" stroke-width="1"/>
<circle cx="478.793" cy="269.276" r="5" fill="#3d8bff" stroke="#111" stroke-width="1"/>
<circle cx="509.724" cy="271.655" r="5" fill="#3d8bff" stroke="#111" stroke-width="1"/>
<circle cx="1380.552" cy="766.552" r="8" fill="none" stroke="#111111" stroke-width="2"/>
<g font-family="monospace" font-size="13">
<rect x="16" y="13" width="12" height="12" fill="#8ba0b4"/>
<text x="34" y="24" fill="#eef3f8">floor</text>
<rect x="16" y="33" width="12" height="12" fill="#0d6b54"/>
<text x="34" y="44" fill="#eef3f8">wall</text>
<rect x="16" y="53" width="12" height="12" fill="#2f8f4e"/>
<text x="34" y="64" fill="#eef3f8">crate</text>
<rect x="16" y="73" width="12" height="12" fill="#41a064"/>
<text x="34" y="84" fill="#eef3f8">pillar</text>
<rect x="16" y="93" width="12" height="12" fill="#f28c28"/>
<text x="34" y="104" fill="#eef3f8">T</text>
<rect x="16" y="113" width="12" height="12" fill="#3d8bff"/>
<text x="34" y="124" fill="#eef3f8">CT</text>
</g>
</svg>
