<svg xmlns="http://www.w3.org/2000/svg" width="1600" height="1200" viewBox="0 0 1600 1200">
<rect width="100%" height="100%" fill="#10243a"/>
<rect x="685.793" y="57.517" width="28.552" height="142.759" fill="#a59379" stroke="none" stroke-width="1" opacity="0.72"/>
<rect x="571.586" y="86.069" width="114.207" height="114.207" fill="#a59379" stroke="none" stroke-width="1" opacity="0.72"/>
<rect x="714.345" y="86.069" width="85.655" height="142.759" fill="#a59379" stroke="none" stroke-width="1" opacity="0.72"/>
<rect x="514.483" y="114.621" width="57.103" height="142.759" fill="#a59379" stroke="none" stroke-width="1" opacity="0.72"/>
<rect x="800.000" y="114.621" width="28.552" height="456.828" fill="#a59379" stroke="none" stroke-width="1" opacity="0.72"/>
<rect x="857.103" y="114.621" width="85.655" height="314.069" fill="#a59379" stroke="none" stroke-width="1" opacity="0.72"/>
<rect x="485.931" y="143.172" width="28.552" height="571.034" fill="#a59379" stroke="none" stroke-width="1" opacity="0.72"/>
<rect x="828.552" y="143.172" width="28.552" height="285.517" fill="#a59379" stroke="none" stroke-width="1" opacity="0.72"/>
<rect x="971.310" y="143.172" width="342.621" height="57.103" fill="#a59379" stroke="none" stroke-width="1" opacity="0.72"/>
<rect x="457.379" y="171.724" width="28.552" height="542.483" fill="#a59379" stroke="none" stroke-width="1" opacity="0.72"/>
<rect x="942.759" y="200.276" width="342.621" height="85.655" fill="#a59379" stroke="none" stroke-width="1" opacity="0.72"/>
<rect x="343.172" y="228.828" width="114.207" height="114.207" fill="#a59379" stroke="none" stroke-width="1" opacity="0.72"/>
<rect x="714.345" y="228.828" width="57.103" height="828.000" fill="#a59379" stroke="none" stroke-width="1" opacity="0.72"/>
<rect x="514.483" y="257.379" width="28.552" height="399.724" fill="#a59379" stroke="none" stroke-width="1" opacity="0.72"/>
<rect x="771.448" y="257.379" width="28.552" height="513.931" fill="#a59379" stroke="none" stroke-width="1" opacity="0.72"/>
<rect x="942.759" y="285.931" width="85.655" height="28.552" fill="#a59379" stroke="none" stroke-width="1" opacity="0.72"/>
<rect x="1228.276" y="285.931" width="57.103" height="171.310" fill="#a59379" stroke="none" stroke-width="1" opacity="0.72"/>
<rect x="942.759" y="314.483" width="57.103" height="142.759" fill="#a59379" stroke="none" stroke-width="1" opacity="0.72"/>
<rect x="428.828" y="343.034" width="28.552" height="28.552" fill="#a59379" stroke="none" stroke-width="1" opacity="0.72"/>
<rect x="999.862" y="343.034" width="199.862" height="114.207" fill="#a59379" stroke="none" stroke-width="1" opacity="0.72"/>
<rect x="543.034" y="371.586" width="28.552" height="28.552" fill="#a59379" stroke="none" stroke-width="1" opacity="0.72"/>
<rect x="685.793" y="371.586" width="28.552" height="114.207" fill="#a59379" stroke="none" stroke-width="1" opacity="0.72"/>
<rect x="571.586" y="400.138" width="114.207" height="85.655" fill="#a59379" stroke="none" stroke-width="1" opacity="0.72"/>
<rect x="1285.379" y="400.138" width="114.207" height="57.103" fill="#a59379" stroke="none" stroke-width="1" opacity="0.72"/>
<rect x="914.207" y="428.690" width="28.552" height="28.552" fill="#a59379" stroke="none" stroke-width="1" opacity="0.72"/>
<rect x="1114.069" y="457.241" width="85.655" height="28.552" fill="#a59379" stroke="none" stroke-width="1" opacity="0.72"/>
<rect x="1342.483" y="457.241" width="57.103" height="571.034" fill="#a59379" stroke="none" stroke-width="1" opacity="0.72"/>
<rect x="543.034" y="485.793" width="114.207" height="114.207" fill="#a59379" stroke="none" stroke-width="1" opacity="0.72"/>
<rect x="1142.621" y="485.793" width="199.862" height="28.552" fill="#a59379" stroke="none" stroke-width="1" opacity="0.72"/>
<rect x="1171.172" y="514.345" width="171.310" height="57.103" fill="#a59379" stroke="none" stroke-width="1" opacity="0.72"/>
<rect x="857.103" y="571.448" width="285.517" height="199.862" fill="#a59379" stroke="none" stroke-width="1" opacity="0.72"/>
<rect x="1285.379" y="571.448" width="57.103" height="456.828" fill="#a59379" stroke="none" stroke-width="1" opacity="0.72"/>
<rect x="543.034" y="600.000" width="28.552" height="28.552" fill="#a59379" stroke="none" stroke-width="1" opacity="0.72"/>
<rect x="600.138" y="600.000" width="114.207" height="142.759" fill="#a59379" stroke="none" stroke-width="1" opacity="0.72"/>
<rect x="800.000" y="600.000" width="57.103" height="171.310" fill="#a59379" stroke="none" stroke-width="1" opacity="0.72"/>
<rect x="257.517" y="628.552" width="57.103" height="485.379" fill="#a59379" stroke="none" stroke-width="1" opacity="0.72"/>
<rect x="371.724" y="628.552" width="85.655" height="85.655" fill="#a59379" stroke="none" stroke-width="1" opacity="0.72"/>
<rect x="571.586" y="628.552" width="28.552" height="85.655" fill="#a59379" stroke="none" stroke-width="1" opacity="0.72"/>
<rect x="314.621" y="657.103" width="57.103" height="57.103" fill="#a59379" stroke="none" stroke-width="1" opacity="0.72"/>
<rect x="343.172" y="714.207" width="85.655" height="28.552" fill="#a59379" stroke="none" stroke-width="1" opacity="0.72"/>
<rect x="371.724" y="742.759" width="57.103" height="371.172" fill="#a59379" stroke="none" stroke-width="1" opacity="0.72"/>
<rect x="657.241" y="742.759" width="57.103" height="314.069" fill="#a59379" stroke="none" stroke-width="1" opacity="0.72"/>
<rect x="228.966" y="771.310" width="28.552" height="57.103" fill="#a59379" stroke="none" stroke-width="1" opacity="0.72"/>
<rect x="314.621" y="771.310" width="57.103" height="342.621" fill="#a59379" stroke="none" stroke-width="1" opacity="0.72"/>
<rect x="428.828" y="771.310" width="85.655" height="371.172" fill="#a59379" stroke="none" stroke-width="1" opacity="0.72"/>
<rect x="999.862" y="771.310" width="142.759" height="57.103" fill="#a59379" stroke="none" stroke-width="1" opacity="0.72"/>
<rect x="1256.828" y="771.310" width="28.552" height="57.103" fill="#a59379" stroke="none" stroke-width="1" opacity="0.72"/>
<rect x="1399.586" y="771.310" width="28.552" height="57.103" fill="#a59379" stroke="none" stroke-width="1" opacity="0.72"/>
<rect x="628.690" y="799.862" width="28.552" height="57.103" fill="#a59379" stroke="none" stroke-width="1" opacity="0.72"/>
<rect x="999.862" y="828.414" width="114.207" height="114.207" fill="#a59379" stroke="none" stroke-width="1" opacity="0.72"/>
<rect x="514.483" y="856.966" width="28.552" height="256.966" fill="#a59379" stroke="none" stroke-width="1" opacity="0.72"/>
<rect x="171.862" y="885.517" width="85.655" height="142.759" fill="#a59379" stroke="none" stroke-width="1" opacity="0.72"/>
<rect x="543.034" y="885.517" width="114.207" height="228.414" fill="#a59379" stroke="none" stroke-width="1" opacity="0.72"/>
<rect x="1256.828" y="914.069" width="28.552" height="171.310" fill="#a59379" stroke="none" stroke-width="1" opacity="0.72"/>
<rect x="771.448" y="942.621" width="171.310" height="114.207" fill="#a59379" stroke="none" stroke-width="1" opacity="0.72"/>
<rect x="1028.414" y="942.621" width="85.655" height="199.862" fill="#a59379" stroke="none" stroke-width="1" opacity="0.72"/>
<rect x="1114.069" y="971.172" width="142.759" height="114.207" fill="#a59379" stroke="none" stroke-width="1" opacity="0.72"/>
<rect x="999.862" y="1028.276" width="28.552" height="114.207" fill="#a59379" stroke="none" stroke-width="1" opacity="0.72"/>
<rect x="1285.379" y="1028.276" width="28.552" height="57.103" fill="#a59379" stroke="none" stroke-width="1" opacity="0.72"/>
<rect x="657.241" y="1056.828" width="28.552" height="57.103" fill="#a59379" stroke="none" stroke-width="1" opacity="0.72"/>
<rect x="828.552" y="1056.828" width="171.310" height="85.655" fill="#a59379" stroke="none" stroke-width="1" opacity="0.72"/>
<rect x="1114.069" y="1085.379" width="57.103" height="57.103" fill="#a59379" stroke="none" stroke-width="1" opacity="0.72"/>
<rect x="543.034" y="476.276" width="28.552" height="9.517" fill="#aa9273" stroke="none" stroke-width="1" opacity="0.9"/>
<rect x="1199.724" y="476.276" width="142.759" height="9.517" fill="#aa9273" stroke="none" stroke-width="1" opacity="0.9"/>
<rect x="485.931" y="133.655" width="28.552" height="9.517" fill="#aa9273" stroke="none" stroke-width="1" opacity="0.9"/>
<rect x="828.552" y="133.655" width="28.552" height="9.517" fill="#aa9273" stroke="none" stroke-width="1" opacity="0.9"/>
<rect x="971.310" y="133.655" width="342.621" height="9.517" fill="#aa9273" stroke="none" stroke-width="1" opacity="0.9"/>
<rect x="228.966" y="761.793" width="28.552" height="9.517" fill="#aa9273" stroke="none" stroke-width="1" opacity="0.9"/>
<rect x="314.621" y="761.793" width="57.103" height="9.517" fill="#aa9273" stroke="none" stroke-width="1" opacity="0.9"/>
<rect x="428.828" y="761.793" width="85.655" height="9.517" fill="#aa9273" stroke="none" stroke-width="1" opacity="0.9"/>
<rect x="1256.828" y="761.793" width="28.552" height="9.517" fill="#aa9273" stroke="none" stroke-width="1" opacity="0.9"/>
<rect x="1399.586" y="761.793" width="28.552" height="9.517" fill="#aa9273" stroke="none" stroke-width="1" opacity="0.9"/>
<rect x="771.448" y="933.103" width="171.310" height="9.517" fill="#aa9273" stroke="none" stroke-width="1" opacity="0.9"/>
<rect x="1114.069" y="961.655" width="142.759" height="9.517" fill="#aa9273" stroke="none" stroke-width="1" opacity="0.9"/>
<rect x="514.483" y="105.103" width="57.103" height="9.517" fill="#aa9273" stroke="none" stroke-width="1" opacity="0.9"/>
<rect x="800.000" y="105.103" width="28.552" height="9.517" fill="#aa9273" stroke="none" stroke-width="1" opacity="0.9"/>
<rect x="857.103" y="105.103" width="85.655" height="9.517" fill="#aa9273" stroke="none" stroke-width="1" opacity="0.9"/>
<rect x="543.034" y="362.069" width="28.552" height="9.517" fill="#aa9273" stroke="none" stroke-width="1" opacity="0.9"/>
<rect x="685.793" y="362.069" width="28.552" height="9.517" fill="#aa9273" stroke="none" stroke-width="1" opacity="0.9"/>
<rect x="257.517" y="619.034" width="57.103" height="9.517" fill="#aa9273" stroke="none" stroke-width="1" opacity="0.9"/>
<rect x="371.724" y="619.034" width="85.655" height="9.517" fill="#aa9273" stroke="none" stroke-width="1" opacity="0.9"/>
<rect x="571.586" y="619.034" width="28.552" height="9.517" fill="#aa9273" stroke="none" stroke-width="1" opacity="0.9"/>
<rect x="571.586" y="76.552" width="114.207" height="9.517" fill="#aa9273" stroke="none" stroke-width="1" opacity="0.9"/>
<rect x="714.345" y="76.552" width="85.655" height="9.517" fill="#aa9273" stroke="none" stroke-width="1" opacity="0.9"/>
<rect x="314.621" y="647.586" width="57.103" height="9.517" fill="#aa9273" stroke="none" stroke-width="1" opacity="0.9"/>
<rect x="514.483" y="847.448" width="28.552" height="9.517" fill="#aa9273" stroke="none" stroke-width="1" opacity="0.9"/>
<rect x="628.690" y="790.345" width="28.552" height="9.517" fill="#aa9273" stroke="none" stroke-width="1" opacity="0.9"/>
<rect x="857.103" y="561.931" width="285.517" height="9.517" fill="#aa9273" stroke="none" stroke-width="1" opacity="0.9"/>
<rect x="999.862" y="333.517" width="199.862" height="9.517" fill="#aa9273" stroke="none" stroke-width="1" opacity="0.9"/>
<rect x="571.586" y="390.621" width="114.207" height="9.517" fill="#aa9273" stroke="none" stroke-width="1" opacity="0.9"/>
<rect x="1285.379" y="390.621" width="114.207" height="9.517" fill="#aa9273" stroke="none" stroke-width="1" opacity="0.9"/>
<rect x="657.241" y="590.483" width="57.103" height="9.517" fill="#aa9273" stroke="none" stroke-width="1" opacity="0.9"/>
<rect x="800.000" y="590.483" width="57.103" height="9.517" fill="#aa9273" stroke="none" stroke-width="1" opacity="0.9"/>
<rect x="171.862" y="876.000" width="85.655" height="9.517" fill="#aa9273" stroke="none" stroke-width="1" opacity="0.9"/>
<rect x="543.034" y="876.000" width="114.207" height="9.517" fill="#aa9273" stroke="none" stroke-width="1" opacity="0.9"/>
<rect x="1256.828" y="904.552" width="28.552" height="9.517" fill="#aa9273" stroke="none" stroke-width="1" opacity="0.9"/>
<rect x="343.172" y="219.310" width="114.207" height="9.517" fill="#aa9273" stroke="none" stroke-width="1" opacity="0.9"/>
<rect x="942.759" y="190.759" width="28.552" height="9.517" fill="#aa9273" stroke="none" stroke-width="1" opacity="0.9"/>
<rect x="685.793" y="48.000" width="28.552" height="9.517" fill="#aa9273" stroke="none" stroke-width="1" opacity="0.9"/>
<rect x="942.759" y="1047.310" width="57.103" height="9.517" fill="#aa9273" stroke="none" stroke-width="1" opacity="0.9"/>
<rect x="457.379" y="162.207" width="28.552" height="9.517" fill="#aa9273" stroke="none" stroke-width="1" opacity="0.9"/>
<rect x="999.862" y="1018.759" width="28.552" height="9.517" fill="#aa9273" stroke="none" stroke-width="1" opacity="0.9"/>
<rect x="771.448" y="247.862" width="28.552" height="9.517" fill="#aa9273" stroke="none" stroke-width="1" opacity="0.9"/>
<rect x="343.172" y="343.034" width="85.655" height="9.517" fill="#aa9273" stroke="none" stroke-width="1" opacity="0.9"/>
<rect x="314.621" y="714.207" width="28.552" height="9.517" fill="#aa9273" stroke="none" stroke-width="1" opacity="0.9"/>
<rect x="428.828" y="714.207" width="85.655" height="9.517" fill="#aa9273" stroke="none" stroke-width="1" opacity="0.9"/>
<rect x="571.586" y="714.207" width="28.552" height="9.517" fill="#aa9273" stroke="none" stroke-width="1" opacity="0.9"/>
<rect x="771.448" y="771.310" width="228.414" height="9.517" fill="#aa9273" stroke="none" stroke-width="1" opacity="0.9"/>
<rect x="257.517" y="1113.931" width="171.310" height="9.517" fill="#aa9273" stroke="none" stroke-width="1" opacity="0.9"/>
<rect x="514.483" y="1113.931" width="171.310" height="9.517" fill="#aa9273" stroke="none" stroke-width="1" opacity="0.9"/>
<rect x="657.241" y="485.793" width="57.103" height="9.517" fill="#aa9273" stroke="none" stroke-width="1" opacity="0.9"/>
<rect x="1114.069" y="485.793" width="28.552" height="9.517" fill="#aa9273" stroke="none" stroke-width="1" opacity="0.9"/>
<rect x="428.828" y="371.586" width="28.552" height="9.517" fill="#aa9273" stroke="none" stroke-width="1" opacity="0.9"/>
<rect x="428.828" y="1142.483" width="85.655" height="9.517" fill="#aa9273" stroke="none" stroke-width="1" opacity="0.9"/>
<rect x="828.552" y="1142.483" width="342.621" height="9.517" fill="#aa9273" stroke="none" stroke-width="1" opacity="0.9"/>
<rect x="171.862" y="1028.276" width="85.655" height="9.517" fill="#aa9273" stroke="none" stroke-width="1" opacity="0.9"/>
<rect x="1313.931" y="1028.276" width="85.655" height="9.517" fill="#aa9273" stroke="none" stroke-width="1" opacity="0.9"/>
<rect x="228.966" y="828.414" width="28.552" height="9.517" fill="#aa9273" stroke="none" stroke-width="1" opacity="0.9"/>
<rect x="1114.069" y="828.414" width="28.552" height="9.517" fill="#aa9273" stroke="none" stroke-width="1" opacity="0.9"/>
<rect x="1256.828" y="828.414" width="28.552" height="9.517" fill="#aa9273" stroke="none" stroke-width="1" opacity="0.9"/>
<rect x="1399.586" y="828.414" width="28.552" height="9.517" fill="#aa9273" stroke="none" stroke-width="1" opacity="0.9"/>
<rect x="1028.414" y="285.931" width="199.862" height="9.517" fill="#aa9273" stroke="none" stroke-width="1" opacity="0.9"/>
<rect x="543.034" y="400.138" width="28.552" height="9.517" fill="#aa9273" stroke="none" stroke-width="1" opacity="0.9"/>
<rect x="800.000" y="571.448" width="28.552" height="9.517" fill="#aa9273" stroke="none" stroke-width="1" opacity="0.9"/>
<rect x="1171.172" y="571.448" width="114.207" height="9.517" fill="#aa9273" stroke="none" stroke-width="1" opacity="0.9"/>
<rect x="1171.172" y="1085.379" width="142.759" height="9.517" fill="#aa9273" stroke="none" stroke-width="1" opacity="0.9"/>
<rect x="571.586" y="200.276" width="142.759" height="9.517" fill="#aa9273" stroke="none" stroke-width="1" opacity="0.9"/>
<rect x="1285.379" y="200.276" width="28.552" height="9.517" fill="#aa9273" stroke="none" stroke-width="1" opacity="0.9"/>
<rect x="543.034" y="257.379" width="28.552" height="9.517" fill="#aa9273" stroke="none" stroke-width="1" opacity="0.9"/>
<rect x="828.552" y="428.690" width="85.655" height="9.517" fill="#aa9273" stroke="none" stroke-width="1" opacity="0.9"/>
<rect x="628.690" y="856.966" width="28.552" height="9.517" fill="#aa9273" stroke="none" stroke-width="1" opacity="0.9"/>
<rect x="914.207" y="457.241" width="199.862" height="9.517" fill="#aa9273" stroke="none" stroke-width="1" opacity="0.9"/>
<rect x="1228.276" y="457.241" width="114.207" height="9.517" fill="#aa9273" stroke="none" stroke-width="1" opacity="0.9"/>
<rect x="685.793" y="1056.828" width="142.759" height="9.517" fill="#aa9273" stroke="none" stroke-width="1" opacity="0.9"/>
<rect x="343.172" y="742.759" width="28.552" height="9.517" fill="#aa9273" stroke="none" stroke-width="1" opacity="0.9"/>
<rect x="600.138" y="742.759" width="57.103" height="9.517" fill="#aa9273" stroke="none" stroke-width="1" opacity="0.9"/>
<rect x="771.448" y="228.828" width="28.552" height="9.517" fill="#aa9273" stroke="none" stroke-width="1" opacity="0.9"/>
<rect x="543.034" y="628.552" width="28.552" height="9.517" fill="#aa9273" stroke="none" stroke-width="1" opacity="0.9"/>
<rect x="999.862" y="314.483" width="28.552" height="9.517" fill="#aa9273" stroke="none" stroke-width="1" opacity="0.9"/>
<rect x="514.483" y="657.103" width="28.552" height="9.517" fill="#aa9273" stroke="none" stroke-width="1" opacity="0.9"/>
<rect x="1142.621" y="514.345" width="28.552" height="9.517" fill="#aa9273" stroke="none" stroke-width="1" opacity="0.9"/>
<rect x="999.862" y="942.621" width="28.552" height="9.517" fill="#aa9273" stroke="none" stroke-width="1" opacity="0.9"/>
<rect x="571.586" y="600.000" width="28.552" height="9.517" fill="#aa9273" stroke="none" stroke-width="1" opacity="0.9"/>
<rect x="562.069" y="86.069" width="9.517" height="28.552" fill="#aa9273" stroke="none" stroke-width="1" opacity="0.9"/>
<rect x="562.069" y="400.138" width="9.517" height="85.655" fill="#aa9273" stroke="none" stroke-width="1" opacity="0.9"/>
<rect x="562.069" y="628.552" width="9.517" height="85.655" fill="#aa9273" stroke="none" stroke-width="1" opacity="0.9"/>
<rect x="333.655" y="228.828" width="9.517" height="114.207" fill="#aa9273" stroke="none" stroke-width="1" opacity="0.9"/>
<rect x="333.655" y="714.207" width="9.517" height="28.552" fill="#aa9273" stroke="none" stroke-width="1" opacity="0.9"/>
<rect x="1275.862" y="571.448" width="9.517" height="199.862" fill="#aa9273" stroke="none" stroke-width="1" opacity="0.9"/>
<rect x="1275.862" y="828.414" width="9.517" height="85.655" fill="#aa9273" stroke="none" stroke-width="1" opacity="0.9"/>
<rect x="419.310" y="343.034" width="9.517" height="28.552" fill="#aa9273" stroke="none" stroke-width="1" opacity="0.9"/>
<rect x="419.310" y="1113.931" width="9.517" height="28.552" fill="#aa9273" stroke="none" stroke-width="1" opacity="0.9"/>
<rect x="447.862" y="171.724" width="9.517" height="57.103" fill="#aa9273" stroke="none" stroke-width="1" opacity="0.9"/>
<rect x="447.862" y="371.586" width="9.517" height="256.966" fill="#aa9273" stroke="none" stroke-width="1" opacity="0.9"/>
<rect x="219.448" y="771.310" width="9.517" height="57.103" fill="#aa9273" stroke="none" stroke-width="1" opacity="0.9"/>
<rect x="1161.655" y="514.345" width="9.517" height="57.103" fill="#aa9273" stroke="none" stroke-width="1" opacity="0.9"/>
<rect x="619.172" y="799.862" width="9.517" height="57.103" fill="#aa9273" stroke="none" stroke-width="1" opacity="0.9"/>
<rect x="1247.310" y="771.310" width="9.517" height="57.103" fill="#aa9273" stroke="none" stroke-width="1" opacity="0.9"/>
<rect x="1247.310" y="914.069" width="9.517" height="57.103" fill="#aa9273" stroke="none" stroke-width="1" opacity="0.9"/>
<rect x="162.345" y="885.517" width="9.517" height="142.759" fill="#aa9273" stroke="none" stroke-width="1" opacity="0.9"/>
<rect x="961.793" y="143.172" width="9.517" height="57.103" fill="#aa9273" stroke="none" stroke-width="1" opacity="0.9"/>
<rect x="1018.897" y="942.621" width="9.517" height="85.655" fill="#aa9273" stroke="none" stroke-width="1" opacity="0.9"/>
<rect x="819.034" y="1056.828" width="9.517" height="85.655" fill="#aa9273" stroke="none" stroke-width="1" opacity="0.9"/>
<rect x="847.586" y="114.621" width="9.517" height="28.552" fill="#aa9273" stroke="none" stroke-width="1" opacity="0.9"/>
<rect x="847.586" y="571.448" width="9.517" height="28.552" fill="#aa9273" stroke="none" stroke-width="1" opacity="0.9"/>
<rect x="704.828" y="200.276" width="9.517" height="171.310" fill="#aa9273" stroke="none" stroke-width="1" opacity="0.9"/>
<rect x="704.828" y="485.793" width="9.517" height="114.207" fill="#aa9273" stroke="none" stroke-width="1" opacity="0.9"/>
<rect x="362.207" y="628.552" width="9.517" height="28.552" fill="#aa9273" stroke="none" stroke-width="1" opacity="0.9"/>
<rect x="362.207" y="742.759" width="9.517" height="28.552" fill="#aa9273" stroke="none" stroke-width="1" opacity="0.9"/>
<rect x="248.000" y="628.552" width="9.517" height="142.759" fill="#aa9273" stroke="none" stroke-width="1" opacity="0.9"/>
<rect x="248.000" y="828.414" width="9.517" height="57.103" fill="#aa9273" stroke="none" stroke-width="1" opacity="0.9"/>
<rect x="248.000" y="1028.276" width="9.517" height="85.655" fill="#aa9273" stroke="none" stroke-width="1" opacity="0.9"/>
<rect x="590.621" y="600.000" width="9.517" height="28.552" fill="#aa9273" stroke="none" stroke-width="1" opacity="0.9"/>
<rect x="590.621" y="714.207" width="9.517" height="28.552" fill="#aa9273" stroke="none" stroke-width="1" opacity="0.9"/>
<rect x="476.414" y="143.172" width="9.517" height="28.552" fill="#aa9273" stroke="none" stroke-width="1" opacity="0.9"/>
<rect x="1218.759" y="285.931" width="9.517" height="171.310" fill="#aa9273" stroke="none" stroke-width="1" opacity="0.9"/>
<rect x="990.345" y="771.310" width="9.517" height="171.310" fill="#aa9273" stroke="none" stroke-width="1" opacity="0.9"/>
<rect x="990.345" y="1028.276" width="9.517" height="28.552" fill="#aa9273" stroke="none" stroke-width="1" opacity="0.9"/>
<rect x="676.276" y="57.517" width="9.517" height="28.552" fill="#aa9273" stroke="none" stroke-width="1" opacity="0.9"/>
<rect x="676.276" y="371.586" width="9.517" height="28.552" fill="#aa9273" stroke="none" stroke-width="1" opacity="0.9"/>
<rect x="904.690" y="428.690" width="9.517" height="28.552" fill="#aa9273" stroke="none" stroke-width="1" opacity="0.9"/>
<rect x="790.483" y="228.828" width="9.517" height="28.552" fill="#aa9273" stroke="none" stroke-width="1" opacity="0.9"/>
<rect x="647.724" y="742.759" width="9.517" height="57.103" fill="#aa9273" stroke="none" stroke-width="1" opacity="0.9"/>
<rect x="647.724" y="856.966" width="9.517" height="28.552" fill="#aa9273" stroke="none" stroke-width="1" opacity="0.9"/>
<rect x="504.966" y="114.621" width="9.517" height="28.552" fill="#aa9273" stroke="none" stroke-width="1" opacity="0.9"/>
<rect x="1104.552" y="457.241" width="9.517" height="28.552" fill="#aa9273" stroke="none" stroke-width="1" opacity="0.9"/>
<rect x="1133.103" y="485.793" width="9.517" height="28.552" fill="#aa9273" stroke="none" stroke-width="1" opacity="0.9"/>
<rect x="1332.966" y="457.241" width="9.517" height="28.552" fill="#aa9273" stroke="none" stroke-width="1" opacity="0.9"/>
<rect x="771.448" y="228.828" width="9.517" height="28.552" fill="#aa9273" stroke="none" stroke-width="1" opacity="0.9"/>
<rect x="771.448" y="771.310" width="9.517" height="171.310" fill="#aa9273" stroke="none" stroke-width="1" opacity="0.9"/>
<rect x="1114.069" y="828.414" width="9.517" height="142.759" fill="#aa9273" stroke="none" stroke-width="1" opacity="0.9"/>
<rect x="1428.138" y="771.310" width="9.517" height="57.103" fill="#aa9273" stroke="none" stroke-width="1" opacity="0.9"/>
<rect x="657.241" y="485.793" width="9.517" height="114.207" fill="#aa9273" stroke="none" stroke-width="1" opacity="0.9"/>
<rect x="1399.586" y="400.138" width="9.517" height="371.172" fill="#aa9273" stroke="none" stroke-width="1" opacity="0.9"/>
<rect x="1399.586" y="828.414" width="9.517" height="199.862" fill="#aa9273" stroke="none" stroke-width="1" opacity="0.9"/>
<rect x="571.586" y="200.276" width="9.517" height="57.103" fill="#aa9273" stroke="none" stroke-width="1" opacity="0.9"/>
<rect x="571.586" y="371.586" width="9.517" height="28.552" fill="#aa9273" stroke="none" stroke-width="1" opacity="0.9"/>
<rect x="571.586" y="600.000" width="9.517" height="28.552" fill="#aa9273" stroke="none" stroke-width="1" opacity="0.9"/>
<rect x="314.621" y="628.552" width="9.517" height="28.552" fill="#aa9273" stroke="none" stroke-width="1" opacity="0.9"/>
<rect x="314.621" y="714.207" width="9.517" height="57.103" fill="#aa9273" stroke="none" stroke-width="1" opacity="0.9"/>
<rect x="800.000" y="86.069" width="9.517" height="28.552" fill="#aa9273" stroke="none" stroke-width="1" opacity="0.9"/>
<rect x="800.000" y="571.448" width="9.517" height="28.552" fill="#aa9273" stroke="none" stroke-width="1" opacity="0.9"/>
<rect x="543.034" y="257.379" width="9.517" height="114.207" fill="#aa9273" stroke="none" stroke-width="1" opacity="0.9"/>
<rect x="543.034" y="400.138" width="9.517" height="85.655" fill="#aa9273" stroke="none" stroke-width="1" opacity="0.9"/>
<rect x="543.034" y="628.552" width="9.517" height="28.552" fill="#aa9273" stroke="none" stroke-width="1" opacity="0.9"/>
<rect x="543.034" y="856.966" width="9.517" height="28.552" fill="#aa9273" stroke="none" stroke-width="1" opacity="0.9"/>
<rect x="1199.724" y="343.034" width="9.517" height="142.759" fill="#aa9273" stroke="none" stroke-width="1" opacity="0.9"/>
<rect x="999.862" y="314.483" width="9.517" height="28.552" fill="#aa9273" stroke="none" stroke-width="1" opacity="0.9"/>
<rect x="1313.931" y="143.172" width="9.517" height="57.103" fill="#aa9273" stroke="none" stroke-width="1" opacity="0.9"/>
<rect x="1313.931" y="1028.276" width="9.517" height="57.103" fill="#aa9273" stroke="none" stroke-width="1" opacity="0.9"/>
<rect x="942.759" y="114.621" width="9.517" height="85.655" fill="#aa9273" stroke="none" stroke-width="1" opacity="0.9"/>
<rect x="942.759" y="942.621" width="9.517" height="114.207" fill="#aa9273" stroke="none" stroke-width="1" opacity="0.9"/>
<rect x="514.483" y="657.103" width="9.517" height="57.103" fill="#aa9273" stroke="none" stroke-width="1" opacity="0.9"/>
<rect x="514.483" y="771.310" width="9.517" height="85.655" fill="#aa9273" stroke="none" stroke-width="1" opacity="0.9"/>
<rect x="514.483" y="1113.931" width="9.517" height="28.552" fill="#aa9273" stroke="none" stroke-width="1" opacity="0.9"/>
<rect x="1171.172" y="1085.379" width="9.517" height="57.103" fill="#aa9273" stroke="none" stroke-width="1" opacity="0.9"/>
<rect x="1285.379" y="200.276" width="9.517" height="199.862" fill="#aa9273" stroke="none" stroke-width="1" opacity="0.9"/>
<rect x="828.552" y="114.621" width="9.517" height="28.552" fill="#aa9273" stroke="none" stroke-width="1" opacity="0.9"/>
<rect x="828.552" y="428.690" width="9.517" height="142.759" fill="#aa9273" stroke="none" stroke-width="1" opacity="0.9"/>
<rect x="1142.621" y="571.448" width="9.517" height="256.966" fill="#aa9273" stroke="none" stroke-width="1" opacity="0.9"/>
<rect x="685.793" y="1056.828" width="9.517" height="57.103" fill="#aa9273" stroke="none" stroke-width="1" opacity="0.9"/>
<rect x="714.345" y="57.517" width="9.517" height="28.552" fill="#aa9273" stroke="none" stroke-width="1" opacity="0.9"/>
<rect x="1028.414" y="285.931" width="9.517" height="28.552" fill="#aa9273" stroke="none" stroke-width="1" opacity="0.9"/>
<rect x="428.828" y="714.207" width="9.517" height="57.103" fill="#aa9273" stroke="none" stroke-width="1" opacity="0.9"/>
<rect x="243.241" y="1104.414" width="4.759" height="19.034" fill="#aa9273" stroke="none" stroke-width="1" opacity="0.9"/>
<rect x="248.000" y="1123.448" width="19.034" height="4.759" fill="#aa9273" stroke="none" stroke-width="1" opacity="0.9"/>
<rect x="414.552" y="362.069" width="4.759" height="19.034" fill="#aa9273" stroke="none" stroke-width="1" opacity="0.9"/>
<rect x="419.310" y="381.103" width="19.034" height="4.759" fill="#aa9273" stroke="none" stroke-width="1" opacity="0.9"/>
<rect x="471.655" y="133.655" width="4.759" height="19.034" fill="#aa9273" stroke="none" stroke-width="1" opacity="0.9"/>
<rect x="476.414" y="128.897" width="19.034" height="4.759" fill="#aa9273" stroke="none" stroke-width="1" opacity="0.9"/>
<rect x="552.552" y="647.586" width="4.759" height="19.034" fill="#aa9273" stroke="none" stroke-width="1" opacity="0.9"/>
<rect x="533.517" y="666.621" width="19.034" height="4.759" fill="#aa9273" stroke="none" stroke-width="1" opacity="0.9"/>
<rect x="952.276" y="933.103" width="4.759" height="19.034" fill="#aa9273" stroke="none" stroke-width="1" opacity="0.9"/>
<rect x="933.241" y="928.345" width="19.034" height="4.759" fill="#aa9273" stroke="none" stroke-width="1" opacity="0.9"/>
<rect x="985.586" y="933.103" width="4.759" height="19.034" fill="#aa9273" stroke="none" stroke-width="1" opacity="0.9"/>
<rect x="990.345" y="952.138" width="19.034" height="4.759" fill="#aa9273" stroke="none" stroke-width="1" opacity="0.9"/>
<rect x="1099.793" y="476.276" width="4.759" height="19.034" fill="#aa9273" stroke="none" stroke-width="1" opacity="0.9"/>
<rect x="1104.552" y="495.310" width="19.034" height="4.759" fill="#aa9273" stroke="none" stroke-width="1" opacity="0.9"/>
<rect x="990.796" y="766.447" width="15.753" height="15.674" fill="#8d6039" stroke="none" stroke-width="1" opacity="0.9"/>
<rect x="979.333" y="760.262" width="17.860" height="17.933" fill="#8d6039" stroke="none" stroke-width="1" opacity="0.9"/>
<rect x="597.383" y="690.941" width="13.837" height="17.981" fill="#8d6039" stroke="none" stroke-width="1" opacity="0.9"/>
<rect x="621.076" y="695.710" width="19.986" height="20.338" fill="#8d6039" stroke="none" stroke-width="1" opacity="0.9"/>
<rect x="612.764" y="710.821" width="18.764" height="15.099" fill="#8d6039" stroke="none" stroke-width="1" opacity="0.9"/>
<rect x="620.854" y="667.464" width="20.430" height="19.727" fill="#8d6039" stroke="none" stroke-width="1" opacity="0.9"/>
<rect x="745.276" y="792.129" width="16.655" height="16.655" fill="#8d6039" stroke="none" stroke-width="1" opacity="0.9"/>
<rect x="788.802" y="591.797" width="18.232" height="18.190" fill="#8d6039" stroke="none" stroke-width="1" opacity="0.9"/>
<rect x="790.550" y="583.738" width="17.116" height="17.059" fill="#8d6039" stroke="none" stroke-width="1" opacity="0.9"/>
<rect x="1211.026" y="236.858" width="16.655" height="16.655" fill="#8d6039" stroke="none" stroke-width="1" opacity="0.9"/>
<rect x="1211.026" y="254.405" width="16.655" height="16.655" fill="#8d6039" stroke="none" stroke-width="1" opacity="0.9"/>
<rect x="1103.375" y="1112.371" width="11.870" height="12.637" fill="#8d6039" stroke="none" stroke-width="1" opacity="0.9"/>
<rect x="541.783" y="364.981" width="25.106" height="25.106" fill="#8d6039" stroke="none" stroke-width="1" opacity="0.9"/>
<rect x="1275.895" y="933.134" width="18.968" height="18.973" fill="#8d6039" stroke="none" stroke-width="1" opacity="0.9"/>
<rect x="1047.735" y="353.136" width="19.055" height="19.055" fill="#8d6039" stroke="none" stroke-width="1" opacity="0.9"/>
<rect x="466.408" y="498.276" width="12.873" height="13.103" fill="#8d6039" stroke="none" stroke-width="1" opacity="0.9"/>
<rect x="613.289" y="828.478" width="11.767" height="11.767" fill="#8d6039" stroke="none" stroke-width="1" opacity="0.9"/>
<rect x="1138.223" y="492.117" width="18.312" height="18.284" fill="#8d6039" stroke="none" stroke-width="1" opacity="0.9"/>
<rect x="1131.058" y="479.070" width="15.988" height="15.826" fill="#8d6039" stroke="none" stroke-width="1" opacity="0.9"/>
<rect x="1132.280" y="489.690" width="15.922" height="15.998" fill="#8d6039" stroke="none" stroke-width="1" opacity="0.9"/>
<rect x="362.992" y="1098.656" width="15.084" height="15.084" fill="#8d6039" stroke="none" stroke-width="1" opacity="0.9"/>
<rect x="373.578" y="1096.117" width="15.922" height="15.998" fill="#8d6039" stroke="none" stroke-width="1" opacity="0.9"/>
<rect x="547.793" y="1046.716" width="16.655" height="16.655" fill="#8d6039" stroke="none" stroke-width="1" opacity="0.9"/>
<rect x="618.954" y="1030.449" width="6.384" height="6.360" fill="#8d6039" stroke="none" stroke-width="1" opacity="0.9"/>
<rect x="615.884" y="1015.472" width="8.956" height="8.952" fill="#8d6039" stroke="none" stroke-width="1" opacity="0.9"/>
<rect x="654.192" y="637.665" width="16.806" height="16.868" fill="#8d6039" stroke="none" stroke-width="1" opacity="0.9"/>
<rect x="660.660" y="174.548" width="18.741" height="18.741" fill="#8d6039" stroke="none" stroke-width="1" opacity="0.9"/>
<rect x="655.789" y="183.656" width="16.585" height="16.585" fill="#8d6039" stroke="none" stroke-width="1" opacity="0.9"/>
<rect x="601.523" y="623.393" width="14.480" height="14.480" fill="#8d6039" stroke="none" stroke-width="1" opacity="0.9"/>
<rect x="594.190" y="644.017" width="10.707" height="10.707" fill="#8d6039" stroke="none" stroke-width="1" opacity="0.9"/>
<rect x="622.337" y="533.570" width="15.084" height="15.084" fill="#8d6039" stroke="none" stroke-width="1" opacity="0.9"/>
<rect x="992.320" y="588.889" width="15.084" height="15.084" fill="#8d6039" stroke="none" stroke-width="1" opacity="0.9"/>
<rect x="1007.785" y="578.776" width="12.112" height="12.112" fill="#8d6039" stroke="none" stroke-width="1" opacity="0.9"/>
<rect x="985.548" y="589.031" width="4.241" height="6.472" fill="#8d6039" stroke="none" stroke-width="1" opacity="0.9"/>
<rect x="1003.008" y="595.572" width="5.604" height="7.071" fill="#8d6039" stroke="none" stroke-width="1" opacity="0.9"/>
<rect x="722.501" y="290.519" width="18.187" height="18.187" fill="#8d6039" stroke="none" stroke-width="1" opacity="0.9"/>
<rect x="728.850" y="287.350" width="15.008" height="15.007" fill="#8d6039" stroke="none" stroke-width="1" opacity="0.9"/>
<rect x="724.009" y="277.156" width="18.741" height="18.741" fill="#8d6039" stroke="none" stroke-width="1" opacity="0.9"/>
<rect x="717.254" y="277.538" width="19.165" height="19.165" fill="#8d6039" stroke="none" stroke-width="1" opacity="0.9"/>
<rect x="914.908" y="1052.655" width="12.873" height="13.103" fill="#8d6039" stroke="none" stroke-width="1" opacity="0.9"/>
<rect x="826.182" y="1112.201" width="13.086" height="12.978" fill="#8d6039" stroke="none" stroke-width="1" opacity="0.9"/>
<rect x="825.349" y="1098.654" width="15.922" height="15.998" fill="#8d6039" stroke="none" stroke-width="1" opacity="0.9"/>
<rect x="1112.688" y="1052.061" width="12.873" height="13.103" fill="#8d6039" stroke="none" stroke-width="1" opacity="0.9"/>
<rect x="1190.249" y="1027.133" width="14.192" height="14.182" fill="#8d6039" stroke="none" stroke-width="1" opacity="0.9"/>
<rect x="1113.177" y="1028.033" width="13.086" height="12.978" fill="#8d6039" stroke="none" stroke-width="1" opacity="0.9"/>
<rect x="705.811" y="93.780" width="16.436" height="16.436" fill="#8d6039" stroke="none" stroke-width="1" opacity="0.9"/>
<rect x="1048.148" y="671.193" width="28.937" height="28.925" fill="#8d6039" stroke="none" stroke-width="1" opacity="0.9"/>
<rect x="303.457" y="645.842" width="43.741" height="15.385" fill="#8d6039" stroke="none" stroke-width="1" opacity="0.9"/>
<rect x="670.833" y="169.364" width="33.112" height="21.655" fill="#8d6039" stroke="none" stroke-width="1" opacity="0.9"/>
<rect x="506.303" y="1100.905" width="18.739" height="18.915" fill="#8d6039" stroke="none" stroke-width="1" opacity="0.9"/>
<rect x="497.235" y="1109.770" width="8.324" height="8.322" fill="#8d6039" stroke="none" stroke-width="1" opacity="0.9"/>
<rect x="596.876" y="706.656" width="17.232" height="18.672" fill="#8d6039" stroke="none" stroke-width="1" opacity="0.9"/>
<rect x="595.629" y="707.523" width="16.156" height="18.721" fill="#8d6039" stroke="none" stroke-width="1" opacity="0.9"/>
<rect x="595.239" y="708.508" width="18.721" height="16.156" fill="#8d6039" stroke="none" stroke-width="1" opacity="0.9"/>
<rect x="694.539" y="853.062" width="22.363" height="22.082" fill="#8d6039" stroke="none" stroke-width="1" opacity="0.9"/>
<rect x="1385.436" y="869.880" width="14.620" height="14.620" fill="#8d6039" stroke="none" stroke-width="1" opacity="0.9"/>
<rect x="591.613" y="1106.663" width="9.913" height="9.777" fill="#8d6039" stroke="none" stroke-width="1" opacity="0.9"/>
<rect x="588.681" y="1121.899" width="8.637" height="7.858" fill="#8d6039" stroke="none" stroke-width="1" opacity="0.9"/>
<rect x="729.513" y="914.664" width="28.552" height="21.414" fill="#8d6039" stroke="none" stroke-width="1" opacity="0.9"/>
<rect x="578.034" y="1049.284" width="14.467" height="7.950" fill="#8d6039" stroke="none" stroke-width="1" opacity="0.9"/>
<rect x="641.860" y="1072.753" width="33.143" height="43.097" fill="#8d6039" stroke="none" stroke-width="1" opacity="0.9"/>
<rect x="662.869" y="1076.731" width="11.348" height="11.348" fill="#8d6039" stroke="none" stroke-width="1" opacity="0.9"/>
<rect x="1068.719" y="1106.476" width="14.561" height="15.505" fill="#8d6039" stroke="none" stroke-width="1" opacity="0.9"/>
<rect x="413.583" y="1100.953" width="19.783" height="9.301" fill="#8d6039" stroke="none" stroke-width="1" opacity="0.9"/>
<rect x="530.886" y="369.738" width="26.676" height="32.247" fill="#8d6039" stroke="none" stroke-width="1" opacity="0.9"/>
<rect x="560.406" y="381.812" width="3.326" height="18.212" fill="#8d6039" stroke="none" stroke-width="1" opacity="0.9"/>
<rect x="811.302" y="494.716" width="19.034" height="9.517" fill="#8d6039" stroke="none" stroke-width="1" opacity="0.9"/>
<rect x="730.703" y="527.728" width="19.034" height="9.517" fill="#8d6039" stroke="none" stroke-width="1" opacity="0.9"/>
<rect x="730.108" y="523.267" width="19.034" height="9.517" fill="#8d6039" stroke="none" stroke-width="1" opacity="0.9"/>
<rect x="964.470" y="1110.659" width="9.517" height="19.034" fill="#8d6039" stroke="none" stroke-width="1" opacity="0.9"/>
<rect x="960.009" y="1111.254" width="9.517" height="19.034" fill="#8d6039" stroke="none" stroke-width="1" opacity="0.9"/>
<rect x="923.508" y="420.403" width="21.846" height="20.737" fill="#8d6039" stroke="none" stroke-width="1" opacity="0.9"/>
<rect x="548.143" y="582.640" width="23.093" height="22.823" fill="#8d6039" stroke="none" stroke-width="1" opacity="0.9"/>
<rect x="1048.581" y="344.654" width="14.390" height="14.605" fill="#8d6039" stroke="none" stroke-width="1" opacity="0.9"/>
<rect x="944.182" y="306.824" width="22.731" height="22.456" fill="#8d6039" stroke="none" stroke-width="1" opacity="0.9"/>
<rect x="970.680" y="308.797" width="23.864" height="23.864" fill="#8d6039" stroke="none" stroke-width="1" opacity="0.9"/>
<rect x="898.066" y="383.663" width="23.360" height="23.622" fill="#8d6039" stroke="none" stroke-width="1" opacity="0.9"/>
<rect x="924.743" y="398.607" width="24.135" height="23.882" fill="#8d6039" stroke="none" stroke-width="1" opacity="0.9"/>
<rect x="926.716" y="402.307" width="19.000" height="16.480" fill="#8d6039" stroke="none" stroke-width="1" opacity="0.9"/>
<rect x="488.490" y="792.309" width="35.331" height="35.331" fill="#8d6039" stroke="none" stroke-width="1" opacity="0.9"/>
<rect x="1157.366" y="269.682" width="38.319" height="13.464" fill="#8d6039" stroke="none" stroke-width="1" opacity="0.9"/>
<rect x="1102.047" y="270.871" width="38.319" height="13.464" fill="#8d6039" stroke="none" stroke-width="1" opacity="0.9"/>
<rect x="1215.566" y="220.914" width="14.117" height="13.448" fill="#8d6039" stroke="none" stroke-width="1" opacity="0.9"/>
<rect x="661.703" y="1040.172" width="19.034" height="9.517" fill="#8d6039" stroke="none" stroke-width="1" opacity="0.9"/>
<rect x="226.884" y="940.241" width="33.310" height="14.276" fill="#8d6039" stroke="none" stroke-width="1" opacity="0.9"/>
<rect x="213.194" y="947.207" width="30.949" height="24.734" fill="#8d6039" stroke="none" stroke-width="1" opacity="0.9"/>
<rect x="311.436" y="777.951" width="8.748" height="9.323" fill="#8d6039" stroke="none" stroke-width="1" opacity="0.9"/>
<rect x="327.964" y="777.917" width="6.624" height="7.606" fill="#8d6039" stroke="none" stroke-width="1" opacity="0.9"/>
<rect x="249.087" y="826.837" width="9.722" height="9.103" fill="#8d6039" stroke="none" stroke-width="1" opacity="0.9"/>
<rect x="422.926" y="710.189" width="15.372" height="22.312" fill="#8d6039" stroke="none" stroke-width="1" opacity="0.9"/>
<rect x="445.578" y="700.026" width="9.327" height="9.327" fill="#8d6039" stroke="none" stroke-width="1" opacity="0.9"/>
<rect x="413.330" y="729.484" width="14.936" height="22.386" fill="#8d6039" stroke="none" stroke-width="1" opacity="0.9"/>
<rect x="484.475" y="686.416" width="39.790" height="24.650" fill="#8d6039" stroke="none" stroke-width="1" opacity="0.9"/>
<rect x="321.017" y="714.011" width="21.708" height="7.529" fill="#8d6039" stroke="none" stroke-width="1" opacity="0.9"/>
<rect x="296.146" y="714.979" width="21.485" height="6.783" fill="#8d6039" stroke="none" stroke-width="1" opacity="0.9"/>
<rect x="495.812" y="672.705" width="14.737" height="14.599" fill="#8d6039" stroke="none" stroke-width="1" opacity="0.9"/>
<rect x="662.700" y="184.618" width="14.066" height="14.066" fill="#8d6039" stroke="none" stroke-width="1" opacity="0.9"/>
<rect x="606.894" y="643.856" width="32.884" height="27.685" fill="#8d6039" stroke="none" stroke-width="1" opacity="0.9"/>
<rect x="622.932" y="538.818" width="24.601" height="20.054" fill="#8d6039" stroke="none" stroke-width="1" opacity="0.9"/>
<rect x="723.859" y="306.483" width="10.714" height="43.361" fill="#8d6039" stroke="none" stroke-width="1" opacity="0.9"/>
<rect x="725.572" y="240.650" width="8.476" height="42.976" fill="#8d6039" stroke="none" stroke-width="1" opacity="0.9"/>
<rect x="173.018" y="1038.427" width="35.161" height="32.042" fill="#8d6039" stroke="none" stroke-width="1" opacity="0.9"/>
<rect x="723.752" y="287.011" width="12.116" height="12.116" fill="#8d6039" stroke="none" stroke-width="1" opacity="0.9"/>
<rect x="648.808" y="1051.824" width="39.470" height="24.017" fill="#8d6039" stroke="none" stroke-width="1" opacity="0.9"/>
<rect x="251.534" y="1034.784" width="23.864" height="23.864" fill="#8d6039" stroke="none" stroke-width="1" opacity="0.9"/>
<rect x="836.647" y="1116.636" width="8.197" height="8.270" fill="#8d6039" stroke="none" stroke-width="1" opacity="0.9"/>
<rect x="850.861" y="1117.478" width="8.320" height="8.372" fill="#8d6039" stroke="none" stroke-width="1" opacity="0.9"/>
<rect x="637.429" y="879.239" width="18.212" height="3.326" fill="#8d6039" stroke="none" stroke-width="1" opacity="0.9"/>
<rect x="1129.262" y="1053.676" width="6.494" height="7.494" fill="#8d6039" stroke="none" stroke-width="1" opacity="0.9"/>
<rect x="1157.708" y="1084.637" width="12.654" height="32.416" fill="#8d6039" stroke="none" stroke-width="1" opacity="0.9"/>
<rect x="1100.303" y="1109.732" width="18.014" height="17.916" fill="#8d6039" stroke="none" stroke-width="1" opacity="0.9"/>
<rect x="817.066" y="614.992" width="18.212" height="3.326" fill="#8d6039" stroke="none" stroke-width="1" opacity="0.9"/>
<rect x="882.336" y="169.502" width="16.156" height="18.721" fill="#8d6039" stroke="none" stroke-width="1" opacity="0.9"/>
<rect x="798.064" y="239.943" width="16.957" height="19.408" fill="#8d6039" stroke="none" stroke-width="1" opacity="0.9"/>
<rect x="388.526" y="963.574" width="19.931" height="17.575" fill="#8d6039" stroke="none" stroke-width="1" opacity="0.9"/>
<rect x="1153.202" y="141.199" width="38.319" height="13.464" fill="#8d6039" stroke="none" stroke-width="1" opacity="0.9"/>
<rect x="1107.881" y="140.866" width="38.548" height="14.131" fill="#8d6039" stroke="none" stroke-width="1" opacity="0.9"/>
<rect x="856.932" y="573.632" width="9.860" height="9.909" fill="#8d6039" stroke="none" stroke-width="1" opacity="0.9"/>
<rect x="1135.121" y="832.790" width="24.516" height="35.264" fill="#8d6039" stroke="none" stroke-width="1" opacity="0.9"/>
<rect x="1056.198" y="625.489" width="20.569" height="20.401" fill="#8d6039" stroke="none" stroke-width="1" opacity="0.9"/>
<rect x="382.484" y="907.927" width="30.826" height="17.042" fill="#8d6039" stroke="none" stroke-width="1" opacity="0.9"/>
<rect x="384.695" y="958.896" width="26.403" height="27.853" fill="#8d6039" stroke="none" stroke-width="1" opacity="0.9"/>
<rect x="384.818" y="959.302" width="26.156" height="27.041" fill="#8d6039" stroke="none" stroke-width="1" opacity="0.9"/>
<rect x="381.651" y="879.226" width="30.113" height="29.238" fill="#8d6039" stroke="none" stroke-width="1" opacity="0.9"/>
<rect x="312.651" y="957.743" width="30.113" height="29.238" fill="#8d6039" stroke="none" stroke-width="1" opacity="0.9"/>
<rect x="311.639" y="956.079" width="32.136" height="32.566" fill="#8d6039" stroke="none" stroke-width="1" opacity="0.9"/>
<rect x="1101.156" y="754.582" width="34.154" height="29.888" fill="#8d6039" stroke="none" stroke-width="1" opacity="0.9"/>
<rect x="1116.349" y="748.917" width="9.717" height="9.096" fill="#8d6039" stroke="none" stroke-width="1" opacity="0.9"/>
<rect x="911.666" y="959.773" width="31.254" height="25.179" fill="#8d6039" stroke="none" stroke-width="1" opacity="0.9"/>
<rect x="718.204" y="104.654" width="4.357" height="5.259" fill="#8d6039" stroke="none" stroke-width="1" opacity="0.9"/>
<rect x="788.103" y="164.586" width="104.688" height="95.174" fill="none" stroke="#e04b3f" stroke-width="2" opacity="1.0"/>
<text x="792.103" y="178.586" fill="#e04b3f" font-family="monospace" font-size="13">A</text>
<rect x="312.241" y="878.379" width="99.931" height="109.448" fill="none" stroke="#e04b3f" stroke-width="2" opacity="1.0"/>
<text x="316.241" y="892.379" fill="#e04b3f" font-family="monospace" font-size="13">B</text>
<circle cx="1380.552" cy="766.552" r="5" fill="#f28c28" stroke="#111" stroke-width="1"/>
<circle cx="1380.552" cy="795.103" r="5" fill="#f28c28" stroke="#111" stroke-width="1"/>
<circle cx="1380.552" cy="823.655" r="5" fill="#f28c28" stroke="#111" stroke-width="1"/>
<circle cx="1380.552" cy="852.207" r="5" fill="#f28c28" stroke="#111" stroke-width="1"/>
<circle cx="1356.759" cy="752.276" r="5" fill="#f28c28" stroke="#111" stroke-width="1"/>
<circle cx="1356.759" cy="780.828" r="5" fill="#f28c28" stroke="#111" stroke-width="1"/>
<circle cx="1356.759" cy="809.379" r="5" fill="#f28c28" stroke="#111" stroke-width="1"/>
<circle cx="1356.759" cy="837.931" r="5" fill="#f28c28" stroke="#111" stroke-width="1"/>
<circle cx="1356.759" cy="866.483" r="5" fill="#f28c28" stroke="#111" stroke-width="1"/>
<circle cx="1332.966" cy="852.207" r="5" fill="#f28c28" stroke="#111" stroke-width="1"/>
<circle cx="1332.966" cy="822.763" r="5" fill="#f28c28" stroke="#111" stroke-width="1"/>
<circle cx="1332.966" cy="794.211" r="5" fill="#f28c28" stroke="#111" stroke-width="1"/>
<circle cx="1332.966" cy="765.659" r="5" fill="#f28c28" stroke="#111" stroke-width="1"/>
<circle cx="1309.172" cy="780.828" r="5" fill="#f28c28" stroke="#111" stroke-width="1"/>
<circle cx="1309.172" cy="809.379" r="5" fill="#f28c28" stroke="#111" stroke-width="1"/>
<circle cx="1309.172" cy="837.931" r="5" fill="#f28c28" stroke="#111" stroke-width="1"/>
<circle cx="1309.172" cy="866.483" r="5" fill="#f28c28" stroke="#111" stroke-width="1"/>
<circle cx="443.103" cy="269.276" r="5" fill="#3d8bff" stroke="#111" stroke-width="1"/>
<circle cx="369.940" cy="316.267" r="5" fill="#3d8bff" stroke="#111" stroke-width="1"/>
<circle cx="369.940" cy="268.681" r="5" fill="#3d8bff" stroke="#111" stroke-width="1"/>
<circle cx="443.103" cy="321.621" r="5" fill="#3d8bff" stroke="#111" stroke-width="1"/>
<circle cx="405.629" cy="316.862" r="5" fill="#3d8bff" stroke="#111" stroke-width="1"/>
<circle cx="405.629" cy="269.276" r="5" fill="#3d8bff" stroke="#111" stroke-width="1"/>
<circle cx="388.974" cy="292.474" r="5" fill="#3d8bff" stroke="#111" stroke-width="1"/>
<circle cx="485.931" cy="240.724" r="5" fill="#3d8bff" stroke="#111" stroke-width="1"/>
<circle cx="493.069" cy="295.448" r="5" fill="#3d8bff" stroke="#111" stroke-width="1"/>
<circle cx="427.043" cy="293.069" r="5" fill="#3d8bff" stroke="#111" stroke-width="1"/>
<circle cx="459.759" cy="293.069" r="5" fill="#3d8bff" stroke="#111" stroke-width="1"/>
<circle cx="478.793" cy="321.621" r="5" fill="#3d8bff" stroke="#111" stroke-width="1"/>
<circle cx="478.793" cy="269.276" r="5" fill="#3d8bff" stroke="#111" stroke-width="1"/>
<circle cx="509.724" cy="271.655" r="5" fill="#3d8bff" stroke="#111" stroke-width="1"/>
<circle cx="1380.552" cy="766.552" r="8" fill="none" stroke="#111111" stroke-width="2"/>
<g font-family="monospace" font-size="13">
<rect x="16" y="13" width="12" height="12" fill="#8ba0b4"/>
<text x="34" y="24" fill="#eef3f8">floor</text>
<rect x="16" y="33" width="12" height="12" fill="#0d6b54"/>
<text x="34" y="44" fill="#eef3f8">wall</text>
<rect x="16" y="53" width="12" height="12" fill="#2f8f4e"/>
<text x="34" y="64" fill="#eef3f8">crate</text>
<rect x="16" y="73" width="12" height="12" fill="#41a064"/>
<text x="34" y="84" fill="#eef3f8">pillar</text>
<rect x="16" y="93" width="12" height="12" fill="#f28c28"/>
<text x="34" y="104" fill="#eef3f8">T</text>
<rect x="16" y="113" width="12" height="12" fill="#3d8bff"/>
<text x="34" y="124" fill="#eef3f8">CT</text>
</g>
</svg>
