<svg xmlns="http://www.w3.org/2000/svg" width="1600" height="1200" viewBox="0 0 1600 1200">
<rect width="100%" height="100%" fill="#10243a"/>
<rect x="631.593" y="57.356" width="74.847" height="149.695" fill="#a59379" stroke="none" stroke-width="1" opacity="0.72"/>
<rect x="556.746" y="94.780" width="74.847" height="112.271" fill="#a59379" stroke="none" stroke-width="1" opacity="0.72"/>
<rect x="706.441" y="94.780" width="112.271" height="673.627" fill="#a59379" stroke="none" stroke-width="1" opacity="0.72"/>
<rect x="481.898" y="132.203" width="74.847" height="523.932" fill="#a59379" stroke="none" stroke-width="1" opacity="0.72"/>
<rect x="818.712" y="132.203" width="486.508" height="149.695" fill="#a59379" stroke="none" stroke-width="1" opacity="0.72"/>
<rect x="444.475" y="169.627" width="37.424" height="935.593" fill="#a59379" stroke="none" stroke-width="1" opacity="0.72"/>
<rect x="556.746" y="207.051" width="37.424" height="37.424" fill="#a59379" stroke="none" stroke-width="1" opacity="0.72"/>
<rect x="369.627" y="244.475" width="74.847" height="112.271" fill="#a59379" stroke="none" stroke-width="1" opacity="0.72"/>
<rect x="818.712" y="281.898" width="224.542" height="149.695" fill="#a59379" stroke="none" stroke-width="1" opacity="0.72"/>
<rect x="1230.373" y="281.898" width="74.847" height="74.847" fill="#a59379" stroke="none" stroke-width="1" opacity="0.72"/>
<rect x="1043.254" y="319.322" width="149.695" height="112.271" fill="#a59379" stroke="none" stroke-width="1" opacity="0.72"/>
<rect x="556.746" y="356.746" width="37.424" height="37.424" fill="#a59379" stroke="none" stroke-width="1" opacity="0.72"/>
<rect x="1230.373" y="356.746" width="37.424" height="187.119" fill="#a59379" stroke="none" stroke-width="1" opacity="0.72"/>
<rect x="594.169" y="394.169" width="112.271" height="74.847" fill="#a59379" stroke="none" stroke-width="1" opacity="0.72"/>
<rect x="1267.797" y="394.169" width="112.271" height="636.203" fill="#a59379" stroke="none" stroke-width="1" opacity="0.72"/>
<rect x="818.712" y="431.593" width="37.424" height="37.424" fill="#a59379" stroke="none" stroke-width="1" opacity="0.72"/>
<rect x="1118.102" y="431.593" width="74.847" height="74.847" fill="#a59379" stroke="none" stroke-width="1" opacity="0.72"/>
<rect x="556.746" y="469.017" width="112.271" height="112.271" fill="#a59379" stroke="none" stroke-width="1" opacity="0.72"/>
<rect x="1192.949" y="469.017" width="37.424" height="74.847" fill="#a59379" stroke="none" stroke-width="1" opacity="0.72"/>
<rect x="1155.525" y="506.441" width="37.424" height="37.424" fill="#a59379" stroke="none" stroke-width="1" opacity="0.72"/>
<rect x="856.136" y="543.864" width="261.966" height="224.542" fill="#a59379" stroke="none" stroke-width="1" opacity="0.72"/>
<rect x="594.169" y="581.288" width="112.271" height="149.695" fill="#a59379" stroke="none" stroke-width="1" opacity="0.72"/>
<rect x="818.712" y="581.288" width="37.424" height="187.119" fill="#a59379" stroke="none" stroke-width="1" opacity="0.72"/>
<rect x="257.356" y="618.712" width="187.119" height="112.271" fill="#a59379" stroke="none" stroke-width="1" opacity="0.72"/>
<rect x="481.898" y="656.136" width="37.424" height="449.085" fill="#a59379" stroke="none" stroke-width="1" opacity="0.72"/>
<rect x="1118.102" y="656.136" width="37.424" height="74.847" fill="#a59379" stroke="none" stroke-width="1" opacity="0.72"/>
<rect x="257.356" y="730.983" width="74.847" height="374.237" fill="#a59379" stroke="none" stroke-width="1" opacity="0.72"/>
<rect x="369.627" y="730.983" width="74.847" height="374.237" fill="#a59379" stroke="none" stroke-width="1" opacity="0.72"/>
<rect x="631.593" y="730.983" width="74.847" height="336.814" fill="#a59379" stroke="none" stroke-width="1" opacity="0.72"/>
<rect x="1380.068" y="730.983" width="37.424" height="149.695" fill="#a59379" stroke="none" stroke-width="1" opacity="0.72"/>
<rect x="332.203" y="768.407" width="37.424" height="336.814" fill="#a59379" stroke="none" stroke-width="1" opacity="0.72"/>
<rect x="706.441" y="768.407" width="74.847" height="261.966" fill="#a59379" stroke="none" stroke-width="1" opacity="0.72"/>
<rect x="1005.831" y="768.407" width="112.271" height="336.814" fill="#a59379" stroke="none" stroke-width="1" opacity="0.72"/>
<rect x="182.508" y="843.254" width="74.847" height="187.119" fill="#a59379" stroke="none" stroke-width="1" opacity="0.72"/>
<rect x="519.322" y="843.254" width="112.271" height="261.966" fill="#a59379" stroke="none" stroke-width="1" opacity="0.72"/>
<rect x="781.288" y="918.102" width="149.695" height="112.271" fill="#a59379" stroke="none" stroke-width="1" opacity="0.72"/>
<rect x="1230.373" y="918.102" width="37.424" height="149.695" fill="#a59379" stroke="none" stroke-width="1" opacity="0.72"/>
<rect x="1118.102" y="955.525" width="112.271" height="112.271" fill="#a59379" stroke="none" stroke-width="1" opacity="0.72"/>
<rect x="818.712" y="1030.373" width="187.119" height="74.847" fill="#a59379" stroke="none" stroke-width="1" opacity="0.72"/>
<rect x="1267.797" y="1030.373" width="37.424" height="37.424" fill="#a59379" stroke="none" stroke-width="1" opacity="0.72"/>
<rect x="631.593" y="1067.797" width="37.424" height="37.424" fill="#a59379" stroke="none" stroke-width="1" opacity="0.72"/>
<rect x="1118.102" y="1067.797" width="74.847" height="74.847" fill="#a59379" stroke="none" stroke-width="1" opacity="0.72"/>
<rect x="818.712" y="1105.220" width="112.271" height="37.424" fill="#a59379" stroke="none" stroke-width="1" opacity="0.72"/>
<rect x="1080.678" y="1105.220" width="37.424" height="37.424" fill="#a59379" stroke="none" stroke-width="1" opacity="0.72"/>
<rect x="930.983" y="1021.017" width="74.847" height="9.356" fill="#aa9273" stroke="none" stroke-width="1" opacity="0.9"/>
<rect x="556.746" y="459.661" width="37.424" height="9.356" fill="#aa9273" stroke="none" stroke-width="1" opacity="0.9"/>
<rect x="1192.949" y="459.661" width="37.424" height="9.356" fill="#aa9273" stroke="none" stroke-width="1" opacity="0.9"/>
<rect x="481.898" y="122.847" width="74.847" height="9.356" fill="#aa9273" stroke="none" stroke-width="1" opacity="0.9"/>
<rect x="818.712" y="122.847" width="486.508" height="9.356" fill="#aa9273" stroke="none" stroke-width="1" opacity="0.9"/>
<rect x="669.017" y="571.932" width="37.424" height="9.356" fill="#aa9273" stroke="none" stroke-width="1" opacity="0.9"/>
<rect x="818.712" y="571.932" width="37.424" height="9.356" fill="#aa9273" stroke="none" stroke-width="1" opacity="0.9"/>
<rect x="781.288" y="908.746" width="149.695" height="9.356" fill="#aa9273" stroke="none" stroke-width="1" opacity="0.9"/>
<rect x="1230.373" y="908.746" width="37.424" height="9.356" fill="#aa9273" stroke="none" stroke-width="1" opacity="0.9"/>
<rect x="556.746" y="85.424" width="74.847" height="9.356" fill="#aa9273" stroke="none" stroke-width="1" opacity="0.9"/>
<rect x="706.441" y="85.424" width="112.271" height="9.356" fill="#aa9273" stroke="none" stroke-width="1" opacity="0.9"/>
<rect x="1043.254" y="309.966" width="149.695" height="9.356" fill="#aa9273" stroke="none" stroke-width="1" opacity="0.9"/>
<rect x="257.356" y="609.356" width="187.119" height="9.356" fill="#aa9273" stroke="none" stroke-width="1" opacity="0.9"/>
<rect x="594.169" y="384.814" width="112.271" height="9.356" fill="#aa9273" stroke="none" stroke-width="1" opacity="0.9"/>
<rect x="1267.797" y="384.814" width="112.271" height="9.356" fill="#aa9273" stroke="none" stroke-width="1" opacity="0.9"/>
<rect x="332.203" y="759.051" width="37.424" height="9.356" fill="#aa9273" stroke="none" stroke-width="1" opacity="0.9"/>
<rect x="1118.102" y="946.169" width="112.271" height="9.356" fill="#aa9273" stroke="none" stroke-width="1" opacity="0.9"/>
<rect x="631.593" y="48.000" width="74.847" height="9.356" fill="#aa9273" stroke="none" stroke-width="1" opacity="0.9"/>
<rect x="182.508" y="833.898" width="74.847" height="9.356" fill="#aa9273" stroke="none" stroke-width="1" opacity="0.9"/>
<rect x="519.322" y="833.898" width="112.271" height="9.356" fill="#aa9273" stroke="none" stroke-width="1" opacity="0.9"/>
<rect x="856.136" y="534.508" width="261.966" height="9.356" fill="#aa9273" stroke="none" stroke-width="1" opacity="0.9"/>
<rect x="1118.102" y="646.780" width="37.424" height="9.356" fill="#aa9273" stroke="none" stroke-width="1" opacity="0.9"/>
<rect x="1380.068" y="721.627" width="37.424" height="9.356" fill="#aa9273" stroke="none" stroke-width="1" opacity="0.9"/>
<rect x="556.746" y="347.390" width="37.424" height="9.356" fill="#aa9273" stroke="none" stroke-width="1" opacity="0.9"/>
<rect x="369.627" y="235.119" width="74.847" height="9.356" fill="#aa9273" stroke="none" stroke-width="1" opacity="0.9"/>
<rect x="444.475" y="160.271" width="37.424" height="9.356" fill="#aa9273" stroke="none" stroke-width="1" opacity="0.9"/>
<rect x="1043.254" y="281.898" width="187.119" height="9.356" fill="#aa9273" stroke="none" stroke-width="1" opacity="0.9"/>
<rect x="369.627" y="356.746" width="74.847" height="9.356" fill="#aa9273" stroke="none" stroke-width="1" opacity="0.9"/>
<rect x="1267.797" y="356.746" width="37.424" height="9.356" fill="#aa9273" stroke="none" stroke-width="1" opacity="0.9"/>
<rect x="1380.068" y="880.678" width="37.424" height="9.356" fill="#aa9273" stroke="none" stroke-width="1" opacity="0.9"/>
<rect x="669.017" y="1067.797" width="37.424" height="9.356" fill="#aa9273" stroke="none" stroke-width="1" opacity="0.9"/>
<rect x="1192.949" y="1067.797" width="112.271" height="9.356" fill="#aa9273" stroke="none" stroke-width="1" opacity="0.9"/>
<rect x="669.017" y="469.017" width="37.424" height="9.356" fill="#aa9273" stroke="none" stroke-width="1" opacity="0.9"/>
<rect x="818.712" y="469.017" width="37.424" height="9.356" fill="#aa9273" stroke="none" stroke-width="1" opacity="0.9"/>
<rect x="519.322" y="656.136" width="37.424" height="9.356" fill="#aa9273" stroke="none" stroke-width="1" opacity="0.9"/>
<rect x="818.712" y="1142.644" width="112.271" height="9.356" fill="#aa9273" stroke="none" stroke-width="1" opacity="0.9"/>
<rect x="1080.678" y="1142.644" width="112.271" height="9.356" fill="#aa9273" stroke="none" stroke-width="1" opacity="0.9"/>
<rect x="594.169" y="207.051" width="112.271" height="9.356" fill="#aa9273" stroke="none" stroke-width="1" opacity="0.9"/>
<rect x="781.288" y="768.407" width="224.542" height="9.356" fill="#aa9273" stroke="none" stroke-width="1" opacity="0.9"/>
<rect x="257.356" y="1105.220" width="411.661" height="9.356" fill="#aa9273" stroke="none" stroke-width="1" opacity="0.9"/>
<rect x="930.983" y="1105.220" width="149.695" height="9.356" fill="#aa9273" stroke="none" stroke-width="1" opacity="0.9"/>
<rect x="1155.525" y="543.864" width="112.271" height="9.356" fill="#aa9273" stroke="none" stroke-width="1" opacity="0.9"/>
<rect x="332.203" y="730.983" width="37.424" height="9.356" fill="#aa9273" stroke="none" stroke-width="1" opacity="0.9"/>
<rect x="594.169" y="730.983" width="37.424" height="9.356" fill="#aa9273" stroke="none" stroke-width="1" opacity="0.9"/>
<rect x="1118.102" y="730.983" width="37.424" height="9.356" fill="#aa9273" stroke="none" stroke-width="1" opacity="0.9"/>
<rect x="856.136" y="431.593" width="261.966" height="9.356" fill="#aa9273" stroke="none" stroke-width="1" opacity="0.9"/>
<rect x="182.508" y="1030.373" width="74.847" height="9.356" fill="#aa9273" stroke="none" stroke-width="1" opacity="0.9"/>
<rect x="706.441" y="1030.373" width="112.271" height="9.356" fill="#aa9273" stroke="none" stroke-width="1" opacity="0.9"/>
<rect x="1305.220" y="1030.373" width="74.847" height="9.356" fill="#aa9273" stroke="none" stroke-width="1" opacity="0.9"/>
<rect x="556.746" y="244.475" width="37.424" height="9.356" fill="#aa9273" stroke="none" stroke-width="1" opacity="0.9"/>
<rect x="556.746" y="581.288" width="37.424" height="9.356" fill="#aa9273" stroke="none" stroke-width="1" opacity="0.9"/>
<rect x="1118.102" y="506.441" width="37.424" height="9.356" fill="#aa9273" stroke="none" stroke-width="1" opacity="0.9"/>
<rect x="556.746" y="394.169" width="37.424" height="9.356" fill="#aa9273" stroke="none" stroke-width="1" opacity="0.9"/>
<rect x="1258.441" y="543.864" width="9.356" height="374.237" fill="#aa9273" stroke="none" stroke-width="1" opacity="0.9"/>
<rect x="697.085" y="207.051" width="9.356" height="187.119" fill="#aa9273" stroke="none" stroke-width="1" opacity="0.9"/>
<rect x="697.085" y="469.017" width="9.356" height="112.271" fill="#aa9273" stroke="none" stroke-width="1" opacity="0.9"/>
<rect x="248.000" y="618.712" width="9.356" height="224.542" fill="#aa9273" stroke="none" stroke-width="1" opacity="0.9"/>
<rect x="248.000" y="1030.373" width="9.356" height="74.847" fill="#aa9273" stroke="none" stroke-width="1" opacity="0.9"/>
<rect x="1221.017" y="281.898" width="9.356" height="187.119" fill="#aa9273" stroke="none" stroke-width="1" opacity="0.9"/>
<rect x="1221.017" y="918.102" width="9.356" height="37.424" fill="#aa9273" stroke="none" stroke-width="1" opacity="0.9"/>
<rect x="809.356" y="1030.373" width="9.356" height="112.271" fill="#aa9273" stroke="none" stroke-width="1" opacity="0.9"/>
<rect x="547.390" y="94.780" width="9.356" height="37.424" fill="#aa9273" stroke="none" stroke-width="1" opacity="0.9"/>
<rect x="360.271" y="244.475" width="9.356" height="112.271" fill="#aa9273" stroke="none" stroke-width="1" opacity="0.9"/>
<rect x="360.271" y="730.983" width="9.356" height="37.424" fill="#aa9273" stroke="none" stroke-width="1" opacity="0.9"/>
<rect x="622.237" y="57.356" width="9.356" height="37.424" fill="#aa9273" stroke="none" stroke-width="1" opacity="0.9"/>
<rect x="622.237" y="730.983" width="9.356" height="112.271" fill="#aa9273" stroke="none" stroke-width="1" opacity="0.9"/>
<rect x="173.153" y="843.254" width="9.356" height="187.119" fill="#aa9273" stroke="none" stroke-width="1" opacity="0.9"/>
<rect x="584.814" y="394.169" width="9.356" height="74.847" fill="#aa9273" stroke="none" stroke-width="1" opacity="0.9"/>
<rect x="584.814" y="581.288" width="9.356" height="149.695" fill="#aa9273" stroke="none" stroke-width="1" opacity="0.9"/>
<rect x="435.119" y="169.627" width="9.356" height="74.847" fill="#aa9273" stroke="none" stroke-width="1" opacity="0.9"/>
<rect x="435.119" y="356.746" width="9.356" height="261.966" fill="#aa9273" stroke="none" stroke-width="1" opacity="0.9"/>
<rect x="472.542" y="132.203" width="9.356" height="37.424" fill="#aa9273" stroke="none" stroke-width="1" opacity="0.9"/>
<rect x="996.475" y="768.407" width="9.356" height="261.966" fill="#aa9273" stroke="none" stroke-width="1" opacity="0.9"/>
<rect x="846.780" y="543.864" width="9.356" height="37.424" fill="#aa9273" stroke="none" stroke-width="1" opacity="0.9"/>
<rect x="1108.746" y="431.593" width="9.356" height="74.847" fill="#aa9273" stroke="none" stroke-width="1" opacity="0.9"/>
<rect x="1071.322" y="1105.220" width="9.356" height="37.424" fill="#aa9273" stroke="none" stroke-width="1" opacity="0.9"/>
<rect x="1146.169" y="506.441" width="9.356" height="37.424" fill="#aa9273" stroke="none" stroke-width="1" opacity="0.9"/>
<rect x="1305.220" y="132.203" width="9.356" height="224.542" fill="#aa9273" stroke="none" stroke-width="1" opacity="0.9"/>
<rect x="1305.220" y="1030.373" width="9.356" height="37.424" fill="#aa9273" stroke="none" stroke-width="1" opacity="0.9"/>
<rect x="1417.492" y="730.983" width="9.356" height="149.695" fill="#aa9273" stroke="none" stroke-width="1" opacity="0.9"/>
<rect x="706.441" y="57.356" width="9.356" height="37.424" fill="#aa9273" stroke="none" stroke-width="1" opacity="0.9"/>
<rect x="706.441" y="1030.373" width="9.356" height="37.424" fill="#aa9273" stroke="none" stroke-width="1" opacity="0.9"/>
<rect x="1118.102" y="543.864" width="9.356" height="112.271" fill="#aa9273" stroke="none" stroke-width="1" opacity="0.9"/>
<rect x="1118.102" y="730.983" width="9.356" height="224.542" fill="#aa9273" stroke="none" stroke-width="1" opacity="0.9"/>
<rect x="856.136" y="431.593" width="9.356" height="37.424" fill="#aa9273" stroke="none" stroke-width="1" opacity="0.9"/>
<rect x="556.746" y="244.475" width="9.356" height="112.271" fill="#aa9273" stroke="none" stroke-width="1" opacity="0.9"/>
<rect x="556.746" y="394.169" width="9.356" height="74.847" fill="#aa9273" stroke="none" stroke-width="1" opacity="0.9"/>
<rect x="556.746" y="581.288" width="9.356" height="74.847" fill="#aa9273" stroke="none" stroke-width="1" opacity="0.9"/>
<rect x="818.712" y="94.780" width="9.356" height="37.424" fill="#aa9273" stroke="none" stroke-width="1" opacity="0.9"/>
<rect x="818.712" y="469.017" width="9.356" height="112.271" fill="#aa9273" stroke="none" stroke-width="1" opacity="0.9"/>
<rect x="1380.068" y="394.169" width="9.356" height="336.814" fill="#aa9273" stroke="none" stroke-width="1" opacity="0.9"/>
<rect x="1380.068" y="880.678" width="9.356" height="149.695" fill="#aa9273" stroke="none" stroke-width="1" opacity="0.9"/>
<rect x="519.322" y="656.136" width="9.356" height="187.119" fill="#aa9273" stroke="none" stroke-width="1" opacity="0.9"/>
<rect x="1192.949" y="319.322" width="9.356" height="149.695" fill="#aa9273" stroke="none" stroke-width="1" opacity="0.9"/>
<rect x="1192.949" y="1067.797" width="9.356" height="74.847" fill="#aa9273" stroke="none" stroke-width="1" opacity="0.9"/>
<rect x="781.288" y="768.407" width="9.356" height="149.695" fill="#aa9273" stroke="none" stroke-width="1" opacity="0.9"/>
<rect x="930.983" y="918.102" width="9.356" height="112.271" fill="#aa9273" stroke="none" stroke-width="1" opacity="0.9"/>
<rect x="930.983" y="1105.220" width="9.356" height="37.424" fill="#aa9273" stroke="none" stroke-width="1" opacity="0.9"/>
<rect x="1155.525" y="656.136" width="9.356" height="74.847" fill="#aa9273" stroke="none" stroke-width="1" opacity="0.9"/>
<rect x="1043.254" y="281.898" width="9.356" height="37.424" fill="#aa9273" stroke="none" stroke-width="1" opacity="0.9"/>
<rect x="1267.797" y="356.746" width="9.356" height="37.424" fill="#aa9273" stroke="none" stroke-width="1" opacity="0.9"/>
<rect x="594.169" y="207.051" width="9.356" height="37.424" fill="#aa9273" stroke="none" stroke-width="1" opacity="0.9"/>
<rect x="594.169" y="356.746" width="9.356" height="37.424" fill="#aa9273" stroke="none" stroke-width="1" opacity="0.9"/>
<rect x="669.017" y="469.017" width="9.356" height="112.271" fill="#aa9273" stroke="none" stroke-width="1" opacity="0.9"/>
<rect x="669.017" y="1067.797" width="9.356" height="37.424" fill="#aa9273" stroke="none" stroke-width="1" opacity="0.9"/>
<rect x="332.203" y="730.983" width="9.356" height="37.424" fill="#aa9273" stroke="none" stroke-width="1" opacity="0.9"/>
<rect x="746.196" y="908.117" width="17.558" height="17.629" fill="#8d6039" stroke="none" stroke-width="1" opacity="0.9"/>
<rect x="987.562" y="754.270" width="15.486" height="15.409" fill="#8d6039" stroke="none" stroke-width="1" opacity="0.9"/>
<rect x="976.293" y="748.189" width="17.558" height="17.629" fill="#8d6039" stroke="none" stroke-width="1" opacity="0.9"/>
<rect x="600.817" y="680.043" width="13.603" height="17.676" fill="#8d6039" stroke="none" stroke-width="1" opacity="0.9"/>
<rect x="624.109" y="684.732" width="19.647" height="19.993" fill="#8d6039" stroke="none" stroke-width="1" opacity="0.9"/>
<rect x="615.938" y="699.587" width="18.446" height="14.843" fill="#8d6039" stroke="none" stroke-width="1" opacity="0.9"/>
<rect x="623.890" y="656.965" width="20.084" height="19.393" fill="#8d6039" stroke="none" stroke-width="1" opacity="0.9"/>
<rect x="746.203" y="779.517" width="16.373" height="16.373" fill="#8d6039" stroke="none" stroke-width="1" opacity="0.9"/>
<rect x="788.992" y="582.580" width="17.923" height="17.882" fill="#8d6039" stroke="none" stroke-width="1" opacity="0.9"/>
<rect x="790.710" y="574.657" width="16.826" height="16.770" fill="#8d6039" stroke="none" stroke-width="1" opacity="0.9"/>
<rect x="607.394" y="1134.926" width="13.315" height="13.097" fill="#8d6039" stroke="none" stroke-width="1" opacity="0.9"/>
<rect x="662.487" y="961.275" width="17.738" height="17.738" fill="#8d6039" stroke="none" stroke-width="1" opacity="0.9"/>
<rect x="1204.059" y="233.657" width="16.373" height="16.373" fill="#8d6039" stroke="none" stroke-width="1" opacity="0.9"/>
<rect x="1204.059" y="250.907" width="16.373" height="16.373" fill="#8d6039" stroke="none" stroke-width="1" opacity="0.9"/>
<rect x="1098.233" y="1094.331" width="11.669" height="12.422" fill="#8d6039" stroke="none" stroke-width="1" opacity="0.9"/>
<rect x="546.160" y="359.609" width="24.681" height="24.681" fill="#8d6039" stroke="none" stroke-width="1" opacity="0.9"/>
<rect x="1267.829" y="918.132" width="18.646" height="18.651" fill="#8d6039" stroke="none" stroke-width="1" opacity="0.9"/>
<rect x="1043.536" y="347.964" width="18.732" height="18.732" fill="#8d6039" stroke="none" stroke-width="1" opacity="0.9"/>
<rect x="472.062" y="490.644" width="12.655" height="12.881" fill="#8d6039" stroke="none" stroke-width="1" opacity="0.9"/>
<rect x="616.453" y="815.250" width="11.568" height="11.568" fill="#8d6039" stroke="none" stroke-width="1" opacity="0.9"/>
<rect x="1132.491" y="484.589" width="18.002" height="17.974" fill="#8d6039" stroke="none" stroke-width="1" opacity="0.9"/>
<rect x="1125.446" y="471.764" width="15.717" height="15.558" fill="#8d6039" stroke="none" stroke-width="1" opacity="0.9"/>
<rect x="1126.648" y="482.204" width="15.652" height="15.727" fill="#8d6039" stroke="none" stroke-width="1" opacity="0.9"/>
<rect x="370.399" y="1080.848" width="14.829" height="14.829" fill="#8d6039" stroke="none" stroke-width="1" opacity="0.9"/>
<rect x="380.805" y="1078.352" width="15.652" height="15.727" fill="#8d6039" stroke="none" stroke-width="1" opacity="0.9"/>
<rect x="552.068" y="1029.788" width="16.373" height="16.373" fill="#8d6039" stroke="none" stroke-width="1" opacity="0.9"/>
<rect x="622.023" y="1013.798" width="6.276" height="6.252" fill="#8d6039" stroke="none" stroke-width="1" opacity="0.9"/>
<rect x="619.005" y="999.075" width="8.804" height="8.800" fill="#8d6039" stroke="none" stroke-width="1" opacity="0.9"/>
<rect x="656.663" y="627.671" width="16.521" height="16.582" fill="#8d6039" stroke="none" stroke-width="1" opacity="0.9"/>
<rect x="663.022" y="172.403" width="18.423" height="18.423" fill="#8d6039" stroke="none" stroke-width="1" opacity="0.9"/>
<rect x="658.234" y="181.357" width="16.304" height="16.304" fill="#8d6039" stroke="none" stroke-width="1" opacity="0.9"/>
<rect x="604.887" y="613.641" width="14.235" height="14.235" fill="#8d6039" stroke="none" stroke-width="1" opacity="0.9"/>
<rect x="597.678" y="633.915" width="10.525" height="10.525" fill="#8d6039" stroke="none" stroke-width="1" opacity="0.9"/>
<rect x="625.348" y="525.340" width="14.829" height="14.829" fill="#8d6039" stroke="none" stroke-width="1" opacity="0.9"/>
<rect x="989.060" y="579.721" width="14.829" height="14.829" fill="#8d6039" stroke="none" stroke-width="1" opacity="0.9"/>
<rect x="1004.263" y="569.780" width="11.907" height="11.907" fill="#8d6039" stroke="none" stroke-width="1" opacity="0.9"/>
<rect x="982.403" y="579.861" width="4.169" height="6.362" fill="#8d6039" stroke="none" stroke-width="1" opacity="0.9"/>
<rect x="999.567" y="586.292" width="5.509" height="6.951" fill="#8d6039" stroke="none" stroke-width="1" opacity="0.9"/>
<rect x="723.815" y="286.408" width="17.879" height="17.879" fill="#8d6039" stroke="none" stroke-width="1" opacity="0.9"/>
<rect x="730.056" y="283.293" width="14.753" height="14.753" fill="#8d6039" stroke="none" stroke-width="1" opacity="0.9"/>
<rect x="725.297" y="273.272" width="18.423" height="18.423" fill="#8d6039" stroke="none" stroke-width="1" opacity="0.9"/>
<rect x="718.656" y="273.648" width="18.840" height="18.840" fill="#8d6039" stroke="none" stroke-width="1" opacity="0.9"/>
<rect x="912.961" y="1035.627" width="12.655" height="12.881" fill="#8d6039" stroke="none" stroke-width="1" opacity="0.9"/>
<rect x="825.738" y="1094.163" width="12.864" height="12.758" fill="#8d6039" stroke="none" stroke-width="1" opacity="0.9"/>
<rect x="824.920" y="1080.846" width="15.652" height="15.727" fill="#8d6039" stroke="none" stroke-width="1" opacity="0.9"/>
<rect x="1107.389" y="1035.043" width="12.655" height="12.881" fill="#8d6039" stroke="none" stroke-width="1" opacity="0.9"/>
<rect x="1183.634" y="1010.538" width="13.951" height="13.942" fill="#8d6039" stroke="none" stroke-width="1" opacity="0.9"/>
<rect x="1107.869" y="1011.422" width="12.864" height="12.758" fill="#8d6039" stroke="none" stroke-width="1" opacity="0.9"/>
<rect x="707.408" y="93.004" width="16.158" height="16.158" fill="#8d6039" stroke="none" stroke-width="1" opacity="0.9"/>
<rect x="1170.728" y="624.569" width="12.866" height="12.845" fill="#8d6039" stroke="none" stroke-width="1" opacity="0.9"/>
<rect x="1182.947" y="613.664" width="11.818" height="11.849" fill="#8d6039" stroke="none" stroke-width="1" opacity="0.9"/>
<rect x="311.873" y="635.709" width="42.999" height="15.124" fill="#8d6039" stroke="none" stroke-width="1" opacity="0.9"/>
<rect x="292.216" y="1030.196" width="28.517" height="33.099" fill="#8d6039" stroke="none" stroke-width="1" opacity="0.9"/>
<rect x="673.022" y="167.307" width="32.551" height="21.288" fill="#8d6039" stroke="none" stroke-width="1" opacity="0.9"/>
<rect x="688.029" y="105.813" width="32.518" height="31.449" fill="#8d6039" stroke="none" stroke-width="1" opacity="0.9"/>
<rect x="688.445" y="106.021" width="31.686" height="31.034" fill="#8d6039" stroke="none" stroke-width="1" opacity="0.9"/>
<rect x="511.281" y="1083.059" width="18.422" height="18.594" fill="#8d6039" stroke="none" stroke-width="1" opacity="0.9"/>
<rect x="502.366" y="1091.774" width="8.183" height="8.181" fill="#8d6039" stroke="none" stroke-width="1" opacity="0.9"/>
<rect x="600.318" y="695.492" width="16.940" height="18.355" fill="#8d6039" stroke="none" stroke-width="1" opacity="0.9"/>
<rect x="599.093" y="696.345" width="15.882" height="18.404" fill="#8d6039" stroke="none" stroke-width="1" opacity="0.9"/>
<rect x="598.709" y="697.313" width="18.404" height="15.882" fill="#8d6039" stroke="none" stroke-width="1" opacity="0.9"/>
<rect x="696.326" y="839.417" width="21.984" height="21.708" fill="#8d6039" stroke="none" stroke-width="1" opacity="0.9"/>
<rect x="408.949" y="423.264" width="9.069" height="42.387" fill="#8d6039" stroke="none" stroke-width="1" opacity="0.9"/>
<rect x="595.145" y="1088.720" width="9.745" height="9.611" fill="#8d6039" stroke="none" stroke-width="1" opacity="0.9"/>
<rect x="592.263" y="1103.697" width="8.491" height="7.724" fill="#8d6039" stroke="none" stroke-width="1" opacity="0.9"/>
<rect x="730.708" y="899.975" width="28.068" height="21.051" fill="#8d6039" stroke="none" stroke-width="1" opacity="0.9"/>
<rect x="581.796" y="1032.313" width="14.222" height="7.815" fill="#8d6039" stroke="none" stroke-width="1" opacity="0.9"/>
<rect x="644.540" y="1055.385" width="32.581" height="42.367" fill="#8d6039" stroke="none" stroke-width="1" opacity="0.9"/>
<rect x="665.194" y="1059.295" width="11.155" height="11.155" fill="#8d6039" stroke="none" stroke-width="1" opacity="0.9"/>
<rect x="1064.165" y="1088.536" width="14.315" height="15.242" fill="#8d6039" stroke="none" stroke-width="1" opacity="0.9"/>
<rect x="420.132" y="1083.106" width="19.447" height="9.144" fill="#8d6039" stroke="none" stroke-width="1" opacity="0.9"/>
<rect x="535.448" y="364.285" width="26.224" height="31.701" fill="#8d6039" stroke="none" stroke-width="1" opacity="0.9"/>
<rect x="564.467" y="376.154" width="3.270" height="17.903" fill="#8d6039" stroke="none" stroke-width="1" opacity="0.9"/>
<rect x="811.110" y="487.144" width="18.712" height="9.356" fill="#8d6039" stroke="none" stroke-width="1" opacity="0.9"/>
<rect x="731.877" y="519.597" width="18.712" height="9.356" fill="#8d6039" stroke="none" stroke-width="1" opacity="0.9"/>
<rect x="731.292" y="515.212" width="18.712" height="9.356" fill="#8d6039" stroke="none" stroke-width="1" opacity="0.9"/>
<rect x="1278.507" y="1009.138" width="30.036" height="23.758" fill="#8d6039" stroke="none" stroke-width="1" opacity="0.9"/>
<rect x="487.808" y="1009.462" width="25.605" height="31.297" fill="#8d6039" stroke="none" stroke-width="1" opacity="0.9"/>
<rect x="961.682" y="1092.648" width="9.356" height="18.712" fill="#8d6039" stroke="none" stroke-width="1" opacity="0.9"/>
<rect x="957.297" y="1093.233" width="9.356" height="18.712" fill="#8d6039" stroke="none" stroke-width="1" opacity="0.9"/>
<rect x="921.415" y="414.091" width="21.476" height="20.385" fill="#8d6039" stroke="none" stroke-width="1" opacity="0.9"/>
<rect x="1044.368" y="339.626" width="14.146" height="14.357" fill="#8d6039" stroke="none" stroke-width="1" opacity="0.9"/>
<rect x="941.738" y="302.437" width="22.346" height="22.075" fill="#8d6039" stroke="none" stroke-width="1" opacity="0.9"/>
<rect x="967.787" y="304.376" width="23.459" height="23.459" fill="#8d6039" stroke="none" stroke-width="1" opacity="0.9"/>
<rect x="896.404" y="377.974" width="22.964" height="23.222" fill="#8d6039" stroke="none" stroke-width="1" opacity="0.9"/>
<rect x="922.628" y="392.664" width="23.726" height="23.477" fill="#8d6039" stroke="none" stroke-width="1" opacity="0.9"/>
<rect x="924.568" y="396.302" width="18.678" height="16.201" fill="#8d6039" stroke="none" stroke-width="1" opacity="0.9"/>
<rect x="493.770" y="779.693" width="34.732" height="34.732" fill="#8d6039" stroke="none" stroke-width="1" opacity="0.9"/>
<rect x="1151.309" y="265.925" width="37.670" height="13.236" fill="#8d6039" stroke="none" stroke-width="1" opacity="0.9"/>
<rect x="1096.928" y="267.094" width="37.670" height="13.236" fill="#8d6039" stroke="none" stroke-width="1" opacity="0.9"/>
<rect x="1208.523" y="217.983" width="13.878" height="13.221" fill="#8d6039" stroke="none" stroke-width="1" opacity="0.9"/>
<rect x="664.047" y="1023.356" width="18.712" height="9.356" fill="#8d6039" stroke="none" stroke-width="1" opacity="0.9"/>
<rect x="236.597" y="925.119" width="32.746" height="14.034" fill="#8d6039" stroke="none" stroke-width="1" opacity="0.9"/>
<rect x="223.140" y="931.966" width="30.424" height="24.314" fill="#8d6039" stroke="none" stroke-width="1" opacity="0.9"/>
<rect x="319.717" y="765.579" width="8.600" height="9.165" fill="#8d6039" stroke="none" stroke-width="1" opacity="0.9"/>
<rect x="335.964" y="765.545" width="6.512" height="7.477" fill="#8d6039" stroke="none" stroke-width="1" opacity="0.9"/>
<rect x="258.425" y="813.636" width="9.558" height="8.948" fill="#8d6039" stroke="none" stroke-width="1" opacity="0.9"/>
<rect x="429.317" y="698.965" width="15.112" height="21.934" fill="#8d6039" stroke="none" stroke-width="1" opacity="0.9"/>
<rect x="451.585" y="688.975" width="9.169" height="9.169" fill="#8d6039" stroke="none" stroke-width="1" opacity="0.9"/>
<rect x="419.883" y="717.933" width="14.682" height="22.007" fill="#8d6039" stroke="none" stroke-width="1" opacity="0.9"/>
<rect x="394.152" y="636.428" width="21.120" height="6.668" fill="#8d6039" stroke="none" stroke-width="1" opacity="0.9"/>
<rect x="417.322" y="635.791" width="21.488" height="7.946" fill="#8d6039" stroke="none" stroke-width="1" opacity="0.9"/>
<rect x="329.135" y="702.723" width="21.340" height="7.402" fill="#8d6039" stroke="none" stroke-width="1" opacity="0.9"/>
<rect x="304.686" y="703.674" width="21.120" height="6.668" fill="#8d6039" stroke="none" stroke-width="1" opacity="0.9"/>
<rect x="374.720" y="737.913" width="20.221" height="20.056" fill="#8d6039" stroke="none" stroke-width="1" opacity="0.9"/>
<rect x="351.075" y="733.407" width="21.901" height="22.050" fill="#8d6039" stroke="none" stroke-width="1" opacity="0.9"/>
<rect x="357.313" y="727.649" width="21.120" height="6.668" fill="#8d6039" stroke="none" stroke-width="1" opacity="0.9"/>
<rect x="1198.235" y="1019.286" width="26.852" height="26.852" fill="#8d6039" stroke="none" stroke-width="1" opacity="0.9"/>
<rect x="665.027" y="182.302" width="13.828" height="13.828" fill="#8d6039" stroke="none" stroke-width="1" opacity="0.9"/>
<rect x="610.167" y="633.756" width="32.326" height="27.216" fill="#8d6039" stroke="none" stroke-width="1" opacity="0.9"/>
<rect x="625.933" y="530.499" width="24.184" height="19.714" fill="#8d6039" stroke="none" stroke-width="1" opacity="0.9"/>
<rect x="725.149" y="302.102" width="10.532" height="42.626" fill="#8d6039" stroke="none" stroke-width="1" opacity="0.9"/>
<rect x="726.834" y="237.385" width="8.333" height="42.248" fill="#8d6039" stroke="none" stroke-width="1" opacity="0.9"/>
<rect x="183.645" y="1021.640" width="34.565" height="31.499" fill="#8d6039" stroke="none" stroke-width="1" opacity="0.9"/>
<rect x="725.045" y="282.960" width="11.911" height="11.911" fill="#8d6039" stroke="none" stroke-width="1" opacity="0.9"/>
<rect x="651.371" y="1034.811" width="38.801" height="23.610" fill="#8d6039" stroke="none" stroke-width="1" opacity="0.9"/>
<rect x="631.309" y="931.975" width="19.280" height="33.067" fill="#8d6039" stroke="none" stroke-width="1" opacity="0.9"/>
<rect x="461.692" y="598.650" width="3.270" height="17.903" fill="#8d6039" stroke="none" stroke-width="1" opacity="0.9"/>
<rect x="260.830" y="1018.058" width="23.459" height="23.459" fill="#8d6039" stroke="none" stroke-width="1" opacity="0.9"/>
<rect x="836.026" y="1098.524" width="8.058" height="8.130" fill="#8d6039" stroke="none" stroke-width="1" opacity="0.9"/>
<rect x="849.999" y="1099.351" width="8.179" height="8.230" fill="#8d6039" stroke="none" stroke-width="1" opacity="0.9"/>
<rect x="640.184" y="865.150" width="17.903" height="3.270" fill="#8d6039" stroke="none" stroke-width="1" opacity="0.9"/>
<rect x="1123.681" y="1036.630" width="6.384" height="7.367" fill="#8d6039" stroke="none" stroke-width="1" opacity="0.9"/>
<rect x="1151.645" y="1067.067" width="12.439" height="31.867" fill="#8d6039" stroke="none" stroke-width="1" opacity="0.9"/>
<rect x="1095.214" y="1091.736" width="17.708" height="17.613" fill="#8d6039" stroke="none" stroke-width="1" opacity="0.9"/>
<rect x="816.777" y="605.382" width="17.903" height="3.270" fill="#8d6039" stroke="none" stroke-width="1" opacity="0.9"/>
<rect x="975.644" y="203.874" width="25.288" height="25.066" fill="#8d6039" stroke="none" stroke-width="1" opacity="0.9"/>
<rect x="880.940" y="167.442" width="15.882" height="18.404" fill="#8d6039" stroke="none" stroke-width="1" opacity="0.9"/>
<rect x="858.106" y="143.654" width="22.957" height="23.879" fill="#8d6039" stroke="none" stroke-width="1" opacity="0.9"/>
<rect x="873.218" y="159.775" width="32.497" height="33.474" fill="#8d6039" stroke="none" stroke-width="1" opacity="0.9"/>
<rect x="873.444" y="160.192" width="32.044" height="32.641" fill="#8d6039" stroke="none" stroke-width="1" opacity="0.9"/>
<rect x="853.117" y="137.646" width="36.168" height="36.690" fill="#8d6039" stroke="none" stroke-width="1" opacity="0.9"/>
<rect x="853.421" y="138.052" width="35.560" height="35.878" fill="#8d6039" stroke="none" stroke-width="1" opacity="0.9"/>
<rect x="389.718" y="482.695" width="34.667" height="24.101" fill="#8d6039" stroke="none" stroke-width="1" opacity="0.9"/>
<rect x="1147.216" y="139.619" width="37.670" height="13.236" fill="#8d6039" stroke="none" stroke-width="1" opacity="0.9"/>
<rect x="1102.663" y="139.292" width="37.895" height="13.891" fill="#8d6039" stroke="none" stroke-width="1" opacity="0.9"/>
<rect x="855.967" y="564.723" width="9.693" height="9.741" fill="#8d6039" stroke="none" stroke-width="1" opacity="0.9"/>
<rect x="1129.441" y="819.489" width="24.101" height="34.667" fill="#8d6039" stroke="none" stroke-width="1" opacity="0.9"/>
<rect x="1051.856" y="615.701" width="20.221" height="20.056" fill="#8d6039" stroke="none" stroke-width="1" opacity="0.9"/>
<rect x="1025.506" y="624.353" width="28.479" height="28.479" fill="#8d6039" stroke="none" stroke-width="1" opacity="0.9"/>
<rect x="387.747" y="863.502" width="31.591" height="32.014" fill="#8d6039" stroke="none" stroke-width="1" opacity="0.9"/>
<rect x="388.741" y="865.137" width="29.602" height="28.743" fill="#8d6039" stroke="none" stroke-width="1" opacity="0.9"/>
<rect x="320.911" y="942.324" width="29.602" height="28.743" fill="#8d6039" stroke="none" stroke-width="1" opacity="0.9"/>
<rect x="319.916" y="940.688" width="31.591" height="32.014" fill="#8d6039" stroke="none" stroke-width="1" opacity="0.9"/>
<rect x="1096.052" y="742.606" width="33.575" height="29.381" fill="#8d6039" stroke="none" stroke-width="1" opacity="0.9"/>
<rect x="1110.987" y="737.038" width="9.552" height="8.942" fill="#8d6039" stroke="none" stroke-width="1" opacity="0.9"/>
<rect x="909.773" y="944.319" width="30.724" height="24.752" fill="#8d6039" stroke="none" stroke-width="1" opacity="0.9"/>
<rect x="719.590" y="103.694" width="4.283" height="5.170" fill="#8d6039" stroke="none" stroke-width="1" opacity="0.9"/>
<rect x="758.948" y="209.951" width="43.521" height="43.366" fill="#8d6039" stroke="none" stroke-width="1" opacity="0.9"/>
<rect x="760.862" y="211.630" width="39.693" height="40.008" fill="#8d6039" stroke="none" stroke-width="1" opacity="0.9"/>
<rect x="788.305" y="162.610" width="102.914" height="93.560" fill="none" stroke="#e04b3f" stroke-width="2" opacity="1.0"/>
<text x="792.305" y="176.610" fill="#e04b3f" font-family="monospace" font-size="13">A</text>
<rect x="320.508" y="864.305" width="98.237" height="107.593" fill="none" stroke="#e04b3f" stroke-width="2" opacity="1.0"/>
<text x="324.508" y="878.305" fill="#e04b3f" font-family="monospace" font-size="13">B</text>
<circle cx="1370.712" cy="754.373" r="5" fill="#f28c28" stroke="#111" stroke-width="1"/>
<circle cx="1370.712" cy="782.441" r="5" fill="#f28c28" stroke="#111" stroke-width="1"/>
<circle cx="1370.712" cy="810.508" r="5" fill="#f28c28" stroke="#111" stroke-width="1"/>
<circle cx="1370.712" cy="838.576" r="5" fill="#f28c28" stroke="#111" stroke-width="1"/>
<circle cx="1347.322" cy="740.339" r="5" fill="#f28c28" stroke="#111" stroke-width="1"/>
<circle cx="1347.322" cy="768.407" r="5" fill="#f28c28" stroke="#111" stroke-width="1"/>
<circle cx="1347.322" cy="796.475" r="5" fill="#f28c28" stroke="#111" stroke-width="1"/>
<circle cx="1347.322" cy="824.542" r="5" fill="#f28c28" stroke="#111" stroke-width="1"/>
<circle cx="1347.322" cy="852.610" r="5" fill="#f28c28" stroke="#111" stroke-width="1"/>
<circle cx="1323.932" cy="838.576" r="5" fill="#f28c28" stroke="#111" stroke-width="1"/>
<circle cx="1323.932" cy="809.631" r="5" fill="#f28c28" stroke="#111" stroke-width="1"/>
<circle cx="1323.932" cy="781.564" r="5" fill="#f28c28" stroke="#111" stroke-width="1"/>
<circle cx="1323.932" cy="753.496" r="5" fill="#f28c28" stroke="#111" stroke-width="1"/>
<circle cx="1300.542" cy="768.407" r="5" fill="#f28c28" stroke="#111" stroke-width="1"/>
<circle cx="1300.542" cy="796.475" r="5" fill="#f28c28" stroke="#111" stroke-width="1"/>
<circle cx="1300.542" cy="824.542" r="5" fill="#f28c28" stroke="#111" stroke-width="1"/>
<circle cx="1300.542" cy="852.610" r="5" fill="#f28c28" stroke="#111" stroke-width="1"/>
<circle cx="449.153" cy="265.525" r="5" fill="#3d8bff" stroke="#111" stroke-width="1"/>
<circle cx="377.229" cy="311.720" r="5" fill="#3d8bff" stroke="#111" stroke-width="1"/>
<circle cx="377.229" cy="264.941" r="5" fill="#3d8bff" stroke="#111" stroke-width="1"/>
<circle cx="449.153" cy="316.983" r="5" fill="#3d8bff" stroke="#111" stroke-width="1"/>
<circle cx="412.314" cy="312.305" r="5" fill="#3d8bff" stroke="#111" stroke-width="1"/>
<circle cx="412.314" cy="265.525" r="5" fill="#3d8bff" stroke="#111" stroke-width="1"/>
<circle cx="395.941" cy="288.331" r="5" fill="#3d8bff" stroke="#111" stroke-width="1"/>
<circle cx="491.254" cy="237.458" r="5" fill="#3d8bff" stroke="#111" stroke-width="1"/>
<circle cx="498.271" cy="291.254" r="5" fill="#3d8bff" stroke="#111" stroke-width="1"/>
<circle cx="433.364" cy="288.915" r="5" fill="#3d8bff" stroke="#111" stroke-width="1"/>
<circle cx="465.525" cy="288.915" r="5" fill="#3d8bff" stroke="#111" stroke-width="1"/>
<circle cx="484.237" cy="316.983" r="5" fill="#3d8bff" stroke="#111" stroke-width="1"/>
<circle cx="484.237" cy="265.525" r="5" fill="#3d8bff" stroke="#111" stroke-width="1"/>
<circle cx="514.644" cy="267.864" r="5" fill="#3d8bff" stroke="#111" stroke-width="1"/>
<circle cx="1370.712" cy="754.373" r="8" fill="none" stroke="#111111" stroke-width="2"/>
<g font-family="monospace" font-size="13">
<rect x="16" y="13" width="12" height="12" fill="#8ba0b4"/>
<text x="34" y="24" fill="#eef3f8">floor</text>
<rect x="16" y="33" width="12" height="12" fill="#0d6b54"/>
<text x="34" y="44" fill="#eef3f8">wall</text>
<rect x="16" y="53" width="12" height="12" fill="#2f8f4e"/>
<text x="34" y="64" fill="#eef3f8">crate</text>
<rect x="16" y="73" width="12" height="12" fill="#41a064"/>
<text x="34" y="84" fill="#eef3f8">pillar</text>
<rect x="16" y="93" width="12" height="12" fill="#f28c28"/>
<text x="34" y="104" fill="#eef3f8">T</text>
<rect x="16" y="113" width="12" height="12" fill="#3d8bff"/>
<text x="34" y="124" fill="#eef3f8">CT</text>
</g>
</svg>
