<svg xmlns="http://www.w3.org/2000/svg" width="1600" height="1200" viewBox="0 0 1600 1200">
<rect width="100%" height="100%" fill="#10243a"/>
<rect x="275.164" y="56.201" width="590.440" height="98.407" fill="#ac9c82" stroke="none" stroke-width="1" opacity="0.72"/>
<rect x="865.604" y="89.003" width="131.209" height="65.604" fill="#ac9c82" stroke="none" stroke-width="1" opacity="0.72"/>
<rect x="307.967" y="154.607" width="328.022" height="131.209" fill="#ac9c82" stroke="none" stroke-width="1" opacity="0.72"/>
<rect x="734.396" y="154.607" width="229.616" height="65.604" fill="#ac9c82" stroke="none" stroke-width="1" opacity="0.72"/>
<rect x="996.813" y="187.409" width="65.604" height="459.231" fill="#ac9c82" stroke="none" stroke-width="1" opacity="0.72"/>
<rect x="734.396" y="220.212" width="32.802" height="721.649" fill="#ac9c82" stroke="none" stroke-width="1" opacity="0.72"/>
<rect x="898.407" y="220.212" width="98.407" height="196.813" fill="#ac9c82" stroke="none" stroke-width="1" opacity="0.72"/>
<rect x="340.769" y="285.816" width="196.813" height="229.616" fill="#ac9c82" stroke="none" stroke-width="1" opacity="0.72"/>
<rect x="537.582" y="351.421" width="32.802" height="98.407" fill="#ac9c82" stroke="none" stroke-width="1" opacity="0.72"/>
<rect x="668.791" y="351.421" width="65.604" height="131.209" fill="#ac9c82" stroke="none" stroke-width="1" opacity="0.72"/>
<rect x="767.198" y="351.421" width="32.802" height="590.440" fill="#ac9c82" stroke="none" stroke-width="1" opacity="0.72"/>
<rect x="865.604" y="351.421" width="32.802" height="98.407" fill="#ac9c82" stroke="none" stroke-width="1" opacity="0.72"/>
<rect x="1128.022" y="351.421" width="164.011" height="295.220" fill="#ac9c82" stroke="none" stroke-width="1" opacity="0.72"/>
<rect x="307.967" y="384.223" width="32.802" height="98.407" fill="#ac9c82" stroke="none" stroke-width="1" opacity="0.72"/>
<rect x="800.000" y="384.223" width="65.604" height="98.407" fill="#ac9c82" stroke="none" stroke-width="1" opacity="0.72"/>
<rect x="1095.220" y="384.223" width="32.802" height="262.418" fill="#ac9c82" stroke="none" stroke-width="1" opacity="0.72"/>
<rect x="1292.033" y="384.223" width="32.802" height="229.616" fill="#ac9c82" stroke="none" stroke-width="1" opacity="0.72"/>
<rect x="898.407" y="417.025" width="65.604" height="32.802" fill="#ac9c82" stroke="none" stroke-width="1" opacity="0.72"/>
<rect x="701.593" y="482.630" width="32.802" height="32.802" fill="#ac9c82" stroke="none" stroke-width="1" opacity="0.72"/>
<rect x="800.000" y="482.630" width="32.802" height="262.418" fill="#ac9c82" stroke="none" stroke-width="1" opacity="0.72"/>
<rect x="406.373" y="515.432" width="65.604" height="164.011" fill="#ac9c82" stroke="none" stroke-width="1" opacity="0.72"/>
<rect x="1062.418" y="515.432" width="32.802" height="98.407" fill="#ac9c82" stroke="none" stroke-width="1" opacity="0.72"/>
<rect x="373.571" y="548.234" width="32.802" height="131.209" fill="#ac9c82" stroke="none" stroke-width="1" opacity="0.72"/>
<rect x="701.593" y="548.234" width="32.802" height="65.604" fill="#ac9c82" stroke="none" stroke-width="1" opacity="0.72"/>
<rect x="275.164" y="581.036" width="98.407" height="65.604" fill="#ac9c82" stroke="none" stroke-width="1" opacity="0.72"/>
<rect x="471.978" y="581.036" width="131.209" height="65.604" fill="#ac9c82" stroke="none" stroke-width="1" opacity="0.72"/>
<rect x="832.802" y="613.838" width="32.802" height="131.209" fill="#ac9c82" stroke="none" stroke-width="1" opacity="0.72"/>
<rect x="340.769" y="646.641" width="32.802" height="492.033" fill="#ac9c82" stroke="none" stroke-width="1" opacity="0.72"/>
<rect x="537.582" y="646.641" width="196.813" height="65.604" fill="#ac9c82" stroke="none" stroke-width="1" opacity="0.72"/>
<rect x="865.604" y="646.641" width="131.209" height="98.407" fill="#ac9c82" stroke="none" stroke-width="1" opacity="0.72"/>
<rect x="1160.825" y="646.641" width="131.209" height="459.231" fill="#ac9c82" stroke="none" stroke-width="1" opacity="0.72"/>
<rect x="406.373" y="712.245" width="65.604" height="360.825" fill="#ac9c82" stroke="none" stroke-width="1" opacity="0.72"/>
<rect x="471.978" y="745.047" width="32.802" height="328.022" fill="#ac9c82" stroke="none" stroke-width="1" opacity="0.72"/>
<rect x="701.593" y="745.047" width="32.802" height="229.616" fill="#ac9c82" stroke="none" stroke-width="1" opacity="0.72"/>
<rect x="931.209" y="745.047" width="65.604" height="295.220" fill="#ac9c82" stroke="none" stroke-width="1" opacity="0.72"/>
<rect x="307.967" y="777.850" width="32.802" height="360.825" fill="#ac9c82" stroke="none" stroke-width="1" opacity="0.72"/>
<rect x="373.571" y="777.850" width="32.802" height="328.022" fill="#ac9c82" stroke="none" stroke-width="1" opacity="0.72"/>
<rect x="504.780" y="777.850" width="32.802" height="262.418" fill="#ac9c82" stroke="none" stroke-width="1" opacity="0.72"/>
<rect x="1292.033" y="777.850" width="32.802" height="131.209" fill="#ac9c82" stroke="none" stroke-width="1" opacity="0.72"/>
<rect x="800.000" y="810.652" width="98.407" height="98.407" fill="#ac9c82" stroke="none" stroke-width="1" opacity="0.72"/>
<rect x="1095.220" y="810.652" width="65.604" height="229.616" fill="#ac9c82" stroke="none" stroke-width="1" opacity="0.72"/>
<rect x="537.582" y="843.454" width="164.011" height="131.209" fill="#ac9c82" stroke="none" stroke-width="1" opacity="0.72"/>
<rect x="898.407" y="843.454" width="32.802" height="131.209" fill="#ac9c82" stroke="none" stroke-width="1" opacity="0.72"/>
<rect x="996.813" y="843.454" width="98.407" height="196.813" fill="#ac9c82" stroke="none" stroke-width="1" opacity="0.72"/>
<rect x="865.604" y="909.058" width="32.802" height="65.604" fill="#ac9c82" stroke="none" stroke-width="1" opacity="0.72"/>
<rect x="537.582" y="974.663" width="131.209" height="32.802" fill="#ac9c82" stroke="none" stroke-width="1" opacity="0.72"/>
<rect x="1128.022" y="1040.267" width="32.802" height="65.604" fill="#ac9c82" stroke="none" stroke-width="1" opacity="0.72"/>
<rect x="471.978" y="736.847" width="32.802" height="8.201" fill="#ae9774" stroke="none" stroke-width="1" opacity="0.9"/>
<rect x="701.593" y="736.847" width="32.802" height="8.201" fill="#ae9774" stroke="none" stroke-width="1" opacity="0.9"/>
<rect x="275.164" y="48.000" width="590.440" height="8.201" fill="#ae9774" stroke="none" stroke-width="1" opacity="0.9"/>
<rect x="603.187" y="638.440" width="131.209" height="8.201" fill="#ae9774" stroke="none" stroke-width="1" opacity="0.9"/>
<rect x="865.604" y="638.440" width="131.209" height="8.201" fill="#ae9774" stroke="none" stroke-width="1" opacity="0.9"/>
<rect x="275.164" y="572.836" width="98.407" height="8.201" fill="#ae9774" stroke="none" stroke-width="1" opacity="0.9"/>
<rect x="471.978" y="572.836" width="131.209" height="8.201" fill="#ae9774" stroke="none" stroke-width="1" opacity="0.9"/>
<rect x="537.582" y="343.220" width="32.802" height="8.201" fill="#ae9774" stroke="none" stroke-width="1" opacity="0.9"/>
<rect x="668.791" y="343.220" width="65.604" height="8.201" fill="#ae9774" stroke="none" stroke-width="1" opacity="0.9"/>
<rect x="767.198" y="343.220" width="32.802" height="8.201" fill="#ae9774" stroke="none" stroke-width="1" opacity="0.9"/>
<rect x="865.604" y="343.220" width="32.802" height="8.201" fill="#ae9774" stroke="none" stroke-width="1" opacity="0.9"/>
<rect x="1128.022" y="343.220" width="164.011" height="8.201" fill="#ae9774" stroke="none" stroke-width="1" opacity="0.9"/>
<rect x="307.967" y="376.022" width="32.802" height="8.201" fill="#ae9774" stroke="none" stroke-width="1" opacity="0.9"/>
<rect x="800.000" y="376.022" width="65.604" height="8.201" fill="#ae9774" stroke="none" stroke-width="1" opacity="0.9"/>
<rect x="1095.220" y="376.022" width="32.802" height="8.201" fill="#ae9774" stroke="none" stroke-width="1" opacity="0.9"/>
<rect x="1292.033" y="376.022" width="32.802" height="8.201" fill="#ae9774" stroke="none" stroke-width="1" opacity="0.9"/>
<rect x="800.000" y="802.451" width="98.407" height="8.201" fill="#ae9774" stroke="none" stroke-width="1" opacity="0.9"/>
<rect x="1095.220" y="802.451" width="65.604" height="8.201" fill="#ae9774" stroke="none" stroke-width="1" opacity="0.9"/>
<rect x="537.582" y="835.253" width="164.011" height="8.201" fill="#ae9774" stroke="none" stroke-width="1" opacity="0.9"/>
<rect x="898.407" y="835.253" width="32.802" height="8.201" fill="#ae9774" stroke="none" stroke-width="1" opacity="0.9"/>
<rect x="996.813" y="835.253" width="98.407" height="8.201" fill="#ae9774" stroke="none" stroke-width="1" opacity="0.9"/>
<rect x="865.604" y="80.802" width="131.209" height="8.201" fill="#ae9774" stroke="none" stroke-width="1" opacity="0.9"/>
<rect x="832.802" y="605.638" width="32.802" height="8.201" fill="#ae9774" stroke="none" stroke-width="1" opacity="0.9"/>
<rect x="406.373" y="704.045" width="65.604" height="8.201" fill="#ae9774" stroke="none" stroke-width="1" opacity="0.9"/>
<rect x="307.967" y="769.649" width="32.802" height="8.201" fill="#ae9774" stroke="none" stroke-width="1" opacity="0.9"/>
<rect x="373.571" y="769.649" width="32.802" height="8.201" fill="#ae9774" stroke="none" stroke-width="1" opacity="0.9"/>
<rect x="504.780" y="769.649" width="32.802" height="8.201" fill="#ae9774" stroke="none" stroke-width="1" opacity="0.9"/>
<rect x="1292.033" y="769.649" width="32.802" height="8.201" fill="#ae9774" stroke="none" stroke-width="1" opacity="0.9"/>
<rect x="996.813" y="179.209" width="65.604" height="8.201" fill="#ae9774" stroke="none" stroke-width="1" opacity="0.9"/>
<rect x="373.571" y="540.033" width="32.802" height="8.201" fill="#ae9774" stroke="none" stroke-width="1" opacity="0.9"/>
<rect x="701.593" y="540.033" width="32.802" height="8.201" fill="#ae9774" stroke="none" stroke-width="1" opacity="0.9"/>
<rect x="964.011" y="212.011" width="32.802" height="8.201" fill="#ae9774" stroke="none" stroke-width="1" opacity="0.9"/>
<rect x="1062.418" y="507.231" width="32.802" height="8.201" fill="#ae9774" stroke="none" stroke-width="1" opacity="0.9"/>
<rect x="307.967" y="1138.674" width="65.604" height="8.201" fill="#ae9774" stroke="none" stroke-width="1" opacity="0.9"/>
<rect x="406.373" y="1073.070" width="98.407" height="8.201" fill="#ae9774" stroke="none" stroke-width="1" opacity="0.9"/>
<rect x="767.198" y="220.212" width="131.209" height="8.201" fill="#ae9774" stroke="none" stroke-width="1" opacity="0.9"/>
<rect x="275.164" y="646.641" width="65.604" height="8.201" fill="#ae9774" stroke="none" stroke-width="1" opacity="0.9"/>
<rect x="471.978" y="646.641" width="65.604" height="8.201" fill="#ae9774" stroke="none" stroke-width="1" opacity="0.9"/>
<rect x="996.813" y="646.641" width="65.604" height="8.201" fill="#ae9774" stroke="none" stroke-width="1" opacity="0.9"/>
<rect x="1095.220" y="646.641" width="65.604" height="8.201" fill="#ae9774" stroke="none" stroke-width="1" opacity="0.9"/>
<rect x="373.571" y="1105.872" width="32.802" height="8.201" fill="#ae9774" stroke="none" stroke-width="1" opacity="0.9"/>
<rect x="1128.022" y="1105.872" width="164.011" height="8.201" fill="#ae9774" stroke="none" stroke-width="1" opacity="0.9"/>
<rect x="537.582" y="712.245" width="196.813" height="8.201" fill="#ae9774" stroke="none" stroke-width="1" opacity="0.9"/>
<rect x="504.780" y="1040.267" width="32.802" height="8.201" fill="#ae9774" stroke="none" stroke-width="1" opacity="0.9"/>
<rect x="931.209" y="1040.267" width="196.813" height="8.201" fill="#ae9774" stroke="none" stroke-width="1" opacity="0.9"/>
<rect x="340.769" y="515.432" width="65.604" height="8.201" fill="#ae9774" stroke="none" stroke-width="1" opacity="0.9"/>
<rect x="471.978" y="515.432" width="65.604" height="8.201" fill="#ae9774" stroke="none" stroke-width="1" opacity="0.9"/>
<rect x="701.593" y="515.432" width="32.802" height="8.201" fill="#ae9774" stroke="none" stroke-width="1" opacity="0.9"/>
<rect x="668.791" y="974.663" width="65.604" height="8.201" fill="#ae9774" stroke="none" stroke-width="1" opacity="0.9"/>
<rect x="865.604" y="974.663" width="65.604" height="8.201" fill="#ae9774" stroke="none" stroke-width="1" opacity="0.9"/>
<rect x="307.967" y="482.630" width="32.802" height="8.201" fill="#ae9774" stroke="none" stroke-width="1" opacity="0.9"/>
<rect x="668.791" y="482.630" width="32.802" height="8.201" fill="#ae9774" stroke="none" stroke-width="1" opacity="0.9"/>
<rect x="832.802" y="482.630" width="32.802" height="8.201" fill="#ae9774" stroke="none" stroke-width="1" opacity="0.9"/>
<rect x="537.582" y="1007.465" width="131.209" height="8.201" fill="#ae9774" stroke="none" stroke-width="1" opacity="0.9"/>
<rect x="537.582" y="449.827" width="32.802" height="8.201" fill="#ae9774" stroke="none" stroke-width="1" opacity="0.9"/>
<rect x="865.604" y="449.827" width="98.407" height="8.201" fill="#ae9774" stroke="none" stroke-width="1" opacity="0.9"/>
<rect x="373.571" y="679.443" width="98.407" height="8.201" fill="#ae9774" stroke="none" stroke-width="1" opacity="0.9"/>
<rect x="307.967" y="285.816" width="32.802" height="8.201" fill="#ae9774" stroke="none" stroke-width="1" opacity="0.9"/>
<rect x="537.582" y="285.816" width="98.407" height="8.201" fill="#ae9774" stroke="none" stroke-width="1" opacity="0.9"/>
<rect x="701.593" y="613.838" width="32.802" height="8.201" fill="#ae9774" stroke="none" stroke-width="1" opacity="0.9"/>
<rect x="1062.418" y="613.838" width="32.802" height="8.201" fill="#ae9774" stroke="none" stroke-width="1" opacity="0.9"/>
<rect x="1292.033" y="613.838" width="32.802" height="8.201" fill="#ae9774" stroke="none" stroke-width="1" opacity="0.9"/>
<rect x="800.000" y="909.058" width="65.604" height="8.201" fill="#ae9774" stroke="none" stroke-width="1" opacity="0.9"/>
<rect x="1292.033" y="909.058" width="32.802" height="8.201" fill="#ae9774" stroke="none" stroke-width="1" opacity="0.9"/>
<rect x="275.164" y="154.607" width="32.802" height="8.201" fill="#ae9774" stroke="none" stroke-width="1" opacity="0.9"/>
<rect x="635.989" y="154.607" width="98.407" height="8.201" fill="#ae9774" stroke="none" stroke-width="1" opacity="0.9"/>
<rect x="964.011" y="154.607" width="32.802" height="8.201" fill="#ae9774" stroke="none" stroke-width="1" opacity="0.9"/>
<rect x="800.000" y="745.047" width="131.209" height="8.201" fill="#ae9774" stroke="none" stroke-width="1" opacity="0.9"/>
<rect x="964.011" y="417.025" width="32.802" height="8.201" fill="#ae9774" stroke="none" stroke-width="1" opacity="0.9"/>
<rect x="734.396" y="941.861" width="65.604" height="8.201" fill="#ae9774" stroke="none" stroke-width="1" opacity="0.9"/>
<rect x="266.964" y="56.201" width="8.201" height="98.407" fill="#ae9774" stroke="none" stroke-width="1" opacity="0.9"/>
<rect x="266.964" y="581.036" width="8.201" height="65.604" fill="#ae9774" stroke="none" stroke-width="1" opacity="0.9"/>
<rect x="1087.019" y="384.223" width="8.201" height="131.209" fill="#ae9774" stroke="none" stroke-width="1" opacity="0.9"/>
<rect x="1087.019" y="613.838" width="8.201" height="32.802" fill="#ae9774" stroke="none" stroke-width="1" opacity="0.9"/>
<rect x="1087.019" y="810.652" width="8.201" height="32.802" fill="#ae9774" stroke="none" stroke-width="1" opacity="0.9"/>
<rect x="332.568" y="285.816" width="8.201" height="98.407" fill="#ae9774" stroke="none" stroke-width="1" opacity="0.9"/>
<rect x="332.568" y="482.630" width="8.201" height="32.802" fill="#ae9774" stroke="none" stroke-width="1" opacity="0.9"/>
<rect x="332.568" y="646.641" width="8.201" height="131.209" fill="#ae9774" stroke="none" stroke-width="1" opacity="0.9"/>
<rect x="726.195" y="154.607" width="8.201" height="196.813" fill="#ae9774" stroke="none" stroke-width="1" opacity="0.9"/>
<rect x="726.195" y="515.432" width="8.201" height="32.802" fill="#ae9774" stroke="none" stroke-width="1" opacity="0.9"/>
<rect x="726.195" y="613.838" width="8.201" height="32.802" fill="#ae9774" stroke="none" stroke-width="1" opacity="0.9"/>
<rect x="726.195" y="712.245" width="8.201" height="32.802" fill="#ae9774" stroke="none" stroke-width="1" opacity="0.9"/>
<rect x="299.766" y="154.607" width="8.201" height="131.209" fill="#ae9774" stroke="none" stroke-width="1" opacity="0.9"/>
<rect x="299.766" y="384.223" width="8.201" height="98.407" fill="#ae9774" stroke="none" stroke-width="1" opacity="0.9"/>
<rect x="299.766" y="777.850" width="8.201" height="360.825" fill="#ae9774" stroke="none" stroke-width="1" opacity="0.9"/>
<rect x="693.393" y="482.630" width="8.201" height="32.802" fill="#ae9774" stroke="none" stroke-width="1" opacity="0.9"/>
<rect x="693.393" y="548.234" width="8.201" height="65.604" fill="#ae9774" stroke="none" stroke-width="1" opacity="0.9"/>
<rect x="693.393" y="745.047" width="8.201" height="98.407" fill="#ae9774" stroke="none" stroke-width="1" opacity="0.9"/>
<rect x="923.008" y="745.047" width="8.201" height="98.407" fill="#ae9774" stroke="none" stroke-width="1" opacity="0.9"/>
<rect x="923.008" y="974.663" width="8.201" height="65.604" fill="#ae9774" stroke="none" stroke-width="1" opacity="0.9"/>
<rect x="529.382" y="646.641" width="8.201" height="65.604" fill="#ae9774" stroke="none" stroke-width="1" opacity="0.9"/>
<rect x="1152.624" y="646.641" width="8.201" height="164.011" fill="#ae9774" stroke="none" stroke-width="1" opacity="0.9"/>
<rect x="398.173" y="515.432" width="8.201" height="32.802" fill="#ae9774" stroke="none" stroke-width="1" opacity="0.9"/>
<rect x="398.173" y="712.245" width="8.201" height="65.604" fill="#ae9774" stroke="none" stroke-width="1" opacity="0.9"/>
<rect x="660.591" y="351.421" width="8.201" height="131.209" fill="#ae9774" stroke="none" stroke-width="1" opacity="0.9"/>
<rect x="1119.822" y="351.421" width="8.201" height="32.802" fill="#ae9774" stroke="none" stroke-width="1" opacity="0.9"/>
<rect x="1119.822" y="1040.267" width="8.201" height="65.604" fill="#ae9774" stroke="none" stroke-width="1" opacity="0.9"/>
<rect x="857.404" y="351.421" width="8.201" height="32.802" fill="#ae9774" stroke="none" stroke-width="1" opacity="0.9"/>
<rect x="857.404" y="909.058" width="8.201" height="65.604" fill="#ae9774" stroke="none" stroke-width="1" opacity="0.9"/>
<rect x="988.613" y="187.409" width="8.201" height="32.802" fill="#ae9774" stroke="none" stroke-width="1" opacity="0.9"/>
<rect x="988.613" y="417.025" width="8.201" height="229.616" fill="#ae9774" stroke="none" stroke-width="1" opacity="0.9"/>
<rect x="890.206" y="220.212" width="8.201" height="131.209" fill="#ae9774" stroke="none" stroke-width="1" opacity="0.9"/>
<rect x="365.370" y="548.234" width="8.201" height="32.802" fill="#ae9774" stroke="none" stroke-width="1" opacity="0.9"/>
<rect x="504.780" y="745.047" width="8.201" height="32.802" fill="#ae9774" stroke="none" stroke-width="1" opacity="0.9"/>
<rect x="504.780" y="1040.267" width="8.201" height="32.802" fill="#ae9774" stroke="none" stroke-width="1" opacity="0.9"/>
<rect x="373.571" y="679.443" width="8.201" height="98.407" fill="#ae9774" stroke="none" stroke-width="1" opacity="0.9"/>
<rect x="373.571" y="1105.872" width="8.201" height="32.802" fill="#ae9774" stroke="none" stroke-width="1" opacity="0.9"/>
<rect x="537.582" y="285.816" width="8.201" height="65.604" fill="#ae9774" stroke="none" stroke-width="1" opacity="0.9"/>
<rect x="537.582" y="449.827" width="8.201" height="65.604" fill="#ae9774" stroke="none" stroke-width="1" opacity="0.9"/>
<rect x="537.582" y="777.850" width="8.201" height="65.604" fill="#ae9774" stroke="none" stroke-width="1" opacity="0.9"/>
<rect x="537.582" y="1007.465" width="8.201" height="32.802" fill="#ae9774" stroke="none" stroke-width="1" opacity="0.9"/>
<rect x="996.813" y="89.003" width="8.201" height="65.604" fill="#ae9774" stroke="none" stroke-width="1" opacity="0.9"/>
<rect x="996.813" y="646.641" width="8.201" height="196.813" fill="#ae9774" stroke="none" stroke-width="1" opacity="0.9"/>
<rect x="635.989" y="154.607" width="8.201" height="131.209" fill="#ae9774" stroke="none" stroke-width="1" opacity="0.9"/>
<rect x="767.198" y="220.212" width="8.201" height="131.209" fill="#ae9774" stroke="none" stroke-width="1" opacity="0.9"/>
<rect x="734.396" y="941.861" width="8.201" height="32.802" fill="#ae9774" stroke="none" stroke-width="1" opacity="0.9"/>
<rect x="603.187" y="581.036" width="8.201" height="65.604" fill="#ae9774" stroke="none" stroke-width="1" opacity="0.9"/>
<rect x="832.802" y="482.630" width="8.201" height="131.209" fill="#ae9774" stroke="none" stroke-width="1" opacity="0.9"/>
<rect x="471.978" y="515.432" width="8.201" height="65.604" fill="#ae9774" stroke="none" stroke-width="1" opacity="0.9"/>
<rect x="471.978" y="646.641" width="8.201" height="32.802" fill="#ae9774" stroke="none" stroke-width="1" opacity="0.9"/>
<rect x="471.978" y="712.245" width="8.201" height="32.802" fill="#ae9774" stroke="none" stroke-width="1" opacity="0.9"/>
<rect x="964.011" y="154.607" width="8.201" height="65.604" fill="#ae9774" stroke="none" stroke-width="1" opacity="0.9"/>
<rect x="964.011" y="417.025" width="8.201" height="32.802" fill="#ae9774" stroke="none" stroke-width="1" opacity="0.9"/>
<rect x="800.000" y="351.421" width="8.201" height="32.802" fill="#ae9774" stroke="none" stroke-width="1" opacity="0.9"/>
<rect x="800.000" y="745.047" width="8.201" height="65.604" fill="#ae9774" stroke="none" stroke-width="1" opacity="0.9"/>
<rect x="800.000" y="909.058" width="8.201" height="32.802" fill="#ae9774" stroke="none" stroke-width="1" opacity="0.9"/>
<rect x="570.384" y="351.421" width="8.201" height="98.407" fill="#ae9774" stroke="none" stroke-width="1" opacity="0.9"/>
<rect x="1324.836" y="384.223" width="8.201" height="229.616" fill="#ae9774" stroke="none" stroke-width="1" opacity="0.9"/>
<rect x="1324.836" y="777.850" width="8.201" height="131.209" fill="#ae9774" stroke="none" stroke-width="1" opacity="0.9"/>
<rect x="668.791" y="974.663" width="8.201" height="32.802" fill="#ae9774" stroke="none" stroke-width="1" opacity="0.9"/>
<rect x="1062.418" y="187.409" width="8.201" height="328.022" fill="#ae9774" stroke="none" stroke-width="1" opacity="0.9"/>
<rect x="1062.418" y="613.838" width="8.201" height="32.802" fill="#ae9774" stroke="none" stroke-width="1" opacity="0.9"/>
<rect x="865.604" y="56.201" width="8.201" height="32.802" fill="#ae9774" stroke="none" stroke-width="1" opacity="0.9"/>
<rect x="865.604" y="449.827" width="8.201" height="32.802" fill="#ae9774" stroke="none" stroke-width="1" opacity="0.9"/>
<rect x="865.604" y="613.838" width="8.201" height="32.802" fill="#ae9774" stroke="none" stroke-width="1" opacity="0.9"/>
<rect x="1292.033" y="351.421" width="8.201" height="32.802" fill="#ae9774" stroke="none" stroke-width="1" opacity="0.9"/>
<rect x="1292.033" y="613.838" width="8.201" height="164.011" fill="#ae9774" stroke="none" stroke-width="1" opacity="0.9"/>
<rect x="1292.033" y="909.058" width="8.201" height="196.813" fill="#ae9774" stroke="none" stroke-width="1" opacity="0.9"/>
<rect x="406.373" y="1073.070" width="8.201" height="32.802" fill="#ae9774" stroke="none" stroke-width="1" opacity="0.9"/>
<rect x="898.407" y="810.652" width="8.201" height="32.802" fill="#ae9774" stroke="none" stroke-width="1" opacity="0.9"/>
<rect x="1104.637" y="397.843" width="22.505" height="22.505" fill="#8d6039" stroke="none" stroke-width="1" opacity="0.9"/>
<rect x="1117.122" y="406.075" width="9.797" height="9.797" fill="#8d6039" stroke="none" stroke-width="1" opacity="0.9"/>
<rect x="1113.710" y="388.508" width="26.031" height="26.031" fill="#8d6039" stroke="none" stroke-width="1" opacity="0.9"/>
<rect x="1284.711" y="841.865" width="26.084" height="26.084" fill="#8d6039" stroke="none" stroke-width="1" opacity="0.9"/>
<rect x="727.267" y="310.144" width="22.800" height="22.800" fill="#8d6039" stroke="none" stroke-width="1" opacity="0.9"/>
<rect x="736.170" y="325.660" width="12.261" height="12.261" fill="#8d6039" stroke="none" stroke-width="1" opacity="0.9"/>
<rect x="729.273" y="308.154" width="21.303" height="21.303" fill="#8d6039" stroke="none" stroke-width="1" opacity="0.9"/>
<rect x="727.378" y="244.676" width="21.247" height="21.247" fill="#8d6039" stroke="none" stroke-width="1" opacity="0.9"/>
<rect x="739.779" y="254.665" width="10.984" height="10.984" fill="#8d6039" stroke="none" stroke-width="1" opacity="0.9"/>
<rect x="731.635" y="236.076" width="25.439" height="25.439" fill="#8d6039" stroke="none" stroke-width="1" opacity="0.9"/>
<rect x="436.383" y="246.796" width="9.511" height="9.511" fill="#8d6039" stroke="none" stroke-width="1" opacity="0.9"/>
<rect x="909.958" y="269.595" width="11.814" height="11.814" fill="#8d6039" stroke="none" stroke-width="1" opacity="0.9"/>
<rect x="1032.178" y="1014.641" width="18.451" height="18.451" fill="#8d6039" stroke="none" stroke-width="1" opacity="0.9"/>
<rect x="1015.265" y="1014.641" width="18.451" height="18.451" fill="#8d6039" stroke="none" stroke-width="1" opacity="0.9"/>
<rect x="899.154" y="295.143" width="23.453" height="23.453" fill="#8d6039" stroke="none" stroke-width="1" opacity="0.9"/>
<rect x="905.267" y="278.853" width="11.227" height="15.031" fill="#8d6039" stroke="none" stroke-width="1" opacity="0.9"/>
<rect x="733.370" y="268.390" width="18.451" height="18.451" fill="#8d6039" stroke="none" stroke-width="1" opacity="0.9"/>
<rect x="733.370" y="284.791" width="18.451" height="18.451" fill="#8d6039" stroke="none" stroke-width="1" opacity="0.9"/>
<rect x="733.370" y="280.691" width="18.451" height="18.451" fill="#8d6039" stroke="none" stroke-width="1" opacity="0.9"/>
<rect x="827.677" y="826.028" width="18.451" height="18.451" fill="#8d6039" stroke="none" stroke-width="1" opacity="0.9"/>
<rect x="811.276" y="887.532" width="18.451" height="18.451" fill="#8d6039" stroke="none" stroke-width="1" opacity="0.9"/>
<rect x="860.758" y="896.011" width="26.094" height="26.094" fill="#8d6039" stroke="none" stroke-width="1" opacity="0.9"/>
<rect x="1032.691" y="912.134" width="18.451" height="18.451" fill="#8d6039" stroke="none" stroke-width="1" opacity="0.9"/>
<rect x="1122.897" y="940.836" width="18.451" height="18.451" fill="#8d6039" stroke="none" stroke-width="1" opacity="0.9"/>
<rect x="1122.874" y="957.213" width="22.598" height="22.598" fill="#8d6039" stroke="none" stroke-width="1" opacity="0.9"/>
<rect x="1096.245" y="616.914" width="14.351" height="10.251" fill="#8d6039" stroke="none" stroke-width="1" opacity="0.9"/>
<rect x="1069.593" y="604.613" width="18.451" height="18.451" fill="#8d6039" stroke="none" stroke-width="1" opacity="0.9"/>
<rect x="1040.891" y="473.404" width="18.451" height="18.451" fill="#8d6039" stroke="none" stroke-width="1" opacity="0.9"/>
<rect x="413.803" y="243.420" width="14.868" height="10.988" fill="#8d6039" stroke="none" stroke-width="1" opacity="0.9"/>
<rect x="483.253" y="288.891" width="18.451" height="18.451" fill="#8d6039" stroke="none" stroke-width="1" opacity="0.9"/>
<rect x="481.682" y="313.972" width="19.543" height="19.543" fill="#8d6039" stroke="none" stroke-width="1" opacity="0.9"/>
<rect x="538.607" y="633.315" width="14.351" height="10.251" fill="#8d6039" stroke="none" stroke-width="1" opacity="0.9"/>
<rect x="519.131" y="632.802" width="14.351" height="10.251" fill="#8d6039" stroke="none" stroke-width="1" opacity="0.9"/>
<rect x="393.047" y="920.334" width="18.451" height="18.451" fill="#8d6039" stroke="none" stroke-width="1" opacity="0.9"/>
<rect x="360.245" y="1100.747" width="18.451" height="18.451" fill="#8d6039" stroke="none" stroke-width="1" opacity="0.9"/>
<rect x="356.145" y="1129.448" width="18.451" height="18.451" fill="#8d6039" stroke="none" stroke-width="1" opacity="0.9"/>
<rect x="327.443" y="1133.549" width="18.451" height="18.451" fill="#8d6039" stroke="none" stroke-width="1" opacity="0.9"/>
<rect x="331.543" y="1045.393" width="14.351" height="10.251" fill="#8d6039" stroke="none" stroke-width="1" opacity="0.9"/>
<rect x="323.343" y="1113.047" width="18.451" height="18.451" fill="#8d6039" stroke="none" stroke-width="1" opacity="0.9"/>
<rect x="438.150" y="961.337" width="18.451" height="18.451" fill="#8d6039" stroke="none" stroke-width="1" opacity="0.9"/>
<rect x="451.053" y="1017.330" width="17.248" height="15.123" fill="#8d6039" stroke="none" stroke-width="1" opacity="0.9"/>
<rect x="1307.409" y="563.610" width="18.451" height="18.451" fill="#8d6039" stroke="none" stroke-width="1" opacity="0.9"/>
<rect x="388.947" y="776.825" width="18.451" height="18.451" fill="#8d6039" stroke="none" stroke-width="1" opacity="0.9"/>
<rect x="574.485" y="846.529" width="18.451" height="18.451" fill="#8d6039" stroke="none" stroke-width="1" opacity="0.9"/>
<rect x="637.382" y="937.704" width="13.615" height="16.515" fill="#8d6039" stroke="none" stroke-width="1" opacity="0.9"/>
<rect x="637.014" y="959.287" width="14.351" height="10.251" fill="#8d6039" stroke="none" stroke-width="1" opacity="0.9"/>
<rect x="615.487" y="953.136" width="14.351" height="10.251" fill="#8d6039" stroke="none" stroke-width="1" opacity="0.9"/>
<rect x="973.237" y="666.117" width="18.451" height="18.451" fill="#8d6039" stroke="none" stroke-width="1" opacity="0.9"/>
<rect x="642.926" y="655.628" width="18.928" height="18.928" fill="#8d6039" stroke="none" stroke-width="1" opacity="0.9"/>
<rect x="556.927" y="695.658" width="14.614" height="10.623" fill="#8d6039" stroke="none" stroke-width="1" opacity="0.9"/>
<rect x="577.749" y="693.223" width="11.923" height="15.493" fill="#8d6039" stroke="none" stroke-width="1" opacity="0.9"/>
<rect x="778.474" y="674.318" width="18.451" height="18.451" fill="#8d6039" stroke="none" stroke-width="1" opacity="0.9"/>
<rect x="330.394" y="948.948" width="10.500" height="14.528" fill="#8d6039" stroke="none" stroke-width="1" opacity="0.9"/>
<rect x="413.460" y="265.190" width="14.528" height="10.500" fill="#8d6039" stroke="none" stroke-width="1" opacity="0.9"/>
<rect x="435.152" y="261.596" width="12.148" height="15.638" fill="#8d6039" stroke="none" stroke-width="1" opacity="0.9"/>
<rect x="1140.323" y="917.259" width="45.103" height="73.805" fill="none" stroke="#e04b3f" stroke-width="2" opacity="1.0"/>
<text x="1144.323" y="931.259" fill="#e04b3f" font-family="monospace" font-size="13">A</text>
<rect x="422.774" y="958.262" width="98.407" height="94.306" fill="none" stroke="#e04b3f" stroke-width="2" opacity="1.0"/>
<text x="426.774" y="972.262" fill="#e04b3f" font-family="monospace" font-size="13">B</text>
<circle cx="652.390" cy="123.855" r="5" fill="#f28c28" stroke="#111" stroke-width="1"/>
<circle cx="652.390" cy="99.253" r="5" fill="#f28c28" stroke="#111" stroke-width="1"/>
<circle cx="676.992" cy="82.852" r="5" fill="#f28c28" stroke="#111" stroke-width="1"/>
<circle cx="676.992" cy="107.454" r="5" fill="#f28c28" stroke="#111" stroke-width="1"/>
<circle cx="627.788" cy="119.755" r="5" fill="#f28c28" stroke="#111" stroke-width="1"/>
<circle cx="627.788" cy="95.153" r="5" fill="#f28c28" stroke="#111" stroke-width="1"/>
<circle cx="603.187" cy="117.705" r="5" fill="#f28c28" stroke="#111" stroke-width="1"/>
<circle cx="603.187" cy="142.306" r="5" fill="#f28c28" stroke="#111" stroke-width="1"/>
<circle cx="699.543" cy="82.852" r="5" fill="#f28c28" stroke="#111" stroke-width="1"/>
<circle cx="699.543" cy="107.454" r="5" fill="#f28c28" stroke="#111" stroke-width="1"/>
<circle cx="724.145" cy="82.852" r="5" fill="#f28c28" stroke="#111" stroke-width="1"/>
<circle cx="724.145" cy="107.454" r="5" fill="#f28c28" stroke="#111" stroke-width="1"/>
<circle cx="724.145" cy="130.006" r="5" fill="#f28c28" stroke="#111" stroke-width="1"/>
<circle cx="699.543" cy="130.006" r="5" fill="#f28c28" stroke="#111" stroke-width="1"/>
<circle cx="676.992" cy="130.006" r="5" fill="#f28c28" stroke="#111" stroke-width="1"/>
<circle cx="746.696" cy="146.407" r="5" fill="#f28c28" stroke="#111" stroke-width="1"/>
<circle cx="746.696" cy="123.855" r="5" fill="#f28c28" stroke="#111" stroke-width="1"/>
<circle cx="746.696" cy="99.253" r="5" fill="#f28c28" stroke="#111" stroke-width="1"/>
<circle cx="746.696" cy="74.652" r="5" fill="#f28c28" stroke="#111" stroke-width="1"/>
<circle cx="599.086" cy="84.903" r="5" fill="#f28c28" stroke="#111" stroke-width="1"/>
<circle cx="980.412" cy="950.061" r="5" fill="#3d8bff" stroke="#111" stroke-width="1"/>
<circle cx="955.811" cy="950.061" r="5" fill="#3d8bff" stroke="#111" stroke-width="1"/>
<circle cx="931.209" cy="950.061" r="5" fill="#3d8bff" stroke="#111" stroke-width="1"/>
<circle cx="906.607" cy="950.061" r="5" fill="#3d8bff" stroke="#111" stroke-width="1"/>
<circle cx="906.607" cy="929.560" r="5" fill="#3d8bff" stroke="#111" stroke-width="1"/>
<circle cx="931.209" cy="929.560" r="5" fill="#3d8bff" stroke="#111" stroke-width="1"/>
<circle cx="955.811" cy="929.560" r="5" fill="#3d8bff" stroke="#111" stroke-width="1"/>
<circle cx="980.412" cy="929.560" r="5" fill="#3d8bff" stroke="#111" stroke-width="1"/>
<circle cx="980.412" cy="909.058" r="5" fill="#3d8bff" stroke="#111" stroke-width="1"/>
<circle cx="955.811" cy="909.058" r="5" fill="#3d8bff" stroke="#111" stroke-width="1"/>
<circle cx="931.209" cy="909.058" r="5" fill="#3d8bff" stroke="#111" stroke-width="1"/>
<circle cx="906.607" cy="909.058" r="5" fill="#3d8bff" stroke="#111" stroke-width="1"/>
<circle cx="906.607" cy="868.056" r="5" fill="#3d8bff" stroke="#111" stroke-width="1"/>
<circle cx="931.209" cy="868.056" r="5" fill="#3d8bff" stroke="#111" stroke-width="1"/>
<circle cx="955.811" cy="868.056" r="5" fill="#3d8bff" stroke="#111" stroke-width="1"/>
<circle cx="980.412" cy="868.056" r="5" fill="#3d8bff" stroke="#111" stroke-width="1"/>
<circle cx="906.607" cy="888.557" r="5" fill="#3d8bff" stroke="#111" stroke-width="1"/>
<circle cx="931.209" cy="888.557" r="5" fill="#3d8bff" stroke="#111" stroke-width="1"/>
<circle cx="955.811" cy="888.557" r="5" fill="#3d8bff" stroke="#111" stroke-width="1"/>
<circle cx="980.412" cy="888.557" r="5" fill="#3d8bff" stroke="#111" stroke-width="1"/>
<circle cx="652.390" cy="123.855" r="8" fill="none" stroke="#111111" stroke-width="2"/>
<g font-family="monospace" font-size="13">
<rect x="16" y="13" width="12" height="12" fill="#8ba0b4"/>
<text x="34" y="24" fill="#eef3f8">floor</text>
<rect x="16" y="33" width="12" height="12" fill="#0d6b54"/>
<text x="34" y="44" fill="#eef3f8">wall</text>
<rect x="16" y="53" width="12" height="12" fill="#2f8f4e"/>
<text x="34" y="64" fill="#eef3f8">crate</text>
<rect x="16" y="73" width="12" height="12" fill="#41a064"/>
<text x="34" y="84" fill="#eef3f8">pillar</text>
<rect x="16" y="93" width="12" height="12" fill="#f28c28"/>
<text x="34" y="104" fill="#eef3f8">T</text>
<rect x="16" y="113" width="12" height="12" fill="#3d8bff"/>
<text x="34" y="124" fill="#eef3f8">CT</text>
</g>
</svg>
