<svg xmlns="http://www.w3.org/2000/svg" width="1600" height="1200" viewBox="0 0 1600 1200">
<rect width="100%" height="100%" fill="#10243a"/>
<rect x="397.365" y="54.494" width="467.576" height="77.929" fill="#a29175" stroke="none" stroke-width="1" opacity="0.72"/>
<rect x="1098.729" y="54.494" width="103.906" height="25.976" fill="#a29175" stroke="none" stroke-width="1" opacity="0.72"/>
<rect x="864.941" y="80.471" width="311.718" height="103.906" fill="#a29175" stroke="none" stroke-width="1" opacity="0.72"/>
<rect x="1176.659" y="106.447" width="25.976" height="103.906" fill="#a29175" stroke="none" stroke-width="1" opacity="0.72"/>
<rect x="423.341" y="132.424" width="259.765" height="103.906" fill="#a29175" stroke="none" stroke-width="1" opacity="0.72"/>
<rect x="761.035" y="132.424" width="103.906" height="51.953" fill="#a29175" stroke="none" stroke-width="1" opacity="0.72"/>
<rect x="761.035" y="184.376" width="25.976" height="961.129" fill="#a29175" stroke="none" stroke-width="1" opacity="0.72"/>
<rect x="890.918" y="184.376" width="129.882" height="155.859" fill="#a29175" stroke="none" stroke-width="1" opacity="0.72"/>
<rect x="1046.776" y="184.376" width="129.882" height="51.953" fill="#a29175" stroke="none" stroke-width="1" opacity="0.72"/>
<rect x="449.318" y="236.329" width="155.859" height="181.835" fill="#a29175" stroke="none" stroke-width="1" opacity="0.72"/>
<rect x="1124.706" y="236.329" width="51.953" height="675.388" fill="#a29175" stroke="none" stroke-width="1" opacity="0.72"/>
<rect x="1098.729" y="262.306" width="25.976" height="623.435" fill="#a29175" stroke="none" stroke-width="1" opacity="0.72"/>
<rect x="605.176" y="288.282" width="25.976" height="77.929" fill="#a29175" stroke="none" stroke-width="1" opacity="0.72"/>
<rect x="709.082" y="288.282" width="51.953" height="103.906" fill="#a29175" stroke="none" stroke-width="1" opacity="0.72"/>
<rect x="787.012" y="288.282" width="25.976" height="831.247" fill="#a29175" stroke="none" stroke-width="1" opacity="0.72"/>
<rect x="864.941" y="288.282" width="25.976" height="77.929" fill="#a29175" stroke="none" stroke-width="1" opacity="0.72"/>
<rect x="1072.753" y="288.282" width="25.976" height="597.459" fill="#a29175" stroke="none" stroke-width="1" opacity="0.72"/>
<rect x="1176.659" y="288.282" width="51.953" height="207.812" fill="#a29175" stroke="none" stroke-width="1" opacity="0.72"/>
<rect x="423.341" y="314.259" width="25.976" height="77.929" fill="#a29175" stroke="none" stroke-width="1" opacity="0.72"/>
<rect x="812.988" y="314.259" width="51.953" height="77.929" fill="#a29175" stroke="none" stroke-width="1" opacity="0.72"/>
<rect x="1046.776" y="314.259" width="25.976" height="519.529" fill="#a29175" stroke="none" stroke-width="1" opacity="0.72"/>
<rect x="890.918" y="340.235" width="51.953" height="25.976" fill="#a29175" stroke="none" stroke-width="1" opacity="0.72"/>
<rect x="968.847" y="340.235" width="51.953" height="181.835" fill="#a29175" stroke="none" stroke-width="1" opacity="0.72"/>
<rect x="735.059" y="392.188" width="25.976" height="103.906" fill="#a29175" stroke="none" stroke-width="1" opacity="0.72"/>
<rect x="812.988" y="392.188" width="25.976" height="207.812" fill="#a29175" stroke="none" stroke-width="1" opacity="0.72"/>
<rect x="501.271" y="418.165" width="51.953" height="129.882" fill="#a29175" stroke="none" stroke-width="1" opacity="0.72"/>
<rect x="1020.800" y="418.165" width="25.976" height="77.929" fill="#a29175" stroke="none" stroke-width="1" opacity="0.72"/>
<rect x="475.294" y="444.141" width="25.976" height="103.906" fill="#a29175" stroke="none" stroke-width="1" opacity="0.72"/>
<rect x="345.412" y="470.118" width="129.882" height="51.953" fill="#a29175" stroke="none" stroke-width="1" opacity="0.72"/>
<rect x="553.224" y="470.118" width="103.906" height="51.953" fill="#a29175" stroke="none" stroke-width="1" opacity="0.72"/>
<rect x="838.965" y="496.094" width="25.976" height="103.906" fill="#a29175" stroke="none" stroke-width="1" opacity="0.72"/>
<rect x="1176.659" y="496.094" width="25.976" height="389.647" fill="#a29175" stroke="none" stroke-width="1" opacity="0.72"/>
<rect x="345.412" y="522.071" width="77.929" height="571.482" fill="#a29175" stroke="none" stroke-width="1" opacity="0.72"/>
<rect x="449.318" y="522.071" width="25.976" height="597.459" fill="#a29175" stroke="none" stroke-width="1" opacity="0.72"/>
<rect x="605.176" y="522.071" width="155.859" height="51.953" fill="#a29175" stroke="none" stroke-width="1" opacity="0.72"/>
<rect x="864.941" y="522.071" width="103.906" height="77.929" fill="#a29175" stroke="none" stroke-width="1" opacity="0.72"/>
<rect x="1202.635" y="548.047" width="25.976" height="181.835" fill="#a29175" stroke="none" stroke-width="1" opacity="0.72"/>
<rect x="501.271" y="574.024" width="51.953" height="285.741" fill="#a29175" stroke="none" stroke-width="1" opacity="0.72"/>
<rect x="994.824" y="574.024" width="51.953" height="259.765" fill="#a29175" stroke="none" stroke-width="1" opacity="0.72"/>
<rect x="1228.612" y="574.024" width="25.976" height="51.953" fill="#a29175" stroke="none" stroke-width="1" opacity="0.72"/>
<rect x="553.224" y="600.000" width="25.976" height="259.765" fill="#a29175" stroke="none" stroke-width="1" opacity="0.72"/>
<rect x="735.059" y="600.000" width="25.976" height="545.506" fill="#a29175" stroke="none" stroke-width="1" opacity="0.72"/>
<rect x="916.894" y="600.000" width="77.929" height="259.765" fill="#a29175" stroke="none" stroke-width="1" opacity="0.72"/>
<rect x="423.341" y="625.976" width="25.976" height="493.553" fill="#a29175" stroke="none" stroke-width="1" opacity="0.72"/>
<rect x="475.294" y="625.976" width="25.976" height="311.718" fill="#a29175" stroke="none" stroke-width="1" opacity="0.72"/>
<rect x="579.200" y="625.976" width="25.976" height="207.812" fill="#a29175" stroke="none" stroke-width="1" opacity="0.72"/>
<rect x="812.988" y="651.953" width="77.929" height="77.929" fill="#a29175" stroke="none" stroke-width="1" opacity="0.72"/>
<rect x="605.176" y="677.929" width="129.882" height="155.859" fill="#a29175" stroke="none" stroke-width="1" opacity="0.72"/>
<rect x="890.918" y="677.929" width="25.976" height="103.906" fill="#a29175" stroke="none" stroke-width="1" opacity="0.72"/>
<rect x="838.965" y="729.882" width="51.953" height="25.976" fill="#a29175" stroke="none" stroke-width="1" opacity="0.72"/>
<rect x="864.941" y="755.859" width="25.976" height="25.976" fill="#a29175" stroke="none" stroke-width="1" opacity="0.72"/>
<rect x="657.129" y="833.788" width="77.929" height="311.718" fill="#a29175" stroke="none" stroke-width="1" opacity="0.72"/>
<rect x="812.988" y="833.788" width="103.906" height="77.929" fill="#a29175" stroke="none" stroke-width="1" opacity="0.72"/>
<rect x="916.894" y="859.765" width="51.953" height="51.953" fill="#a29175" stroke="none" stroke-width="1" opacity="0.72"/>
<rect x="631.153" y="885.741" width="25.976" height="259.765" fill="#a29175" stroke="none" stroke-width="1" opacity="0.72"/>
<rect x="812.988" y="911.718" width="25.976" height="129.882" fill="#a29175" stroke="none" stroke-width="1" opacity="0.72"/>
<rect x="475.294" y="1015.624" width="155.859" height="77.929" fill="#a29175" stroke="none" stroke-width="1" opacity="0.72"/>
<rect x="812.988" y="1067.576" width="25.976" height="51.953" fill="#a29175" stroke="none" stroke-width="1" opacity="0.72"/>
<rect x="501.271" y="1093.553" width="129.882" height="25.976" fill="#a29175" stroke="none" stroke-width="1" opacity="0.72"/>
<rect x="553.224" y="593.506" width="25.976" height="6.494" fill="#a99170" stroke="none" stroke-width="1" opacity="0.9"/>
<rect x="735.059" y="593.506" width="25.976" height="6.494" fill="#a99170" stroke="none" stroke-width="1" opacity="0.9"/>
<rect x="968.847" y="593.506" width="25.976" height="6.494" fill="#a99170" stroke="none" stroke-width="1" opacity="0.9"/>
<rect x="397.365" y="48.000" width="467.576" height="6.494" fill="#a99170" stroke="none" stroke-width="1" opacity="0.9"/>
<rect x="1098.729" y="48.000" width="103.906" height="6.494" fill="#a99170" stroke="none" stroke-width="1" opacity="0.9"/>
<rect x="657.129" y="515.576" width="103.906" height="6.494" fill="#a99170" stroke="none" stroke-width="1" opacity="0.9"/>
<rect x="864.941" y="515.576" width="103.906" height="6.494" fill="#a99170" stroke="none" stroke-width="1" opacity="0.9"/>
<rect x="345.412" y="463.624" width="129.882" height="6.494" fill="#a99170" stroke="none" stroke-width="1" opacity="0.9"/>
<rect x="553.224" y="463.624" width="103.906" height="6.494" fill="#a99170" stroke="none" stroke-width="1" opacity="0.9"/>
<rect x="864.941" y="73.976" width="233.788" height="6.494" fill="#a99170" stroke="none" stroke-width="1" opacity="0.9"/>
<rect x="605.176" y="281.788" width="25.976" height="6.494" fill="#a99170" stroke="none" stroke-width="1" opacity="0.9"/>
<rect x="709.082" y="281.788" width="51.953" height="6.494" fill="#a99170" stroke="none" stroke-width="1" opacity="0.9"/>
<rect x="787.012" y="281.788" width="25.976" height="6.494" fill="#a99170" stroke="none" stroke-width="1" opacity="0.9"/>
<rect x="864.941" y="281.788" width="25.976" height="6.494" fill="#a99170" stroke="none" stroke-width="1" opacity="0.9"/>
<rect x="1072.753" y="281.788" width="25.976" height="6.494" fill="#a99170" stroke="none" stroke-width="1" opacity="0.9"/>
<rect x="1176.659" y="281.788" width="51.953" height="6.494" fill="#a99170" stroke="none" stroke-width="1" opacity="0.9"/>
<rect x="423.341" y="307.765" width="25.976" height="6.494" fill="#a99170" stroke="none" stroke-width="1" opacity="0.9"/>
<rect x="812.988" y="307.765" width="51.953" height="6.494" fill="#a99170" stroke="none" stroke-width="1" opacity="0.9"/>
<rect x="1046.776" y="307.765" width="25.976" height="6.494" fill="#a99170" stroke="none" stroke-width="1" opacity="0.9"/>
<rect x="475.294" y="1009.129" width="155.859" height="6.494" fill="#a99170" stroke="none" stroke-width="1" opacity="0.9"/>
<rect x="812.988" y="645.459" width="77.929" height="6.494" fill="#a99170" stroke="none" stroke-width="1" opacity="0.9"/>
<rect x="605.176" y="671.435" width="129.882" height="6.494" fill="#a99170" stroke="none" stroke-width="1" opacity="0.9"/>
<rect x="890.918" y="671.435" width="25.976" height="6.494" fill="#a99170" stroke="none" stroke-width="1" opacity="0.9"/>
<rect x="501.271" y="567.529" width="51.953" height="6.494" fill="#a99170" stroke="none" stroke-width="1" opacity="0.9"/>
<rect x="994.824" y="567.529" width="51.953" height="6.494" fill="#a99170" stroke="none" stroke-width="1" opacity="0.9"/>
<rect x="1228.612" y="567.529" width="25.976" height="6.494" fill="#a99170" stroke="none" stroke-width="1" opacity="0.9"/>
<rect x="838.965" y="489.600" width="25.976" height="6.494" fill="#a99170" stroke="none" stroke-width="1" opacity="0.9"/>
<rect x="1098.729" y="255.812" width="25.976" height="6.494" fill="#a99170" stroke="none" stroke-width="1" opacity="0.9"/>
<rect x="1202.635" y="541.553" width="25.976" height="6.494" fill="#a99170" stroke="none" stroke-width="1" opacity="0.9"/>
<rect x="812.988" y="827.294" width="103.906" height="6.494" fill="#a99170" stroke="none" stroke-width="1" opacity="0.9"/>
<rect x="423.341" y="619.482" width="25.976" height="6.494" fill="#a99170" stroke="none" stroke-width="1" opacity="0.9"/>
<rect x="475.294" y="619.482" width="25.976" height="6.494" fill="#a99170" stroke="none" stroke-width="1" opacity="0.9"/>
<rect x="579.200" y="619.482" width="25.976" height="6.494" fill="#a99170" stroke="none" stroke-width="1" opacity="0.9"/>
<rect x="631.153" y="879.247" width="25.976" height="6.494" fill="#a99170" stroke="none" stroke-width="1" opacity="0.9"/>
<rect x="812.988" y="1061.082" width="25.976" height="6.494" fill="#a99170" stroke="none" stroke-width="1" opacity="0.9"/>
<rect x="1020.800" y="411.671" width="25.976" height="6.494" fill="#a99170" stroke="none" stroke-width="1" opacity="0.9"/>
<rect x="1176.659" y="99.953" width="25.976" height="6.494" fill="#a99170" stroke="none" stroke-width="1" opacity="0.9"/>
<rect x="475.294" y="437.647" width="25.976" height="6.494" fill="#a99170" stroke="none" stroke-width="1" opacity="0.9"/>
<rect x="501.271" y="859.765" width="77.929" height="6.494" fill="#a99170" stroke="none" stroke-width="1" opacity="0.9"/>
<rect x="968.847" y="859.765" width="25.976" height="6.494" fill="#a99170" stroke="none" stroke-width="1" opacity="0.9"/>
<rect x="787.012" y="184.376" width="103.906" height="6.494" fill="#a99170" stroke="none" stroke-width="1" opacity="0.9"/>
<rect x="1020.800" y="184.376" width="25.976" height="6.494" fill="#a99170" stroke="none" stroke-width="1" opacity="0.9"/>
<rect x="1176.659" y="210.353" width="25.976" height="6.494" fill="#a99170" stroke="none" stroke-width="1" opacity="0.9"/>
<rect x="605.176" y="574.024" width="155.859" height="6.494" fill="#a99170" stroke="none" stroke-width="1" opacity="0.9"/>
<rect x="838.965" y="911.718" width="129.882" height="6.494" fill="#a99170" stroke="none" stroke-width="1" opacity="0.9"/>
<rect x="1124.706" y="911.718" width="51.953" height="6.494" fill="#a99170" stroke="none" stroke-width="1" opacity="0.9"/>
<rect x="579.200" y="833.788" width="77.929" height="6.494" fill="#a99170" stroke="none" stroke-width="1" opacity="0.9"/>
<rect x="994.824" y="833.788" width="77.929" height="6.494" fill="#a99170" stroke="none" stroke-width="1" opacity="0.9"/>
<rect x="1176.659" y="80.471" width="25.976" height="6.494" fill="#a99170" stroke="none" stroke-width="1" opacity="0.9"/>
<rect x="423.341" y="1119.529" width="51.953" height="6.494" fill="#a99170" stroke="none" stroke-width="1" opacity="0.9"/>
<rect x="501.271" y="1119.529" width="129.882" height="6.494" fill="#a99170" stroke="none" stroke-width="1" opacity="0.9"/>
<rect x="787.012" y="1119.529" width="51.953" height="6.494" fill="#a99170" stroke="none" stroke-width="1" opacity="0.9"/>
<rect x="631.153" y="1145.506" width="155.859" height="6.494" fill="#a99170" stroke="none" stroke-width="1" opacity="0.9"/>
<rect x="423.341" y="236.329" width="25.976" height="6.494" fill="#a99170" stroke="none" stroke-width="1" opacity="0.9"/>
<rect x="605.176" y="236.329" width="77.929" height="6.494" fill="#a99170" stroke="none" stroke-width="1" opacity="0.9"/>
<rect x="1046.776" y="236.329" width="77.929" height="6.494" fill="#a99170" stroke="none" stroke-width="1" opacity="0.9"/>
<rect x="449.318" y="418.165" width="51.953" height="6.494" fill="#a99170" stroke="none" stroke-width="1" opacity="0.9"/>
<rect x="553.224" y="418.165" width="51.953" height="6.494" fill="#a99170" stroke="none" stroke-width="1" opacity="0.9"/>
<rect x="812.988" y="1041.600" width="25.976" height="6.494" fill="#a99170" stroke="none" stroke-width="1" opacity="0.9"/>
<rect x="423.341" y="392.188" width="25.976" height="6.494" fill="#a99170" stroke="none" stroke-width="1" opacity="0.9"/>
<rect x="709.082" y="392.188" width="25.976" height="6.494" fill="#a99170" stroke="none" stroke-width="1" opacity="0.9"/>
<rect x="838.965" y="392.188" width="25.976" height="6.494" fill="#a99170" stroke="none" stroke-width="1" opacity="0.9"/>
<rect x="605.176" y="366.212" width="25.976" height="6.494" fill="#a99170" stroke="none" stroke-width="1" opacity="0.9"/>
<rect x="864.941" y="366.212" width="77.929" height="6.494" fill="#a99170" stroke="none" stroke-width="1" opacity="0.9"/>
<rect x="475.294" y="548.047" width="77.929" height="6.494" fill="#a99170" stroke="none" stroke-width="1" opacity="0.9"/>
<rect x="735.059" y="496.094" width="25.976" height="6.494" fill="#a99170" stroke="none" stroke-width="1" opacity="0.9"/>
<rect x="1020.800" y="496.094" width="25.976" height="6.494" fill="#a99170" stroke="none" stroke-width="1" opacity="0.9"/>
<rect x="1202.635" y="496.094" width="25.976" height="6.494" fill="#a99170" stroke="none" stroke-width="1" opacity="0.9"/>
<rect x="812.988" y="729.882" width="25.976" height="6.494" fill="#a99170" stroke="none" stroke-width="1" opacity="0.9"/>
<rect x="1202.635" y="729.882" width="25.976" height="6.494" fill="#a99170" stroke="none" stroke-width="1" opacity="0.9"/>
<rect x="397.365" y="132.424" width="25.976" height="6.494" fill="#a99170" stroke="none" stroke-width="1" opacity="0.9"/>
<rect x="683.106" y="132.424" width="77.929" height="6.494" fill="#a99170" stroke="none" stroke-width="1" opacity="0.9"/>
<rect x="475.294" y="937.694" width="25.976" height="6.494" fill="#a99170" stroke="none" stroke-width="1" opacity="0.9"/>
<rect x="838.965" y="755.859" width="25.976" height="6.494" fill="#a99170" stroke="none" stroke-width="1" opacity="0.9"/>
<rect x="864.941" y="781.835" width="51.953" height="6.494" fill="#a99170" stroke="none" stroke-width="1" opacity="0.9"/>
<rect x="345.412" y="1093.553" width="77.929" height="6.494" fill="#a99170" stroke="none" stroke-width="1" opacity="0.9"/>
<rect x="475.294" y="1093.553" width="25.976" height="6.494" fill="#a99170" stroke="none" stroke-width="1" opacity="0.9"/>
<rect x="1072.753" y="885.741" width="51.953" height="6.494" fill="#a99170" stroke="none" stroke-width="1" opacity="0.9"/>
<rect x="1176.659" y="885.741" width="25.976" height="6.494" fill="#a99170" stroke="none" stroke-width="1" opacity="0.9"/>
<rect x="812.988" y="600.000" width="103.906" height="6.494" fill="#a99170" stroke="none" stroke-width="1" opacity="0.9"/>
<rect x="423.341" y="522.071" width="25.976" height="6.494" fill="#a99170" stroke="none" stroke-width="1" opacity="0.9"/>
<rect x="553.224" y="522.071" width="51.953" height="6.494" fill="#a99170" stroke="none" stroke-width="1" opacity="0.9"/>
<rect x="968.847" y="522.071" width="51.953" height="6.494" fill="#a99170" stroke="none" stroke-width="1" opacity="0.9"/>
<rect x="1228.612" y="625.976" width="25.976" height="6.494" fill="#a99170" stroke="none" stroke-width="1" opacity="0.9"/>
<rect x="942.871" y="340.235" width="25.976" height="6.494" fill="#a99170" stroke="none" stroke-width="1" opacity="0.9"/>
<rect x="338.918" y="470.118" width="6.494" height="623.435" fill="#a99170" stroke="none" stroke-width="1" opacity="0.9"/>
<rect x="390.871" y="54.494" width="6.494" height="77.929" fill="#a99170" stroke="none" stroke-width="1" opacity="0.9"/>
<rect x="442.824" y="236.329" width="6.494" height="77.929" fill="#a99170" stroke="none" stroke-width="1" opacity="0.9"/>
<rect x="442.824" y="392.188" width="6.494" height="25.976" fill="#a99170" stroke="none" stroke-width="1" opacity="0.9"/>
<rect x="442.824" y="522.071" width="6.494" height="103.906" fill="#a99170" stroke="none" stroke-width="1" opacity="0.9"/>
<rect x="1040.282" y="184.376" width="6.494" height="51.953" fill="#a99170" stroke="none" stroke-width="1" opacity="0.9"/>
<rect x="1040.282" y="314.259" width="6.494" height="103.906" fill="#a99170" stroke="none" stroke-width="1" opacity="0.9"/>
<rect x="1040.282" y="496.094" width="6.494" height="77.929" fill="#a99170" stroke="none" stroke-width="1" opacity="0.9"/>
<rect x="754.541" y="132.424" width="6.494" height="155.859" fill="#a99170" stroke="none" stroke-width="1" opacity="0.9"/>
<rect x="754.541" y="496.094" width="6.494" height="25.976" fill="#a99170" stroke="none" stroke-width="1" opacity="0.9"/>
<rect x="754.541" y="574.024" width="6.494" height="25.976" fill="#a99170" stroke="none" stroke-width="1" opacity="0.9"/>
<rect x="624.659" y="885.741" width="6.494" height="129.882" fill="#a99170" stroke="none" stroke-width="1" opacity="0.9"/>
<rect x="624.659" y="1119.529" width="6.494" height="25.976" fill="#a99170" stroke="none" stroke-width="1" opacity="0.9"/>
<rect x="416.847" y="132.424" width="6.494" height="103.906" fill="#a99170" stroke="none" stroke-width="1" opacity="0.9"/>
<rect x="416.847" y="314.259" width="6.494" height="77.929" fill="#a99170" stroke="none" stroke-width="1" opacity="0.9"/>
<rect x="416.847" y="1093.553" width="6.494" height="25.976" fill="#a99170" stroke="none" stroke-width="1" opacity="0.9"/>
<rect x="728.565" y="392.188" width="6.494" height="103.906" fill="#a99170" stroke="none" stroke-width="1" opacity="0.9"/>
<rect x="728.565" y="600.000" width="6.494" height="77.929" fill="#a99170" stroke="none" stroke-width="1" opacity="0.9"/>
<rect x="910.400" y="600.000" width="6.494" height="77.929" fill="#a99170" stroke="none" stroke-width="1" opacity="0.9"/>
<rect x="910.400" y="781.835" width="6.494" height="51.953" fill="#a99170" stroke="none" stroke-width="1" opacity="0.9"/>
<rect x="494.776" y="418.165" width="6.494" height="25.976" fill="#a99170" stroke="none" stroke-width="1" opacity="0.9"/>
<rect x="494.776" y="574.024" width="6.494" height="51.953" fill="#a99170" stroke="none" stroke-width="1" opacity="0.9"/>
<rect x="494.776" y="1093.553" width="6.494" height="25.976" fill="#a99170" stroke="none" stroke-width="1" opacity="0.9"/>
<rect x="598.682" y="522.071" width="6.494" height="51.953" fill="#a99170" stroke="none" stroke-width="1" opacity="0.9"/>
<rect x="1118.212" y="236.329" width="6.494" height="25.976" fill="#a99170" stroke="none" stroke-width="1" opacity="0.9"/>
<rect x="1118.212" y="885.741" width="6.494" height="25.976" fill="#a99170" stroke="none" stroke-width="1" opacity="0.9"/>
<rect x="1092.235" y="54.494" width="6.494" height="25.976" fill="#a99170" stroke="none" stroke-width="1" opacity="0.9"/>
<rect x="1092.235" y="262.306" width="6.494" height="25.976" fill="#a99170" stroke="none" stroke-width="1" opacity="0.9"/>
<rect x="702.588" y="288.282" width="6.494" height="103.906" fill="#a99170" stroke="none" stroke-width="1" opacity="0.9"/>
<rect x="988.329" y="574.024" width="6.494" height="25.976" fill="#a99170" stroke="none" stroke-width="1" opacity="0.9"/>
<rect x="832.471" y="729.882" width="6.494" height="25.976" fill="#a99170" stroke="none" stroke-width="1" opacity="0.9"/>
<rect x="1066.259" y="288.282" width="6.494" height="25.976" fill="#a99170" stroke="none" stroke-width="1" opacity="0.9"/>
<rect x="1066.259" y="833.788" width="6.494" height="51.953" fill="#a99170" stroke="none" stroke-width="1" opacity="0.9"/>
<rect x="650.635" y="833.788" width="6.494" height="51.953" fill="#a99170" stroke="none" stroke-width="1" opacity="0.9"/>
<rect x="962.353" y="340.235" width="6.494" height="181.835" fill="#a99170" stroke="none" stroke-width="1" opacity="0.9"/>
<rect x="884.424" y="184.376" width="6.494" height="103.906" fill="#a99170" stroke="none" stroke-width="1" opacity="0.9"/>
<rect x="468.800" y="444.141" width="6.494" height="25.976" fill="#a99170" stroke="none" stroke-width="1" opacity="0.9"/>
<rect x="858.447" y="288.282" width="6.494" height="25.976" fill="#a99170" stroke="none" stroke-width="1" opacity="0.9"/>
<rect x="858.447" y="755.859" width="6.494" height="25.976" fill="#a99170" stroke="none" stroke-width="1" opacity="0.9"/>
<rect x="579.200" y="600.000" width="6.494" height="25.976" fill="#a99170" stroke="none" stroke-width="1" opacity="0.9"/>
<rect x="579.200" y="833.788" width="6.494" height="25.976" fill="#a99170" stroke="none" stroke-width="1" opacity="0.9"/>
<rect x="1202.635" y="54.494" width="6.494" height="25.976" fill="#a99170" stroke="none" stroke-width="1" opacity="0.9"/>
<rect x="1202.635" y="106.447" width="6.494" height="103.906" fill="#a99170" stroke="none" stroke-width="1" opacity="0.9"/>
<rect x="1202.635" y="496.094" width="6.494" height="51.953" fill="#a99170" stroke="none" stroke-width="1" opacity="0.9"/>
<rect x="1202.635" y="729.882" width="6.494" height="155.859" fill="#a99170" stroke="none" stroke-width="1" opacity="0.9"/>
<rect x="605.176" y="236.329" width="6.494" height="51.953" fill="#a99170" stroke="none" stroke-width="1" opacity="0.9"/>
<rect x="605.176" y="366.212" width="6.494" height="51.953" fill="#a99170" stroke="none" stroke-width="1" opacity="0.9"/>
<rect x="605.176" y="625.976" width="6.494" height="51.953" fill="#a99170" stroke="none" stroke-width="1" opacity="0.9"/>
<rect x="968.847" y="522.071" width="6.494" height="77.929" fill="#a99170" stroke="none" stroke-width="1" opacity="0.9"/>
<rect x="968.847" y="859.765" width="6.494" height="51.953" fill="#a99170" stroke="none" stroke-width="1" opacity="0.9"/>
<rect x="475.294" y="548.047" width="6.494" height="77.929" fill="#a99170" stroke="none" stroke-width="1" opacity="0.9"/>
<rect x="475.294" y="937.694" width="6.494" height="77.929" fill="#a99170" stroke="none" stroke-width="1" opacity="0.9"/>
<rect x="475.294" y="1093.553" width="6.494" height="25.976" fill="#a99170" stroke="none" stroke-width="1" opacity="0.9"/>
<rect x="1176.659" y="80.471" width="6.494" height="25.976" fill="#a99170" stroke="none" stroke-width="1" opacity="0.9"/>
<rect x="1176.659" y="210.353" width="6.494" height="77.929" fill="#a99170" stroke="none" stroke-width="1" opacity="0.9"/>
<rect x="1176.659" y="885.741" width="6.494" height="25.976" fill="#a99170" stroke="none" stroke-width="1" opacity="0.9"/>
<rect x="683.106" y="132.424" width="6.494" height="103.906" fill="#a99170" stroke="none" stroke-width="1" opacity="0.9"/>
<rect x="787.012" y="184.376" width="6.494" height="103.906" fill="#a99170" stroke="none" stroke-width="1" opacity="0.9"/>
<rect x="787.012" y="1119.529" width="6.494" height="25.976" fill="#a99170" stroke="none" stroke-width="1" opacity="0.9"/>
<rect x="838.965" y="392.188" width="6.494" height="103.906" fill="#a99170" stroke="none" stroke-width="1" opacity="0.9"/>
<rect x="838.965" y="911.718" width="6.494" height="129.882" fill="#a99170" stroke="none" stroke-width="1" opacity="0.9"/>
<rect x="838.965" y="1067.576" width="6.494" height="51.953" fill="#a99170" stroke="none" stroke-width="1" opacity="0.9"/>
<rect x="657.129" y="470.118" width="6.494" height="51.953" fill="#a99170" stroke="none" stroke-width="1" opacity="0.9"/>
<rect x="553.224" y="418.165" width="6.494" height="51.953" fill="#a99170" stroke="none" stroke-width="1" opacity="0.9"/>
<rect x="553.224" y="522.071" width="6.494" height="25.976" fill="#a99170" stroke="none" stroke-width="1" opacity="0.9"/>
<rect x="553.224" y="574.024" width="6.494" height="25.976" fill="#a99170" stroke="none" stroke-width="1" opacity="0.9"/>
<rect x="942.871" y="340.235" width="6.494" height="25.976" fill="#a99170" stroke="none" stroke-width="1" opacity="0.9"/>
<rect x="812.988" y="288.282" width="6.494" height="25.976" fill="#a99170" stroke="none" stroke-width="1" opacity="0.9"/>
<rect x="812.988" y="600.000" width="6.494" height="51.953" fill="#a99170" stroke="none" stroke-width="1" opacity="0.9"/>
<rect x="812.988" y="729.882" width="6.494" height="103.906" fill="#a99170" stroke="none" stroke-width="1" opacity="0.9"/>
<rect x="812.988" y="1041.600" width="6.494" height="25.976" fill="#a99170" stroke="none" stroke-width="1" opacity="0.9"/>
<rect x="631.153" y="288.282" width="6.494" height="77.929" fill="#a99170" stroke="none" stroke-width="1" opacity="0.9"/>
<rect x="1228.612" y="288.282" width="6.494" height="207.812" fill="#a99170" stroke="none" stroke-width="1" opacity="0.9"/>
<rect x="1228.612" y="548.047" width="6.494" height="25.976" fill="#a99170" stroke="none" stroke-width="1" opacity="0.9"/>
<rect x="1228.612" y="625.976" width="6.494" height="103.906" fill="#a99170" stroke="none" stroke-width="1" opacity="0.9"/>
<rect x="501.271" y="859.765" width="6.494" height="77.929" fill="#a99170" stroke="none" stroke-width="1" opacity="0.9"/>
<rect x="1020.800" y="184.376" width="6.494" height="233.788" fill="#a99170" stroke="none" stroke-width="1" opacity="0.9"/>
<rect x="1020.800" y="496.094" width="6.494" height="25.976" fill="#a99170" stroke="none" stroke-width="1" opacity="0.9"/>
<rect x="864.941" y="54.494" width="6.494" height="25.976" fill="#a99170" stroke="none" stroke-width="1" opacity="0.9"/>
<rect x="864.941" y="366.212" width="6.494" height="25.976" fill="#a99170" stroke="none" stroke-width="1" opacity="0.9"/>
<rect x="864.941" y="496.094" width="6.494" height="25.976" fill="#a99170" stroke="none" stroke-width="1" opacity="0.9"/>
<rect x="423.341" y="522.071" width="6.494" height="103.906" fill="#a99170" stroke="none" stroke-width="1" opacity="0.9"/>
<rect x="1254.588" y="574.024" width="6.494" height="51.953" fill="#a99170" stroke="none" stroke-width="1" opacity="0.9"/>
<rect x="994.824" y="833.788" width="6.494" height="25.976" fill="#a99170" stroke="none" stroke-width="1" opacity="0.9"/>
<rect x="890.918" y="651.953" width="6.494" height="25.976" fill="#a99170" stroke="none" stroke-width="1" opacity="0.9"/>
<rect x="696.089" y="928.219" width="9.794" height="9.794" fill="#8d6039" stroke="none" stroke-width="1" opacity="0.9"/>
<rect x="623.587" y="933.004" width="9.328" height="9.328" fill="#8d6039" stroke="none" stroke-width="1" opacity="0.9"/>
<rect x="682.286" y="923.931" width="8.559" height="11.676" fill="#8d6039" stroke="none" stroke-width="1" opacity="0.9"/>
<rect x="683.015" y="927.617" width="13.956" height="13.030" fill="#8d6039" stroke="none" stroke-width="1" opacity="0.9"/>
<rect x="691.411" y="1006.930" width="12.584" height="13.868" fill="#8d6039" stroke="none" stroke-width="1" opacity="0.9"/>
<rect x="698.360" y="938.260" width="8.167" height="8.167" fill="#8d6039" stroke="none" stroke-width="1" opacity="0.9"/>
<rect x="1125.335" y="524.374" width="8.040" height="8.040" fill="#8d6039" stroke="none" stroke-width="1" opacity="0.9"/>
<rect x="1122.591" y="523.221" width="20.574" height="20.574" fill="#8d6039" stroke="none" stroke-width="1" opacity="0.9"/>
<rect x="1054.234" y="325.045" width="17.822" height="17.822" fill="#8d6039" stroke="none" stroke-width="1" opacity="0.9"/>
<rect x="1064.121" y="331.564" width="7.758" height="7.758" fill="#8d6039" stroke="none" stroke-width="1" opacity="0.9"/>
<rect x="1061.419" y="317.653" width="20.614" height="20.614" fill="#8d6039" stroke="none" stroke-width="1" opacity="0.9"/>
<rect x="1196.837" y="676.671" width="20.656" height="20.656" fill="#8d6039" stroke="none" stroke-width="1" opacity="0.9"/>
<rect x="755.390" y="255.595" width="18.056" height="18.056" fill="#8d6039" stroke="none" stroke-width="1" opacity="0.9"/>
<rect x="762.440" y="267.882" width="9.710" height="9.710" fill="#8d6039" stroke="none" stroke-width="1" opacity="0.9"/>
<rect x="756.978" y="254.019" width="16.870" height="16.870" fill="#8d6039" stroke="none" stroke-width="1" opacity="0.9"/>
<rect x="755.478" y="203.750" width="16.825" height="16.825" fill="#8d6039" stroke="none" stroke-width="1" opacity="0.9"/>
<rect x="765.298" y="211.660" width="8.698" height="8.698" fill="#8d6039" stroke="none" stroke-width="1" opacity="0.9"/>
<rect x="758.849" y="196.940" width="20.146" height="20.146" fill="#8d6039" stroke="none" stroke-width="1" opacity="0.9"/>
<rect x="525.036" y="205.429" width="7.532" height="7.532" fill="#8d6039" stroke="none" stroke-width="1" opacity="0.9"/>
<rect x="900.065" y="223.484" width="9.356" height="9.356" fill="#8d6039" stroke="none" stroke-width="1" opacity="0.9"/>
<rect x="743.801" y="429.545" width="9.710" height="9.710" fill="#8d6039" stroke="none" stroke-width="1" opacity="0.9"/>
<rect x="1055.669" y="533.758" width="7.606" height="7.606" fill="#8d6039" stroke="none" stroke-width="1" opacity="0.9"/>
<rect x="1098.722" y="566.913" width="19.497" height="19.497" fill="#8d6039" stroke="none" stroke-width="1" opacity="0.9"/>
<rect x="679.852" y="1112.191" width="8.118" height="11.365" fill="#8d6039" stroke="none" stroke-width="1" opacity="0.9"/>
<rect x="664.841" y="1056.009" width="11.365" height="8.118" fill="#8d6039" stroke="none" stroke-width="1" opacity="0.9"/>
<rect x="702.570" y="1043.814" width="17.896" height="17.896" fill="#8d6039" stroke="none" stroke-width="1" opacity="0.9"/>
<rect x="760.484" y="1100.055" width="11.365" height="8.118" fill="#8d6039" stroke="none" stroke-width="1" opacity="0.9"/>
<rect x="775.096" y="1099.243" width="11.365" height="8.118" fill="#8d6039" stroke="none" stroke-width="1" opacity="0.9"/>
<rect x="625.471" y="938.506" width="14.612" height="14.612" fill="#8d6039" stroke="none" stroke-width="1" opacity="0.9"/>
<rect x="618.958" y="950.664" width="17.896" height="17.896" fill="#8d6039" stroke="none" stroke-width="1" opacity="0.9"/>
<rect x="697.073" y="904.396" width="11.365" height="8.118" fill="#8d6039" stroke="none" stroke-width="1" opacity="0.9"/>
<rect x="681.604" y="904.687" width="13.078" height="10.782" fill="#8d6039" stroke="none" stroke-width="1" opacity="0.9"/>
<rect x="996.853" y="813.494" width="14.612" height="14.612" fill="#8d6039" stroke="none" stroke-width="1" opacity="0.9"/>
<rect x="983.459" y="813.494" width="14.612" height="14.612" fill="#8d6039" stroke="none" stroke-width="1" opacity="0.9"/>
<rect x="891.509" y="243.715" width="18.573" height="18.573" fill="#8d6039" stroke="none" stroke-width="1" opacity="0.9"/>
<rect x="896.351" y="230.815" width="8.890" height="11.903" fill="#8d6039" stroke="none" stroke-width="1" opacity="0.9"/>
<rect x="760.224" y="222.529" width="14.612" height="14.612" fill="#8d6039" stroke="none" stroke-width="1" opacity="0.9"/>
<rect x="760.224" y="235.518" width="14.612" height="14.612" fill="#8d6039" stroke="none" stroke-width="1" opacity="0.9"/>
<rect x="760.224" y="232.271" width="14.612" height="14.612" fill="#8d6039" stroke="none" stroke-width="1" opacity="0.9"/>
<rect x="997.259" y="732.318" width="14.612" height="14.612" fill="#8d6039" stroke="none" stroke-width="1" opacity="0.9"/>
<rect x="1068.694" y="755.047" width="14.612" height="14.612" fill="#8d6039" stroke="none" stroke-width="1" opacity="0.9"/>
<rect x="1068.676" y="768.017" width="17.896" height="17.896" fill="#8d6039" stroke="none" stroke-width="1" opacity="0.9"/>
<rect x="1047.588" y="498.529" width="11.365" height="8.118" fill="#8d6039" stroke="none" stroke-width="1" opacity="0.9"/>
<rect x="1026.482" y="488.788" width="14.612" height="14.612" fill="#8d6039" stroke="none" stroke-width="1" opacity="0.9"/>
<rect x="1003.753" y="384.882" width="14.612" height="14.612" fill="#8d6039" stroke="none" stroke-width="1" opacity="0.9"/>
<rect x="507.154" y="202.755" width="11.774" height="8.701" fill="#8d6039" stroke="none" stroke-width="1" opacity="0.9"/>
<rect x="562.153" y="238.765" width="14.612" height="14.612" fill="#8d6039" stroke="none" stroke-width="1" opacity="0.9"/>
<rect x="560.909" y="258.626" width="15.477" height="15.477" fill="#8d6039" stroke="none" stroke-width="1" opacity="0.9"/>
<rect x="605.988" y="511.518" width="11.365" height="8.118" fill="#8d6039" stroke="none" stroke-width="1" opacity="0.9"/>
<rect x="590.565" y="511.112" width="11.365" height="8.118" fill="#8d6039" stroke="none" stroke-width="1" opacity="0.9"/>
<rect x="490.718" y="738.812" width="14.612" height="14.612" fill="#8d6039" stroke="none" stroke-width="1" opacity="0.9"/>
<rect x="442.012" y="837.847" width="11.365" height="8.118" fill="#8d6039" stroke="none" stroke-width="1" opacity="0.9"/>
<rect x="526.435" y="771.282" width="14.612" height="14.612" fill="#8d6039" stroke="none" stroke-width="1" opacity="0.9"/>
<rect x="536.653" y="815.624" width="13.659" height="11.976" fill="#8d6039" stroke="none" stroke-width="1" opacity="0.9"/>
<rect x="1214.812" y="456.318" width="14.612" height="14.612" fill="#8d6039" stroke="none" stroke-width="1" opacity="0.9"/>
<rect x="487.471" y="625.165" width="14.612" height="14.612" fill="#8d6039" stroke="none" stroke-width="1" opacity="0.9"/>
<rect x="634.400" y="680.365" width="14.612" height="14.612" fill="#8d6039" stroke="none" stroke-width="1" opacity="0.9"/>
<rect x="684.209" y="752.567" width="10.782" height="13.078" fill="#8d6039" stroke="none" stroke-width="1" opacity="0.9"/>
<rect x="683.918" y="769.659" width="11.365" height="8.118" fill="#8d6039" stroke="none" stroke-width="1" opacity="0.9"/>
<rect x="666.871" y="764.788" width="11.365" height="8.118" fill="#8d6039" stroke="none" stroke-width="1" opacity="0.9"/>
<rect x="950.176" y="537.494" width="14.612" height="14.612" fill="#8d6039" stroke="none" stroke-width="1" opacity="0.9"/>
<rect x="620.496" y="560.888" width="11.573" height="8.412" fill="#8d6039" stroke="none" stroke-width="1" opacity="0.9"/>
<rect x="441.101" y="761.471" width="8.315" height="11.505" fill="#8d6039" stroke="none" stroke-width="1" opacity="0.9"/>
<rect x="524.060" y="217.149" width="9.620" height="12.384" fill="#8d6039" stroke="none" stroke-width="1" opacity="0.9"/>
<rect x="863.926" y="730.694" width="11.365" height="8.118" fill="#8d6039" stroke="none" stroke-width="1" opacity="0.9"/>
<rect x="822.324" y="716.082" width="14.612" height="14.612" fill="#8d6039" stroke="none" stroke-width="1" opacity="0.9"/>
<rect x="848.446" y="729.014" width="14.612" height="14.612" fill="#8d6039" stroke="none" stroke-width="1" opacity="0.9"/>
<rect x="925.824" y="845.965" width="14.612" height="14.612" fill="#8d6039" stroke="none" stroke-width="1" opacity="0.9"/>
<rect x="924.606" y="832.976" width="14.612" height="14.612" fill="#8d6039" stroke="none" stroke-width="1" opacity="0.9"/>
<rect x="688.144" y="528.396" width="14.612" height="14.612" fill="#8d6039" stroke="none" stroke-width="1" opacity="0.9"/>
<rect x="636.985" y="558.959" width="9.442" height="12.269" fill="#8d6039" stroke="none" stroke-width="1" opacity="0.9"/>
<rect x="1021.003" y="660.882" width="14.612" height="14.612" fill="#8d6039" stroke="none" stroke-width="1" opacity="0.9"/>
<rect x="978.809" y="577.492" width="20.663" height="20.663" fill="#8d6039" stroke="none" stroke-width="1" opacity="0.9"/>
<rect x="1066.462" y="606.494" width="14.612" height="14.612" fill="#8d6039" stroke="none" stroke-width="1" opacity="0.9"/>
<rect x="1100.774" y="554.962" width="16.611" height="16.611" fill="#8d6039" stroke="none" stroke-width="1" opacity="0.9"/>
<rect x="1054.177" y="540.835" width="15.235" height="15.235" fill="#8d6039" stroke="none" stroke-width="1" opacity="0.9"/>
<rect x="1227.597" y="547.235" width="14.612" height="14.612" fill="#8d6039" stroke="none" stroke-width="1" opacity="0.9"/>
<rect x="1224.788" y="561.676" width="16.172" height="16.172" fill="#8d6039" stroke="none" stroke-width="1" opacity="0.9"/>
<rect x="1225.786" y="606.915" width="16.611" height="16.611" fill="#8d6039" stroke="none" stroke-width="1" opacity="0.9"/>
<rect x="773.415" y="1016.232" width="14.612" height="14.612" fill="#8d6039" stroke="none" stroke-width="1" opacity="0.9"/>
<rect x="676.431" y="1035.745" width="19.226" height="19.226" fill="#8d6039" stroke="none" stroke-width="1" opacity="0.9"/>
<rect x="800.609" y="1058.647" width="14.612" height="14.612" fill="#8d6039" stroke="none" stroke-width="1" opacity="0.9"/>
<rect x="642.924" y="960.018" width="11.365" height="8.118" fill="#8d6039" stroke="none" stroke-width="1" opacity="0.9"/>
<rect x="641.461" y="972.152" width="17.131" height="17.131" fill="#8d6039" stroke="none" stroke-width="1" opacity="0.9"/>
<rect x="682.497" y="886.350" width="11.365" height="8.118" fill="#8d6039" stroke="none" stroke-width="1" opacity="0.9"/>
<rect x="797.177" y="941.568" width="20.664" height="20.664" fill="#8d6039" stroke="none" stroke-width="1" opacity="0.9"/>
<rect x="733.638" y="821.003" width="11.365" height="8.118" fill="#8d6039" stroke="none" stroke-width="1" opacity="0.9"/>
<rect x="619.585" y="1024.553" width="14.612" height="14.612" fill="#8d6039" stroke="none" stroke-width="1" opacity="0.9"/>
<rect x="597.668" y="1026.582" width="14.612" height="14.612" fill="#8d6039" stroke="none" stroke-width="1" opacity="0.9"/>
<rect x="554.829" y="1078.314" width="17.896" height="17.896" fill="#8d6039" stroke="none" stroke-width="1" opacity="0.9"/>
<rect x="541.047" y="1018.059" width="14.612" height="14.612" fill="#8d6039" stroke="none" stroke-width="1" opacity="0.9"/>
<rect x="559.109" y="1097.815" width="14.612" height="14.612" fill="#8d6039" stroke="none" stroke-width="1" opacity="0.9"/>
<rect x="524.000" y="1014.812" width="14.612" height="14.612" fill="#8d6039" stroke="none" stroke-width="1" opacity="0.9"/>
<rect x="471.438" y="1015.015" width="14.612" height="14.612" fill="#8d6039" stroke="none" stroke-width="1" opacity="0.9"/>
<rect x="422.950" y="1024.974" width="16.611" height="16.611" fill="#8d6039" stroke="none" stroke-width="1" opacity="0.9"/>
<rect x="419.104" y="1099.868" width="20.652" height="20.652" fill="#8d6039" stroke="none" stroke-width="1" opacity="0.9"/>
<rect x="464.741" y="1105.729" width="14.612" height="14.612" fill="#8d6039" stroke="none" stroke-width="1" opacity="0.9"/>
<rect x="474.497" y="1059.719" width="14.612" height="14.612" fill="#8d6039" stroke="none" stroke-width="1" opacity="0.9"/>
<rect x="763.153" y="754.393" width="10.782" height="13.078" fill="#8d6039" stroke="none" stroke-width="1" opacity="0.9"/>
<rect x="386.609" y="852.256" width="11.365" height="8.118" fill="#8d6039" stroke="none" stroke-width="1" opacity="0.9"/>
<rect x="385.220" y="664.161" width="16.172" height="16.172" fill="#8d6039" stroke="none" stroke-width="1" opacity="0.9"/>
<rect x="358.026" y="709.620" width="16.172" height="16.172" fill="#8d6039" stroke="none" stroke-width="1" opacity="0.9"/>
<rect x="375.244" y="876.812" width="11.365" height="8.118" fill="#8d6039" stroke="none" stroke-width="1" opacity="0.9"/>
<rect x="354.544" y="527.956" width="14.612" height="14.612" fill="#8d6039" stroke="none" stroke-width="1" opacity="0.9"/>
<rect x="354.544" y="541.147" width="14.612" height="14.612" fill="#8d6039" stroke="none" stroke-width="1" opacity="0.9"/>
<rect x="357.588" y="965.903" width="14.612" height="14.612" fill="#8d6039" stroke="none" stroke-width="1" opacity="0.9"/>
<rect x="381.364" y="902.211" width="16.172" height="16.172" fill="#8d6039" stroke="none" stroke-width="1" opacity="0.9"/>
<rect x="385.220" y="772.938" width="16.172" height="16.172" fill="#8d6039" stroke="none" stroke-width="1" opacity="0.9"/>
<rect x="1171.991" y="89.400" width="14.612" height="14.612" fill="#8d6039" stroke="none" stroke-width="1" opacity="0.9"/>
<rect x="1161.753" y="111.836" width="16.823" height="16.823" fill="#8d6039" stroke="none" stroke-width="1" opacity="0.9"/>
<rect x="1026.888" y="150.891" width="14.612" height="14.612" fill="#8d6039" stroke="none" stroke-width="1" opacity="0.9"/>
<rect x="1085.944" y="155.762" width="14.612" height="14.612" fill="#8d6039" stroke="none" stroke-width="1" opacity="0.9"/>
<rect x="1078.049" y="82.840" width="8.890" height="11.903" fill="#8d6039" stroke="none" stroke-width="1" opacity="0.9"/>
<rect x="1120.850" y="247.085" width="14.612" height="14.612" fill="#8d6039" stroke="none" stroke-width="1" opacity="0.9"/>
<rect x="1141.550" y="279.150" width="14.612" height="14.612" fill="#8d6039" stroke="none" stroke-width="1" opacity="0.9"/>
<rect x="795.941" y="543.988" width="14.612" height="14.612" fill="#8d6039" stroke="none" stroke-width="1" opacity="0.9"/>
<rect x="1082.494" y="736.376" width="35.718" height="58.447" fill="none" stroke="#e04b3f" stroke-width="2" opacity="1.0"/>
<text x="1086.494" y="750.376" fill="#e04b3f" font-family="monospace" font-size="13">A</text>
<rect x="514.259" y="768.847" width="77.929" height="74.682" fill="none" stroke="#e04b3f" stroke-width="2" opacity="1.0"/>
<text x="518.259" y="782.847" fill="#e04b3f" font-family="monospace" font-size="13">B</text>
<circle cx="696.094" cy="108.071" r="5" fill="#f28c28" stroke="#111" stroke-width="1"/>
<circle cx="696.094" cy="88.588" r="5" fill="#f28c28" stroke="#111" stroke-width="1"/>
<circle cx="715.576" cy="75.600" r="5" fill="#f28c28" stroke="#111" stroke-width="1"/>
<circle cx="715.576" cy="95.082" r="5" fill="#f28c28" stroke="#111" stroke-width="1"/>
<circle cx="676.612" cy="104.824" r="5" fill="#f28c28" stroke="#111" stroke-width="1"/>
<circle cx="676.612" cy="85.341" r="5" fill="#f28c28" stroke="#111" stroke-width="1"/>
<circle cx="657.129" cy="103.200" r="5" fill="#f28c28" stroke="#111" stroke-width="1"/>
<circle cx="657.129" cy="122.682" r="5" fill="#f28c28" stroke="#111" stroke-width="1"/>
<circle cx="733.435" cy="75.600" r="5" fill="#f28c28" stroke="#111" stroke-width="1"/>
<circle cx="733.435" cy="95.082" r="5" fill="#f28c28" stroke="#111" stroke-width="1"/>
<circle cx="752.918" cy="75.600" r="5" fill="#f28c28" stroke="#111" stroke-width="1"/>
<circle cx="752.918" cy="95.082" r="5" fill="#f28c28" stroke="#111" stroke-width="1"/>
<circle cx="752.918" cy="112.941" r="5" fill="#f28c28" stroke="#111" stroke-width="1"/>
<circle cx="733.435" cy="112.941" r="5" fill="#f28c28" stroke="#111" stroke-width="1"/>
<circle cx="715.576" cy="112.941" r="5" fill="#f28c28" stroke="#111" stroke-width="1"/>
<circle cx="770.776" cy="125.929" r="5" fill="#f28c28" stroke="#111" stroke-width="1"/>
<circle cx="770.776" cy="108.071" r="5" fill="#f28c28" stroke="#111" stroke-width="1"/>
<circle cx="770.776" cy="88.588" r="5" fill="#f28c28" stroke="#111" stroke-width="1"/>
<circle cx="770.776" cy="69.106" r="5" fill="#f28c28" stroke="#111" stroke-width="1"/>
<circle cx="653.882" cy="77.224" r="5" fill="#f28c28" stroke="#111" stroke-width="1"/>
<circle cx="762.659" cy="117.000" r="5" fill="#f28c28" stroke="#111" stroke-width="1"/>
<circle cx="762.253" cy="80.471" r="5" fill="#f28c28" stroke="#111" stroke-width="1"/>
<circle cx="743.988" cy="106.041" r="5" fill="#f28c28" stroke="#111" stroke-width="1"/>
<circle cx="743.582" cy="83.515" r="5" fill="#f28c28" stroke="#111" stroke-width="1"/>
<circle cx="666.465" cy="115.174" r="5" fill="#f28c28" stroke="#111" stroke-width="1"/>
<circle cx="665.247" cy="89.400" r="5" fill="#f28c28" stroke="#111" stroke-width="1"/>
<circle cx="687.571" cy="95.082" r="5" fill="#f28c28" stroke="#111" stroke-width="1"/>
<circle cx="955.859" cy="762.353" r="5" fill="#3d8bff" stroke="#111" stroke-width="1"/>
<circle cx="936.376" cy="762.353" r="5" fill="#3d8bff" stroke="#111" stroke-width="1"/>
<circle cx="916.894" cy="762.353" r="5" fill="#3d8bff" stroke="#111" stroke-width="1"/>
<circle cx="897.412" cy="762.353" r="5" fill="#3d8bff" stroke="#111" stroke-width="1"/>
<circle cx="897.412" cy="746.118" r="5" fill="#3d8bff" stroke="#111" stroke-width="1"/>
<circle cx="916.894" cy="746.118" r="5" fill="#3d8bff" stroke="#111" stroke-width="1"/>
<circle cx="936.376" cy="746.118" r="5" fill="#3d8bff" stroke="#111" stroke-width="1"/>
<circle cx="955.859" cy="746.118" r="5" fill="#3d8bff" stroke="#111" stroke-width="1"/>
<circle cx="955.859" cy="729.882" r="5" fill="#3d8bff" stroke="#111" stroke-width="1"/>
<circle cx="936.376" cy="729.882" r="5" fill="#3d8bff" stroke="#111" stroke-width="1"/>
<circle cx="916.894" cy="729.882" r="5" fill="#3d8bff" stroke="#111" stroke-width="1"/>
<circle cx="897.412" cy="729.882" r="5" fill="#3d8bff" stroke="#111" stroke-width="1"/>
<circle cx="897.412" cy="697.412" r="5" fill="#3d8bff" stroke="#111" stroke-width="1"/>
<circle cx="916.894" cy="697.412" r="5" fill="#3d8bff" stroke="#111" stroke-width="1"/>
<circle cx="936.376" cy="697.412" r="5" fill="#3d8bff" stroke="#111" stroke-width="1"/>
<circle cx="955.859" cy="697.412" r="5" fill="#3d8bff" stroke="#111" stroke-width="1"/>
<circle cx="897.412" cy="713.647" r="5" fill="#3d8bff" stroke="#111" stroke-width="1"/>
<circle cx="916.894" cy="713.647" r="5" fill="#3d8bff" stroke="#111" stroke-width="1"/>
<circle cx="936.376" cy="713.647" r="5" fill="#3d8bff" stroke="#111" stroke-width="1"/>
<circle cx="955.859" cy="713.647" r="5" fill="#3d8bff" stroke="#111" stroke-width="1"/>
<circle cx="906.341" cy="754.844" r="5" fill="#3d8bff" stroke="#111" stroke-width="1"/>
<circle cx="926.432" cy="738.609" r="5" fill="#3d8bff" stroke="#111" stroke-width="1"/>
<circle cx="947.538" cy="722.374" r="5" fill="#3d8bff" stroke="#111" stroke-width="1"/>
<circle cx="905.732" cy="722.982" r="5" fill="#3d8bff" stroke="#111" stroke-width="1"/>
<circle cx="925.621" cy="754.641" r="5" fill="#3d8bff" stroke="#111" stroke-width="1"/>
<circle cx="946.118" cy="737.797" r="5" fill="#3d8bff" stroke="#111" stroke-width="1"/>
<circle cx="696.094" cy="108.071" r="8" fill="none" stroke="#111111" stroke-width="2"/>
<g font-family="monospace" font-size="13">
<rect x="16" y="13" width="12" height="12" fill="#8ba0b4"/>
<text x="34" y="24" fill="#eef3f8">floor</text>
<rect x="16" y="33" width="12" height="12" fill="#0d6b54"/>
<text x="34" y="44" fill="#eef3f8">wall</text>
<rect x="16" y="53" width="12" height="12" fill="#2f8f4e"/>
<text x="34" y="64" fill="#eef3f8">crate</text>
<rect x="16" y="73" width="12" height="12" fill="#41a064"/>
<text x="34" y="84" fill="#eef3f8">pillar</text>
<rect x="16" y="93" width="12" height="12" fill="#f28c28"/>
<text x="34" y="104" fill="#eef3f8">T</text>
<rect x="16" y="113" width="12" height="12" fill="#3d8bff"/>
<text x="34" y="124" fill="#eef3f8">CT</text>
</g>
</svg>
