<svg xmlns="http://www.w3.org/2000/svg" width="1600" height="1200" viewBox="0 0 1600 1200">
<rect width="100%" height="100%" fill="#10243a"/>
<rect x="397.365" y="54.494" width="467.576" height="77.929" fill="#a29175" stroke="none" stroke-width="1" opacity="0.72"/>
<rect x="1098.729" y="54.494" width="103.906" height="25.976" fill="#a29175" stroke="none" stroke-width="1" opacity="0.72"/>
<rect x="864.941" y="80.471" width="311.718" height="103.906" fill="#a29175" stroke="none" stroke-width="1" opacity="0.72"/>
<rect x="1176.659" y="106.447" width="25.976" height="103.906" fill="#a29175" stroke="none" stroke-width="1" opacity="0.72"/>
<rect x="423.341" y="132.424" width="259.765" height="103.906" fill="#a29175" stroke="none" stroke-width="1" opacity="0.72"/>
<rect x="761.035" y="132.424" width="103.906" height="51.953" fill="#a29175" stroke="none" stroke-width="1" opacity="0.72"/>
<rect x="761.035" y="184.376" width="25.976" height="961.129" fill="#a29175" stroke="none" stroke-width="1" opacity="0.72"/>
<rect x="890.918" y="184.376" width="129.882" height="155.859" fill="#a29175" stroke="none" stroke-width="1" opacity="0.72"/>
<rect x="1046.776" y="184.376" width="129.882" height="51.953" fill="#a29175" stroke="none" stroke-width="1" opacity="0.72"/>
<rect x="449.318" y="236.329" width="155.859" height="181.835" fill="#a29175" stroke="none" stroke-width="1" opacity="0.72"/>
<rect x="1124.706" y="236.329" width="51.953" height="675.388" fill="#a29175" stroke="none" stroke-width="1" opacity="0.72"/>
<rect x="1098.729" y="262.306" width="25.976" height="623.435" fill="#a29175" stroke="none" stroke-width="1" opacity="0.72"/>
<rect x="605.176" y="288.282" width="25.976" height="77.929" fill="#a29175" stroke="none" stroke-width="1" opacity="0.72"/>
<rect x="709.082" y="288.282" width="51.953" height="103.906" fill="#a29175" stroke="none" stroke-width="1" opacity="0.72"/>
<rect x="787.012" y="288.282" width="25.976" height="831.247" fill="#a29175" stroke="none" stroke-width="1" opacity="0.72"/>
<rect x="864.941" y="288.282" width="25.976" height="77.929" fill="#a29175" stroke="none" stroke-width="1" opacity="0.72"/>
<rect x="1072.753" y="288.282" width="25.976" height="597.459" fill="#a29175" stroke="none" stroke-width="1" opacity="0.72"/>
<rect x="1176.659" y="288.282" width="51.953" height="207.812" fill="#a29175" stroke="none" stroke-width="1" opacity="0.72"/>
<rect x="423.341" y="314.259" width="25.976" height="77.929" fill="#a29175" stroke="none" stroke-width="1" opacity="0.72"/>
<rect x="812.988" y="314.259" width="51.953" height="77.929" fill="#a29175" stroke="none" stroke-width="1" opacity="0.72"/>
<rect x="1046.776" y="314.259" width="25.976" height="519.529" fill="#a29175" stroke="none" stroke-width="1" opacity="0.72"/>
<rect x="890.918" y="340.235" width="51.953" height="25.976" fill="#a29175" stroke="none" stroke-width="1" opacity="0.72"/>
<rect x="968.847" y="340.235" width="51.953" height="181.835" fill="#a29175" stroke="none" stroke-width="1" opacity="0.72"/>
<rect x="735.059" y="392.188" width="25.976" height="103.906" fill="#a29175" stroke="none" stroke-width="1" opacity="0.72"/>
<rect x="812.988" y="392.188" width="25.976" height="207.812" fill="#a29175" stroke="none" stroke-width="1" opacity="0.72"/>
<rect x="501.271" y="418.165" width="51.953" height="129.882" fill="#a29175" stroke="none" stroke-width="1" opacity="0.72"/>
<rect x="1020.800" y="418.165" width="25.976" height="77.929" fill="#a29175" stroke="none" stroke-width="1" opacity="0.72"/>
<rect x="475.294" y="444.141" width="25.976" height="103.906" fill="#a29175" stroke="none" stroke-width="1" opacity="0.72"/>
<rect x="345.412" y="470.118" width="129.882" height="51.953" fill="#a29175" stroke="none" stroke-width="1" opacity="0.72"/>
<rect x="553.224" y="470.118" width="103.906" height="51.953" fill="#a29175" stroke="none" stroke-width="1" opacity="0.72"/>
<rect x="838.965" y="496.094" width="25.976" height="103.906" fill="#a29175" stroke="none" stroke-width="1" opacity="0.72"/>
<rect x="1176.659" y="496.094" width="25.976" height="389.647" fill="#a29175" stroke="none" stroke-width="1" opacity="0.72"/>
<rect x="345.412" y="522.071" width="77.929" height="571.482" fill="#a29175" stroke="none" stroke-width="1" opacity="0.72"/>
<rect x="449.318" y="522.071" width="25.976" height="597.459" fill="#a29175" stroke="none" stroke-width="1" opacity="0.72"/>
<rect x="605.176" y="522.071" width="155.859" height="51.953" fill="#a29175" stroke="none" stroke-width="1" opacity="0.72"/>
<rect x="864.941" y="522.071" width="103.906" height="77.929" fill="#a29175" stroke="none" stroke-width="1" opacity="0.72"/>
<rect x="1202.635" y="548.047" width="25.976" height="181.835" fill="#a29175" stroke="none" stroke-width="1" opacity="0.72"/>
<rect x="501.271" y="574.024" width="51.953" height="285.741" fill="#a29175" stroke="none" stroke-width="1" opacity="0.72"/>
<rect x="994.824" y="574.024" width="51.953" height="259.765" fill="#a29175" stroke="none" stroke-width="1" opacity="0.72"/>
<rect x="1228.612" y="574.024" width="25.976" height="51.953" fill="#a29175" stroke="none" stroke-width="1" opacity="0.72"/>
<rect x="553.224" y="600.000" width="25.976" height="259.765" fill="#a29175" stroke="none" stroke-width="1" opacity="0.72"/>
<rect x="735.059" y="600.000" width="25.976" height="545.506" fill="#a29175" stroke="none" stroke-width="1" opacity="0.72"/>
<rect x="916.894" y="600.000" width="77.929" height="259.765" fill="#a29175" stroke="none" stroke-width="1" opacity="0.72"/>
<rect x="423.341" y="625.976" width="25.976" height="493.553" fill="#a29175" stroke="none" stroke-width="1" opacity="0.72"/>
<rect x="475.294" y="625.976" width="25.976" height="311.718" fill="#a29175" stroke="none" stroke-width="1" opacity="0.72"/>
<rect x="579.200" y="625.976" width="25.976" height="207.812" fill="#a29175" stroke="none" stroke-width="1" opacity="0.72"/>
<rect x="812.988" y="651.953" width="77.929" height="77.929" fill="#a29175" stroke="none" stroke-width="1" opacity="0.72"/>
<rect x="605.176" y="677.929" width="129.882" height="155.859" fill="#a29175" stroke="none" stroke-width="1" opacity="0.72"/>
<rect x="890.918" y="677.929" width="25.976" height="103.906" fill="#a29175" stroke="none" stroke-width="1" opacity="0.72"/>
<rect x="838.965" y="729.882" width="51.953" height="25.976" fill="#a29175" stroke="none" stroke-width="1" opacity="0.72"/>
<rect x="864.941" y="755.859" width="25.976" height="25.976" fill="#a29175" stroke="none" stroke-width="1" opacity="0.72"/>
<rect x="657.129" y="833.788" width="77.929" height="311.718" fill="#a29175" stroke="none" stroke-width="1" opacity="0.72"/>
<rect x="812.988" y="833.788" width="103.906" height="77.929" fill="#a29175" stroke="none" stroke-width="1" opacity="0.72"/>
<rect x="916.894" y="859.765" width="51.953" height="51.953" fill="#a29175" stroke="none" stroke-width="1" opacity="0.72"/>
<rect x="631.153" y="885.741" width="25.976" height="259.765" fill="#a29175" stroke="none" stroke-width="1" opacity="0.72"/>
<rect x="812.988" y="911.718" width="25.976" height="129.882" fill="#a29175" stroke="none" stroke-width="1" opacity="0.72"/>
<rect x="475.294" y="1015.624" width="155.859" height="77.929" fill="#a29175" stroke="none" stroke-width="1" opacity="0.72"/>
<rect x="812.988" y="1067.576" width="25.976" height="51.953" fill="#a29175" stroke="none" stroke-width="1" opacity="0.72"/>
<rect x="501.271" y="1093.553" width="129.882" height="25.976" fill="#a29175" stroke="none" stroke-width="1" opacity="0.72"/>
<rect x="553.224" y="593.506" width="25.976" height="6.494" fill="#a99170" stroke="none" stroke-width="1" opacity="0.9"/>
<rect x="735.059" y="593.506" width="25.976" height="6.494" fill="#a99170" stroke="none" stroke-width="1" opacity="0.9"/>
<rect x="968.847" y="593.506" width="25.976" height="6.494" fill="#a99170" stroke="none" stroke-width="1" opacity="0.9"/>
<rect x="397.365" y="48.000" width="467.576" height="6.494" fill="#a99170" stroke="none" stroke-width="1" opacity="0.9"/>
<rect x="1098.729" y="48.000" width="103.906" height="6.494" fill="#a99170" stroke="none" stroke-width="1" opacity="0.9"/>
<rect x="657.129" y="515.576" width="103.906" height="6.494" fill="#a99170" stroke="none" stroke-width="1" opacity="0.9"/>
<rect x="864.941" y="515.576" width="103.906" height="6.494" fill="#a99170" stroke="none" stroke-width="1" opacity="0.9"/>
<rect x="345.412" y="463.624" width="129.882" height="6.494" fill="#a99170" stroke="none" stroke-width="1" opacity="0.9"/>
<rect x="553.224" y="463.624" width="103.906" height="6.494" fill="#a99170" stroke="none" stroke-width="1" opacity="0.9"/>
<rect x="864.941" y="73.976" width="233.788" height="6.494" fill="#a99170" stroke="none" stroke-width="1" opacity="0.9"/>
<rect x="605.176" y="281.788" width="25.976" height="6.494" fill="#a99170" stroke="none" stroke-width="1" opacity="0.9"/>
<rect x="709.082" y="281.788" width="51.953" height="6.494" fill="#a99170" stroke="none" stroke-width="1" opacity="0.9"/>
<rect x="787.012" y="281.788" width="25.976" height="6.494" fill="#a99170" stroke="none" stroke-width="1" opacity="0.9"/>
<rect x="864.941" y="281.788" width="25.976" height="6.494" fill="#a99170" stroke="none" stroke-width="1" opacity="0.9"/>
<rect x="1072.753" y="281.788" width="25.976" height="6.494" fill="#a99170" stroke="none" stroke-width="1" opacity="0.9"/>
<rect x="1176.659" y="281.788" width="51.953" height="6.494" fill="#a99170" stroke="none" stroke-width="1" opacity="0.9"/>
<rect x="423.341" y="307.765" width="25.976" height="6.494" fill="#a99170" stroke="none" stroke-width="1" opacity="0.9"/>
<rect x="812.988" y="307.765" width="51.953" height="6.494" fill="#a99170" stroke="none" stroke-width="1" opacity="0.9"/>
<rect x="1046.776" y="307.765" width="25.976" height="6.494" fill="#a99170" stroke="none" stroke-width="1" opacity="0.9"/>
<rect x="475.294" y="1009.129" width="155.859" height="6.494" fill="#a99170" stroke="none" stroke-width="1" opacity="0.9"/>
<rect x="812.988" y="645.459" width="77.929" height="6.494" fill="#a99170" stroke="none" stroke-width="1" opacity="0.9"/>
<rect x="605.176" y="671.435" width="129.882" height="6.494" fill="#a99170" stroke="none" stroke-width="1" opacity="0.9"/>
<rect x="890.918" y="671.435" width="25.976" height="6.494" fill="#a99170" stroke="none" stroke-width="1" opacity="0.9"/>
<rect x="501.271" y="567.529" width="51.953" height="6.494" fill="#a99170" stroke="none" stroke-width="1" opacity="0.9"/>
<rect x="994.824" y="567.529" width="51.953" height="6.494" fill="#a99170" stroke="none" stroke-width="1" opacity="0.9"/>
<rect x="1228.612" y="567.529" width="25.976" height="6.494" fill="#a99170" stroke="none" stroke-width="1" opacity="0.9"/>
<rect x="838.965" y="489.600" width="25.976" height="6.494" fill="#a99170" stroke="none" stroke-width="1" opacity="0.9"/>
<rect x="1098.729" y="255.812" width="25.976" height="6.494" fill="#a99170" stroke="none" stroke-width="1" opacity="0.9"/>
<rect x="1202.635" y="541.553" width="25.976" height="6.494" fill="#a99170" stroke="none" stroke-width="1" opacity="0.9"/>
<rect x="812.988" y="827.294" width="103.906" height="6.494" fill="#a99170" stroke="none" stroke-width="1" opacity="0.9"/>
<rect x="423.341" y="619.482" width="25.976" height="6.494" fill="#a99170" stroke="none" stroke-width="1" opacity="0.9"/>
<rect x="475.294" y="619.482" width="25.976" height="6.494" fill="#a99170" stroke="none" stroke-width="1" opacity="0.9"/>
<rect x="579.200" y="619.482" width="25.976" height="6.494" fill="#a99170" stroke="none" stroke-width="1" opacity="0.9"/>
<rect x="631.153" y="879.247" width="25.976" height="6.494" fill="#a99170" stroke="none" stroke-width="1" opacity="0.9"/>
<rect x="812.988" y="1061.082" width="25.976" height="6.494" fill="#a99170" stroke="none" stroke-width="1" opacity="0.9"/>
<rect x="1020.800" y="411.671" width="25.976" height="6.494" fill="#a99170" stroke="none" stroke-width="1" opacity="0.9"/>
<rect x="1176.659" y="99.953" width="25.976" height="6.494" fill="#a99170" stroke="none" stroke-width="1" opacity="0.9"/>
<rect x="475.294" y="437.647" width="25.976" height="6.494" fill="#a99170" stroke="none" stroke-width="1" opacity="0.9"/>
<rect x="501.271" y="859.765" width="77.929" height="6.494" fill="#a99170" stroke="none" stroke-width="1" opacity="0.9"/>
<rect x="968.847" y="859.765" width="25.976" height="6.494" fill="#a99170" stroke="none" stroke-width="1" opacity="0.9"/>
<rect x="787.012" y="184.376" width="103.906" height="6.494" fill="#a99170" stroke="none" stroke-width="1" opacity="0.9"/>
<rect x="1020.800" y="184.376" width="25.976" height="6.494" fill="#a99170" stroke="none" stroke-width="1" opacity="0.9"/>
<rect x="1176.659" y="210.353" width="25.976" height="6.494" fill="#a99170" stroke="none" stroke-width="1" opacity="0.9"/>
<rect x="605.176" y="574.024" width="155.859" height="6.494" fill="#a99170" stroke="none" stroke-width="1" opacity="0.9"/>
<rect x="838.965" y="911.718" width="129.882" height="6.494" fill="#a99170" stroke="none" stroke-width="1" opacity="0.9"/>
<rect x="1124.706" y="911.718" width="51.953" height="6.494" fill="#a99170" stroke="none" stroke-width="1" opacity="0.9"/>
<rect x="579.200" y="833.788" width="77.929" height="6.494" fill="#a99170" stroke="none" stroke-width="1" opacity="0.9"/>
<rect x="994.824" y="833.788" width="77.929" height="6.494" fill="#a99170" stroke="none" stroke-width="1" opacity="0.9"/>
<rect x="1176.659" y="80.471" width="25.976" height="6.494" fill="#a99170" stroke="none" stroke-width="1" opacity="0.9"/>
<rect x="423.341" y="1119.529" width="51.953" height="6.494" fill="#a99170" stroke="none" stroke-width="1" opacity="0.9"/>
<rect x="501.271" y="1119.529" width="129.882" height="6.494" fill="#a99170" stroke="none" stroke-width="1" opacity="0.9"/>
<rect x="787.012" y="1119.529" width="51.953" height="6.494" fill="#a99170" stroke="none" stroke-width="1" opacity="0.9"/>
<rect x="631.153" y="1145.506" width="155.859" height="6.494" fill="#a99170" stroke="none" stroke-width="1" opacity="0.9"/>
<rect x="423.341" y="236.329" width="25.976" height="6.494" fill="#a99170" stroke="none" stroke-width="1" opacity="0.9"/>
<rect x="605.176" y="236.329" width="77.929" height="6.494" fill="#a99170" stroke="none" stroke-width="1" opacity="0.9"/>
<rect x="1046.776" y="236.329" width="77.929" height="6.494" fill="#a99170" stroke="none" stroke-width="1" opacity="0.9"/>
<rect x="449.318" y="418.165" width="51.953" height="6.494" fill="#a99170" stroke="none" stroke-width="1" opacity="0.9"/>
<rect x="553.224" y="418.165" width="51.953" height="6.494" fill="#a99170" stroke="none" stroke-width="1" opacity="0.9"/>
<rect x="812.988" y="1041.600" width="25.976" height="6.494" fill="#a99170" stroke="none" stroke-width="1" opacity="0.9"/>
<rect x="423.341" y="392.188" width="25.976" height="6.494" fill="#a99170" stroke="none" stroke-width="1" opacity="0.9"/>
<rect x="709.082" y="392.188" width="25.976" height="6.494" fill="#a99170" stroke="none" stroke-width="1" opacity="0.9"/>
<rect x="838.965" y="392.188" width="25.976" height="6.494" fill="#a99170" stroke="none" stroke-width="1" opacity="0.9"/>
<rect x="605.176" y="366.212" width="25.976" height="6.494" fill="#a99170" stroke="none" stroke-width="1" opacity="0.9"/>
<rect x="864.941" y="366.212" width="77.929" height="6.494" fill="#a99170" stroke="none" stroke-width="1" opacity="0.9"/>
<rect x="475.294" y="548.047" width="77.929" height="6.494" fill="#a99170" stroke="none" stroke-width="1" opacity="0.9"/>
<rect x="735.059" y="496.094" width="25.976" height="6.494" fill="#a99170" stroke="none" stroke-width="1" opacity="0.9"/>
<rect x="1020.800" y="496.094" width="25.976" height="6.494" fill="#a99170" stroke="none" stroke-width="1" opacity="0.9"/>
<rect x="1202.635" y="496.094" width="25.976" height="6.494" fill="#a99170" stroke="none" stroke-width="1" opacity="0.9"/>
<rect x="812.988" y="729.882" width="25.976" height="6.494" fill="#a99170" stroke="none" stroke-width="1" opacity="0.9"/>
<rect x="1202.635" y="729.882" width="25.976" height="6.494" fill="#a99170" stroke="none" stroke-width="1" opacity="0.9"/>
<rect x="397.365" y="132.424" width="25.976" height="6.494" fill="#a99170" stroke="none" stroke-width="1" opacity="0.9"/>
<rect x="683.106" y="132.424" width="77.929" height="6.494" fill="#a99170" stroke="none" stroke-width="1" opacity="0.9"/>
<rect x="475.294" y="937.694" width="25.976" height="6.494" fill="#a99170" stroke="none" stroke-width="1" opacity="0.9"/>
<rect x="838.965" y="755.859" width="25.976" height="6.494" fill="#a99170" stroke="none" stroke-width="1" opacity="0.9"/>
<rect x="864.941" y="781.835" width="51.953" height="6.494" fill="#a99170" stroke="none" stroke-width="1" opacity="0.9"/>
<rect x="345.412" y="1093.553" width="77.929" height="6.494" fill="#a99170" stroke="none" stroke-width="1" opacity="0.9"/>
<rect x="475.294" y="1093.553" width="25.976" height="6.494" fill="#a99170" stroke="none" stroke-width="1" opacity="0.9"/>
<rect x="1072.753" y="885.741" width="51.953" height="6.494" fill="#a99170" stroke="none" stroke-width="1" opacity="0.9"/>
<rect x="1176.659" y="885.741" width="25.976" height="6.494" fill="#a99170" stroke="none" stroke-width="1" opacity="0.9"/>
<rect x="812.988" y="600.000" width="103.906" height="6.494" fill="#a99170" stroke="none" stroke-width="1" opacity="0.9"/>
<rect x="423.341" y="522.071" width="25.976" height="6.494" fill="#a99170" stroke="none" stroke-width="1" opacity="0.9"/>
<rect x="553.224" y="522.071" width="51.953" height="6.494" fill="#a99170" stroke="none" stroke-width="1" opacity="0.9"/>
<rect x="968.847" y="522.071" width="51.953" height="6.494" fill="#a99170" stroke="none" stroke-width="1" opacity="0.9"/>
<rect x="1228.612" y="625.976" width="25.976" height="6.494" fill="#a99170" stroke="none" stroke-width="1" opacity="0.9"/>
<rect x="942.871" y="340.235" width="25.976" height="6.494" fill="#a99170" stroke="none" stroke-width="1" opacity="0.9"/>
<rect x="338.918" y="470.118" width="6.494" height="623.435" fill="#a99170" stroke="none" stroke-width="1" opacity="0.9"/>
<rect x="390.871" y="54.494" width="6.494" height="77.929" fill="#a99170" stroke="none" stroke-width="1" opacity="0.9"/>
<rect x="442.824" y="236.329" width="6.494" height="77.929" fill="#a99170" stroke="none" stroke-width="1" opacity="0.9"/>
<rect x="442.824" y="392.188" width="6.494" height="25.976" fill="#a99170" stroke="none" stroke-width="1" opacity="0.9"/>
<rect x="442.824" y="522.071" width="6.494" height="103.906" fill="#a99170" stroke="none" stroke-width="1" opacity="0.9"/>
<rect x="1040.282" y="184.376" width="6.494" height="51.953" fill="#a99170" stroke="none" stroke-width="1" opacity="0.9"/>
<rect x="1040.282" y="314.259" width="6.494" height="103.906" fill="#a99170" stroke="none" stroke-width="1" opacity="0.9"/>
<rect x="1040.282" y="496.094" width="6.494" height="77.929" fill="#a99170" stroke="none" stroke-width="1" opacity="0.9"/>
<rect x="754.541" y="132.424" width="6.494" height="155.859" fill="#a99170" stroke="none" stroke-width="1" opacity="0.9"/>
<rect x="754.541" y="496.094" width="6.494" height="25.976" fill="#a99170" stroke="none" stroke-width="1" opacity="0.9"/>
<rect x="754.541" y="574.024" width="6.494" height="25.976" fill="#a99170" stroke="none" stroke-width="1" opacity="0.9"/>
<rect x="624.659" y="885.741" width="6.494" height="129.882" fill="#a99170" stroke="none" stroke-width="1" opacity="0.9"/>
<rect x="624.659" y="1119.529" width="6.494" height="25.976" fill="#a99170" stroke="none" stroke-width="1" opacity="0.9"/>
<rect x="416.847" y="132.424" width="6.494" height="103.906" fill="#a99170" stroke="none" stroke-width="1" opacity="0.9"/>
<rect x="416.847" y="314.259" width="6.494" height="77.929" fill="#a99170" stroke="none" stroke-width="1" opacity="0.9"/>
<rect x="416.847" y="1093.553" width="6.494" height="25.976" fill="#a99170" stroke="none" stroke-width="1" opacity="0.9"/>
<rect x="728.565" y="392.188" width="6.494" height="103.906" fill="#a99170" stroke="none" stroke-width="1" opacity="0.9"/>
<rect x="728.565" y="600.000" width="6.494" height="77.929" fill="#a99170" stroke="none" stroke-width="1" opacity="0.9"/>
<rect x="910.400" y="600.000" width="6.494" height="77.929" fill="#a99170" stroke="none" stroke-width="1" opacity="0.9"/>
<rect x="910.400" y="781.835" width="6.494" height="51.953" fill="#a99170" stroke="none" stroke-width="1" opacity="0.9"/>
<rect x="494.776" y="418.165" width="6.494" height="25.976" fill="#a99170" stroke="none" stroke-width="1" opacity="0.9"/>
<rect x="494.776" y="574.024" width="6.494" height="51.953" fill="#a99170" stroke="none" stroke-width="1" opacity="0.9"/>
<rect x="494.776" y="1093.553" width="6.494" height="25.976" fill="#a99170" stroke="none" stroke-width="1" opacity="0.9"/>
<rect x="598.682" y="522.071" width="6.494" height="51.953" fill="#a99170" stroke="none" stroke-width="1" opacity="0.9"/>
<rect x="1118.212" y="236.329" width="6.494" height="25.976" fill="#a99170" stroke="none" stroke-width="1" opacity="0.9"/>
<rect x="1118.212" y="885.741" width="6.494" height="25.976" fill="#a99170" stroke="none" stroke-width="1" opacity="0.9"/>
<rect x="1092.235" y="54.494" width="6.494" height="25.976" fill="#a99170" stroke="none" stroke-width="1" opacity="0.9"/>
<rect x="1092.235" y="262.306" width="6.494" height="25.976" fill="#a99170" stroke="none" stroke-width="1" opacity="0.9"/>
<rect x="702.588" y="288.282" width="6.494" height="103.906" fill="#a99170" stroke="none" stroke-width="1" opacity="0.9"/>
<rect x="988.329" y="574.024" width="6.494" height="25.976" fill="#a99170" stroke="none" stroke-width="1" opacity="0.9"/>
<rect x="832.471" y="729.882" width="6.494" height="25.976" fill="#a99170" stroke="none" stroke-width="1" opacity="0.9"/>
<rect x="1066.259" y="288.282" width="6.494" height="25.976" fill="#a99170" stroke="none" stroke-width="1" opacity="0.9"/>
<rect x="1066.259" y="833.788" width="6.494" height="51.953" fill="#a99170" stroke="none" stroke-width="1" opacity="0.9"/>
<rect x="650.635" y="833.788" width="6.494" height="51.953" fill="#a99170" stroke="none" stroke-width="1" opacity="0.9"/>
<rect x="962.353" y="340.235" width="6.494" height="181.835" fill="#a99170" stroke="none" stroke-width="1" opacity="0.9"/>
<rect x="884.424" y="184.376" width="6.494" height="103.906" fill="#a99170" stroke="none" stroke-width="1" opacity="0.9"/>
<rect x="468.800" y="444.141" width="6.494" height="25.976" fill="#a99170" stroke="none" stroke-width="1" opacity="0.9"/>
<rect x="858.447" y="288.282" width="6.494" height="25.976" fill="#a99170" stroke="none" stroke-width="1" opacity="0.9"/>
<rect x="858.447" y="755.859" width="6.494" height="25.976" fill="#a99170" stroke="none" stroke-width="1" opacity="0.9"/>
<rect x="579.200" y="600.000" width="6.494" height="25.976" fill="#a99170" stroke="none" stroke-width="1" opacity="0.9"/>
<rect x="579.200" y="833.788" width="6.494" height="25.976" fill="#a99170" stroke="none" stroke-width="1" opacity="0.9"/>
<rect x="1202.635" y="54.494" width="6.494" height="25.976" fill="#a99170" stroke="none" stroke-width="1" opacity="0.9"/>
<rect x="1202.635" y="106.447" width="6.494" height="103.906" fill="#a99170" stroke="none" stroke-width="1" opacity="0.9"/>
<rect x="1202.635" y="496.094" width="6.494" height="51.953" fill="#a99170" stroke="none" stroke-width="1" opacity="0.9"/>
<rect x="1202.635" y="729.882" width="6.494" height="155.859" fill="#a99170" stroke="none" stroke-width="1" opacity="0.9"/>
<rect x="605.176" y="236.329" width="6.494" height="51.953" fill="#a99170" stroke="none" stroke-width="1" opacity="0.9"/>
<rect x="605.176" y="366.212" width="6.494" height="51.953" fill="#a99170" stroke="none" stroke-width="1" opacity="0.9"/>
<rect x="605.176" y="625.976" width="6.494" height="51.953" fill="#a99170" stroke="none" stroke-width="1" opacity="0.9"/>
<rect x="968.847" y="522.071" width="6.494" height="77.929" fill="#a99170" stroke="none" stroke-width="1" opacity="0.9"/>
<rect x="968.847" y="859.765" width="6.494" height="51.953" fill="#a99170" stroke="none" stroke-width="1" opacity="0.9"/>
<rect x="475.294" y="548.047" width="6.494" height="77.929" fill="#a99170" stroke="none" stroke-width="1" opacity="0.9"/>
<rect x="475.294" y="937.694" width="6.494" height="77.929" fill="#a99170" stroke="none" stroke-width="1" opacity="0.9"/>
<rect x="475.294" y="1093.553" width="6.494" height="25.976" fill="#a99170" stroke="none" stroke-width="1" opacity="0.9"/>
<rect x="1176.659" y="80.471" width="6.494" height="25.976" fill="#a99170" stroke="none" stroke-width="1" opacity="0.9"/>
<rect x="1176.659" y="210.353" width="6.494" height="77.929" fill="#a99170" stroke="none" stroke-width="1" opacity="0.9"/>
<rect x="1176.659" y="885.741" width="6.494" height="25.976" fill="#a99170" stroke="none" stroke-width="1" opacity="0.9"/>
<rect x="683.106" y="132.424" width="6.494" height="103.906" fill="#a99170" stroke="none" stroke-width="1" opacity="0.9"/>
<rect x="787.012" y="184.376" width="6.494" height="103.906" fill="#a99170" stroke="none" stroke-width="1" opacity="0.9"/>
<rect x="787.012" y="1119.529" width="6.494" height="25.976" fill="#a99170" stroke="none" stroke-width="1" opacity="0.9"/>
<rect x="838.965" y="392.188" width="6.494" height="103.906" fill="#a99170" stroke="none" stroke-width="1" opacity="0.9"/>
<rect x="838.965" y="911.718" width="6.494" height="129.882" fill="#a99170" stroke="none" stroke-width="1" opacity="0.9"/>
<rect x="838.965" y="1067.576" width="6.494" height="51.953" fill="#a99170" stroke="none" stroke-width="1" opacity="0.9"/>
<rect x="657.129" y="470.118" width="6.494" height="51.953" fill="#a99170" stroke="none" stroke-width="1" opacity="0.9"/>
<rect x="553.224" y="418.165" width="6.494" height="51.953" fill="#a99170" stroke="none" stroke-width="1" opacity="0.9"/>
<rect x="553.224" y="522.071" width="6.494" height="25.976" fill="#a99170" stroke="none" stroke-width="1" opacity="0.9"/>
<rect x="553.224" y="574.024" width="6.494" height="25.976" fill="#a99170" stroke="none" stroke-width="1" opacity="0.9"/>
<rect x="942.871" y="340.235" width="6.494" height="25.976" fill="#a99170" stroke="none" stroke-width="1" opacity="0.9"/>
<rect x="812.988" y="288.282" width="6.494" height="25.976" fill="#a99170" stroke="none" stroke-width="1" opacity="0.9"/>
<rect x="812.988" y="600.000" width="6.494" height="51.953" fill="#a99170" stroke="none" stroke-width="1" opacity="0.9"/>
<rect x="812.988" y="729.882" width="6.494" height="103.906" fill="#a99170" stroke="none" stroke-width="1" opacity="0.9"/>
<rect x="812.988" y="1041.600" width="6.494" height="25.976" fill="#a99170" stroke="none" stroke-width="1" opacity="0.9"/>
<rect x="631.153" y="288.282" width="6.494" height="77.929" fill="#a99170" stroke="none" stroke-width="1" opacity="0.9"/>
<rect x="1228.612" y="288.282" width="6.494" height="207.812" fill="#a99170" stroke="none" stroke-width="1" opacity="0.9"/>
<rect x="1228.612" y="548.047" width="6.494" height="25.976" fill="#a99170" stroke="none" stroke-width="1" opacity="0.9"/>
<rect x="1228.612" y="625.976" width="6.494" height="103.906" fill="#a99170" stroke="none" stroke-width="1" opacity="0.9"/>
<rect x="501.271" y="859.765" width="6.494" height="77.929" fill="#a99170" stroke="none" stroke-width="1" opacity="0.9"/>
<rect x="1020.800" y="184.376" width="6.494" height="233.788" fill="#a99170" stroke="none" stroke-width="1" opacity="0.9"/>
<rect x="1020.800" y="496.094" width="6.494" height="25.976" fill="#a99170" stroke="none" stroke-width="1" opacity="0.9"/>
<rect x="864.941" y="54.494" width="6.494" height="25.976" fill="#a99170" stroke="none" stroke-width="1" opacity="0.9"/>
<rect x="864.941" y="366.212" width="6.494" height="25.976" fill="#a99170" stroke="none" stroke-width="1" opacity="0.9"/>
<rect x="864.941" y="496.094" width="6.494" height="25.976" fill="#a99170" stroke="none" stroke-width="1" opacity="0.9"/>
<rect x="423.341" y="522.071" width="6.494" height="103.906" fill="#a99170" stroke="none" stroke-width="1" opacity="0.9"/>
<rect x="1254.588" y="574.024" width="6.494" height="51.953" fill="#a99170" stroke="none" stroke-width="1" opacity="0.9"/>
<rect x="994.824" y="833.788" width="6.494" height="25.976" fill="#a99170" stroke="none" stroke-width="1" opacity="0.9"/>
<rect x="890.918" y="651.953" width="6.494" height="25.976" fill="#a99170" stroke="none" stroke-width="1" opacity="0.9"/>
<rect x="1082.494" y="736.376" width="35.718" height="58.447" fill="none" stroke="#e04b3f" stroke-width="2" opacity="1.0"/>
<text x="1086.494" y="750.376" fill="#e04b3f" font-family="monospace" font-size="13">A</text>
<rect x="514.259" y="768.847" width="77.929" height="74.682" fill="none" stroke="#e04b3f" stroke-width="2" opacity="1.0"/>
<text x="518.259" y="782.847" fill="#e04b3f" font-family="monospace" font-size="13">B</text>
<circle cx="696.094" cy="108.071" r="5" fill="#f28c28" stroke="#111" stroke-width="1"/>
<circle cx="696.094" cy="88.588" r="5" fill="#f28c28" stroke="#111" stroke-width="1"/>
<circle cx="715.576" cy="75.600" r="5" fill="#f28c28" stroke="#111" stroke-width="1"/>
<circle cx="715.576" cy="95.082" r="5" fill="#f28c28" stroke="#111" stroke-width="1"/>
<circle cx="676.612" cy="104.824" r="5" fill="#f28c28" stroke="#111" stroke-width="1"/>
<circle cx="676.612" cy="85.341" r="5" fill="#f28c28" stroke="#111" stroke-width="1"/>
<circle cx="657.129" cy="103.200" r="5" fill="#f28c28" stroke="#111" stroke-width="1"/>
<circle cx="657.129" cy="122.682" r="5" fill="#f28c28" stroke="#111" stroke-width="1"/>
<circle cx="733.435" cy="75.600" r="5" fill="#f28c28" stroke="#111" stroke-width="1"/>
<circle cx="733.435" cy="95.082" r="5" fill="#f28c28" stroke="#111" stroke-width="1"/>
<circle cx="752.918" cy="75.600" r="5" fill="#f28c28" stroke="#111" stroke-width="1"/>
<circle cx="752.918" cy="95.082" r="5" fill="#f28c28" stroke="#111" stroke-width="1"/>
<circle cx="752.918" cy="112.941" r="5" fill="#f28c28" stroke="#111" stroke-width="1"/>
<circle cx="733.435" cy="112.941" r="5" fill="#f28c28" stroke="#111" stroke-width="1"/>
<circle cx="715.576" cy="112.941" r="5" fill="#f28c28" stroke="#111" stroke-width="1"/>
<circle cx="770.776" cy="125.929" r="5" fill="#f28c28" stroke="#111" stroke-width="1"/>
<circle cx="770.776" cy="108.071" r="5" fill="#f28c28" stroke="#111" stroke-width="1"/>
<circle cx="770.776" cy="88.588" r="5" fill="#f28c28" stroke="#111" stroke-width="1"/>
<circle cx="770.776" cy="69.106" r="5" fill="#f28c28" stroke="#111" stroke-width="1"/>
<circle cx="653.882" cy="77.224" r="5" fill="#f28c28" stroke="#111" stroke-width="1"/>
<circle cx="762.659" cy="117.000" r="5" fill="#f28c28" stroke="#111" stroke-width="1"/>
<circle cx="762.253" cy="80.471" r="5" fill="#f28c28" stroke="#111" stroke-width="1"/>
<circle cx="743.988" cy="106.041" r="5" fill="#f28c28" stroke="#111" stroke-width="1"/>
<circle cx="743.582" cy="83.515" r="5" fill="#f28c28" stroke="#111" stroke-width="1"/>
<circle cx="666.465" cy="115.174" r="5" fill="#f28c28" stroke="#111" stroke-width="1"/>
<circle cx="665.247" cy="89.400" r="5" fill="#f28c28" stroke="#111" stroke-width="1"/>
<circle cx="687.571" cy="95.082" r="5" fill="#f28c28" stroke="#111" stroke-width="1"/>
<circle cx="955.859" cy="762.353" r="5" fill="#3d8bff" stroke="#111" stroke-width="1"/>
<circle cx="936.376" cy="762.353" r="5" fill="#3d8bff" stroke="#111" stroke-width="1"/>
<circle cx="916.894" cy="762.353" r="5" fill="#3d8bff" stroke="#111" stroke-width="1"/>
<circle cx="897.412" cy="762.353" r="5" fill="#3d8bff" stroke="#111" stroke-width="1"/>
<circle cx="897.412" cy="746.118" r="5" fill="#3d8bff" stroke="#111" stroke-width="1"/>
<circle cx="916.894" cy="746.118" r="5" fill="#3d8bff" stroke="#111" stroke-width="1"/>
<circle cx="936.376" cy="746.118" r="5" fill="#3d8bff" stroke="#111" stroke-width="1"/>
<circle cx="955.859" cy="746.118" r="5" fill="#3d8bff" stroke="#111" stroke-width="1"/>
<circle cx="955.859" cy="729.882" r="5" fill="#3d8bff" stroke="#111" stroke-width="1"/>
<circle cx="936.376" cy="729.882" r="5" fill="#3d8bff" stroke="#111" stroke-width="1"/>
<circle cx="916.894" cy="729.882" r="5" fill="#3d8bff" stroke="#111" stroke-width="1"/>
<circle cx="897.412" cy="729.882" r="5" fill="#3d8bff" stroke="#111" stroke-width="1"/>
<circle cx="897.412" cy="697.412" r="5" fill="#3d8bff" stroke="#111" stroke-width="1"/>
<circle cx="916.894" cy="697.412" r="5" fill="#3d8bff" stroke="#111" stroke-width="1"/>
<circle cx="936.376" cy="697.412" r="5" fill="#3d8bff" stroke="#111" stroke-width="1"/>
<circle cx="955.859" cy="697.412" r="5" fill="#3d8bff" stroke="#111" stroke-width="1"/>
<circle cx="897.412" cy="713.647" r="5" fill="#3d8bff" stroke="#111" stroke-width="1"/>
<circle cx="916.894" cy="713.647" r="5" fill="#3d8bff" stroke="#111" stroke-width="1"/>
<circle cx="936.376" cy="713.647" r="5" fill="#3d8bff" stroke="#111" stroke-width="1"/>
<circle cx="955.859" cy="713.647" r="5" fill="#3d8bff" stroke="#111" stroke-width="1"/>
<circle cx="906.341" cy="754.844" r="5" fill="#3d8bff" stroke="#111" stroke-width="1"/>
<circle cx="926.432" cy="738.609" r="5" fill="#3d8bff" stroke="#111" stroke-width="1"/>
<circle cx="947.538" cy="722.374" r="5" fill="#3d8bff" stroke="#111" stroke-width="1"/>
<circle cx="905.732" cy="722.982" r="5" fill="#3d8bff" stroke="#111" stroke-width="1"/>
<circle cx="925.621" cy="754.641" r="5" fill="#3d8bff" stroke="#111" stroke-width="1"/>
<circle cx="946.118" cy="737.797" r="5" fill="#3d8bff" stroke="#111" stroke-width="1"/>
<circle cx="696.094" cy="108.071" r="8" fill="none" stroke="#111111" stroke-width="2"/>
<g font-family="monospace" font-size="13">
<rect x="16" y="13" width="12" height="12" fill="#8ba0b4"/>
<text x="34" y="24" fill="#eef3f8">floor</text>
<rect x="16" y="33" width="12" height="12" fill="#0d6b54"/>
<text x="34" y="44" fill="#eef3f8">wall</text>
<rect x="16" y="53" width="12" height="12" fill="#2f8f4e"/>
<text x="34" y="64" fill="#eef3f8">crate</text>
<rect x="16" y="73" width="12" height="12" fill="#41a064"/>
<text x="34" y="84" fill="#eef3f8">pillar</text>
<rect x="16" y="93" width="12" height="12" fill="#f28c28"/>
<text x="34" y="104" fill="#eef3f8">T</text>
<rect x="16" y="113" width="12" height="12" fill="#3d8bff"/>
<text x="34" y="124" fill="#eef3f8">CT</text>
</g>
</svg>
